<svg viewBox="0 0 50 50" xmlns="http://www.w3.org/2000/svg">
<g clip-path="url(#clip0)">
<path d="M46.2192 7.06993C46.6169 6.69168 46.9345 6.23847 47.1533 5.73686C47.3722 5.23526 47.4879 4.69535 47.4936 4.14881C47.4993 3.60227 47.395 3.06009 47.1868 2.55407C46.9785 2.04804 46.6705 1.58836 46.2808 1.20196C45.8912 0.815565 45.4276 0.510238 44.9174 0.303882C44.4072 0.0975266 43.8606 -0.00570409 43.3097 0.000243091C42.7587 0.00619027 42.2145 0.121196 41.709 0.338516C41.2034 0.555836 40.7467 0.871097 40.3656 1.26581L38.7465 2.87194C35.277 0.698547 31.1645 -0.237343 27.087 0.218518C23.0094 0.67438 19.2101 2.49479 16.3153 5.37969L8.74459 12.8925H1.32494C0.973543 12.8925 0.63654 13.0309 0.388066 13.2774C0.139592 13.5239 0 13.8582 0 14.2068C0.0236528 22.1287 3.19528 29.7219 8.82674 35.3387L10.1225 36.6242C9.41102 37.5255 8.89579 38.5635 8.60941 39.6725C8.32304 40.7816 8.27175 41.9375 8.45879 43.0672C8.64583 44.1968 9.06714 45.2757 9.69607 46.2356C10.325 47.1955 11.1479 48.0155 12.1126 48.6438C13.0774 49.272 14.1631 49.6948 15.301 49.8855C16.439 50.0761 17.6044 50.0305 18.7236 49.7515C19.8429 49.4724 20.8916 48.966 21.8034 48.2643C22.7153 47.5626 23.4704 46.6808 24.0211 45.6747C26.9765 46.6218 30.0627 47.1061 33.1685 47.11C33.5199 47.11 33.8569 46.9715 34.1054 46.725C34.3539 46.4785 34.4934 46.1442 34.4934 45.7956V38.4458L42.0668 30.9331C43.7614 29.2624 45.1031 27.2731 46.0131 25.0817C46.9231 22.8903 47.3832 20.5408 47.3666 18.1708C47.3794 14.8049 46.4163 11.5063 44.5921 8.66817L46.2192 7.06993ZM44.3457 3.12692C44.4857 3.26452 44.5969 3.42829 44.6728 3.60877C44.7486 3.78925 44.7877 3.98285 44.7877 4.17839C44.7877 4.37393 44.7486 4.56753 44.6728 4.74801C44.5969 4.92848 44.4857 5.09226 44.3457 5.22986L43.0764 6.489C42.7505 6.10258 42.4139 5.73457 42.0721 5.39547C41.7303 5.05637 41.354 4.7199 40.9697 4.40183L42.239 3.14269C42.5162 2.86365 42.8936 2.70503 43.2885 2.70158C43.6834 2.69813 44.0636 2.85014 44.3457 3.12429V3.12692ZM16.6916 47.3833C15.6477 47.3842 14.6237 47.1009 13.7309 46.5644C12.8381 46.0278 12.1108 45.2586 11.6282 44.3404C11.1456 43.4222 10.9261 42.3903 10.9938 41.357C11.0615 40.3236 11.4136 39.3285 12.0119 38.48C14.7315 41.1379 17.9391 43.2545 21.4614 44.7152C20.9605 45.5255 20.2596 46.1957 19.425 46.6625C18.5905 47.1294 17.6497 47.3774 16.6916 47.3833ZM44.7352 18.1761C44.7492 20.2005 44.3551 22.2073 43.576 24.0785C42.797 25.9496 41.6487 27.6474 40.1986 29.072L32.249 36.958C32.1256 37.0801 32.0276 37.2251 31.9608 37.3848C31.8939 37.5445 31.8595 37.7157 31.8595 37.8886V44.4392C29.0932 44.3151 26.3627 43.7689 23.7641 42.82C19.9983 41.4635 16.5802 39.3005 13.7529 36.4848L10.7055 33.4803C5.89235 28.6791 3.03674 22.2834 2.68698 15.5211H9.29312C9.64422 15.5204 9.98065 15.3814 10.2285 15.1347L18.1782 7.24868C20.7727 4.65376 24.2162 3.06338 27.8882 2.76408C31.5602 2.46479 35.2192 3.47627 38.2059 5.61628C38.9132 6.1023 39.5764 6.6485 40.188 7.24868C40.7985 7.86315 41.3552 8.52797 41.8522 9.23596C43.7459 11.835 44.7524 14.9667 44.7246 18.1735L44.7352 18.1761Z"/>
</g>
<defs>
<clipPath id="clip0">
<rect width="50" height="50" fill="white"/>
</clipPath>
</defs>
</svg>
