<svg viewBox="0 0 50 50" xmlns="http://www.w3.org/2000/svg">
<path d="M38.9318 32.9545C36.2045 32.9545 33.7614 34.2614 32.2273 36.25L18.4205 28.2386C18.8182 27.2727 19.0455 26.1364 19.0455 25C19.0455 23.8636 18.8182 22.7273 18.4205 21.7614L32.2273 13.75C33.8182 15.7386 36.2045 17.0455 38.9318 17.0455C43.6477 17.0455 47.4545 13.2386 47.4545 8.52273C47.4545 3.80682 43.6477 0 38.9318 0C34.2159 0 30.4091 3.80682 30.4091 8.52273C30.4091 9.65909 30.6364 10.7955 31.0341 11.7614L17.2273 19.7727C15.6364 17.7841 13.25 16.4773 10.5227 16.4773C5.80682 16.4773 2 20.2841 2 25C2 29.7159 5.80682 33.5227 10.5227 33.5227C13.25 33.5227 15.6932 32.2159 17.2273 30.2273L31.0341 38.2386C30.6364 39.2045 30.4091 40.3409 30.4091 41.4773C30.4091 46.1932 34.2159 50 38.9318 50C43.6477 50 47.4545 46.1932 47.4545 41.4773C47.4545 36.7614 43.6477 32.9545 38.9318 32.9545ZM38.9318 2.27273C42.3977 2.27273 45.1818 5.05682 45.1818 8.52273C45.1818 11.9886 42.3977 14.7727 38.9318 14.7727C35.4659 14.7727 32.6818 11.9886 32.6818 8.52273C32.6818 5.05682 35.4659 2.27273 38.9318 2.27273ZM10.5227 31.25C7.05682 31.25 4.27273 28.4659 4.27273 25C4.27273 21.5341 7.05682 18.75 10.5227 18.75C13.9886 18.75 16.7727 21.5341 16.7727 25C16.7727 28.4659 13.9886 31.25 10.5227 31.25ZM38.9318 47.7273C35.4659 47.7273 32.6818 44.9432 32.6818 41.4773C32.6818 38.0114 35.4659 35.2273 38.9318 35.2273C42.3977 35.2273 45.1818 38.0114 45.1818 41.4773C45.1818 44.9432 42.3977 47.7273 38.9318 47.7273Z"/>
</svg>
