<svg viewBox="0 0 50 50" xmlns="http://www.w3.org/2000/svg">
<g clip-path="url(#clip0)">
<path d="M28.7545 25.0002L49.0093 4.6196C50.0944 3.53263 50.0944 1.81161 49.0093 0.815223C47.9242 -0.271741 46.2062 -0.271741 45.2115 0.815223L24.9568 21.1958L4.61157 0.815223C3.5265 -0.271741 1.80846 -0.271741 0.813807 0.815223C-0.271269 1.90219 -0.271269 3.62321 0.813807 4.6196L21.0686 25.0002L0.813807 45.3807C-0.271269 46.4677 -0.271269 48.1887 0.813807 49.1851C1.35635 49.7286 2.07973 50.0003 2.71269 50.0003C3.34565 50.0003 4.06904 49.7286 4.61157 49.1851L24.9568 28.8045L45.3019 49.1851C45.8445 49.7286 46.5679 50.0003 47.2008 50.0003C47.8338 50.0003 48.5572 49.7286 49.0997 49.1851C50.1848 48.0981 50.1848 46.3771 49.0997 45.3807L28.7545 25.0002Z"/>
</g>
<defs>
<clipPath id="clip0">
<rect width="50" height="50" fill="white"/>
</clipPath>
</defs>
</svg>
