<svg viewBox="0 0 50 50" xmlns="http://www.w3.org/2000/svg">
<path d="M19.3413 25C19.3413 28.1814 21.9291 30.7692 25.1105 30.7692C28.292 30.7692 30.8798 28.1814 30.8798 25C30.8798 21.8186 28.292 19.2308 25.1105 19.2308C21.9291 19.2308 19.3413 21.8186 19.3413 25Z"/>
<path d="M19.3413 44.2307C19.3413 47.4122 21.9291 50 25.1105 50C28.292 50 30.8798 47.4122 30.8798 44.2307C30.8798 41.0493 28.292 38.4615 25.1105 38.4615C21.9291 38.4615 19.3413 41.0493 19.3413 44.2307Z"/>
<path d="M19.3413 5.76923C19.3413 8.95064 21.9291 11.5385 25.1105 11.5385C28.292 11.5385 30.8798 8.95064 30.8798 5.76923C30.8798 2.58782 28.292 0 25.1105 0C21.9291 0 19.3413 2.58782 19.3413 5.76923Z"/>
</svg>
