<svg viewBox="0 0 50 50" xmlns="http://www.w3.org/2000/svg">
<path d="M38.2814 0.00751718C38.0083 0.0370391 37.7532 0.157875 37.5573 0.350453L0.362079 37.54C0.246261 37.6545 0.154555 37.791 0.0923734 37.9416C0.0301922 38.0921 -0.00120459 38.2535 3.53436e-05 38.4164V48.7807C6.76814e-05 49.104 0.128562 49.4142 0.357259 49.6428C0.585956 49.8715 0.896126 50 1.21955 50H11.5854C11.9079 49.9974 12.2162 49.8673 12.4429 49.638L49.6382 12.4485C49.7528 12.3351 49.8438 12.2001 49.9059 12.0513C49.968 11.9025 50 11.7428 50 11.5816C50 11.4204 49.968 11.2607 49.9059 11.1119C49.8438 10.9632 49.7528 10.8281 49.6382 10.7147L39.2723 0.350453C39.143 0.223218 38.987 0.126412 38.8156 0.0670867C38.6442 0.00776144 38.4617 -0.012589 38.2814 0.00751718ZM38.4148 2.94153L47.0657 11.5911L40.8538 17.783L32.2029 9.15248L38.4148 2.94153ZM30.4879 10.8672L39.1389 19.5168L11.071 47.5613H2.43907V38.9117L30.4879 10.8672Z"/>
</svg>
