<svg viewBox="0 0 600 418" xmlns="http://www.w3.org/2000/svg">
<g clip-path="url(#clip001)">
<path d="M113.829 90.212C132.754 90.212 148.096 74.8771 148.096 55.9604C148.096 37.0437 132.754 21.7087 113.829 21.7087C94.9032 21.7087 79.561 37.0437 79.561 55.9604C79.561 74.8771 94.9032 90.212 113.829 90.212Z" fill="#0A3DFA"/>
<path d="M280.553 184.469C280.553 265.288 232.485 293.507 173.191 293.507C113.896 293.507 65.8286 265.288 65.8286 184.469C65.8286 103.651 173.191 0.83667 173.191 0.83667C173.191 0.83667 280.553 103.651 280.553 184.469Z" fill="white"/>
<path d="M169.28 281.144L170.38 213.506L216.14 129.828L170.552 202.896L171.046 172.483L202.584 111.943L171.177 164.435L172.066 109.736L205.837 61.5386L172.206 101.135L172.761 0.83667L169.27 133.613L169.557 128.136L135.222 75.6037L169.007 138.65L165.808 199.739L165.712 198.118L126.129 142.836L165.592 203.846L165.192 211.486L165.121 211.601L165.153 212.228L157.037 367.216H167.881L169.182 287.162L208.548 226.301L169.28 281.144Z" fill="#172A59"/>
<path d="M600 217.57C600 283.724 560.654 306.823 512.119 306.823C463.584 306.823 424.238 283.724 424.238 217.57C424.238 151.416 512.119 67.2582 512.119 67.2582C512.119 67.2582 600 151.416 600 217.57Z" fill="white"/>
<path d="M508.918 296.703L509.817 241.338L547.274 172.844L509.958 232.653L510.363 207.759L536.178 158.204L510.47 201.171L511.198 156.397L538.841 116.945L511.312 149.357L511.767 67.2581L508.909 175.942L509.145 171.459L481.039 128.458L508.694 180.065L506.075 230.07L505.997 228.742L473.596 183.491L505.899 233.431L505.571 239.685L505.513 239.779L505.539 240.292L498.895 367.157H507.772L508.837 301.629L541.061 251.811L508.918 296.703Z" fill="#172A59"/>
<path d="M296.946 380.02C460.945 380.02 593.892 373.303 593.892 365.017C593.892 356.73 460.945 350.013 296.946 350.013C132.947 350.013 0 356.73 0 365.017C0 373.303 132.947 380.02 296.946 380.02Z" fill="#172A59"/>
<path d="M477.843 392.375C505.932 392.375 528.703 391.224 528.703 389.805C528.703 388.386 505.932 387.235 477.843 387.235C449.754 387.235 426.983 388.386 426.983 389.805C426.983 391.224 449.754 392.375 477.843 392.375Z" fill="#172A59"/>
<path d="M293.802 417.163C321.891 417.163 344.662 416.013 344.662 414.594C344.662 413.174 321.891 412.024 293.802 412.024C265.713 412.024 242.942 413.174 242.942 414.594C242.942 416.013 265.713 417.163 293.802 417.163Z" fill="#172A59"/>
<path d="M154.174 399.68C218.348 399.68 270.371 397.052 270.371 393.809C270.371 390.567 218.348 387.938 154.174 387.938C90.0009 387.938 37.978 390.567 37.978 393.809C37.978 397.052 90.0009 399.68 154.174 399.68Z" fill="#172A59"/>
<path d="M51.9817 346.174C75.3428 346.174 94.2807 327.244 94.2807 303.894C94.2807 280.544 75.3428 261.615 51.9817 261.615C28.6205 261.615 9.68262 280.544 9.68262 303.894C9.68262 327.244 28.6205 346.174 51.9817 346.174Z" fill="#172A59"/>
<path d="M45.1659 336.997L32.3164 336.846L32.0451 359.857L44.8946 360.009L45.1659 336.997Z" fill="#172A59"/>
<path d="M70.8646 337.3L58.0151 337.149L57.7439 360.16L70.5933 360.311L70.8646 337.3Z" fill="#172A59"/>
<path d="M53.4577 360.377C53.4838 358.16 48.7109 356.307 42.7971 356.237C36.8833 356.168 32.0681 357.908 32.0419 360.125C32.0158 362.341 36.7887 364.195 42.7025 364.265C48.6163 364.334 53.4316 362.594 53.4577 360.377Z" fill="#172A59"/>
<path d="M79.1628 360.145C79.1889 357.928 74.416 356.075 68.5022 356.005C62.5884 355.935 57.7732 357.676 57.747 359.892C57.7209 362.109 62.4938 363.962 68.4076 364.032C74.3214 364.102 79.1366 362.361 79.1628 360.145Z" fill="#172A59"/>
<path d="M53.1788 307.654C61.163 307.654 67.6355 301.184 67.6355 293.204C67.6355 285.223 61.163 278.754 53.1788 278.754C45.1946 278.754 38.7222 285.223 38.7222 293.204C38.7222 301.184 45.1946 307.654 53.1788 307.654Z" fill="white"/>
<path d="M53.1787 298.02C55.8401 298.02 57.9976 295.864 57.9976 293.204C57.9976 290.544 55.8401 288.387 53.1787 288.387C50.5173 288.387 48.3599 290.544 48.3599 293.204C48.3599 295.864 50.5173 298.02 53.1787 298.02Z" fill="#172A59"/>
<path d="M11.4164 264.095C8.18141 248.767 19.2806 233.448 36.2071 229.879C53.1337 226.31 69.4778 235.842 72.7128 251.17C75.9478 266.498 64.693 272.005 47.7664 275.574C30.8399 279.143 14.6514 279.423 11.4164 264.095Z" fill="#A0DC78"/>
<path d="M116.506 327.481C116.506 356.956 98.9761 367.248 77.3499 367.248C76.8489 367.248 76.3487 367.243 75.8494 367.231C74.8474 367.21 73.8549 367.162 72.8744 367.095C53.3572 365.715 38.1938 354.894 38.1938 327.481C38.1938 299.112 74.4633 263.314 77.1877 260.665L77.1925 260.66C77.2974 260.558 77.3499 260.508 77.3499 260.508C77.3499 260.508 116.506 298.005 116.506 327.481Z" fill="#A0DC78"/>
<path d="M75.9229 362.739L90.2441 342.737L75.8871 364.935L75.849 367.231C74.847 367.21 73.8545 367.162 72.874 367.095L74.4175 337.606L74.4056 337.377L74.4318 337.334L74.5774 334.549L60.1846 312.296L74.6227 332.46L74.6561 333.051L75.8227 310.77L63.5007 287.775L75.973 306.859L77.1873 260.665L77.1921 260.508V260.66L76.9893 297.087L89.2564 282.646L76.9392 300.225L76.6147 320.174L88.0684 301.029L76.567 323.11L76.3857 334.2L93.0139 307.553L76.3237 338.071L75.9229 362.739Z" fill="#172A59"/>
<path d="M381.487 345.716C404.848 345.716 423.786 326.787 423.786 303.437C423.786 280.087 404.848 261.157 381.487 261.157C358.125 261.157 339.188 280.087 339.188 303.437C339.188 326.787 358.125 345.716 381.487 345.716Z" fill="#172A59"/>
<path d="M385.097 337.04L372.813 340.814L379.577 362.811L391.86 359.038L385.097 337.04Z" fill="#172A59"/>
<path d="M409.663 329.497L397.379 333.27L404.143 355.268L416.426 351.494L409.663 329.497Z" fill="#172A59"/>
<path d="M391.072 363.759C396.725 362.023 400.78 358.897 400.128 356.778C399.476 354.659 394.365 354.349 388.712 356.086C383.059 357.822 379.004 360.948 379.656 363.067C380.307 365.186 385.418 365.496 391.072 363.759Z" fill="#172A59"/>
<path d="M415.481 355.701C421.135 353.965 425.189 350.839 424.538 348.72C423.886 346.601 418.775 346.291 413.122 348.028C407.469 349.764 403.414 352.89 404.065 355.009C404.717 357.128 409.828 357.438 415.481 355.701Z" fill="#172A59"/>
<path d="M379.364 307.341C387.349 307.341 393.821 300.871 393.821 292.891C393.821 284.91 387.349 278.441 379.364 278.441C371.38 278.441 364.908 284.91 364.908 292.891C364.908 300.871 371.38 307.341 379.364 307.341Z" fill="white"/>
<path d="M379.365 297.708C382.026 297.708 384.184 295.551 384.184 292.891C384.184 290.231 382.026 288.074 379.365 288.074C376.703 288.074 374.546 290.231 374.546 292.891C374.546 295.551 376.703 297.708 379.365 297.708Z" fill="#172A59"/>
<path d="M330.71 277.901C322.952 264.29 328.847 246.317 343.878 237.757C358.909 229.198 377.383 233.294 385.142 246.905C392.9 260.516 383.861 269.192 368.831 277.751C353.8 286.31 338.468 291.512 330.71 277.901Z" fill="#A0DC78"/>
<path d="M306.049 322.083C306.049 349.141 289.957 358.588 270.105 358.588C269.645 358.588 269.186 358.583 268.728 358.573C267.808 358.553 266.897 358.509 265.997 358.448C248.081 357.18 234.162 347.247 234.162 322.083C234.162 296.042 267.455 263.182 269.956 260.75L269.961 260.745C270.057 260.651 270.105 260.605 270.105 260.605C270.105 260.605 306.049 295.026 306.049 322.083Z" fill="#A0DC78"/>
<path d="M268.795 354.449L281.941 336.088L268.762 356.465L268.727 358.573C267.808 358.553 266.896 358.509 265.996 358.448L267.413 331.377L267.402 331.167L267.426 331.128L267.56 328.571L254.348 308.144L267.602 326.654L267.632 327.197L268.703 306.743L257.392 285.636L268.841 303.153L269.956 260.75L269.96 260.605V260.745L269.774 294.183L281.035 280.927L269.728 297.064L269.43 315.376L279.944 297.802L269.386 318.071L269.22 328.252L284.484 303.79L269.163 331.804L268.795 354.449Z" fill="#172A59"/>
<path d="M447.402 333.368C447.402 362.843 429.873 373.135 408.246 373.135C407.745 373.135 407.245 373.129 406.746 373.118C405.744 373.097 404.751 373.049 403.771 372.982C384.254 371.602 369.09 360.781 369.09 333.368C369.09 304.998 405.36 269.201 408.084 266.552L408.089 266.547C408.194 266.445 408.246 266.395 408.246 266.395C408.246 266.395 447.402 303.892 447.402 333.368Z" fill="#A0DC78"/>
<path d="M406.819 368.626L421.141 348.624L406.784 370.822L406.745 373.118C405.743 373.097 404.751 373.049 403.77 372.982L405.314 343.493L405.302 343.264L405.328 343.221L405.474 340.436L391.081 318.183L405.519 338.347L405.553 338.938L406.719 316.657L394.397 293.662L406.869 312.746L408.084 266.552L408.089 266.395V266.548L407.886 302.974L420.153 288.533L407.836 306.112L407.511 326.061L418.965 306.916L407.463 328.997L407.282 340.087L423.91 313.44L407.22 343.958L406.819 368.626Z" fill="#172A59"/>
<path d="M384.173 328.746C385.744 325.435 378.463 318.694 367.909 313.691C357.355 308.688 347.526 307.317 345.955 310.628C344.383 313.94 351.665 320.68 362.219 325.684C372.772 330.687 382.602 332.058 384.173 328.746Z" fill="#172A59"/>
<path d="M58.6176 324.876C59.9818 321.474 52.2985 315.195 41.4564 310.852C30.6144 306.508 20.7192 305.745 19.3549 309.147C17.9907 312.549 25.674 318.828 36.5161 323.172C47.3582 327.515 57.2533 328.278 58.6176 324.876Z" fill="#172A59"/>
</g>
<defs>
<clipPath id="clip001">
<rect width="600" height="416.327" fill="white" transform="translate(0 0.83667)"/>
</clipPath>
</defs>
</svg>
