<svg viewBox="0 0 50 50" xmlns="http://www.w3.org/2000/svg">
<g clip-path="url(#clip0)">
<path d="M34.4546 6.71641C34.4546 7.71879 35.2608 8.53129 36.2546 8.53129C37.242 8.53129 38.0461 7.71879 38.0461 6.71641C38.0461 5.7151 37.2409 4.89941 36.2546 4.89941C35.2608 4.89941 34.4546 5.71404 34.4546 6.71641Z" fill="#172A59"/>
<path d="M42.3538 14.6198C42.3538 15.6179 43.16 16.4347 44.1495 16.4347C45.139 16.4347 45.9485 15.6179 45.9485 14.6198C45.9485 13.6174 45.139 12.8017 44.1495 12.8017C43.16 12.8017 42.3538 13.6174 42.3538 14.6198Z" fill="#172A59"/>
<path d="M47.1117 27.4247C48.1848 27.4247 49.0547 26.5442 49.0547 25.4581C49.0547 24.372 48.1848 23.4916 47.1117 23.4916C46.0386 23.4916 45.1687 24.372 45.1687 25.4581C45.1687 26.5442 46.0386 27.4247 47.1117 27.4247Z" fill="#172A59"/>
<path d="M44.1507 38.6651C45.4297 38.6651 46.4666 37.6155 46.4666 36.3209C46.4666 35.0262 45.4297 33.9767 44.1507 33.9767C42.8716 33.9767 41.8347 35.0262 41.8347 36.3209C41.8347 37.6155 42.8716 38.6651 44.1507 38.6651Z" fill="#172A59"/>
<path d="M33.9375 44.3218C33.9375 45.6148 34.9747 46.6692 36.2556 46.6692C37.5322 46.6692 38.5694 45.6148 38.5694 44.3218C38.5694 43.0288 37.5322 41.9777 36.2556 41.9777C34.9736 41.9777 33.9375 43.0288 33.9375 44.3218Z" fill="#172A59"/>
<path d="M22.97 47.4C22.97 48.8352 24.1226 50.0009 25.5434 50.0009C26.9598 50.0009 28.1125 48.8341 28.1125 47.4C28.1125 45.9628 26.9598 44.8002 25.5434 44.8002C24.1216 44.8002 22.97 45.9628 22.97 47.4Z" fill="#172A59"/>
<path d="M14.7997 46.9259C16.2192 46.9259 17.3699 45.76 17.3699 44.3218C17.3699 42.8836 16.2192 41.7178 14.7997 41.7178C13.3802 41.7178 12.2295 42.8836 12.2295 44.3218C12.2295 45.76 13.3802 46.9259 14.7997 46.9259Z" fill="#172A59"/>
<path d="M3.88086 36.3209C3.88086 37.9597 5.19563 39.2877 6.81022 39.2877C8.43011 39.2877 9.74275 37.9597 9.74275 36.3209C9.74275 34.6884 8.43011 33.3604 6.81022 33.3604C5.19563 33.3604 3.88086 34.6884 3.88086 36.3209Z" fill="#172A59"/>
<path d="M0.95166 25.4581C0.95166 27.0938 2.26431 28.4218 3.88102 28.4218C5.50091 28.4218 6.81038 27.0938 6.81038 25.4581C6.81038 23.8183 5.50091 22.4945 3.88102 22.4945C2.26431 22.4945 0.95166 23.8183 0.95166 25.4581Z" fill="#172A59"/>
<path d="M3.43384 14.6198C3.43384 16.5057 4.9446 18.0353 6.81028 18.0353C8.67808 18.0353 10.192 16.5068 10.192 14.6198C10.192 12.7307 8.67808 11.1979 6.81028 11.1979C4.9446 11.1979 3.43384 12.7307 3.43384 14.6198Z" fill="#172A59"/>
<path d="M11.4211 6.71643C11.4211 8.60556 12.933 10.1362 14.7997 10.1362C16.6643 10.1362 18.1804 8.60662 18.1804 6.71643C18.1804 4.83367 16.6633 3.29776 14.7997 3.29776C12.933 3.29776 11.4211 4.83261 11.4211 6.71643Z" fill="#172A59"/>
<path d="M21.8621 3.72098C21.8621 5.77452 23.5106 7.43983 25.5426 7.43983C27.5703 7.43983 29.2167 5.77452 29.2167 3.72098C29.2167 1.66532 27.5693 0 25.5426 0C23.5106 0.00106071 21.8621 1.66532 21.8621 3.72098Z" fill="#172A59"/>
</g>
<defs>
<clipPath id="clip0">
<rect width="50" height="50" fill="white"/>
</clipPath>
</defs>
</svg>
