<svg viewBox="0 0 50 50" xmlns="http://www.w3.org/2000/svg">
<path d="M10.0741 40.5683C13.9231 44.1978 19.1122 46.4283 24.8259 46.4283C36.6906 46.4283 46.308 36.8333 46.308 25C46.308 13.165 36.6901 3.57111 24.8259 3.57111C19.0253 3.57111 13.7672 5.86833 9.90141 9.59445L7.42188 7.03556C11.9343 2.68444 18.0702 0 24.8254 0C38.6444 0 49.888 11.2156 49.888 25C49.888 38.7856 38.6444 50 24.8254 50C18.1682 50 12.1136 47.3933 7.62182 43.155L10.0741 40.5683Z"/>
<path d="M0.0150439 24.9989L0.0011215 24.9855L8.396 16.6105L10.9284 19.1366L6.83988 23.2144H31.5762V26.7855H6.83988L10.9284 30.8639L8.396 33.3894L8.2154e-06 25.0139L0.0150439 24.9989Z"/>
</svg>
