<svg width="51" height="51" viewBox="0 0 51 51" fill="none" xmlns="http://www.w3.org/2000/svg">
<g clip-path="url(#clip0)">
<path d="M50.4886 24.6421H0.5V26.3582H50.4886V24.6421Z" fill="white"/>
<path d="M35.0415 24.4739L50.1763 21.4626L49.8416 19.7798L34.7069 22.7911L35.0415 24.4739Z" fill="white"/>
<path d="M34.6578 22.6315L48.9146 16.7247L48.2581 15.1395L34.0014 21.0463L34.6578 22.6315Z" fill="white"/>
<path d="M33.9218 20.8987L46.7529 12.3231L45.8001 10.8967L32.9689 19.4724L33.9218 20.8987Z" fill="white"/>
<path d="M32.8649 19.3433L43.7751 8.4306L42.5622 7.21737L31.6519 18.1301L32.8649 19.3433Z" fill="white"/>
<path d="M31.5198 18.0234L40.0933 5.18964L38.6669 4.23634L30.0934 17.0701L31.5198 18.0234Z" fill="white"/>
<path d="M29.9458 16.9896L35.8511 2.72998L34.2662 2.07335L28.3609 16.333L29.9458 16.9896Z" fill="white"/>
<path d="M28.2008 16.2847L31.2097 1.14728L29.5276 0.812771L26.5187 15.9502L28.2008 16.2847Z" fill="white"/>
<path d="M26.3522 0.5H24.6365V15.9331H26.3522V0.5Z" fill="white"/>
<path d="M22.7906 16.2821L24.4727 15.9474L21.4621 0.809579L19.78 1.14426L22.7906 16.2821Z" fill="white"/>
<path d="M21.0472 16.9888L22.6316 16.3321L16.7247 2.07403L15.1404 2.73069L21.0472 16.9888Z" fill="white"/>
<path d="M19.4706 18.0236L20.897 17.0705L12.3251 4.23671L10.8987 5.18983L19.4706 18.0236Z" fill="white"/>
<path d="M18.1247 19.3415L19.3376 18.1282L8.42766 7.21577L7.21471 8.42901L18.1247 19.3415Z" fill="white"/>
<path d="M17.066 20.897L18.019 19.4703L5.18817 10.8949L4.2351 12.3215L17.066 20.897Z" fill="white"/>
<path d="M16.3322 22.6339L16.9885 21.0486L2.73249 15.1437L2.07618 16.7289L16.3322 22.6339Z" fill="white"/>
<path d="M15.9462 24.4808L16.281 22.798L1.14663 19.7852L0.811787 21.4681L15.9462 24.4808Z" fill="white"/>
<path d="M1.14859 31.218L16.283 28.2068L15.9483 26.5239L0.813912 29.5351L1.14859 31.218Z" fill="white"/>
<path d="M2.73103 35.8583L16.9871 29.9518L16.3306 28.3666L2.07454 34.2731L2.73103 35.8583Z" fill="white"/>
<path d="M5.18744 40.1026L18.0183 31.5272L17.0652 30.1005L4.23436 38.6759L5.18744 40.1026Z" fill="white"/>
<path d="M8.4289 43.783L19.3384 32.8711L18.1254 31.6579L7.21595 42.5698L8.4289 43.783Z" fill="white"/>
<path d="M12.3211 46.7627L20.8945 33.9289L19.4679 32.9754L10.8944 45.8092L12.3211 46.7627Z" fill="white"/>
<path d="M16.7215 48.9263L22.6267 34.667L21.0415 34.0102L15.1364 48.2695L16.7215 48.9263Z" fill="white"/>
<path d="M21.459 50.1836L24.468 35.0458L22.7852 34.7111L19.7762 49.8489L21.459 50.1836Z" fill="white"/>
<path d="M26.3522 35.0672H24.6365V50.5003H26.3522V35.0672Z" fill="white"/>
<path d="M29.5257 50.1903L31.2078 49.8556L28.1972 34.7178L26.5151 35.0525L29.5257 50.1903Z" fill="white"/>
<path d="M34.2629 48.9252L35.8474 48.2685L29.9407 34.0092L28.3562 34.6659L34.2629 48.9252Z" fill="white"/>
<path d="M38.6761 46.7635L40.1025 45.81L31.5291 32.9778L30.1026 33.9312L38.6761 46.7635Z" fill="white"/>
<path d="M42.5619 43.7852L43.7749 42.572L32.8649 31.6595L31.652 32.8727L42.5619 43.7852Z" fill="white"/>
<path d="M45.8059 40.1024L46.7588 38.6757L33.9276 30.1017L32.9747 31.5283L45.8059 40.1024Z" fill="white"/>
</g>
<defs>
<clipPath id="clip0">
<rect width="50" height="50" fill="white" transform="translate(0.5 0.5)"/>
</clipPath>
</defs>
</svg>
