<svg viewBox="0 0 50 50" xmlns="http://www.w3.org/2000/svg">
<g clip-path="url(#clip0)">
<path d="M25.0013 39.9323C23.3104 39.9323 21.6195 39.562 20.3024 38.8268L2.27691 28.7502C0.825937 27.9377 0 26.7437 0 25.4669C0 24.19 0.831517 22.9905 2.27691 22.1835L20.3024 12.1069C22.9365 10.631 27.0662 10.631 29.7058 12.1069L47.7258 22.1835C49.1767 22.9961 50.0027 24.19 50.0027 25.4669C50.0027 26.7437 49.1711 27.9432 47.7258 28.7502L29.7002 38.8268C28.3832 39.562 26.6923 39.9323 25.0013 39.9323ZM25.0013 13.2124C23.6899 13.2124 22.3728 13.4832 21.3962 14.0305L3.3763 24.1071C2.65081 24.5161 2.23226 25.0081 2.23226 25.4669C2.23226 25.9256 2.65081 26.4176 3.3763 26.8266L21.3962 36.9033C23.3495 37.9977 26.6532 37.9977 28.6064 36.9033L46.6264 26.8266C47.3519 26.4176 47.7704 25.9256 47.7704 25.4669C47.7704 25.0081 47.3519 24.5161 46.6264 24.1071L28.6064 14.0305C27.6298 13.4832 26.3128 13.2124 25.0013 13.2124Z"/>
</g>
<defs>
<clipPath id="clip0">
<rect width="50" height="50" fill="white"/>
</clipPath>
</defs>
</svg>
