<svg viewBox="0 0 50 50" xmlns="http://www.w3.org/2000/svg">
<g clip-path="url(#clip0)">
<path d="M37.3735 23.6111H26.2999V12.5C26.2999 12.1316 26.1541 11.7784 25.8945 11.5179C25.6349 11.2574 25.2828 11.1111 24.9157 11.1111C24.5486 11.1111 24.1965 11.2574 23.9369 11.5179C23.6773 11.7784 23.5315 12.1316 23.5315 12.5V23.6111H12.4579C12.0908 23.6111 11.7387 23.7574 11.4792 24.0179C11.2196 24.2784 11.0737 24.6316 11.0737 25C11.0737 25.3684 11.2196 25.7216 11.4792 25.9821C11.7387 26.2426 12.0908 26.3889 12.4579 26.3889H23.5315V37.5C23.5315 37.8684 23.6773 38.2216 23.9369 38.4821C24.1965 38.7426 24.5486 38.8889 24.9157 38.8889C25.2828 38.8889 25.6349 38.7426 25.8945 38.4821C26.1541 38.2216 26.2999 37.8684 26.2999 37.5V26.3889H37.3735C37.7406 26.3889 38.0927 26.2426 38.3522 25.9821C38.6118 25.7216 38.7577 25.3684 38.7577 25C38.7577 24.6316 38.6118 24.2784 38.3522 24.0179C38.0927 23.7574 37.7406 23.6111 37.3735 23.6111Z"/>
<path d="M24.9156 0C19.9877 0 15.1706 1.46622 11.0732 4.21326C6.97588 6.9603 3.78239 10.8648 1.89659 15.4329C0.0107954 20.0011 -0.482615 25.0277 0.478756 29.8773C1.44013 34.7268 3.8131 39.1814 7.2976 42.6777C10.7821 46.174 15.2216 48.555 20.0548 49.5196C24.8879 50.4843 29.8976 49.9892 34.4503 48.097C39.003 46.2048 42.8943 43.0005 45.6321 38.8893C48.3698 34.778 49.8311 29.9445 49.8311 25C49.8234 18.372 47.1959 12.0176 42.525 7.33086C37.8541 2.64412 31.5212 0.00771922 24.9156 0ZM24.9156 47.2222C20.5353 47.2222 16.2533 45.9189 12.6113 43.4771C8.96918 41.0353 6.13052 37.5647 4.45426 33.5041C2.77799 29.4435 2.3394 24.9753 3.19396 20.6647C4.04851 16.354 6.15782 12.3944 9.25515 9.28652C12.3525 6.17868 16.2987 4.06222 20.5949 3.20477C24.891 2.34732 29.344 2.7874 33.3909 4.46934C37.4378 6.15129 40.8967 8.99957 43.3302 12.654C45.7638 16.3084 47.0627 20.6049 47.0627 25C47.0557 30.8916 44.7201 36.5398 40.5683 40.7058C36.4164 44.8717 30.7872 47.2152 24.9156 47.2222Z"/>
</g>
<defs>
<clipPath id="clip0">
<rect width="50" height="50" fill="white"/>
</clipPath>
</defs>
</svg>
