<svg viewBox="0 0 50 50" xmlns="http://www.w3.org/2000/svg">
<path d="M11.1482 10.2403C11.0881 10.18 11.0166 10.1322 10.938 10.0996C10.8593 10.067 10.775 10.0502 10.6899 10.0502C10.6047 10.0502 10.5204 10.067 10.4417 10.0996C10.3631 10.1322 10.2916 10.18 10.2315 10.2403C7.68139 12.7965 6.24927 16.2599 6.24927 19.8706C6.24927 23.4813 7.68139 26.9447 10.2315 29.5009C10.3531 29.6225 10.5179 29.6908 10.6899 29.6908C10.8618 29.6908 11.0266 29.6225 11.1482 29.5009C11.2698 29.3793 11.3381 29.2145 11.3381 29.0425C11.3381 28.8706 11.2698 28.7057 11.1482 28.5842C8.84103 26.2712 7.54536 23.1376 7.54536 19.8706C7.54536 16.6036 8.84103 13.47 11.1482 11.157C11.2085 11.0969 11.2563 11.0254 11.2889 10.9468C11.3215 10.8681 11.3383 10.7838 11.3383 10.6987C11.3383 10.6135 11.3215 10.5292 11.2889 10.4505C11.2563 10.3719 11.2085 10.3004 11.1482 10.2403Z"/>
<path d="M50.3142 45.7275L38.9519 34.3662C38.5057 33.9408 37.9128 33.7034 37.2962 33.7034C36.6796 33.7034 36.0867 33.9408 35.6404 34.3662L35.4622 34.5444L33.6098 32.6931C36.9808 29.0818 38.7983 24.2908 38.6708 19.3523C38.5433 14.4138 36.481 9.72302 32.9282 6.29043C29.3754 2.85785 24.6164 0.958194 19.6764 1.0007C14.7365 1.0432 10.0109 3.02447 6.51767 6.51767C3.02447 10.0109 1.0432 14.7365 1.0007 19.6764C0.958194 24.6164 2.85785 29.3754 6.29043 32.9282C9.72302 36.481 14.4138 38.5433 19.3523 38.6708C24.2908 38.7983 29.0818 36.9808 32.6931 33.6098L34.5449 35.4612L34.3668 35.6393C33.9285 36.079 33.6825 36.6744 33.6825 37.2951C33.6825 37.9158 33.9285 38.5113 34.3668 38.9509L45.727 50.3153C46.1665 50.7538 46.7619 51 47.3827 51C48.0035 51 48.599 50.7538 49.0385 50.3153L50.3106 49.0427C50.7506 48.6036 50.9983 48.0076 50.9989 47.3859C50.9996 46.7641 50.7533 46.1676 50.3142 45.7275ZM2.35826 19.8695C2.35836 16.4064 3.38541 13.021 5.30952 10.1415C7.23363 7.26204 9.96839 5.0178 13.168 3.69257C16.3676 2.36734 19.8883 2.02066 23.2849 2.69635C26.6815 3.37205 29.8015 5.03978 32.2503 7.48865C34.6991 9.93751 36.3667 13.0575 37.0423 16.4542C37.7179 19.8508 37.3711 23.3715 36.0458 26.571C34.7204 29.7706 32.4761 32.5053 29.5966 34.4293C26.717 36.3533 23.3316 37.3803 19.8685 37.3803C15.226 37.3751 10.7751 35.5286 7.49238 32.2458C4.20968 28.963 2.36327 24.512 2.35826 19.8695ZM49.3954 48.1239L48.1234 49.3965C47.9265 49.5915 47.6606 49.7009 47.3835 49.7009C47.1064 49.7009 46.8405 49.5915 46.6437 49.3965L35.2835 38.0352C35.0879 37.8388 34.978 37.5729 34.978 37.2956C34.978 37.0184 35.0879 36.7525 35.2835 36.5561L36.5555 35.2819C36.7516 35.086 37.0174 34.9759 37.2946 34.9759C37.5718 34.9759 37.8376 35.086 38.0336 35.2819L49.3954 46.6442C49.5913 46.8406 49.7013 47.1067 49.7013 47.384C49.7013 47.6614 49.5913 47.9275 49.3954 48.1239Z"/>
</svg>
