<svg viewBox="0 0 50 50" xmlns="http://www.w3.org/2000/svg">
<path d="M45.7028 7.7682H34.7708V0.98868C34.7708 0.437844 34.2765 0 33.7256 0H16.6073C16.0565 0 15.5622 0.437844 15.5622 0.98868V7.7682H4.63018C4.07935 7.7682 3.698 8.1778 3.698 8.71451V16.6946C3.698 17.2454 4.07935 17.655 4.63018 17.655H7.9352V46.1855C7.9352 48.29 9.6442 49.999 11.7487 49.999H38.5843C40.6888 49.999 42.3978 48.29 42.3978 46.1855V17.655H45.7028C46.2536 17.655 46.635 17.2313 46.635 16.6946V8.71451C46.635 8.16367 46.2536 7.7682 45.7028 7.7682ZM17.5395 1.97736H32.7934V7.7682H17.5395V1.97736ZM40.4204 46.1855C40.4204 47.2024 39.5871 48.0216 38.5843 48.0216H11.7487C10.7318 48.0216 9.91256 47.2024 9.91256 46.1855V17.655H40.4204V46.1855ZM44.6576 15.6776H5.67536V9.74556H44.6576V15.6776Z"/>
<path d="M26.1551 24.717H24.1777V40.3947H26.1551V24.717Z"/>
<path d="M32.7935 24.717H30.8162V40.3947H32.7935V24.717Z"/>
<path d="M19.5169 24.717H17.5396V40.3947H19.5169V24.717Z"/>
</svg>
