<svg width="297" height="275" viewBox="0 0 297 275" fill="none" xmlns="http://www.w3.org/2000/svg">
<rect width="257" height="65" transform="translate(20 20)" fill="#FCD228"/>
<g clip-path="url(#clip0)">
<path d="M63.1096 43.535C63.3084 43.3458 63.4672 43.1192 63.5767 42.8684C63.6861 42.6176 63.7439 42.3477 63.7468 42.0744C63.7497 41.8011 63.6975 41.53 63.5934 41.277C63.4893 41.024 63.3353 40.7942 63.1404 40.601C62.9456 40.4078 62.7138 40.2551 62.4587 40.1519C62.2036 40.0488 61.9303 39.9971 61.6548 40.0001C61.3794 40.0031 61.1073 40.0606 60.8545 40.1693C60.6017 40.2779 60.3734 40.4355 60.1828 40.6329L59.3733 41.436C57.6385 40.3493 55.5823 39.8813 53.5435 40.1093C51.5047 40.3372 49.6051 41.2474 48.1576 42.6898L44.3723 46.4462H40.6625C40.4868 46.4462 40.3183 46.5155 40.194 46.6387C40.0698 46.762 40 46.9291 40 47.1034C40.0118 51.0644 41.5976 54.8609 44.4134 57.6694L45.0613 58.3121C44.7055 58.7628 44.4479 59.2818 44.3047 59.8363C44.1615 60.3908 44.1359 60.9687 44.2294 61.5336C44.3229 62.0984 44.5336 62.6379 44.848 63.1178C45.1625 63.5978 45.5739 64.0078 46.0563 64.3219C46.5387 64.636 47.0815 64.8474 47.6505 64.9427C48.2195 65.0381 48.8022 65.0153 49.3618 64.8757C49.9214 64.7362 50.4458 64.483 50.9017 64.1321C51.3576 63.7813 51.7352 63.3404 52.0106 62.8373C53.4883 63.3109 55.0314 63.553 56.5843 63.555C56.76 63.555 56.9285 63.4857 57.0527 63.3625C57.1769 63.2393 57.2467 63.0721 57.2467 62.8978V59.2229L61.0334 55.4665C61.8807 54.6312 62.5515 53.6366 63.0065 52.5409C63.4616 51.4452 63.6916 50.2704 63.6833 49.0854C63.6897 47.4025 63.2082 45.7531 62.2961 44.3341L63.1096 43.535ZM62.1728 41.5635C62.2429 41.6323 62.2985 41.7141 62.3364 41.8044C62.3743 41.8946 62.3939 41.9914 62.3939 42.0892C62.3939 42.187 62.3743 42.2838 62.3364 42.374C62.2985 42.4642 62.2429 42.5461 62.1728 42.6149L61.5382 43.2445C61.3752 43.0513 61.207 42.8673 61.036 42.6977C60.8651 42.5282 60.677 42.3599 60.4849 42.2009L61.1195 41.5713C61.2581 41.4318 61.4468 41.3525 61.6443 41.3508C61.8417 41.3491 62.0318 41.4251 62.1728 41.5621V41.5635ZM48.3458 63.6917C47.8239 63.6921 47.3118 63.5504 46.8654 63.2822C46.419 63.0139 46.0554 62.6293 45.8141 62.1702C45.5728 61.7111 45.4631 61.1951 45.4969 60.6785C45.5307 60.1618 45.7068 59.6643 46.0059 59.24C47.3657 60.569 48.9695 61.6272 50.7307 62.3576C50.4802 62.7627 50.1298 63.0978 49.7125 63.3313C49.2952 63.5647 48.8248 63.6887 48.3458 63.6917ZM62.3676 49.088C62.3746 50.1003 62.1776 51.1037 61.788 52.0392C61.3985 52.9748 60.8243 53.8237 60.0993 54.536L56.1245 58.479C56.0628 58.54 56.0138 58.6125 55.9804 58.6924C55.947 58.7722 55.9298 58.8578 55.9297 58.9443V62.2196C54.5466 62.1575 53.1814 61.8845 51.882 61.41C49.9992 60.7318 48.2901 59.6503 46.8764 58.2424L45.3528 56.7401C42.9462 54.3396 41.5184 51.1417 41.3435 47.7606H44.6466C44.8221 47.7602 44.9903 47.6907 45.1143 47.5674L49.0891 43.6243C50.3864 42.3269 52.1081 41.5317 53.9441 41.382C55.7801 41.2324 57.6096 41.7381 59.103 42.8081C59.4566 43.0511 59.7882 43.3242 60.094 43.6243C60.3992 43.9316 60.6776 44.264 60.9261 44.618C61.873 45.9175 62.3762 47.4833 62.3623 49.0867L62.3676 49.088Z" fill="#172A59"/>
</g>
<path d="M87.8476 56.7457H91.9834V58H86.3052V46.1858H87.8476V56.7457ZM97.6725 58.1526C96.8024 58.1526 96.0114 57.9548 95.2995 57.5593C94.5989 57.1638 94.0452 56.6044 93.6384 55.8812C93.2429 55.1467 93.0452 54.2992 93.0452 53.3387C93.0452 52.3895 93.2486 51.5533 93.6554 50.8301C94.0735 50.0956 94.6385 49.5363 95.3504 49.1521C96.0623 48.7566 96.8589 48.5588 97.7403 48.5588C98.6217 48.5588 99.4184 48.7566 100.13 49.1521C100.842 49.5363 101.402 50.09 101.808 50.8132C102.226 51.5364 102.435 52.3782 102.435 53.3387C102.435 54.2992 102.221 55.1467 101.791 55.8812C101.373 56.6044 100.803 57.1638 100.079 57.5593C99.3562 57.9548 98.5539 58.1526 97.6725 58.1526ZM97.6725 56.7965C98.2262 56.7965 98.746 56.6666 99.2319 56.4067C99.7178 56.1468 100.108 55.7569 100.401 55.2371C100.707 54.7173 100.859 54.0845 100.859 53.3387C100.859 52.5929 100.712 51.9601 100.418 51.4403C100.125 50.9205 99.7404 50.5363 99.2658 50.2877C98.7912 50.0278 98.2771 49.8979 97.7234 49.8979C97.1584 49.8979 96.6386 50.0278 96.164 50.2877C95.7007 50.5363 95.3278 50.9205 95.0453 51.4403C94.7628 51.9601 94.6215 52.5929 94.6215 53.3387C94.6215 54.0958 94.7571 54.7343 95.0283 55.2541C95.3108 55.7739 95.6837 56.1637 96.147 56.4236C96.6103 56.6722 97.1188 56.7965 97.6725 56.7965ZM106.006 50.2199C106.277 49.6888 106.661 49.2764 107.159 48.9826C107.667 48.6888 108.283 48.5419 109.006 48.5419V50.1352H108.599C106.87 50.1352 106.006 51.0731 106.006 52.9489V58H104.464V48.7114H106.006V50.2199ZM119.262 52.9997C119.262 53.2935 119.245 53.6043 119.211 53.932H111.787C111.843 54.8473 112.154 55.5648 112.719 56.0846C113.295 56.5931 113.99 56.8474 114.804 56.8474C115.47 56.8474 116.024 56.6948 116.465 56.3897C116.917 56.0733 117.233 55.6552 117.414 55.1354H119.075C118.827 56.0281 118.329 56.757 117.584 57.322C116.838 57.8757 115.911 58.1526 114.804 58.1526C113.922 58.1526 113.131 57.9548 112.431 57.5593C111.741 57.1638 111.199 56.6044 110.804 55.8812C110.408 55.1467 110.21 54.2992 110.21 53.3387C110.21 52.3782 110.402 51.5364 110.787 50.8132C111.171 50.09 111.708 49.5363 112.397 49.1521C113.097 48.7566 113.9 48.5588 114.804 48.5588C115.685 48.5588 116.465 48.7509 117.143 49.1351C117.821 49.5193 118.341 50.0504 118.702 50.7284C119.075 51.3951 119.262 52.1522 119.262 52.9997ZM117.668 52.6777C117.668 52.0901 117.538 51.5872 117.278 51.1691C117.019 50.7397 116.663 50.4177 116.211 50.203C115.77 49.977 115.278 49.864 114.736 49.864C113.956 49.864 113.29 50.1126 112.736 50.6098C112.193 51.107 111.883 51.7963 111.804 52.6777H117.668ZM132.468 48.5419C133.191 48.5419 133.835 48.6944 134.4 48.9995C134.965 49.2933 135.411 49.7397 135.739 50.3386C136.067 50.9375 136.231 51.6663 136.231 52.5251V58H134.705V52.7455C134.705 51.8189 134.473 51.1126 134.01 50.6267C133.558 50.1295 132.942 49.8809 132.163 49.8809C131.36 49.8809 130.722 50.1408 130.247 50.6606C129.773 51.1691 129.535 51.9093 129.535 52.8811V58H128.01V52.7455C128.01 51.8189 127.778 51.1126 127.315 50.6267C126.863 50.1295 126.247 49.8809 125.467 49.8809C124.665 49.8809 124.027 50.1408 123.552 50.6606C123.077 51.1691 122.84 51.9093 122.84 52.8811V58H121.298V48.7114H122.84V50.0504C123.145 49.5645 123.552 49.1916 124.06 48.9317C124.58 48.6718 125.151 48.5419 125.772 48.5419C126.552 48.5419 127.241 48.717 127.84 49.0673C128.439 49.4176 128.886 49.9318 129.179 50.6098C129.439 49.9544 129.869 49.4459 130.468 49.0843C131.066 48.7227 131.733 48.5419 132.468 48.5419ZM144.076 47.2028C143.783 47.2028 143.534 47.1011 143.331 46.8977C143.127 46.6943 143.025 46.4457 143.025 46.1519C143.025 45.8581 143.127 45.6095 143.331 45.4061C143.534 45.2027 143.783 45.101 144.076 45.101C144.359 45.101 144.596 45.2027 144.788 45.4061C144.992 45.6095 145.093 45.8581 145.093 46.1519C145.093 46.4457 144.992 46.6943 144.788 46.8977C144.596 47.1011 144.359 47.2028 144.076 47.2028ZM144.822 48.7114V58H143.28V48.7114H144.822ZM148.993 50.4233C149.299 49.8922 149.751 49.4515 150.349 49.1012C150.96 48.7396 151.666 48.5588 152.468 48.5588C153.293 48.5588 154.039 48.7566 154.706 49.1521C155.384 49.5476 155.915 50.1069 156.299 50.8301C156.683 51.542 156.875 52.3726 156.875 53.3218C156.875 54.2597 156.683 55.0959 156.299 55.8304C155.915 56.5649 155.384 57.1355 154.706 57.5423C154.039 57.9491 153.293 58.1526 152.468 58.1526C151.677 58.1526 150.977 57.9774 150.366 57.6271C149.767 57.2655 149.31 56.8191 148.993 56.288V62.407H147.451V48.7114H148.993V50.4233ZM155.299 53.3218C155.299 52.6212 155.158 52.011 154.875 51.4912C154.593 50.9714 154.208 50.5759 153.722 50.3047C153.248 50.0335 152.722 49.8979 152.146 49.8979C151.581 49.8979 151.056 50.0391 150.57 50.3216C150.095 50.5928 149.711 50.994 149.417 51.5251C149.135 52.0449 148.993 52.6494 148.993 53.3387C148.993 54.0393 149.135 54.6552 149.417 55.1863C149.711 55.7061 150.095 56.1072 150.57 56.3897C151.056 56.6609 151.581 56.7965 152.146 56.7965C152.722 56.7965 153.248 56.6609 153.722 56.3897C154.208 56.1072 154.593 55.7061 154.875 55.1863C155.158 54.6552 155.299 54.0337 155.299 53.3218ZM162.194 58.1526C161.482 58.1526 160.843 58.0339 160.278 57.7966C159.713 57.548 159.267 57.209 158.939 56.7796C158.612 56.3389 158.431 55.836 158.397 55.271H159.99C160.035 55.7343 160.25 56.1129 160.634 56.4067C161.03 56.7005 161.544 56.8474 162.177 56.8474C162.764 56.8474 163.228 56.7174 163.567 56.4575C163.906 56.1976 164.075 55.8699 164.075 55.4744C164.075 55.0676 163.894 54.7682 163.533 54.5761C163.171 54.3727 162.612 54.1749 161.855 53.9828C161.165 53.802 160.6 53.6212 160.16 53.4404C159.73 53.2483 159.357 52.9715 159.041 52.6099C158.736 52.237 158.583 51.7511 158.583 51.1522C158.583 50.6776 158.725 50.2425 159.007 49.847C159.29 49.4515 159.691 49.1408 160.211 48.9148C160.73 48.6775 161.324 48.5588 161.99 48.5588C163.019 48.5588 163.849 48.8187 164.482 49.3385C165.115 49.8583 165.454 50.5702 165.499 51.4742H163.957C163.923 50.9883 163.725 50.5985 163.363 50.3047C163.013 50.0109 162.538 49.864 161.939 49.864C161.386 49.864 160.945 49.9826 160.617 50.2199C160.29 50.4572 160.126 50.768 160.126 51.1522C160.126 51.4573 160.222 51.7115 160.414 51.9149C160.617 52.107 160.866 52.2652 161.16 52.3895C161.465 52.5025 161.883 52.6325 162.414 52.7794C163.081 52.9602 163.623 53.141 164.041 53.3218C164.459 53.4913 164.815 53.7512 165.109 54.1015C165.414 54.4518 165.572 54.9094 165.584 55.4744C165.584 55.9829 165.442 56.4406 165.16 56.8474C164.877 57.2542 164.476 57.5762 163.957 57.8135C163.448 58.0396 162.86 58.1526 162.194 58.1526ZM175.999 48.7114V58H174.456V56.627C174.163 57.1016 173.75 57.4745 173.219 57.7457C172.699 58.0057 172.123 58.1356 171.49 58.1356C170.767 58.1356 170.117 57.9887 169.541 57.6949C168.965 57.3898 168.507 56.9378 168.168 56.3389C167.84 55.74 167.676 55.0111 167.676 54.1523V48.7114H169.202V53.9489C169.202 54.8642 169.434 55.5705 169.897 56.0677C170.36 56.5536 170.993 56.7965 171.795 56.7965C172.62 56.7965 173.27 56.5423 173.745 56.0338C174.219 55.5253 174.456 54.7851 174.456 53.8133V48.7114H175.999ZM189.773 48.5419C190.496 48.5419 191.141 48.6944 191.706 48.9995C192.271 49.2933 192.717 49.7397 193.045 50.3386C193.372 50.9375 193.536 51.6663 193.536 52.5251V58H192.011V52.7455C192.011 51.8189 191.779 51.1126 191.316 50.6267C190.864 50.1295 190.248 49.8809 189.468 49.8809C188.666 49.8809 188.027 50.1408 187.553 50.6606C187.078 51.1691 186.841 51.9093 186.841 52.8811V58H185.315V52.7455C185.315 51.8189 185.084 51.1126 184.62 50.6267C184.168 50.1295 183.553 49.8809 182.773 49.8809C181.971 49.8809 181.332 50.1408 180.858 50.6606C180.383 51.1691 180.146 51.9093 180.146 52.8811V58H178.603V48.7114H180.146V50.0504C180.451 49.5645 180.858 49.1916 181.366 48.9317C181.886 48.6718 182.457 48.5419 183.078 48.5419C183.858 48.5419 184.547 48.717 185.146 49.0673C185.745 49.4176 186.191 49.9318 186.485 50.6098C186.745 49.9544 187.174 49.4459 187.773 49.0843C188.372 48.7227 189.039 48.5419 189.773 48.5419Z" fill="#172A59"/>
<g clip-path="url(#clip1)">
<path d="M252.751 52.5L256.802 48.4239C257.019 48.2065 257.019 47.8623 256.802 47.663C256.585 47.4457 256.241 47.4457 256.042 47.663L251.991 51.7392L247.922 47.663C247.705 47.4457 247.362 47.4457 247.163 47.663C246.946 47.8804 246.946 48.2246 247.163 48.4239L251.214 52.5L247.163 56.5761C246.946 56.7935 246.946 57.1377 247.163 57.337C247.271 57.4457 247.416 57.5001 247.543 57.5001C247.669 57.5001 247.814 57.4457 247.922 57.337L251.991 53.2609L256.06 57.337C256.169 57.4457 256.314 57.5001 256.44 57.5001C256.567 57.5001 256.711 57.4457 256.82 57.337C257.037 57.1196 257.037 56.7754 256.82 56.5761L252.751 52.5Z" fill="#172A59"/>
</g>
<rect width="257" height="65" transform="translate(20 190)" fill="#A0DC78"/>
<g clip-path="url(#clip2)">
<path d="M63.1096 213.535C63.3084 213.346 63.4672 213.119 63.5767 212.868C63.6861 212.618 63.7439 212.348 63.7468 212.074C63.7497 211.801 63.6975 211.53 63.5934 211.277C63.4893 211.024 63.3353 210.794 63.1404 210.601C62.9456 210.408 62.7138 210.255 62.4587 210.152C62.2036 210.049 61.9303 209.997 61.6548 210C61.3794 210.003 61.1073 210.061 60.8545 210.169C60.6017 210.278 60.3734 210.436 60.1828 210.633L59.3733 211.436C57.6385 210.349 55.5823 209.881 53.5435 210.109C51.5047 210.337 49.6051 211.247 48.1576 212.69L44.3723 216.446H40.6625C40.4868 216.446 40.3183 216.515 40.194 216.639C40.0698 216.762 40 216.929 40 217.103C40.0118 221.064 41.5976 224.861 44.4134 227.669L45.0613 228.312C44.7055 228.763 44.4479 229.282 44.3047 229.836C44.1615 230.391 44.1359 230.969 44.2294 231.534C44.3229 232.098 44.5336 232.638 44.848 233.118C45.1625 233.598 45.5739 234.008 46.0563 234.322C46.5387 234.636 47.0815 234.847 47.6505 234.943C48.2195 235.038 48.8022 235.015 49.3618 234.876C49.9214 234.736 50.4458 234.483 50.9017 234.132C51.3576 233.781 51.7352 233.34 52.0106 232.837C53.4883 233.311 55.0314 233.553 56.5843 233.555C56.76 233.555 56.9285 233.486 57.0527 233.362C57.1769 233.239 57.2467 233.072 57.2467 232.898V229.223L61.0334 225.467C61.8807 224.631 62.5515 223.637 63.0065 222.541C63.4616 221.445 63.6916 220.27 63.6833 219.085C63.6897 217.402 63.2082 215.753 62.2961 214.334L63.1096 213.535ZM62.1728 211.563C62.2429 211.632 62.2985 211.714 62.3364 211.804C62.3743 211.895 62.3939 211.991 62.3939 212.089C62.3939 212.187 62.3743 212.284 62.3364 212.374C62.2985 212.464 62.2429 212.546 62.1728 212.615L61.5382 213.244C61.3752 213.051 61.207 212.867 61.036 212.698C60.8651 212.528 60.677 212.36 60.4849 212.201L61.1195 211.571C61.2581 211.432 61.4468 211.353 61.6443 211.351C61.8417 211.349 62.0318 211.425 62.1728 211.562V211.563ZM48.3458 233.692C47.8239 233.692 47.3118 233.55 46.8654 233.282C46.419 233.014 46.0554 232.629 45.8141 232.17C45.5728 231.711 45.4631 231.195 45.4969 230.678C45.5307 230.162 45.7068 229.664 46.0059 229.24C47.3657 230.569 48.9695 231.627 50.7307 232.358C50.4802 232.763 50.1298 233.098 49.7125 233.331C49.2952 233.565 48.8248 233.689 48.3458 233.692ZM62.3676 219.088C62.3746 220.1 62.1776 221.104 61.788 222.039C61.3985 222.975 60.8243 223.824 60.0993 224.536L56.1245 228.479C56.0628 228.54 56.0138 228.613 55.9804 228.692C55.947 228.772 55.9298 228.858 55.9297 228.944V232.22C54.5466 232.158 53.1814 231.884 51.882 231.41C49.9992 230.732 48.2901 229.65 46.8764 228.242L45.3528 226.74C42.9462 224.34 41.5184 221.142 41.3435 217.761H44.6466C44.8221 217.76 44.9903 217.691 45.1143 217.567L49.0891 213.624C50.3864 212.327 52.1081 211.532 53.9441 211.382C55.7801 211.232 57.6096 211.738 59.103 212.808C59.4566 213.051 59.7882 213.324 60.094 213.624C60.3992 213.932 60.6776 214.264 60.9261 214.618C61.873 215.918 62.3762 217.483 62.3623 219.087L62.3676 219.088Z" fill="#172A59"/>
</g>
<path d="M87.8476 226.746H91.9834V228H86.3052V216.186H87.8476V226.746ZM97.6725 228.153C96.8024 228.153 96.0114 227.955 95.2995 227.559C94.5989 227.164 94.0452 226.604 93.6384 225.881C93.2429 225.147 93.0452 224.299 93.0452 223.339C93.0452 222.39 93.2486 221.553 93.6554 220.83C94.0735 220.096 94.6385 219.536 95.3504 219.152C96.0623 218.757 96.8589 218.559 97.7403 218.559C98.6217 218.559 99.4184 218.757 100.13 219.152C100.842 219.536 101.402 220.09 101.808 220.813C102.226 221.536 102.435 222.378 102.435 223.339C102.435 224.299 102.221 225.147 101.791 225.881C101.373 226.604 100.803 227.164 100.079 227.559C99.3562 227.955 98.5539 228.153 97.6725 228.153ZM97.6725 226.797C98.2262 226.797 98.746 226.667 99.2319 226.407C99.7178 226.147 100.108 225.757 100.401 225.237C100.707 224.717 100.859 224.085 100.859 223.339C100.859 222.593 100.712 221.96 100.418 221.44C100.125 220.921 99.7404 220.536 99.2658 220.288C98.7912 220.028 98.2771 219.898 97.7234 219.898C97.1584 219.898 96.6386 220.028 96.164 220.288C95.7007 220.536 95.3278 220.921 95.0453 221.44C94.7628 221.96 94.6215 222.593 94.6215 223.339C94.6215 224.096 94.7571 224.734 95.0283 225.254C95.3108 225.774 95.6837 226.164 96.147 226.424C96.6103 226.672 97.1188 226.797 97.6725 226.797ZM106.006 220.22C106.277 219.689 106.661 219.276 107.159 218.983C107.667 218.689 108.283 218.542 109.006 218.542V220.135H108.599C106.87 220.135 106.006 221.073 106.006 222.949V228H104.464V218.711H106.006V220.22ZM119.262 223C119.262 223.294 119.245 223.604 119.211 223.932H111.787C111.843 224.847 112.154 225.565 112.719 226.085C113.295 226.593 113.99 226.847 114.804 226.847C115.47 226.847 116.024 226.695 116.465 226.39C116.917 226.073 117.233 225.655 117.414 225.135H119.075C118.827 226.028 118.329 226.757 117.584 227.322C116.838 227.876 115.911 228.153 114.804 228.153C113.922 228.153 113.131 227.955 112.431 227.559C111.741 227.164 111.199 226.604 110.804 225.881C110.408 225.147 110.21 224.299 110.21 223.339C110.21 222.378 110.402 221.536 110.787 220.813C111.171 220.09 111.708 219.536 112.397 219.152C113.097 218.757 113.9 218.559 114.804 218.559C115.685 218.559 116.465 218.751 117.143 219.135C117.821 219.519 118.341 220.05 118.702 220.728C119.075 221.395 119.262 222.152 119.262 223ZM117.668 222.678C117.668 222.09 117.538 221.587 117.278 221.169C117.019 220.74 116.663 220.418 116.211 220.203C115.77 219.977 115.278 219.864 114.736 219.864C113.956 219.864 113.29 220.113 112.736 220.61C112.193 221.107 111.883 221.796 111.804 222.678H117.668ZM132.468 218.542C133.191 218.542 133.835 218.694 134.4 219C134.965 219.293 135.411 219.74 135.739 220.339C136.067 220.937 136.231 221.666 136.231 222.525V228H134.705V222.745C134.705 221.819 134.473 221.113 134.01 220.627C133.558 220.13 132.942 219.881 132.163 219.881C131.36 219.881 130.722 220.141 130.247 220.661C129.773 221.169 129.535 221.909 129.535 222.881V228H128.01V222.745C128.01 221.819 127.778 221.113 127.315 220.627C126.863 220.13 126.247 219.881 125.467 219.881C124.665 219.881 124.027 220.141 123.552 220.661C123.077 221.169 122.84 221.909 122.84 222.881V228H121.298V218.711H122.84V220.05C123.145 219.565 123.552 219.192 124.06 218.932C124.58 218.672 125.151 218.542 125.772 218.542C126.552 218.542 127.241 218.717 127.84 219.067C128.439 219.418 128.886 219.932 129.179 220.61C129.439 219.954 129.869 219.446 130.468 219.084C131.066 218.723 131.733 218.542 132.468 218.542ZM144.076 217.203C143.783 217.203 143.534 217.101 143.331 216.898C143.127 216.694 143.025 216.446 143.025 216.152C143.025 215.858 143.127 215.61 143.331 215.406C143.534 215.203 143.783 215.101 144.076 215.101C144.359 215.101 144.596 215.203 144.788 215.406C144.992 215.61 145.093 215.858 145.093 216.152C145.093 216.446 144.992 216.694 144.788 216.898C144.596 217.101 144.359 217.203 144.076 217.203ZM144.822 218.711V228H143.28V218.711H144.822ZM148.993 220.423C149.299 219.892 149.751 219.452 150.349 219.101C150.96 218.74 151.666 218.559 152.468 218.559C153.293 218.559 154.039 218.757 154.706 219.152C155.384 219.548 155.915 220.107 156.299 220.83C156.683 221.542 156.875 222.373 156.875 223.322C156.875 224.26 156.683 225.096 156.299 225.83C155.915 226.565 155.384 227.136 154.706 227.542C154.039 227.949 153.293 228.153 152.468 228.153C151.677 228.153 150.977 227.977 150.366 227.627C149.767 227.265 149.31 226.819 148.993 226.288V232.407H147.451V218.711H148.993V220.423ZM155.299 223.322C155.299 222.621 155.158 222.011 154.875 221.491C154.593 220.971 154.208 220.576 153.722 220.305C153.248 220.033 152.722 219.898 152.146 219.898C151.581 219.898 151.056 220.039 150.57 220.322C150.095 220.593 149.711 220.994 149.417 221.525C149.135 222.045 148.993 222.649 148.993 223.339C148.993 224.039 149.135 224.655 149.417 225.186C149.711 225.706 150.095 226.107 150.57 226.39C151.056 226.661 151.581 226.797 152.146 226.797C152.722 226.797 153.248 226.661 153.722 226.39C154.208 226.107 154.593 225.706 154.875 225.186C155.158 224.655 155.299 224.034 155.299 223.322ZM162.194 228.153C161.482 228.153 160.843 228.034 160.278 227.797C159.713 227.548 159.267 227.209 158.939 226.78C158.612 226.339 158.431 225.836 158.397 225.271H159.99C160.035 225.734 160.25 226.113 160.634 226.407C161.03 226.7 161.544 226.847 162.177 226.847C162.764 226.847 163.228 226.717 163.567 226.458C163.906 226.198 164.075 225.87 164.075 225.474C164.075 225.068 163.894 224.768 163.533 224.576C163.171 224.373 162.612 224.175 161.855 223.983C161.165 223.802 160.6 223.621 160.16 223.44C159.73 223.248 159.357 222.971 159.041 222.61C158.736 222.237 158.583 221.751 158.583 221.152C158.583 220.678 158.725 220.243 159.007 219.847C159.29 219.452 159.691 219.141 160.211 218.915C160.73 218.677 161.324 218.559 161.99 218.559C163.019 218.559 163.849 218.819 164.482 219.339C165.115 219.858 165.454 220.57 165.499 221.474H163.957C163.923 220.988 163.725 220.598 163.363 220.305C163.013 220.011 162.538 219.864 161.939 219.864C161.386 219.864 160.945 219.983 160.617 220.22C160.29 220.457 160.126 220.768 160.126 221.152C160.126 221.457 160.222 221.712 160.414 221.915C160.617 222.107 160.866 222.265 161.16 222.39C161.465 222.503 161.883 222.632 162.414 222.779C163.081 222.96 163.623 223.141 164.041 223.322C164.459 223.491 164.815 223.751 165.109 224.101C165.414 224.452 165.572 224.909 165.584 225.474C165.584 225.983 165.442 226.441 165.16 226.847C164.877 227.254 164.476 227.576 163.957 227.814C163.448 228.04 162.86 228.153 162.194 228.153ZM175.999 218.711V228H174.456V226.627C174.163 227.102 173.75 227.475 173.219 227.746C172.699 228.006 172.123 228.136 171.49 228.136C170.767 228.136 170.117 227.989 169.541 227.695C168.965 227.39 168.507 226.938 168.168 226.339C167.84 225.74 167.676 225.011 167.676 224.152V218.711H169.202V223.949C169.202 224.864 169.434 225.57 169.897 226.068C170.36 226.554 170.993 226.797 171.795 226.797C172.62 226.797 173.27 226.542 173.745 226.034C174.219 225.525 174.456 224.785 174.456 223.813V218.711H175.999ZM189.773 218.542C190.496 218.542 191.141 218.694 191.706 219C192.271 219.293 192.717 219.74 193.045 220.339C193.372 220.937 193.536 221.666 193.536 222.525V228H192.011V222.745C192.011 221.819 191.779 221.113 191.316 220.627C190.864 220.13 190.248 219.881 189.468 219.881C188.666 219.881 188.027 220.141 187.553 220.661C187.078 221.169 186.841 221.909 186.841 222.881V228H185.315V222.745C185.315 221.819 185.084 221.113 184.62 220.627C184.168 220.13 183.553 219.881 182.773 219.881C181.971 219.881 181.332 220.141 180.858 220.661C180.383 221.169 180.146 221.909 180.146 222.881V228H178.603V218.711H180.146V220.05C180.451 219.565 180.858 219.192 181.366 218.932C181.886 218.672 182.457 218.542 183.078 218.542C183.858 218.542 184.547 218.717 185.146 219.067C185.745 219.418 186.191 219.932 186.485 220.61C186.745 219.954 187.174 219.446 187.773 219.084C188.372 218.723 189.039 218.542 189.773 218.542Z" fill="#172A59"/>
<g clip-path="url(#clip3)">
<path d="M252.751 222.5L256.802 218.424C257.019 218.207 257.019 217.862 256.802 217.663C256.585 217.446 256.241 217.446 256.042 217.663L251.991 221.739L247.922 217.663C247.705 217.446 247.362 217.446 247.163 217.663C246.946 217.88 246.946 218.225 247.163 218.424L251.214 222.5L247.163 226.576C246.946 226.794 246.946 227.138 247.163 227.337C247.271 227.446 247.416 227.5 247.543 227.5C247.669 227.5 247.814 227.446 247.922 227.337L251.991 223.261L256.06 227.337C256.169 227.446 256.314 227.5 256.44 227.5C256.567 227.5 256.711 227.446 256.82 227.337C257.037 227.12 257.037 226.775 256.82 226.576L252.751 222.5Z" fill="#172A59"/>
</g>
<rect width="257" height="65" transform="translate(20 105)" fill="#BE2C00"/>
<g clip-path="url(#clip4)">
<path d="M63.1096 128.535C63.3084 128.346 63.4672 128.119 63.5767 127.868C63.6861 127.618 63.7439 127.348 63.7468 127.074C63.7497 126.801 63.6975 126.53 63.5934 126.277C63.4893 126.024 63.3353 125.794 63.1404 125.601C62.9456 125.408 62.7138 125.255 62.4587 125.152C62.2036 125.049 61.9303 124.997 61.6548 125C61.3794 125.003 61.1073 125.061 60.8545 125.169C60.6017 125.278 60.3734 125.436 60.1828 125.633L59.3733 126.436C57.6385 125.349 55.5823 124.881 53.5435 125.109C51.5047 125.337 49.6051 126.247 48.1576 127.69L44.3723 131.446H40.6625C40.4868 131.446 40.3183 131.515 40.194 131.639C40.0698 131.762 40 131.929 40 132.103C40.0118 136.064 41.5976 139.861 44.4134 142.669L45.0613 143.312C44.7055 143.763 44.4479 144.282 44.3047 144.836C44.1615 145.391 44.1359 145.969 44.2294 146.534C44.3229 147.098 44.5336 147.638 44.848 148.118C45.1625 148.598 45.5739 149.008 46.0563 149.322C46.5387 149.636 47.0815 149.847 47.6505 149.943C48.2195 150.038 48.8022 150.015 49.3618 149.876C49.9214 149.736 50.4458 149.483 50.9017 149.132C51.3576 148.781 51.7352 148.34 52.0106 147.837C53.4883 148.311 55.0314 148.553 56.5843 148.555C56.76 148.555 56.9285 148.486 57.0527 148.362C57.1769 148.239 57.2467 148.072 57.2467 147.898V144.223L61.0334 140.467C61.8807 139.631 62.5515 138.637 63.0065 137.541C63.4616 136.445 63.6916 135.27 63.6833 134.085C63.6897 132.402 63.2082 130.753 62.2961 129.334L63.1096 128.535ZM62.1728 126.563C62.2429 126.632 62.2985 126.714 62.3364 126.804C62.3743 126.895 62.3939 126.991 62.3939 127.089C62.3939 127.187 62.3743 127.284 62.3364 127.374C62.2985 127.464 62.2429 127.546 62.1728 127.615L61.5382 128.244C61.3752 128.051 61.207 127.867 61.036 127.698C60.8651 127.528 60.677 127.36 60.4849 127.201L61.1195 126.571C61.2581 126.432 61.4468 126.353 61.6443 126.351C61.8417 126.349 62.0318 126.425 62.1728 126.562V126.563ZM48.3458 148.692C47.8239 148.692 47.3118 148.55 46.8654 148.282C46.419 148.014 46.0554 147.629 45.8141 147.17C45.5728 146.711 45.4631 146.195 45.4969 145.678C45.5307 145.162 45.7068 144.664 46.0059 144.24C47.3657 145.569 48.9695 146.627 50.7307 147.358C50.4802 147.763 50.1298 148.098 49.7125 148.331C49.2952 148.565 48.8248 148.689 48.3458 148.692ZM62.3676 134.088C62.3746 135.1 62.1776 136.104 61.788 137.039C61.3985 137.975 60.8243 138.824 60.0993 139.536L56.1245 143.479C56.0628 143.54 56.0138 143.613 55.9804 143.692C55.947 143.772 55.9298 143.858 55.9297 143.944V147.22C54.5466 147.158 53.1814 146.884 51.882 146.41C49.9992 145.732 48.2901 144.65 46.8764 143.242L45.3528 141.74C42.9462 139.34 41.5184 136.142 41.3435 132.761H44.6466C44.8221 132.76 44.9903 132.691 45.1143 132.567L49.0891 128.624C50.3864 127.327 52.1081 126.532 53.9441 126.382C55.7801 126.232 57.6096 126.738 59.103 127.808C59.4566 128.051 59.7882 128.324 60.094 128.624C60.3992 128.932 60.6776 129.264 60.9261 129.618C61.873 130.918 62.3762 132.483 62.3623 134.087L62.3676 134.088Z" fill="white"/>
</g>
<path d="M87.8476 141.746H91.9834V143H86.3052V131.186H87.8476V141.746ZM97.6725 143.153C96.8024 143.153 96.0114 142.955 95.2995 142.559C94.5989 142.164 94.0452 141.604 93.6384 140.881C93.2429 140.147 93.0452 139.299 93.0452 138.339C93.0452 137.39 93.2486 136.553 93.6554 135.83C94.0735 135.096 94.6385 134.536 95.3504 134.152C96.0623 133.757 96.8589 133.559 97.7403 133.559C98.6217 133.559 99.4184 133.757 100.13 134.152C100.842 134.536 101.402 135.09 101.808 135.813C102.226 136.536 102.435 137.378 102.435 138.339C102.435 139.299 102.221 140.147 101.791 140.881C101.373 141.604 100.803 142.164 100.079 142.559C99.3562 142.955 98.5539 143.153 97.6725 143.153ZM97.6725 141.797C98.2262 141.797 98.746 141.667 99.2319 141.407C99.7178 141.147 100.108 140.757 100.401 140.237C100.707 139.717 100.859 139.085 100.859 138.339C100.859 137.593 100.712 136.96 100.418 136.44C100.125 135.921 99.7404 135.536 99.2658 135.288C98.7912 135.028 98.2771 134.898 97.7234 134.898C97.1584 134.898 96.6386 135.028 96.164 135.288C95.7007 135.536 95.3278 135.921 95.0453 136.44C94.7628 136.96 94.6215 137.593 94.6215 138.339C94.6215 139.096 94.7571 139.734 95.0283 140.254C95.3108 140.774 95.6837 141.164 96.147 141.424C96.6103 141.672 97.1188 141.797 97.6725 141.797ZM106.006 135.22C106.277 134.689 106.661 134.276 107.159 133.983C107.667 133.689 108.283 133.542 109.006 133.542V135.135H108.599C106.87 135.135 106.006 136.073 106.006 137.949V143H104.464V133.711H106.006V135.22ZM119.262 138C119.262 138.294 119.245 138.604 119.211 138.932H111.787C111.843 139.847 112.154 140.565 112.719 141.085C113.295 141.593 113.99 141.847 114.804 141.847C115.47 141.847 116.024 141.695 116.465 141.39C116.917 141.073 117.233 140.655 117.414 140.135H119.075C118.827 141.028 118.329 141.757 117.584 142.322C116.838 142.876 115.911 143.153 114.804 143.153C113.922 143.153 113.131 142.955 112.431 142.559C111.741 142.164 111.199 141.604 110.804 140.881C110.408 140.147 110.21 139.299 110.21 138.339C110.21 137.378 110.402 136.536 110.787 135.813C111.171 135.09 111.708 134.536 112.397 134.152C113.097 133.757 113.9 133.559 114.804 133.559C115.685 133.559 116.465 133.751 117.143 134.135C117.821 134.519 118.341 135.05 118.702 135.728C119.075 136.395 119.262 137.152 119.262 138ZM117.668 137.678C117.668 137.09 117.538 136.587 117.278 136.169C117.019 135.74 116.663 135.418 116.211 135.203C115.77 134.977 115.278 134.864 114.736 134.864C113.956 134.864 113.29 135.113 112.736 135.61C112.193 136.107 111.883 136.796 111.804 137.678H117.668ZM132.468 133.542C133.191 133.542 133.835 133.694 134.4 134C134.965 134.293 135.411 134.74 135.739 135.339C136.067 135.937 136.231 136.666 136.231 137.525V143H134.705V137.745C134.705 136.819 134.473 136.113 134.01 135.627C133.558 135.13 132.942 134.881 132.163 134.881C131.36 134.881 130.722 135.141 130.247 135.661C129.773 136.169 129.535 136.909 129.535 137.881V143H128.01V137.745C128.01 136.819 127.778 136.113 127.315 135.627C126.863 135.13 126.247 134.881 125.467 134.881C124.665 134.881 124.027 135.141 123.552 135.661C123.077 136.169 122.84 136.909 122.84 137.881V143H121.298V133.711H122.84V135.05C123.145 134.565 123.552 134.192 124.06 133.932C124.58 133.672 125.151 133.542 125.772 133.542C126.552 133.542 127.241 133.717 127.84 134.067C128.439 134.418 128.886 134.932 129.179 135.61C129.439 134.954 129.869 134.446 130.468 134.084C131.066 133.723 131.733 133.542 132.468 133.542ZM144.076 132.203C143.783 132.203 143.534 132.101 143.331 131.898C143.127 131.694 143.025 131.446 143.025 131.152C143.025 130.858 143.127 130.61 143.331 130.406C143.534 130.203 143.783 130.101 144.076 130.101C144.359 130.101 144.596 130.203 144.788 130.406C144.992 130.61 145.093 130.858 145.093 131.152C145.093 131.446 144.992 131.694 144.788 131.898C144.596 132.101 144.359 132.203 144.076 132.203ZM144.822 133.711V143H143.28V133.711H144.822ZM148.993 135.423C149.299 134.892 149.751 134.452 150.349 134.101C150.96 133.74 151.666 133.559 152.468 133.559C153.293 133.559 154.039 133.757 154.706 134.152C155.384 134.548 155.915 135.107 156.299 135.83C156.683 136.542 156.875 137.373 156.875 138.322C156.875 139.26 156.683 140.096 156.299 140.83C155.915 141.565 155.384 142.136 154.706 142.542C154.039 142.949 153.293 143.153 152.468 143.153C151.677 143.153 150.977 142.977 150.366 142.627C149.767 142.265 149.31 141.819 148.993 141.288V147.407H147.451V133.711H148.993V135.423ZM155.299 138.322C155.299 137.621 155.158 137.011 154.875 136.491C154.593 135.971 154.208 135.576 153.722 135.305C153.248 135.033 152.722 134.898 152.146 134.898C151.581 134.898 151.056 135.039 150.57 135.322C150.095 135.593 149.711 135.994 149.417 136.525C149.135 137.045 148.993 137.649 148.993 138.339C148.993 139.039 149.135 139.655 149.417 140.186C149.711 140.706 150.095 141.107 150.57 141.39C151.056 141.661 151.581 141.797 152.146 141.797C152.722 141.797 153.248 141.661 153.722 141.39C154.208 141.107 154.593 140.706 154.875 140.186C155.158 139.655 155.299 139.034 155.299 138.322ZM162.194 143.153C161.482 143.153 160.843 143.034 160.278 142.797C159.713 142.548 159.267 142.209 158.939 141.78C158.612 141.339 158.431 140.836 158.397 140.271H159.99C160.035 140.734 160.25 141.113 160.634 141.407C161.03 141.7 161.544 141.847 162.177 141.847C162.764 141.847 163.228 141.717 163.567 141.458C163.906 141.198 164.075 140.87 164.075 140.474C164.075 140.068 163.894 139.768 163.533 139.576C163.171 139.373 162.612 139.175 161.855 138.983C161.165 138.802 160.6 138.621 160.16 138.44C159.73 138.248 159.357 137.971 159.041 137.61C158.736 137.237 158.583 136.751 158.583 136.152C158.583 135.678 158.725 135.243 159.007 134.847C159.29 134.452 159.691 134.141 160.211 133.915C160.73 133.677 161.324 133.559 161.99 133.559C163.019 133.559 163.849 133.819 164.482 134.339C165.115 134.858 165.454 135.57 165.499 136.474H163.957C163.923 135.988 163.725 135.598 163.363 135.305C163.013 135.011 162.538 134.864 161.939 134.864C161.386 134.864 160.945 134.983 160.617 135.22C160.29 135.457 160.126 135.768 160.126 136.152C160.126 136.457 160.222 136.712 160.414 136.915C160.617 137.107 160.866 137.265 161.16 137.39C161.465 137.503 161.883 137.632 162.414 137.779C163.081 137.96 163.623 138.141 164.041 138.322C164.459 138.491 164.815 138.751 165.109 139.101C165.414 139.452 165.572 139.909 165.584 140.474C165.584 140.983 165.442 141.441 165.16 141.847C164.877 142.254 164.476 142.576 163.957 142.814C163.448 143.04 162.86 143.153 162.194 143.153ZM175.999 133.711V143H174.456V141.627C174.163 142.102 173.75 142.475 173.219 142.746C172.699 143.006 172.123 143.136 171.49 143.136C170.767 143.136 170.117 142.989 169.541 142.695C168.965 142.39 168.507 141.938 168.168 141.339C167.84 140.74 167.676 140.011 167.676 139.152V133.711H169.202V138.949C169.202 139.864 169.434 140.57 169.897 141.068C170.36 141.554 170.993 141.797 171.795 141.797C172.62 141.797 173.27 141.542 173.745 141.034C174.219 140.525 174.456 139.785 174.456 138.813V133.711H175.999ZM189.773 133.542C190.496 133.542 191.141 133.694 191.706 134C192.271 134.293 192.717 134.74 193.045 135.339C193.372 135.937 193.536 136.666 193.536 137.525V143H192.011V137.745C192.011 136.819 191.779 136.113 191.316 135.627C190.864 135.13 190.248 134.881 189.468 134.881C188.666 134.881 188.027 135.141 187.553 135.661C187.078 136.169 186.841 136.909 186.841 137.881V143H185.315V137.745C185.315 136.819 185.084 136.113 184.62 135.627C184.168 135.13 183.553 134.881 182.773 134.881C181.971 134.881 181.332 135.141 180.858 135.661C180.383 136.169 180.146 136.909 180.146 137.881V143H178.603V133.711H180.146V135.05C180.451 134.565 180.858 134.192 181.366 133.932C181.886 133.672 182.457 133.542 183.078 133.542C183.858 133.542 184.547 133.717 185.146 134.067C185.745 134.418 186.191 134.932 186.485 135.61C186.745 134.954 187.174 134.446 187.773 134.084C188.372 133.723 189.039 133.542 189.773 133.542Z" fill="white"/>
<g clip-path="url(#clip5)">
<path d="M252.751 137.5L256.802 133.424C257.019 133.207 257.019 132.862 256.802 132.663C256.585 132.446 256.241 132.446 256.042 132.663L251.991 136.739L247.922 132.663C247.705 132.446 247.362 132.446 247.163 132.663C246.946 132.88 246.946 133.225 247.163 133.424L251.214 137.5L247.163 141.576C246.946 141.794 246.946 142.138 247.163 142.337C247.271 142.446 247.416 142.5 247.543 142.5C247.669 142.5 247.814 142.446 247.922 142.337L251.991 138.261L256.06 142.337C256.169 142.446 256.314 142.5 256.44 142.5C256.567 142.5 256.711 142.446 256.82 142.337C257.037 142.12 257.037 141.775 256.82 141.576L252.751 137.5Z" fill="white"/>
</g>
<rect x="0.5" y="0.5" width="296" height="274" rx="4.5" stroke="#7B61FF" stroke-dasharray="10 5"/>
<defs>
<clipPath id="clip0">
<rect width="25" height="25" fill="white" transform="translate(40 40)"/>
</clipPath>
<clipPath id="clip1">
<rect width="10" height="10" fill="white" transform="translate(247 47.5)"/>
</clipPath>
<clipPath id="clip2">
<rect width="25" height="25" fill="white" transform="translate(40 210)"/>
</clipPath>
<clipPath id="clip3">
<rect width="10" height="10" fill="white" transform="translate(247 217.5)"/>
</clipPath>
<clipPath id="clip4">
<rect width="25" height="25" fill="white" transform="translate(40 125)"/>
</clipPath>
<clipPath id="clip5">
<rect width="10" height="10" fill="white" transform="translate(247 132.5)"/>
</clipPath>
</defs>
</svg>
