<svg width="300" height="1024" viewBox="0 0 300 1024" fill="none" xmlns="http://www.w3.org/2000/svg">
<rect width="300" height="1024" fill="#172A59"/>
<rect width="300" height="100" fill="#172A59"/>
<g clip-path="url(#clip0)">
<path d="M64.9943 49.571H40V50.4291H64.9943V49.571Z" fill="white"/>
<path d="M57.271 49.487L64.8384 47.9813L64.671 47.1399L57.1037 48.6455L57.271 49.487Z" fill="white"/>
<path d="M57.0792 48.5658L64.2075 45.6124L63.8793 44.8198L56.7509 47.7731L57.0792 48.5658Z" fill="white"/>
<path d="M56.7109 47.6994L63.1265 43.4116L62.65 42.6984L56.2344 46.9862L56.7109 47.6994Z" fill="white"/>
<path d="M56.1826 46.9217L61.6377 41.4653L61.0312 40.8587L55.5761 46.315L56.1826 46.9217Z" fill="white"/>
<path d="M55.5101 46.2617L59.7969 39.8448L59.0837 39.3682L54.797 45.7851L55.5101 46.2617Z" fill="white"/>
<path d="M54.7226 45.7448L57.6753 38.615L56.8829 38.2866L53.9302 45.4164L54.7226 45.7448Z" fill="white"/>
<path d="M53.8505 45.3924L55.355 37.8236L54.5139 37.6564L53.0095 45.2251L53.8505 45.3924Z" fill="white"/>
<path d="M52.9262 37.5H52.0684V45.2165H52.9262V37.5Z" fill="white"/>
<path d="M51.1453 45.391L51.9863 45.2237L50.4811 37.6548L49.64 37.8221L51.1453 45.391Z" fill="white"/>
<path d="M50.2737 45.7444L51.0659 45.416L48.1125 38.287L47.3203 38.6153L50.2737 45.7444Z" fill="white"/>
<path d="M49.4851 46.2618L50.1982 45.7852L45.9123 39.3684L45.1991 39.8449L49.4851 46.2618Z" fill="white"/>
<path d="M48.8125 46.9207L49.4189 46.3141L43.964 40.8579L43.3575 41.4645L48.8125 46.9207Z" fill="white"/>
<path d="M48.2832 47.6985L48.7598 46.9851L42.3443 42.6974L41.8678 43.4108L48.2832 47.6985Z" fill="white"/>
<path d="M47.916 48.5669L48.2441 47.7743L41.1161 44.8218L40.788 45.6144L47.916 48.5669Z" fill="white"/>
<path d="M47.7232 49.4904L47.8906 48.649L40.3234 47.1426L40.156 47.984L47.7232 49.4904Z" fill="white"/>
<path d="M40.3244 52.859L47.8916 51.3534L47.7243 50.512L40.1571 52.0176L40.3244 52.859Z" fill="white"/>
<path d="M41.1156 55.1791L48.2437 52.2259L47.9154 51.4333L40.7874 54.3865L41.1156 55.1791Z" fill="white"/>
<path d="M42.3438 57.3013L48.7593 53.0136L48.2827 52.3002L41.8673 56.588L42.3438 57.3013Z" fill="white"/>
<path d="M43.9642 59.1415L49.4189 53.6855L48.8125 53.0789L43.3577 58.5349L43.9642 59.1415Z" fill="white"/>
<path d="M45.9105 60.6313L50.1973 54.2144L49.4839 53.7377L45.1972 60.1546L45.9105 60.6313Z" fill="white"/>
<path d="M48.1109 61.7131L51.0635 54.5835L50.2709 54.2551L47.3183 61.3847L48.1109 61.7131Z" fill="white"/>
<path d="M50.4794 62.3418L51.9839 54.7729L51.1425 54.6056L49.638 62.1745L50.4794 62.3418Z" fill="white"/>
<path d="M52.9262 54.7836H52.0684V62.5001H52.9262V54.7836Z" fill="white"/>
<path d="M54.513 62.3451L55.354 62.1778L53.8487 54.6089L53.0077 54.7762L54.513 62.3451Z" fill="white"/>
<path d="M56.8816 61.7126L57.6738 61.3842L54.7205 54.2546L53.9282 54.5829L56.8816 61.7126Z" fill="white"/>
<path d="M59.088 60.6317L59.8013 60.155L55.5145 53.7389L54.8013 54.2156L59.088 60.6317Z" fill="white"/>
<path d="M61.0307 59.1426L61.6372 58.536L56.1822 53.0798L55.5757 53.6864L61.0307 59.1426Z" fill="white"/>
<path d="M62.6529 57.3012L63.1294 56.5879L56.7138 52.3008L56.2374 53.0142L62.6529 57.3012Z" fill="white"/>
</g>
<path d="M99.0685 32.6689V44.5H96.6955V36.8047L93.5259 44.5H91.7292L88.5426 36.8047V44.5H86.1696V32.6689H88.8646L92.6275 41.4659L96.3904 32.6689H99.0685ZM110.279 35.1097V44.5H107.89V43.3135C107.584 43.7203 107.183 44.0423 106.686 44.2796C106.2 44.5057 105.669 44.6187 105.093 44.6187C104.358 44.6187 103.709 44.4661 103.144 44.161C102.579 43.8446 102.132 43.3869 101.804 42.788C101.488 42.1778 101.33 41.4546 101.33 40.6184V35.1097H103.703V40.2794C103.703 41.0252 103.889 41.6015 104.262 42.0083C104.635 42.4038 105.144 42.6016 105.788 42.6016C106.443 42.6016 106.957 42.4038 107.33 42.0083C107.703 41.6015 107.89 41.0252 107.89 40.2794V35.1097H110.279ZM116.214 44.6526C115.446 44.6526 114.757 44.517 114.146 44.2457C113.536 43.9632 113.05 43.5847 112.689 43.1101C112.338 42.6355 112.146 42.11 112.112 41.5337H114.502C114.547 41.8953 114.723 42.1948 115.028 42.4321C115.344 42.6694 115.734 42.788 116.197 42.788C116.649 42.788 117 42.6976 117.248 42.5168C117.508 42.336 117.638 42.1044 117.638 41.8219C117.638 41.5168 117.48 41.2908 117.163 41.1439C116.858 40.9857 116.367 40.8162 115.689 40.6354C114.988 40.4659 114.412 40.2907 113.96 40.1099C113.519 39.9291 113.135 39.6523 112.807 39.2794C112.491 38.9065 112.333 38.4036 112.333 37.7708C112.333 37.251 112.48 36.7764 112.773 36.347C113.078 35.9176 113.508 35.5786 114.062 35.33C114.627 35.0814 115.288 34.9571 116.045 34.9571C117.163 34.9571 118.056 35.2396 118.723 35.8046C119.39 36.3583 119.757 37.1098 119.825 38.059H117.553C117.519 37.6861 117.361 37.3923 117.079 37.1776C116.807 36.9516 116.44 36.8386 115.977 36.8386C115.548 36.8386 115.214 36.9177 114.977 37.0759C114.751 37.2341 114.638 37.4544 114.638 37.7369C114.638 38.0533 114.796 38.2963 115.112 38.4658C115.429 38.624 115.92 38.7878 116.587 38.9573C117.265 39.1268 117.824 39.302 118.265 39.4828C118.706 39.6636 119.084 39.9461 119.401 40.3303C119.729 40.7032 119.898 41.2004 119.909 41.8219C119.909 42.3643 119.757 42.8502 119.452 43.2796C119.158 43.709 118.728 44.048 118.163 44.2966C117.61 44.5339 116.96 44.6526 116.214 44.6526ZM130.586 39.6014C130.586 39.9404 130.564 40.2455 130.519 40.5167H123.654C123.71 41.1947 123.948 41.7258 124.366 42.11C124.784 42.4942 125.298 42.6863 125.908 42.6863C126.79 42.6863 127.417 42.3078 127.79 41.5507H130.349C130.078 42.4547 129.558 43.2005 128.79 43.7881C128.021 44.3644 127.078 44.6526 125.959 44.6526C125.055 44.6526 124.242 44.4548 123.518 44.0593C122.806 43.6525 122.247 43.0818 121.84 42.3473C121.445 41.6128 121.247 40.7653 121.247 39.8048C121.247 38.833 121.445 37.9799 121.84 37.2454C122.236 36.5109 122.789 35.9459 123.501 35.5504C124.213 35.1549 125.033 34.9571 125.959 34.9571C126.852 34.9571 127.648 35.1492 128.349 35.5334C129.061 35.9176 129.609 36.4657 129.993 37.1776C130.389 37.8782 130.586 38.6861 130.586 39.6014ZM128.129 38.9234C128.117 38.3132 127.897 37.8273 127.468 37.4657C127.038 37.0928 126.513 36.9064 125.891 36.9064C125.304 36.9064 124.807 37.0872 124.4 37.4488C124.004 37.7991 123.761 38.2906 123.671 38.9234H128.129ZM141.183 35.1097V44.5H138.793V43.3135C138.488 43.7203 138.087 44.0423 137.59 44.2796C137.104 44.5057 136.573 44.6187 135.997 44.6187C135.262 44.6187 134.612 44.4661 134.047 44.161C133.482 43.8446 133.036 43.3869 132.708 42.788C132.392 42.1778 132.234 41.4546 132.234 40.6184V35.1097H134.607V40.2794C134.607 41.0252 134.793 41.6015 135.166 42.0083C135.539 42.4038 136.048 42.6016 136.692 42.6016C137.347 42.6016 137.861 42.4038 138.234 42.0083C138.607 41.6015 138.793 41.0252 138.793 40.2794V35.1097H141.183ZM155.186 34.9741C156.339 34.9741 157.266 35.33 157.966 36.0419C158.678 36.7425 159.034 37.7256 159.034 38.9912V44.5H156.661V39.3133C156.661 38.5788 156.475 38.0194 156.102 37.6352C155.729 37.2397 155.22 37.042 154.576 37.042C153.932 37.042 153.418 37.2397 153.034 37.6352C152.661 38.0194 152.474 38.5788 152.474 39.3133V44.5H150.101V39.3133C150.101 38.5788 149.915 38.0194 149.542 37.6352C149.169 37.2397 148.661 37.042 148.017 37.042C147.361 37.042 146.841 37.2397 146.457 37.6352C146.084 38.0194 145.898 38.5788 145.898 39.3133V44.5H143.525V35.1097H145.898V36.2453C146.203 35.8498 146.593 35.5391 147.067 35.3131C147.553 35.0871 148.084 34.9741 148.661 34.9741C149.395 34.9741 150.051 35.1323 150.627 35.4487C151.203 35.7538 151.649 36.1945 151.966 36.7708C152.271 36.2284 152.712 35.7933 153.288 35.4656C153.876 35.1379 154.508 34.9741 155.186 34.9741ZM178.224 32.6689V44.5H175.851V36.8047L172.681 44.5H170.884L167.698 36.8047V44.5H165.325V32.6689H168.02L171.783 41.4659L175.546 32.6689H178.224Z" fill="white"/>
<path d="M91.5376 57.492V64.7064C91.5376 65.5992 91.264 66.3048 90.7168 66.8232C90.1792 67.3416 89.4688 67.6008 88.5856 67.6008C87.7024 67.6008 86.9872 67.3416 86.44 66.8232C85.9024 66.3048 85.6336 65.5992 85.6336 64.7064H87.2896C87.2992 65.148 87.4096 65.4984 87.6208 65.7576C87.8416 66.0168 88.1632 66.1464 88.5856 66.1464C89.008 66.1464 89.3296 66.0168 89.5504 65.7576C89.7712 65.4888 89.8816 65.1384 89.8816 64.7064V57.492H91.5376ZM93.6609 63.4968C93.6609 62.7 93.8241 61.9944 94.1505 61.38C94.4865 60.7656 94.9377 60.2904 95.5041 59.9544C96.0801 59.6088 96.7137 59.436 97.4049 59.436C98.0289 59.436 98.5713 59.5608 99.0321 59.8104C99.5025 60.0504 99.8769 60.3528 100.155 60.7176V59.5656H101.811V67.5H100.155V66.3192C99.8769 66.6936 99.4977 67.0056 99.0177 67.2552C98.5377 67.5048 97.9905 67.6296 97.3761 67.6296C96.6945 67.6296 96.0705 67.4568 95.5041 67.1112C94.9377 66.756 94.4865 66.2664 94.1505 65.6424C93.8241 65.0088 93.6609 64.2936 93.6609 63.4968ZM100.155 63.5256C100.155 62.9784 100.04 62.5032 99.8097 62.1C99.5889 61.6968 99.2961 61.3896 98.9313 61.1784C98.5665 60.9672 98.1729 60.8616 97.7505 60.8616C97.3281 60.8616 96.9345 60.9672 96.5697 61.1784C96.2049 61.38 95.9073 61.6824 95.6769 62.0856C95.4561 62.4792 95.3457 62.9496 95.3457 63.4968C95.3457 64.044 95.4561 64.524 95.6769 64.9368C95.9073 65.3496 96.2049 65.6664 96.5697 65.8872C96.9441 66.0984 97.3377 66.204 97.7505 66.204C98.1729 66.204 98.5665 66.0984 98.9313 65.8872C99.2961 65.676 99.5889 65.3688 99.8097 64.9656C100.04 64.5528 100.155 64.0728 100.155 63.5256ZM107.971 59.436C108.595 59.436 109.152 59.5656 109.641 59.8248C110.14 60.084 110.529 60.468 110.808 60.9768C111.086 61.4856 111.225 62.1 111.225 62.82V67.5H109.598V63.0648C109.598 62.3544 109.42 61.812 109.065 61.4376C108.71 61.0536 108.225 60.8616 107.611 60.8616C106.996 60.8616 106.507 61.0536 106.142 61.4376C105.787 61.812 105.609 62.3544 105.609 63.0648V67.5H103.968V59.5656H105.609V60.4728C105.878 60.1464 106.219 59.892 106.632 59.7096C107.054 59.5272 107.5 59.436 107.971 59.436ZM122.517 57.492V64.7064C122.517 65.5992 122.244 66.3048 121.696 66.8232C121.159 67.3416 120.448 67.6008 119.565 67.6008C118.682 67.6008 117.967 67.3416 117.42 66.8232C116.882 66.3048 116.613 65.5992 116.613 64.7064H118.269C118.279 65.148 118.389 65.4984 118.6 65.7576C118.821 66.0168 119.143 66.1464 119.565 66.1464C119.988 66.1464 120.309 66.0168 120.53 65.7576C120.751 65.4888 120.861 65.1384 120.861 64.7064V57.492H122.517ZM124.641 63.4968C124.641 62.7 124.804 61.9944 125.13 61.38C125.466 60.7656 125.917 60.2904 126.484 59.9544C127.06 59.6088 127.693 59.436 128.385 59.436C129.009 59.436 129.551 59.5608 130.012 59.8104C130.482 60.0504 130.857 60.3528 131.135 60.7176V59.5656H132.791V67.5H131.135V66.3192C130.857 66.6936 130.477 67.0056 129.997 67.2552C129.517 67.5048 128.97 67.6296 128.356 67.6296C127.674 67.6296 127.05 67.4568 126.484 67.1112C125.917 66.756 125.466 66.2664 125.13 65.6424C124.804 65.0088 124.641 64.2936 124.641 63.4968ZM131.135 63.5256C131.135 62.9784 131.02 62.5032 130.789 62.1C130.569 61.6968 130.276 61.3896 129.911 61.1784C129.546 60.9672 129.153 60.8616 128.73 60.8616C128.308 60.8616 127.914 60.9672 127.549 61.1784C127.185 61.38 126.887 61.6824 126.657 62.0856C126.436 62.4792 126.325 62.9496 126.325 63.4968C126.325 64.044 126.436 64.524 126.657 64.9368C126.887 65.3496 127.185 65.6664 127.549 65.8872C127.924 66.0984 128.317 66.204 128.73 66.204C129.153 66.204 129.546 66.0984 129.911 65.8872C130.276 65.676 130.569 65.3688 130.789 64.9656C131.02 64.5528 131.135 64.0728 131.135 63.5256ZM138.95 59.436C139.574 59.436 140.131 59.5656 140.621 59.8248C141.12 60.084 141.509 60.468 141.787 60.9768C142.066 61.4856 142.205 62.1 142.205 62.82V67.5H140.578V63.0648C140.578 62.3544 140.4 61.812 140.045 61.4376C139.69 61.0536 139.205 60.8616 138.59 60.8616C137.976 60.8616 137.486 61.0536 137.122 61.4376C136.766 61.812 136.589 62.3544 136.589 63.0648V67.5H134.947V59.5656H136.589V60.4728C136.858 60.1464 137.198 59.892 137.611 59.7096C138.034 59.5272 138.48 59.436 138.95 59.436ZM147.179 67.6296C146.555 67.6296 145.993 67.5192 145.494 67.2984C145.004 67.068 144.616 66.7608 144.328 66.3768C144.04 65.9832 143.886 65.5464 143.867 65.0664H145.566C145.595 65.4024 145.753 65.6856 146.041 65.916C146.339 66.1368 146.708 66.2472 147.15 66.2472C147.611 66.2472 147.966 66.1608 148.216 65.988C148.475 65.8056 148.604 65.5752 148.604 65.2968C148.604 64.9992 148.46 64.7784 148.172 64.6344C147.894 64.4904 147.448 64.332 146.833 64.1592C146.238 63.996 145.753 63.8376 145.379 63.684C145.004 63.5304 144.678 63.2952 144.4 62.9784C144.131 62.6616 143.996 62.244 143.996 61.7256C143.996 61.3032 144.121 60.9192 144.371 60.5736C144.62 60.2184 144.976 59.94 145.436 59.7384C145.907 59.5368 146.444 59.436 147.049 59.436C147.952 59.436 148.676 59.6664 149.224 60.1272C149.78 60.5784 150.078 61.1976 150.116 61.9848H148.475C148.446 61.6296 148.302 61.3464 148.043 61.1352C147.784 60.924 147.433 60.8184 146.992 60.8184C146.56 60.8184 146.228 60.9 145.998 61.0632C145.768 61.2264 145.652 61.4424 145.652 61.7112C145.652 61.9224 145.729 62.1 145.883 62.244C146.036 62.388 146.224 62.5032 146.444 62.5896C146.665 62.6664 146.992 62.7672 147.424 62.892C148 63.0456 148.47 63.204 148.835 63.3672C149.209 63.5208 149.531 63.7512 149.8 64.0584C150.068 64.3656 150.208 64.7736 150.217 65.2824C150.217 65.7336 150.092 66.1368 149.843 66.492C149.593 66.8472 149.238 67.1256 148.777 67.3272C148.326 67.5288 147.793 67.6296 147.179 67.6296ZM154.871 67.6296C154.247 67.6296 153.685 67.5192 153.186 67.2984C152.697 67.068 152.308 66.7608 152.02 66.3768C151.732 65.9832 151.578 65.5464 151.559 65.0664H153.258C153.287 65.4024 153.445 65.6856 153.733 65.916C154.031 66.1368 154.401 66.2472 154.842 66.2472C155.303 66.2472 155.658 66.1608 155.908 65.988C156.167 65.8056 156.297 65.5752 156.297 65.2968C156.297 64.9992 156.153 64.7784 155.865 64.6344C155.586 64.4904 155.14 64.332 154.525 64.1592C153.93 63.996 153.445 63.8376 153.071 63.684C152.697 63.5304 152.37 63.2952 152.092 62.9784C151.823 62.6616 151.689 62.244 151.689 61.7256C151.689 61.3032 151.813 60.9192 152.063 60.5736C152.313 60.2184 152.668 59.94 153.129 59.7384C153.599 59.5368 154.137 59.436 154.741 59.436C155.644 59.436 156.369 59.6664 156.916 60.1272C157.473 60.5784 157.77 61.1976 157.809 61.9848H156.167C156.138 61.6296 155.994 61.3464 155.735 61.1352C155.476 60.924 155.125 60.8184 154.684 60.8184C154.252 60.8184 153.921 60.9 153.69 61.0632C153.46 61.2264 153.345 61.4424 153.345 61.7112C153.345 61.9224 153.421 62.1 153.575 62.244C153.729 62.388 153.916 62.5032 154.137 62.5896C154.357 62.6664 154.684 62.7672 155.116 62.892C155.692 63.0456 156.162 63.204 156.527 63.3672C156.901 63.5208 157.223 63.7512 157.492 64.0584C157.761 64.3656 157.9 64.7736 157.909 65.2824C157.909 65.7336 157.785 66.1368 157.535 66.492C157.285 66.8472 156.93 67.1256 156.469 67.3272C156.018 67.5288 155.485 67.6296 154.871 67.6296ZM166.955 63.3384C166.955 63.636 166.936 63.9048 166.898 64.1448H160.835C160.883 64.7784 161.118 65.2872 161.541 65.6712C161.963 66.0552 162.482 66.2472 163.096 66.2472C163.979 66.2472 164.603 65.8776 164.968 65.1384H166.739C166.499 65.868 166.062 66.468 165.429 66.9384C164.805 67.3992 164.027 67.6296 163.096 67.6296C162.338 67.6296 161.656 67.4616 161.051 67.1256C160.456 66.78 159.986 66.3 159.64 65.6856C159.304 65.0616 159.136 64.3416 159.136 63.5256C159.136 62.7096 159.299 61.9944 159.626 61.38C159.962 60.756 160.427 60.276 161.022 59.94C161.627 59.604 162.318 59.436 163.096 59.436C163.845 59.436 164.512 59.5992 165.098 59.9256C165.683 60.252 166.139 60.7128 166.466 61.308C166.792 61.8936 166.955 62.5704 166.955 63.3384ZM165.242 62.82C165.232 62.2152 165.016 61.7304 164.594 61.3656C164.171 61.0008 163.648 60.8184 163.024 60.8184C162.458 60.8184 161.973 61.0008 161.57 61.3656C161.166 61.7208 160.926 62.2056 160.85 62.82H165.242ZM172.574 59.436C173.198 59.436 173.755 59.5656 174.244 59.8248C174.743 60.084 175.132 60.468 175.411 60.9768C175.689 61.4856 175.828 62.1 175.828 62.82V67.5H174.201V63.0648C174.201 62.3544 174.023 61.812 173.668 61.4376C173.313 61.0536 172.828 60.8616 172.214 60.8616C171.599 60.8616 171.11 61.0536 170.745 61.4376C170.39 61.812 170.212 62.3544 170.212 63.0648V67.5H168.571V59.5656H170.212V60.4728C170.481 60.1464 170.822 59.892 171.235 59.7096C171.657 59.5272 172.103 59.436 172.574 59.436ZM180.802 67.6296C180.178 67.6296 179.617 67.5192 179.117 67.2984C178.628 67.068 178.239 66.7608 177.951 66.3768C177.663 65.9832 177.509 65.5464 177.49 65.0664H179.189C179.218 65.4024 179.377 65.6856 179.665 65.916C179.962 66.1368 180.332 66.2472 180.773 66.2472C181.234 66.2472 181.589 66.1608 181.839 65.988C182.098 65.8056 182.228 65.5752 182.228 65.2968C182.228 64.9992 182.084 64.7784 181.796 64.6344C181.517 64.4904 181.071 64.332 180.457 64.1592C179.861 63.996 179.377 63.8376 179.002 63.684C178.628 63.5304 178.301 63.2952 178.023 62.9784C177.754 62.6616 177.62 62.244 177.62 61.7256C177.62 61.3032 177.745 60.9192 177.994 60.5736C178.244 60.2184 178.599 59.94 179.06 59.7384C179.53 59.5368 180.068 59.436 180.673 59.436C181.575 59.436 182.3 59.6664 182.847 60.1272C183.404 60.5784 183.701 61.1976 183.74 61.9848H182.098C182.069 61.6296 181.925 61.3464 181.666 61.1352C181.407 60.924 181.057 60.8184 180.615 60.8184C180.183 60.8184 179.852 60.9 179.621 61.0632C179.391 61.2264 179.276 61.4424 179.276 61.7112C179.276 61.9224 179.353 62.1 179.506 62.244C179.66 62.388 179.847 62.5032 180.068 62.5896C180.289 62.6664 180.615 62.7672 181.047 62.892C181.623 63.0456 182.093 63.204 182.458 63.3672C182.833 63.5208 183.154 63.7512 183.423 64.0584C183.692 64.3656 183.831 64.7736 183.841 65.2824C183.841 65.7336 183.716 66.1368 183.466 66.492C183.217 66.8472 182.861 67.1256 182.401 67.3272C181.949 67.5288 181.417 67.6296 180.802 67.6296Z" fill="white"/>
<path d="M244.03 56.2273C245.569 57.6791 247.645 58.5713 249.93 58.5713C254.676 58.5713 258.523 54.7333 258.523 50C258.523 45.266 254.676 41.4284 249.93 41.4284C247.61 41.4284 245.507 42.3473 243.961 43.8378L242.969 42.8142C244.774 41.0738 247.228 40 249.93 40C255.458 40 259.955 44.4862 259.955 50C259.955 55.5142 255.458 60 249.93 60C247.267 60 244.845 58.9573 243.049 57.262L244.03 56.2273Z" fill="white"/>
<path d="M240.006 49.9996L240 49.9942L243.358 46.6442L244.371 47.6547L242.736 49.2858H252.63V50.7142H242.736L244.371 52.3456L243.358 53.3558L240 50.0056L240.006 49.9996Z" fill="white"/>
<line y1="99.5" x2="300" y2="99.5" stroke="#25438E"/>
<rect width="300" height="45" transform="translate(0 120)" fill="#172A59"/>
<path d="M43.5934 146H48.9157V148H40.8475V146.169L46.1359 138.169H40.8475V136.169H48.9157V137.999L43.5934 146ZM55.1054 148.153C54.2014 148.153 53.3878 147.955 52.6646 147.559C51.9414 147.152 51.3707 146.582 50.9526 145.847C50.5458 145.113 50.3424 144.265 50.3424 143.305C50.3424 142.344 50.5515 141.497 50.9696 140.762C51.399 140.028 51.9809 139.463 52.7154 139.067C53.4499 138.661 54.2692 138.457 55.1732 138.457C56.0772 138.457 56.8964 138.661 57.6309 139.067C58.3654 139.463 58.9417 140.028 59.3598 140.762C59.7892 141.497 60.0039 142.344 60.0039 143.305C60.0039 144.265 59.7836 145.113 59.3429 145.847C58.9135 146.582 58.3259 147.152 57.5801 147.559C56.8456 147.955 56.0207 148.153 55.1054 148.153ZM55.1054 146.085C55.5348 146.085 55.9359 145.983 56.3088 145.78C56.693 145.565 56.9981 145.248 57.2241 144.83C57.4501 144.412 57.5631 143.904 57.5631 143.305C57.5631 142.412 57.3258 141.728 56.8512 141.254C56.3879 140.768 55.8173 140.525 55.1393 140.525C54.4613 140.525 53.8906 140.768 53.4273 141.254C52.9753 141.728 52.7493 142.412 52.7493 143.305C52.7493 144.198 52.9697 144.887 53.4104 145.373C53.8624 145.847 54.4274 146.085 55.1054 146.085ZM70.4739 143.101C70.4739 143.44 70.4513 143.746 70.4061 144.017H63.5413C63.5978 144.695 63.8351 145.226 64.2532 145.61C64.6713 145.994 65.1855 146.186 65.7957 146.186C66.6771 146.186 67.3042 145.808 67.6771 145.051H70.2366C69.9654 145.955 69.4456 146.7 68.6772 147.288C67.9088 147.864 66.9652 148.153 65.8465 148.153C64.9425 148.153 64.1289 147.955 63.4057 147.559C62.6938 147.152 62.1345 146.582 61.7277 145.847C61.3322 145.113 61.1344 144.265 61.1344 143.305C61.1344 142.333 61.3322 141.48 61.7277 140.745C62.1232 140.011 62.6769 139.446 63.3888 139.05C64.1007 138.655 64.9199 138.457 65.8465 138.457C66.7392 138.457 67.5359 138.649 68.2365 139.033C68.9484 139.418 69.4964 139.966 69.8806 140.678C70.2761 141.378 70.4739 142.186 70.4739 143.101ZM68.0161 142.423C68.0048 141.813 67.7845 141.327 67.3551 140.966C66.9257 140.593 66.4002 140.406 65.7787 140.406C65.1911 140.406 64.6939 140.587 64.2871 140.949C63.8916 141.299 63.6487 141.791 63.5583 142.423H68.0161ZM77.7655 148L74.5789 144V148H72.2059V135.457H74.5789V142.593L77.7316 138.61H80.8165L76.6807 143.322L80.8504 148H77.7655ZM90.8337 143.101C90.8337 143.44 90.8111 143.746 90.7659 144.017H83.9012C83.9577 144.695 84.195 145.226 84.6131 145.61C85.0312 145.994 85.5453 146.186 86.1555 146.186C87.0369 146.186 87.6641 145.808 88.037 145.051H90.5964C90.3252 145.955 89.8054 146.7 89.037 147.288C88.2686 147.864 87.3251 148.153 86.2064 148.153C85.3024 148.153 84.4888 147.955 83.7656 147.559C83.0537 147.152 82.4943 146.582 82.0875 145.847C81.692 145.113 81.4943 144.265 81.4943 143.305C81.4943 142.333 81.692 141.48 82.0875 140.745C82.483 140.011 83.0367 139.446 83.7486 139.05C84.4605 138.655 85.2798 138.457 86.2064 138.457C87.0991 138.457 87.8957 138.649 88.5963 139.033C89.3082 139.418 89.8563 139.966 90.2405 140.678C90.636 141.378 90.8337 142.186 90.8337 143.101ZM88.376 142.423C88.3647 141.813 88.1443 141.327 87.7149 140.966C87.2855 140.593 86.7601 140.406 86.1386 140.406C85.551 140.406 85.0538 140.587 84.647 140.949C84.2515 141.299 84.0085 141.791 83.9181 142.423H88.376ZM97.7694 138.474C98.8881 138.474 99.7921 138.83 100.481 139.542C101.171 140.243 101.515 141.226 101.515 142.491V148H99.1424V142.813C99.1424 142.067 98.9559 141.497 98.583 141.101C98.2101 140.695 97.7016 140.491 97.0575 140.491C96.4021 140.491 95.8823 140.695 95.4981 141.101C95.1252 141.497 94.9388 142.067 94.9388 142.813V148H92.5658V138.61H94.9388V139.779C95.2552 139.372 95.6563 139.056 96.1422 138.83C96.6394 138.593 97.1818 138.474 97.7694 138.474Z" fill="white"/>
<rect width="220" height="42" transform="translate(40 175)" fill="white"/>
<path d="M62.7216 199.675H66.1056V201H61.08V190.992H62.7216V199.675ZM70.92 201.13C70.1712 201.13 69.4944 200.962 68.8896 200.626C68.2848 200.28 67.8096 199.8 67.464 199.186C67.1184 198.562 66.9456 197.842 66.9456 197.026C66.9456 196.219 67.1232 195.504 67.4784 194.88C67.8336 194.256 68.3184 193.776 68.9328 193.44C69.5472 193.104 70.2336 192.936 70.992 192.936C71.7504 192.936 72.4368 193.104 73.0512 193.44C73.6656 193.776 74.1504 194.256 74.5056 194.88C74.8608 195.504 75.0384 196.219 75.0384 197.026C75.0384 197.832 74.856 198.547 74.4912 199.171C74.1264 199.795 73.6272 200.28 72.9936 200.626C72.3696 200.962 71.6784 201.13 70.92 201.13ZM70.92 199.704C71.3424 199.704 71.736 199.603 72.1008 199.402C72.4752 199.2 72.7776 198.898 73.008 198.494C73.2384 198.091 73.3536 197.602 73.3536 197.026C73.3536 196.45 73.2432 195.965 73.0224 195.571C72.8016 195.168 72.5088 194.866 72.144 194.664C71.7792 194.462 71.3856 194.362 70.9632 194.362C70.5408 194.362 70.1472 194.462 69.7824 194.664C69.4272 194.866 69.144 195.168 68.9328 195.571C68.7216 195.965 68.616 196.45 68.616 197.026C68.616 197.88 68.832 198.542 69.264 199.013C69.7056 199.474 70.2576 199.704 70.92 199.704ZM78.3029 194.218C78.5429 193.814 78.8597 193.502 79.2533 193.282C79.6565 193.051 80.1317 192.936 80.6789 192.936V194.635H80.2613C79.6181 194.635 79.1285 194.798 78.7925 195.125C78.4661 195.451 78.3029 196.018 78.3029 196.824V201H76.6613V193.066H78.3029V194.218ZM89.4598 196.838C89.4598 197.136 89.4406 197.405 89.4022 197.645H83.3398C83.3878 198.278 83.623 198.787 84.0454 199.171C84.4678 199.555 84.9862 199.747 85.6006 199.747C86.4838 199.747 87.1078 199.378 87.4726 198.638H89.2438C89.0038 199.368 88.567 199.968 87.9334 200.438C87.3094 200.899 86.5318 201.13 85.6006 201.13C84.8422 201.13 84.1606 200.962 83.5558 200.626C82.9606 200.28 82.4902 199.8 82.1446 199.186C81.8086 198.562 81.6406 197.842 81.6406 197.026C81.6406 196.21 81.8038 195.494 82.1302 194.88C82.4662 194.256 82.9318 193.776 83.527 193.44C84.1318 193.104 84.823 192.936 85.6006 192.936C86.3494 192.936 87.0166 193.099 87.6022 193.426C88.1878 193.752 88.6438 194.213 88.9702 194.808C89.2966 195.394 89.4598 196.07 89.4598 196.838ZM87.7462 196.32C87.7366 195.715 87.5206 195.23 87.0982 194.866C86.6758 194.501 86.1526 194.318 85.5286 194.318C84.9622 194.318 84.4774 194.501 84.0742 194.866C83.671 195.221 83.431 195.706 83.3542 196.32H87.7462ZM100.68 192.936C101.304 192.936 101.861 193.066 102.351 193.325C102.85 193.584 103.239 193.968 103.517 194.477C103.805 194.986 103.949 195.6 103.949 196.32V201H102.322V196.565C102.322 195.854 102.144 195.312 101.789 194.938C101.434 194.554 100.949 194.362 100.335 194.362C99.7201 194.362 99.2305 194.554 98.8657 194.938C98.5105 195.312 98.3329 195.854 98.3329 196.565V201H96.7057V196.565C96.7057 195.854 96.5281 195.312 96.1729 194.938C95.8177 194.554 95.3329 194.362 94.7185 194.362C94.1041 194.362 93.6145 194.554 93.2497 194.938C92.8945 195.312 92.7169 195.854 92.7169 196.565V201H91.0753V193.066H92.7169V193.973C92.9857 193.646 93.3265 193.392 93.7393 193.21C94.1521 193.027 94.5937 192.936 95.0641 192.936C95.6977 192.936 96.2641 193.07 96.7633 193.339C97.2625 193.608 97.6465 193.997 97.9153 194.506C98.1553 194.026 98.5297 193.646 99.0385 193.368C99.5473 193.08 100.095 192.936 100.68 192.936ZM110.614 192.014C110.316 192.014 110.066 191.914 109.865 191.712C109.663 191.51 109.562 191.261 109.562 190.963C109.562 190.666 109.663 190.416 109.865 190.214C110.066 190.013 110.316 189.912 110.614 189.912C110.902 189.912 111.146 190.013 111.348 190.214C111.55 190.416 111.65 190.666 111.65 190.963C111.65 191.261 111.55 191.51 111.348 191.712C111.146 191.914 110.902 192.014 110.614 192.014ZM111.42 193.066V201H109.778V193.066H111.42ZM115.217 194.232C115.495 193.867 115.875 193.56 116.355 193.31C116.835 193.061 117.377 192.936 117.982 192.936C118.673 192.936 119.302 193.109 119.868 193.454C120.444 193.79 120.895 194.266 121.222 194.88C121.548 195.494 121.711 196.2 121.711 196.997C121.711 197.794 121.548 198.509 121.222 199.142C120.895 199.766 120.444 200.256 119.868 200.611C119.302 200.957 118.673 201.13 117.982 201.13C117.377 201.13 116.839 201.01 116.369 200.77C115.899 200.52 115.515 200.213 115.217 199.848V204.773H113.575V193.066H115.217V194.232ZM120.041 196.997C120.041 196.45 119.926 195.979 119.695 195.586C119.475 195.182 119.177 194.88 118.803 194.678C118.438 194.467 118.044 194.362 117.622 194.362C117.209 194.362 116.815 194.467 116.441 194.678C116.076 194.89 115.779 195.197 115.548 195.6C115.327 196.003 115.217 196.478 115.217 197.026C115.217 197.573 115.327 198.053 115.548 198.466C115.779 198.869 116.076 199.176 116.441 199.387C116.815 199.598 117.209 199.704 117.622 199.704C118.044 199.704 118.438 199.598 118.803 199.387C119.177 199.166 119.475 198.85 119.695 198.437C119.926 198.024 120.041 197.544 120.041 196.997ZM126.215 201.13C125.591 201.13 125.029 201.019 124.53 200.798C124.04 200.568 123.651 200.261 123.363 199.877C123.075 199.483 122.922 199.046 122.903 198.566H124.602C124.631 198.902 124.789 199.186 125.077 199.416C125.375 199.637 125.744 199.747 126.186 199.747C126.647 199.747 127.002 199.661 127.251 199.488C127.511 199.306 127.64 199.075 127.64 198.797C127.64 198.499 127.496 198.278 127.208 198.134C126.93 197.99 126.483 197.832 125.869 197.659C125.274 197.496 124.789 197.338 124.415 197.184C124.04 197.03 123.714 196.795 123.435 196.478C123.167 196.162 123.032 195.744 123.032 195.226C123.032 194.803 123.157 194.419 123.407 194.074C123.656 193.718 124.011 193.44 124.472 193.238C124.943 193.037 125.48 192.936 126.085 192.936C126.987 192.936 127.712 193.166 128.259 193.627C128.816 194.078 129.114 194.698 129.152 195.485H127.511C127.482 195.13 127.338 194.846 127.079 194.635C126.819 194.424 126.469 194.318 126.027 194.318C125.595 194.318 125.264 194.4 125.034 194.563C124.803 194.726 124.688 194.942 124.688 195.211C124.688 195.422 124.765 195.6 124.919 195.744C125.072 195.888 125.259 196.003 125.48 196.09C125.701 196.166 126.027 196.267 126.459 196.392C127.035 196.546 127.506 196.704 127.871 196.867C128.245 197.021 128.567 197.251 128.835 197.558C129.104 197.866 129.243 198.274 129.253 198.782C129.253 199.234 129.128 199.637 128.879 199.992C128.629 200.347 128.274 200.626 127.813 200.827C127.362 201.029 126.829 201.13 126.215 201.13ZM138.212 193.066V201H136.571V200.064C136.312 200.39 135.971 200.65 135.548 200.842C135.136 201.024 134.694 201.115 134.224 201.115C133.6 201.115 133.038 200.986 132.539 200.726C132.049 200.467 131.66 200.083 131.372 199.574C131.094 199.066 130.955 198.451 130.955 197.731V193.066H132.582V197.486C132.582 198.197 132.76 198.744 133.115 199.128C133.47 199.502 133.955 199.69 134.569 199.69C135.184 199.69 135.668 199.502 136.024 199.128C136.388 198.744 136.571 198.197 136.571 197.486V193.066H138.212ZM149.983 192.936C150.607 192.936 151.164 193.066 151.654 193.325C152.153 193.584 152.542 193.968 152.82 194.477C153.108 194.986 153.252 195.6 153.252 196.32V201H151.625V196.565C151.625 195.854 151.447 195.312 151.092 194.938C150.737 194.554 150.252 194.362 149.638 194.362C149.023 194.362 148.534 194.554 148.169 194.938C147.814 195.312 147.636 195.854 147.636 196.565V201H146.009V196.565C146.009 195.854 145.831 195.312 145.476 194.938C145.121 194.554 144.636 194.362 144.022 194.362C143.407 194.362 142.918 194.554 142.553 194.938C142.198 195.312 142.02 195.854 142.02 196.565V201H140.378V193.066H142.02V193.973C142.289 193.646 142.63 193.392 143.042 193.21C143.455 193.027 143.897 192.936 144.367 192.936C145.001 192.936 145.567 193.07 146.066 193.339C146.566 193.608 146.95 193.997 147.218 194.506C147.458 194.026 147.833 193.646 148.342 193.368C148.85 193.08 149.398 192.936 149.983 192.936Z" fill="#8990A9"/>
<path d="M224.059 189.696C224.035 189.672 224.007 189.653 223.975 189.64C223.944 189.627 223.91 189.62 223.876 189.62C223.842 189.62 223.808 189.627 223.777 189.64C223.745 189.653 223.717 189.672 223.693 189.696C222.672 190.719 222.1 192.104 222.1 193.548C222.1 194.993 222.672 196.378 223.693 197.4C223.741 197.449 223.807 197.476 223.876 197.476C223.945 197.476 224.011 197.449 224.059 197.4C224.108 197.352 224.135 197.286 224.135 197.217C224.135 197.148 224.108 197.082 224.059 197.034C223.136 196.108 222.618 194.855 222.618 193.548C222.618 192.241 223.136 190.988 224.059 190.063C224.083 190.039 224.102 190.01 224.116 189.979C224.129 189.947 224.135 189.913 224.135 189.879C224.135 189.845 224.129 189.812 224.116 189.78C224.102 189.749 224.083 189.72 224.059 189.696Z" fill="#172A59" stroke="#172A59"/>
<path d="M239.726 203.891L235.181 199.347C235.003 199.176 234.765 199.081 234.519 199.081C234.272 199.081 234.035 199.176 233.856 199.347L233.785 199.418L233.044 198.677C234.393 197.233 235.12 195.316 235.069 193.341C235.018 191.365 234.193 189.489 232.772 188.116C231.35 186.743 229.447 185.983 227.471 186C225.495 186.017 223.604 186.81 222.207 188.207C220.81 189.604 220.017 191.494 220 193.471C219.983 195.447 220.743 197.35 222.116 198.771C223.489 200.192 225.366 201.017 227.341 201.068C229.317 201.119 231.233 200.392 232.678 199.044L233.418 199.785L233.347 199.856C233.172 200.032 233.073 200.27 233.073 200.518C233.073 200.766 233.172 201.005 233.347 201.18L237.891 205.726C238.067 205.902 238.305 206 238.553 206C238.802 206 239.04 205.902 239.216 205.726L239.725 205.217C239.901 205.042 240 204.803 240 204.555C240 204.306 239.902 204.067 239.726 203.891ZM220.543 193.548C220.543 192.162 220.954 190.808 221.724 189.656C222.494 188.505 223.587 187.607 224.867 187.077C226.147 186.547 227.555 186.408 228.914 186.678C230.273 186.949 231.521 187.616 232.5 188.595C233.48 189.575 234.147 190.823 234.417 192.182C234.687 193.54 234.549 194.949 234.019 196.228C233.488 197.508 232.591 198.602 231.439 199.372C230.287 200.141 228.933 200.552 227.548 200.552C225.691 200.55 223.91 199.812 222.597 198.498C221.284 197.185 220.545 195.405 220.543 193.548ZM239.359 204.85L238.85 205.359C238.771 205.437 238.665 205.481 238.554 205.481C238.443 205.481 238.337 205.437 238.258 205.359L233.714 200.814C233.635 200.736 233.592 200.629 233.592 200.518C233.592 200.407 233.635 200.301 233.714 200.223L234.223 199.713C234.301 199.634 234.407 199.59 234.518 199.59C234.629 199.59 234.735 199.634 234.814 199.713L239.359 204.258C239.437 204.336 239.481 204.443 239.481 204.554C239.481 204.665 239.437 204.771 239.359 204.85Z" fill="#172A59" stroke="#172A59"/>
<line y1="256.5" x2="300" y2="256.5" stroke="#25438E"/>
<rect width="300" height="45" transform="translate(0 277)" fill="#172A59"/>
<path d="M40.5933 299.067C40.5933 297.904 40.8532 296.864 41.373 295.949C41.9041 295.022 42.6216 294.305 43.5256 293.796C44.4409 293.276 45.4636 293.016 46.5936 293.016C47.9157 293.016 49.0739 293.355 50.0683 294.033C51.0627 294.711 51.7577 295.649 52.1532 296.847H49.4242C49.153 296.282 48.7688 295.858 48.2716 295.576C47.7857 295.293 47.2207 295.152 46.5766 295.152C45.8873 295.152 45.2715 295.316 44.7291 295.644C44.198 295.96 43.7799 296.412 43.4748 297C43.181 297.587 43.0341 298.276 43.0341 299.067C43.0341 299.847 43.181 300.536 43.4748 301.135C43.7799 301.723 44.198 302.181 44.7291 302.508C45.2715 302.825 45.8873 302.983 46.5766 302.983C47.2207 302.983 47.7857 302.842 48.2716 302.559C48.7688 302.265 49.153 301.836 49.4242 301.271H52.1532C51.7577 302.48 51.0627 303.424 50.0683 304.102C49.0852 304.768 47.927 305.102 46.5936 305.102C45.4636 305.102 44.4409 304.847 43.5256 304.339C42.6216 303.819 41.9041 303.102 41.373 302.186C40.8532 301.271 40.5933 300.231 40.5933 299.067ZM58.3497 305.153C57.4457 305.153 56.6321 304.955 55.9089 304.559C55.1857 304.152 54.615 303.582 54.1969 302.847C53.7901 302.113 53.5867 301.265 53.5867 300.305C53.5867 299.344 53.7958 298.497 54.2139 297.762C54.6433 297.028 55.2252 296.463 55.9597 296.067C56.6942 295.661 57.5135 295.457 58.4175 295.457C59.3215 295.457 60.1408 295.661 60.8753 296.067C61.6098 296.463 62.1861 297.028 62.6042 297.762C63.0336 298.497 63.2483 299.344 63.2483 300.305C63.2483 301.265 63.0279 302.113 62.5872 302.847C62.1578 303.582 61.5702 304.152 60.8244 304.559C60.0899 304.955 59.265 305.153 58.3497 305.153ZM58.3497 303.085C58.7791 303.085 59.1802 302.983 59.5531 302.78C59.9373 302.565 60.2425 302.248 60.4685 301.83C60.6945 301.412 60.8074 300.904 60.8074 300.305C60.8074 299.412 60.5701 298.728 60.0955 298.254C59.6322 297.768 59.0616 297.525 58.3836 297.525C57.7056 297.525 57.1349 297.768 56.6716 298.254C56.2196 298.728 55.9936 299.412 55.9936 300.305C55.9936 301.198 56.214 301.887 56.6547 302.373C57.1067 302.847 57.6717 303.085 58.3497 303.085ZM67.3619 292.457V305H64.9889V292.457H67.3619ZM72.0795 292.457V305H69.7065V292.457H72.0795ZM83.1532 300.101C83.1532 300.44 83.1306 300.746 83.0854 301.017H76.2207C76.2772 301.695 76.5145 302.226 76.9326 302.61C77.3507 302.994 77.8648 303.186 78.475 303.186C79.3564 303.186 79.9836 302.808 80.3565 302.051H82.9159C82.6447 302.955 82.1249 303.7 81.3565 304.288C80.5881 304.864 79.6446 305.153 78.5259 305.153C77.6219 305.153 76.8083 304.955 76.0851 304.559C75.3732 304.152 74.8138 303.582 74.407 302.847C74.0115 302.113 73.8138 301.265 73.8138 300.305C73.8138 299.333 74.0115 298.48 74.407 297.745C74.8025 297.011 75.3562 296.446 76.0681 296.05C76.78 295.655 77.5993 295.457 78.5259 295.457C79.4186 295.457 80.2152 295.649 80.9158 296.033C81.6277 296.418 82.1758 296.966 82.56 297.678C82.9555 298.378 83.1532 299.186 83.1532 300.101ZM80.6955 299.423C80.6842 298.813 80.4638 298.327 80.0344 297.966C79.605 297.593 79.0796 297.406 78.4581 297.406C77.8705 297.406 77.3733 297.587 76.9665 297.949C76.571 298.299 76.328 298.791 76.2376 299.423H80.6955ZM84.2751 300.305C84.2751 299.333 84.4729 298.486 84.8684 297.762C85.2639 297.028 85.8119 296.463 86.5125 296.067C87.2131 295.661 88.0154 295.457 88.9194 295.457C90.0833 295.457 91.0438 295.751 91.8009 296.339C92.5693 296.915 93.0835 297.728 93.3434 298.779H90.7839C90.6483 298.373 90.4167 298.056 90.089 297.83C89.7726 297.593 89.3771 297.474 88.9025 297.474C88.2245 297.474 87.6877 297.723 87.2922 298.22C86.8967 298.706 86.699 299.401 86.699 300.305C86.699 301.198 86.8967 301.892 87.2922 302.39C87.6877 302.876 88.2245 303.119 88.9025 303.119C89.863 303.119 90.4901 302.689 90.7839 301.83H93.3434C93.0835 302.847 92.5693 303.655 91.8009 304.254C91.0325 304.853 90.072 305.153 88.9194 305.153C88.0154 305.153 87.2131 304.955 86.5125 304.559C85.8119 304.152 85.2639 303.587 84.8684 302.864C84.4729 302.13 84.2751 301.277 84.2751 300.305ZM97.8447 297.559V302.102C97.8447 302.418 97.9181 302.65 98.065 302.796C98.2232 302.932 98.4831 303 98.8447 303H99.9465V305H98.4549C96.4548 305 95.4547 304.028 95.4547 302.085V297.559H94.336V295.61H95.4547V293.288H97.8447V295.61H99.9465V297.559H97.8447ZM102.857 294.491C102.439 294.491 102.088 294.361 101.806 294.101C101.535 293.83 101.399 293.497 101.399 293.101C101.399 292.706 101.535 292.378 101.806 292.118C102.088 291.847 102.439 291.711 102.857 291.711C103.275 291.711 103.619 291.847 103.891 292.118C104.173 292.378 104.314 292.706 104.314 293.101C104.314 293.497 104.173 293.83 103.891 294.101C103.619 294.361 103.275 294.491 102.857 294.491ZM104.026 295.61V305H101.653V295.61H104.026ZM115.1 300.101C115.1 300.44 115.077 300.746 115.032 301.017H108.167C108.224 301.695 108.461 302.226 108.879 302.61C109.297 302.994 109.812 303.186 110.422 303.186C111.303 303.186 111.93 302.808 112.303 302.051H114.863C114.592 302.955 114.072 303.7 113.303 304.288C112.535 304.864 111.591 305.153 110.473 305.153C109.569 305.153 108.755 304.955 108.032 304.559C107.32 304.152 106.761 303.582 106.354 302.847C105.958 302.113 105.761 301.265 105.761 300.305C105.761 299.333 105.958 298.48 106.354 297.745C106.749 297.011 107.303 296.446 108.015 296.05C108.727 295.655 109.546 295.457 110.473 295.457C111.365 295.457 112.162 295.649 112.863 296.033C113.575 296.418 114.123 296.966 114.507 297.678C114.902 298.378 115.1 299.186 115.1 300.101ZM112.642 299.423C112.631 298.813 112.411 298.327 111.981 297.966C111.552 297.593 111.026 297.406 110.405 297.406C109.817 297.406 109.32 297.587 108.913 297.949C108.518 298.299 108.275 298.791 108.184 299.423H112.642ZM120.426 305.153C119.657 305.153 118.968 305.017 118.358 304.746C117.747 304.463 117.262 304.085 116.9 303.61C116.55 303.135 116.358 302.61 116.324 302.034H118.714C118.759 302.395 118.934 302.695 119.239 302.932C119.555 303.169 119.945 303.288 120.409 303.288C120.861 303.288 121.211 303.198 121.459 303.017C121.719 302.836 121.849 302.604 121.849 302.322C121.849 302.017 121.691 301.791 121.375 301.644C121.07 301.486 120.578 301.316 119.9 301.135C119.199 300.966 118.623 300.791 118.171 300.61C117.73 300.429 117.346 300.152 117.019 299.779C116.702 299.406 116.544 298.904 116.544 298.271C116.544 297.751 116.691 297.276 116.985 296.847C117.29 296.418 117.719 296.079 118.273 295.83C118.838 295.581 119.499 295.457 120.256 295.457C121.375 295.457 122.267 295.74 122.934 296.305C123.601 296.858 123.968 297.61 124.036 298.559H121.765C121.731 298.186 121.572 297.892 121.29 297.678C121.019 297.452 120.652 297.339 120.188 297.339C119.759 297.339 119.425 297.418 119.188 297.576C118.962 297.734 118.849 297.954 118.849 298.237C118.849 298.553 119.007 298.796 119.324 298.966C119.64 299.124 120.132 299.288 120.798 299.457C121.476 299.627 122.036 299.802 122.476 299.983C122.917 300.164 123.296 300.446 123.612 300.83C123.94 301.203 124.109 301.7 124.121 302.322C124.121 302.864 123.968 303.35 123.663 303.78C123.369 304.209 122.94 304.548 122.375 304.797C121.821 305.034 121.171 305.153 120.426 305.153Z" fill="white"/>
<g clip-path="url(#clip1)">
<path d="M254.949 298.944H250.52V294.5C250.52 294.353 250.461 294.211 250.357 294.107C250.254 294.003 250.113 293.944 249.966 293.944C249.819 293.944 249.678 294.003 249.574 294.107C249.471 294.211 249.412 294.353 249.412 294.5V298.944H244.983C244.836 298.944 244.695 299.003 244.591 299.107C244.488 299.211 244.429 299.353 244.429 299.5C244.429 299.647 244.488 299.789 244.591 299.893C244.695 299.997 244.836 300.056 244.983 300.056H249.412V304.5C249.412 304.647 249.471 304.789 249.574 304.893C249.678 304.997 249.819 305.056 249.966 305.056C250.113 305.056 250.254 304.997 250.357 304.893C250.461 304.789 250.52 304.647 250.52 304.5V300.056H254.949C255.096 300.056 255.237 299.997 255.341 299.893C255.444 299.789 255.503 299.647 255.503 299.5C255.503 299.353 255.444 299.211 255.341 299.107C255.237 299.003 255.096 298.944 254.949 298.944Z" fill="white"/>
<path d="M249.966 289.5C247.995 289.5 246.068 290.086 244.429 291.185C242.79 292.284 241.513 293.846 240.759 295.673C240.004 297.5 239.807 299.511 240.192 301.451C240.576 303.391 241.525 305.173 242.919 306.571C244.313 307.97 246.089 308.922 248.022 309.308C249.955 309.694 251.959 309.496 253.78 308.739C255.601 307.982 257.158 306.7 258.253 305.056C259.348 303.411 259.932 301.478 259.932 299.5C259.929 296.849 258.878 294.307 257.01 292.432C255.142 290.558 252.608 289.503 249.966 289.5ZM249.966 308.389C248.214 308.389 246.501 307.868 245.045 306.891C243.588 305.914 242.452 304.526 241.782 302.902C241.111 301.277 240.936 299.49 241.278 297.766C241.619 296.042 242.463 294.458 243.702 293.215C244.941 291.971 246.519 291.125 248.238 290.782C249.956 290.439 251.738 290.615 253.356 291.288C254.975 291.961 256.359 293.1 257.332 294.562C258.306 296.023 258.825 297.742 258.825 299.5C258.822 301.857 257.888 304.116 256.227 305.782C254.567 307.449 252.315 308.386 249.966 308.389Z" fill="white"/>
</g>
<rect width="300" height="45" transform="translate(0 322)" fill="#172A59"/>
<path d="M40.7289 344.084C40.7289 342.932 40.9888 341.898 41.5086 340.983C42.0284 340.056 42.7346 339.333 43.6273 338.813C44.5313 338.293 45.5314 338.033 46.6275 338.033C47.9157 338.033 49.04 338.344 50.0005 338.966C50.961 339.587 51.6616 340.468 52.1023 341.61H50.2548C49.9271 340.898 49.4525 340.35 48.831 339.966C48.2208 339.581 47.4863 339.389 46.6275 339.389C45.8026 339.389 45.0624 339.581 44.407 339.966C43.7516 340.35 43.2375 340.898 42.8646 341.61C42.4917 342.31 42.3052 343.135 42.3052 344.084C42.3052 345.022 42.4917 345.847 42.8646 346.559C43.2375 347.26 43.7516 347.802 44.407 348.186C45.0624 348.571 45.8026 348.763 46.6275 348.763C47.4863 348.763 48.2208 348.576 48.831 348.203C49.4525 347.819 49.9271 347.271 50.2548 346.559H52.1023C51.6616 347.689 50.961 348.565 50.0005 349.186C49.04 349.797 47.9157 350.102 46.6275 350.102C45.5314 350.102 44.5313 349.847 43.6273 349.339C42.7346 348.819 42.0284 348.102 41.5086 347.186C40.9888 346.271 40.7289 345.237 40.7289 344.084ZM58.4494 350.153C57.5793 350.153 56.7883 349.955 56.0764 349.559C55.3758 349.164 54.8221 348.604 54.4153 347.881C54.0198 347.147 53.8221 346.299 53.8221 345.339C53.8221 344.39 54.0255 343.553 54.4323 342.83C54.8504 342.096 55.4154 341.536 56.1273 341.152C56.8392 340.757 57.6358 340.559 58.5172 340.559C59.3986 340.559 60.1953 340.757 60.9072 341.152C61.6191 341.536 62.1784 342.09 62.5852 342.813C63.0033 343.536 63.2124 344.378 63.2124 345.339C63.2124 346.299 62.9977 347.147 62.5683 347.881C62.1502 348.604 61.5795 349.164 60.8563 349.559C60.1331 349.955 59.3308 350.153 58.4494 350.153ZM58.4494 348.797C59.0031 348.797 59.5229 348.667 60.0088 348.407C60.4947 348.147 60.8846 347.757 61.1784 347.237C61.4835 346.717 61.636 346.085 61.636 345.339C61.636 344.593 61.4891 343.96 61.1953 343.44C60.9015 342.921 60.5173 342.536 60.0427 342.288C59.5681 342.028 59.054 341.898 58.5003 341.898C57.9353 341.898 57.4155 342.028 56.9409 342.288C56.4776 342.536 56.1047 342.921 55.8222 343.44C55.5397 343.96 55.3984 344.593 55.3984 345.339C55.3984 346.096 55.534 346.734 55.8052 347.254C56.0877 347.774 56.4606 348.164 56.9239 348.424C57.3872 348.672 57.8957 348.797 58.4494 348.797ZM66.7829 337.457V350H65.2404V337.457H66.7829ZM70.9541 337.457V350H69.4117V337.457H70.9541ZM82.058 345C82.058 345.294 82.041 345.604 82.0071 345.932H74.583C74.6395 346.847 74.9503 347.565 75.5153 348.085C76.0916 348.593 76.7865 348.847 77.6001 348.847C78.2668 348.847 78.8205 348.695 79.2612 348.39C79.7132 348.073 80.0296 347.655 80.2104 347.135H81.8715C81.6229 348.028 81.1257 348.757 80.3799 349.322C79.6341 349.876 78.7075 350.153 77.6001 350.153C76.7187 350.153 75.9277 349.955 75.2271 349.559C74.5378 349.164 73.9954 348.604 73.5999 347.881C73.2044 347.147 73.0067 346.299 73.0067 345.339C73.0067 344.378 73.1988 343.536 73.583 342.813C73.9672 342.09 74.5039 341.536 75.1932 341.152C75.8938 340.757 76.6961 340.559 77.6001 340.559C78.4815 340.559 79.2612 340.751 79.9392 341.135C80.6172 341.519 81.137 342.05 81.4986 342.728C81.8715 343.395 82.058 344.152 82.058 345ZM80.4647 344.678C80.4647 344.09 80.3347 343.587 80.0748 343.169C79.8149 342.74 79.459 342.418 79.007 342.203C78.5663 341.977 78.0747 341.864 77.5323 341.864C76.7526 341.864 76.0859 342.113 75.5322 342.61C74.9898 343.107 74.6791 343.796 74.6 344.678H80.4647ZM83.5177 345.339C83.5177 344.378 83.7098 343.542 84.094 342.83C84.4782 342.107 85.0093 341.548 85.6873 341.152C86.3766 340.757 87.1619 340.559 88.0433 340.559C89.1846 340.559 90.1225 340.836 90.857 341.389C91.6028 341.943 92.0944 342.711 92.3317 343.695H90.6706C90.5124 343.13 90.2016 342.683 89.7383 342.356C89.2863 342.028 88.7213 341.864 88.0433 341.864C87.1619 341.864 86.45 342.169 85.9076 342.779C85.3652 343.378 85.094 344.231 85.094 345.339C85.094 346.457 85.3652 347.322 85.9076 347.932C86.45 348.542 87.1619 348.847 88.0433 348.847C88.7213 348.847 89.2863 348.689 89.7383 348.373C90.1903 348.056 90.5011 347.604 90.6706 347.017H92.3317C92.0831 347.966 91.5859 348.729 90.8401 349.305C90.0943 349.87 89.162 350.153 88.0433 350.153C87.1619 350.153 86.3766 349.955 85.6873 349.559C85.0093 349.164 84.4782 348.604 84.094 347.881C83.7098 347.158 83.5177 346.311 83.5177 345.339ZM96.2712 341.983V347.457C96.2712 347.909 96.3673 348.232 96.5594 348.424C96.7515 348.604 97.0848 348.695 97.5594 348.695H98.6951V350H97.3052C96.4464 350 95.8023 349.802 95.3729 349.407C94.9435 349.011 94.7288 348.361 94.7288 347.457V341.983H93.5253V340.711H94.7288V338.372H96.2712V340.711H98.6951V341.983H96.2712ZM101.361 339.203C101.067 339.203 100.818 339.101 100.615 338.898C100.411 338.694 100.31 338.446 100.31 338.152C100.31 337.858 100.411 337.61 100.615 337.406C100.818 337.203 101.067 337.101 101.361 337.101C101.643 337.101 101.88 337.203 102.072 337.406C102.276 337.61 102.378 337.858 102.378 338.152C102.378 338.446 102.276 338.694 102.072 338.898C101.88 339.101 101.643 339.203 101.361 339.203ZM102.106 340.711V350H100.564V340.711H102.106ZM113.21 345C113.21 345.294 113.193 345.604 113.159 345.932H105.735C105.792 346.847 106.103 347.565 106.668 348.085C107.244 348.593 107.939 348.847 108.752 348.847C109.419 348.847 109.973 348.695 110.413 348.39C110.865 348.073 111.182 347.655 111.363 347.135H113.024C112.775 348.028 112.278 348.757 111.532 349.322C110.786 349.876 109.86 350.153 108.752 350.153C107.871 350.153 107.08 349.955 106.379 349.559C105.69 349.164 105.148 348.604 104.752 347.881C104.357 347.147 104.159 346.299 104.159 345.339C104.159 344.378 104.351 343.536 104.735 342.813C105.119 342.09 105.656 341.536 106.345 341.152C107.046 340.757 107.848 340.559 108.752 340.559C109.634 340.559 110.413 340.751 111.091 341.135C111.769 341.519 112.289 342.05 112.651 342.728C113.024 343.395 113.21 344.152 113.21 345ZM111.617 344.678C111.617 344.09 111.487 343.587 111.227 343.169C110.967 342.74 110.611 342.418 110.159 342.203C109.719 341.977 109.227 341.864 108.685 341.864C107.905 341.864 107.238 342.113 106.684 342.61C106.142 343.107 105.831 343.796 105.752 344.678H111.617ZM119.104 339.152V337.745H122.291V350H120.731V339.152H119.104Z" fill="white"/>
<rect width="300" height="45" transform="translate(0 367)" fill="#25438E"/>
<path d="M40.7289 389.084C40.7289 387.932 40.9888 386.898 41.5086 385.983C42.0284 385.056 42.7346 384.333 43.6273 383.813C44.5313 383.293 45.5314 383.033 46.6275 383.033C47.9157 383.033 49.04 383.344 50.0005 383.966C50.961 384.587 51.6616 385.468 52.1023 386.61H50.2548C49.9271 385.898 49.4525 385.35 48.831 384.966C48.2208 384.581 47.4863 384.389 46.6275 384.389C45.8026 384.389 45.0624 384.581 44.407 384.966C43.7516 385.35 43.2375 385.898 42.8646 386.61C42.4917 387.31 42.3052 388.135 42.3052 389.084C42.3052 390.022 42.4917 390.847 42.8646 391.559C43.2375 392.26 43.7516 392.802 44.407 393.186C45.0624 393.571 45.8026 393.763 46.6275 393.763C47.4863 393.763 48.2208 393.576 48.831 393.203C49.4525 392.819 49.9271 392.271 50.2548 391.559H52.1023C51.6616 392.689 50.961 393.565 50.0005 394.186C49.04 394.797 47.9157 395.102 46.6275 395.102C45.5314 395.102 44.5313 394.847 43.6273 394.339C42.7346 393.819 42.0284 393.102 41.5086 392.186C40.9888 391.271 40.7289 390.237 40.7289 389.084ZM58.4494 395.153C57.5793 395.153 56.7883 394.955 56.0764 394.559C55.3758 394.164 54.8221 393.604 54.4153 392.881C54.0198 392.147 53.8221 391.299 53.8221 390.339C53.8221 389.39 54.0255 388.553 54.4323 387.83C54.8504 387.096 55.4154 386.536 56.1273 386.152C56.8392 385.757 57.6358 385.559 58.5172 385.559C59.3986 385.559 60.1953 385.757 60.9072 386.152C61.6191 386.536 62.1784 387.09 62.5852 387.813C63.0033 388.536 63.2124 389.378 63.2124 390.339C63.2124 391.299 62.9977 392.147 62.5683 392.881C62.1502 393.604 61.5795 394.164 60.8563 394.559C60.1331 394.955 59.3308 395.153 58.4494 395.153ZM58.4494 393.797C59.0031 393.797 59.5229 393.667 60.0088 393.407C60.4947 393.147 60.8846 392.757 61.1784 392.237C61.4835 391.717 61.636 391.085 61.636 390.339C61.636 389.593 61.4891 388.96 61.1953 388.44C60.9015 387.921 60.5173 387.536 60.0427 387.288C59.5681 387.028 59.054 386.898 58.5003 386.898C57.9353 386.898 57.4155 387.028 56.9409 387.288C56.4776 387.536 56.1047 387.921 55.8222 388.44C55.5397 388.96 55.3984 389.593 55.3984 390.339C55.3984 391.096 55.534 391.734 55.8052 392.254C56.0877 392.774 56.4606 393.164 56.9239 393.424C57.3872 393.672 57.8957 393.797 58.4494 393.797ZM66.7829 382.457V395H65.2404V382.457H66.7829ZM70.9541 382.457V395H69.4117V382.457H70.9541ZM82.058 390C82.058 390.294 82.041 390.604 82.0071 390.932H74.583C74.6395 391.847 74.9503 392.565 75.5153 393.085C76.0916 393.593 76.7865 393.847 77.6001 393.847C78.2668 393.847 78.8205 393.695 79.2612 393.39C79.7132 393.073 80.0296 392.655 80.2104 392.135H81.8715C81.6229 393.028 81.1257 393.757 80.3799 394.322C79.6341 394.876 78.7075 395.153 77.6001 395.153C76.7187 395.153 75.9277 394.955 75.2271 394.559C74.5378 394.164 73.9954 393.604 73.5999 392.881C73.2044 392.147 73.0067 391.299 73.0067 390.339C73.0067 389.378 73.1988 388.536 73.583 387.813C73.9672 387.09 74.5039 386.536 75.1932 386.152C75.8938 385.757 76.6961 385.559 77.6001 385.559C78.4815 385.559 79.2612 385.751 79.9392 386.135C80.6172 386.519 81.137 387.05 81.4986 387.728C81.8715 388.395 82.058 389.152 82.058 390ZM80.4647 389.678C80.4647 389.09 80.3347 388.587 80.0748 388.169C79.8149 387.74 79.459 387.418 79.007 387.203C78.5663 386.977 78.0747 386.864 77.5323 386.864C76.7526 386.864 76.0859 387.113 75.5322 387.61C74.9898 388.107 74.6791 388.796 74.6 389.678H80.4647ZM83.5177 390.339C83.5177 389.378 83.7098 388.542 84.094 387.83C84.4782 387.107 85.0093 386.548 85.6873 386.152C86.3766 385.757 87.1619 385.559 88.0433 385.559C89.1846 385.559 90.1225 385.836 90.857 386.389C91.6028 386.943 92.0944 387.711 92.3317 388.695H90.6706C90.5124 388.13 90.2016 387.683 89.7383 387.356C89.2863 387.028 88.7213 386.864 88.0433 386.864C87.1619 386.864 86.45 387.169 85.9076 387.779C85.3652 388.378 85.094 389.231 85.094 390.339C85.094 391.457 85.3652 392.322 85.9076 392.932C86.45 393.542 87.1619 393.847 88.0433 393.847C88.7213 393.847 89.2863 393.689 89.7383 393.373C90.1903 393.056 90.5011 392.604 90.6706 392.017H92.3317C92.0831 392.966 91.5859 393.729 90.8401 394.305C90.0943 394.87 89.162 395.153 88.0433 395.153C87.1619 395.153 86.3766 394.955 85.6873 394.559C85.0093 394.164 84.4782 393.604 84.094 392.881C83.7098 392.158 83.5177 391.311 83.5177 390.339ZM96.2712 386.983V392.457C96.2712 392.909 96.3673 393.232 96.5594 393.424C96.7515 393.604 97.0848 393.695 97.5594 393.695H98.6951V395H97.3052C96.4464 395 95.8023 394.802 95.3729 394.407C94.9435 394.011 94.7288 393.361 94.7288 392.457V386.983H93.5253V385.711H94.7288V383.372H96.2712V385.711H98.6951V386.983H96.2712ZM101.361 384.203C101.067 384.203 100.818 384.101 100.615 383.898C100.411 383.694 100.31 383.446 100.31 383.152C100.31 382.858 100.411 382.61 100.615 382.406C100.818 382.203 101.067 382.101 101.361 382.101C101.643 382.101 101.88 382.203 102.072 382.406C102.276 382.61 102.378 382.858 102.378 383.152C102.378 383.446 102.276 383.694 102.072 383.898C101.88 384.101 101.643 384.203 101.361 384.203ZM102.106 385.711V395H100.564V385.711H102.106ZM113.21 390C113.21 390.294 113.193 390.604 113.159 390.932H105.735C105.792 391.847 106.103 392.565 106.668 393.085C107.244 393.593 107.939 393.847 108.752 393.847C109.419 393.847 109.973 393.695 110.413 393.39C110.865 393.073 111.182 392.655 111.363 392.135H113.024C112.775 393.028 112.278 393.757 111.532 394.322C110.786 394.876 109.86 395.153 108.752 395.153C107.871 395.153 107.08 394.955 106.379 394.559C105.69 394.164 105.148 393.604 104.752 392.881C104.357 392.147 104.159 391.299 104.159 390.339C104.159 389.378 104.351 388.536 104.735 387.813C105.119 387.09 105.656 386.536 106.345 386.152C107.046 385.757 107.848 385.559 108.752 385.559C109.634 385.559 110.413 385.751 111.091 386.135C111.769 386.519 112.289 387.05 112.651 387.728C113.024 388.395 113.21 389.152 113.21 390ZM111.617 389.678C111.617 389.09 111.487 388.587 111.227 388.169C110.967 387.74 110.611 387.418 110.159 387.203C109.719 386.977 109.227 386.864 108.685 386.864C107.905 386.864 107.238 387.113 106.684 387.61C106.142 388.107 105.831 388.796 105.752 389.678H111.617ZM119.324 393.763C120.76 392.61 121.884 391.666 122.697 390.932C123.511 390.186 124.195 389.412 124.748 388.61C125.313 387.796 125.596 387 125.596 386.22C125.596 385.485 125.415 384.909 125.054 384.491C124.703 384.062 124.133 383.847 123.342 383.847C122.573 383.847 121.974 384.09 121.545 384.576C121.127 385.05 120.901 385.689 120.867 386.491H119.375C119.42 385.225 119.805 384.248 120.528 383.559C121.251 382.869 122.183 382.525 123.325 382.525C124.489 382.525 125.409 382.847 126.087 383.491C126.777 384.135 127.121 385.022 127.121 386.152C127.121 387.09 126.839 388.005 126.274 388.898C125.72 389.779 125.087 390.559 124.376 391.237C123.664 391.904 122.754 392.683 121.647 393.576H127.477V394.864H119.324V393.763Z" fill="white"/>
<rect width="300" height="45" transform="translate(0 412)" fill="#172A59"/>
<path d="M40.7289 434.084C40.7289 432.932 40.9888 431.898 41.5086 430.983C42.0284 430.056 42.7346 429.333 43.6273 428.813C44.5313 428.293 45.5314 428.033 46.6275 428.033C47.9157 428.033 49.04 428.344 50.0005 428.966C50.961 429.587 51.6616 430.468 52.1023 431.61H50.2548C49.9271 430.898 49.4525 430.35 48.831 429.966C48.2208 429.581 47.4863 429.389 46.6275 429.389C45.8026 429.389 45.0624 429.581 44.407 429.966C43.7516 430.35 43.2375 430.898 42.8646 431.61C42.4917 432.31 42.3052 433.135 42.3052 434.084C42.3052 435.022 42.4917 435.847 42.8646 436.559C43.2375 437.26 43.7516 437.802 44.407 438.186C45.0624 438.571 45.8026 438.763 46.6275 438.763C47.4863 438.763 48.2208 438.576 48.831 438.203C49.4525 437.819 49.9271 437.271 50.2548 436.559H52.1023C51.6616 437.689 50.961 438.565 50.0005 439.186C49.04 439.797 47.9157 440.102 46.6275 440.102C45.5314 440.102 44.5313 439.847 43.6273 439.339C42.7346 438.819 42.0284 438.102 41.5086 437.186C40.9888 436.271 40.7289 435.237 40.7289 434.084ZM58.4494 440.153C57.5793 440.153 56.7883 439.955 56.0764 439.559C55.3758 439.164 54.8221 438.604 54.4153 437.881C54.0198 437.147 53.8221 436.299 53.8221 435.339C53.8221 434.39 54.0255 433.553 54.4323 432.83C54.8504 432.096 55.4154 431.536 56.1273 431.152C56.8392 430.757 57.6358 430.559 58.5172 430.559C59.3986 430.559 60.1953 430.757 60.9072 431.152C61.6191 431.536 62.1784 432.09 62.5852 432.813C63.0033 433.536 63.2124 434.378 63.2124 435.339C63.2124 436.299 62.9977 437.147 62.5683 437.881C62.1502 438.604 61.5795 439.164 60.8563 439.559C60.1331 439.955 59.3308 440.153 58.4494 440.153ZM58.4494 438.797C59.0031 438.797 59.5229 438.667 60.0088 438.407C60.4947 438.147 60.8846 437.757 61.1784 437.237C61.4835 436.717 61.636 436.085 61.636 435.339C61.636 434.593 61.4891 433.96 61.1953 433.44C60.9015 432.921 60.5173 432.536 60.0427 432.288C59.5681 432.028 59.054 431.898 58.5003 431.898C57.9353 431.898 57.4155 432.028 56.9409 432.288C56.4776 432.536 56.1047 432.921 55.8222 433.44C55.5397 433.96 55.3984 434.593 55.3984 435.339C55.3984 436.096 55.534 436.734 55.8052 437.254C56.0877 437.774 56.4606 438.164 56.9239 438.424C57.3872 438.672 57.8957 438.797 58.4494 438.797ZM66.7829 427.457V440H65.2404V427.457H66.7829ZM70.9541 427.457V440H69.4117V427.457H70.9541ZM82.058 435C82.058 435.294 82.041 435.604 82.0071 435.932H74.583C74.6395 436.847 74.9503 437.565 75.5153 438.085C76.0916 438.593 76.7865 438.847 77.6001 438.847C78.2668 438.847 78.8205 438.695 79.2612 438.39C79.7132 438.073 80.0296 437.655 80.2104 437.135H81.8715C81.6229 438.028 81.1257 438.757 80.3799 439.322C79.6341 439.876 78.7075 440.153 77.6001 440.153C76.7187 440.153 75.9277 439.955 75.2271 439.559C74.5378 439.164 73.9954 438.604 73.5999 437.881C73.2044 437.147 73.0067 436.299 73.0067 435.339C73.0067 434.378 73.1988 433.536 73.583 432.813C73.9672 432.09 74.5039 431.536 75.1932 431.152C75.8938 430.757 76.6961 430.559 77.6001 430.559C78.4815 430.559 79.2612 430.751 79.9392 431.135C80.6172 431.519 81.137 432.05 81.4986 432.728C81.8715 433.395 82.058 434.152 82.058 435ZM80.4647 434.678C80.4647 434.09 80.3347 433.587 80.0748 433.169C79.8149 432.74 79.459 432.418 79.007 432.203C78.5663 431.977 78.0747 431.864 77.5323 431.864C76.7526 431.864 76.0859 432.113 75.5322 432.61C74.9898 433.107 74.6791 433.796 74.6 434.678H80.4647ZM83.5177 435.339C83.5177 434.378 83.7098 433.542 84.094 432.83C84.4782 432.107 85.0093 431.548 85.6873 431.152C86.3766 430.757 87.1619 430.559 88.0433 430.559C89.1846 430.559 90.1225 430.836 90.857 431.389C91.6028 431.943 92.0944 432.711 92.3317 433.695H90.6706C90.5124 433.13 90.2016 432.683 89.7383 432.356C89.2863 432.028 88.7213 431.864 88.0433 431.864C87.1619 431.864 86.45 432.169 85.9076 432.779C85.3652 433.378 85.094 434.231 85.094 435.339C85.094 436.457 85.3652 437.322 85.9076 437.932C86.45 438.542 87.1619 438.847 88.0433 438.847C88.7213 438.847 89.2863 438.689 89.7383 438.373C90.1903 438.056 90.5011 437.604 90.6706 437.017H92.3317C92.0831 437.966 91.5859 438.729 90.8401 439.305C90.0943 439.87 89.162 440.153 88.0433 440.153C87.1619 440.153 86.3766 439.955 85.6873 439.559C85.0093 439.164 84.4782 438.604 84.094 437.881C83.7098 437.158 83.5177 436.311 83.5177 435.339ZM96.2712 431.983V437.457C96.2712 437.909 96.3673 438.232 96.5594 438.424C96.7515 438.604 97.0848 438.695 97.5594 438.695H98.6951V440H97.3052C96.4464 440 95.8023 439.802 95.3729 439.407C94.9435 439.011 94.7288 438.361 94.7288 437.457V431.983H93.5253V430.711H94.7288V428.372H96.2712V430.711H98.6951V431.983H96.2712ZM101.361 429.203C101.067 429.203 100.818 429.101 100.615 428.898C100.411 428.694 100.31 428.446 100.31 428.152C100.31 427.858 100.411 427.61 100.615 427.406C100.818 427.203 101.067 427.101 101.361 427.101C101.643 427.101 101.88 427.203 102.072 427.406C102.276 427.61 102.378 427.858 102.378 428.152C102.378 428.446 102.276 428.694 102.072 428.898C101.88 429.101 101.643 429.203 101.361 429.203ZM102.106 430.711V440H100.564V430.711H102.106ZM113.21 435C113.21 435.294 113.193 435.604 113.159 435.932H105.735C105.792 436.847 106.103 437.565 106.668 438.085C107.244 438.593 107.939 438.847 108.752 438.847C109.419 438.847 109.973 438.695 110.413 438.39C110.865 438.073 111.182 437.655 111.363 437.135H113.024C112.775 438.028 112.278 438.757 111.532 439.322C110.786 439.876 109.86 440.153 108.752 440.153C107.871 440.153 107.08 439.955 106.379 439.559C105.69 439.164 105.148 438.604 104.752 437.881C104.357 437.147 104.159 436.299 104.159 435.339C104.159 434.378 104.351 433.536 104.735 432.813C105.119 432.09 105.656 431.536 106.345 431.152C107.046 430.757 107.848 430.559 108.752 430.559C109.634 430.559 110.413 430.751 111.091 431.135C111.769 431.519 112.289 432.05 112.651 432.728C113.024 433.395 113.21 434.152 113.21 435ZM111.617 434.678C111.617 434.09 111.487 433.587 111.227 433.169C110.967 432.74 110.611 432.418 110.159 432.203C109.719 431.977 109.227 431.864 108.685 431.864C107.905 431.864 107.238 432.113 106.684 432.61C106.142 433.107 105.831 433.796 105.752 434.678H111.617ZM119.477 430.83C119.556 429.79 119.957 428.977 120.68 428.389C121.404 427.802 122.342 427.508 123.494 427.508C124.263 427.508 124.924 427.649 125.477 427.932C126.042 428.203 126.466 428.576 126.749 429.05C127.042 429.525 127.189 430.062 127.189 430.661C127.189 431.361 126.986 431.966 126.579 432.474C126.184 432.983 125.664 433.31 125.02 433.457V433.542C125.754 433.723 126.336 434.079 126.765 434.61C127.195 435.141 127.41 435.836 127.41 436.695C127.41 437.339 127.263 437.921 126.969 438.441C126.675 438.949 126.234 439.35 125.647 439.644C125.059 439.938 124.353 440.085 123.528 440.085C122.33 440.085 121.347 439.774 120.579 439.152C119.81 438.52 119.381 437.627 119.291 436.474H120.782C120.861 437.152 121.138 437.706 121.613 438.135C122.087 438.565 122.72 438.78 123.511 438.78C124.302 438.78 124.901 438.576 125.308 438.169C125.726 437.751 125.935 437.215 125.935 436.559C125.935 435.712 125.652 435.101 125.087 434.729C124.522 434.356 123.669 434.169 122.528 434.169H122.138V432.881H122.545C123.585 432.87 124.37 432.7 124.901 432.372C125.432 432.033 125.698 431.514 125.698 430.813C125.698 430.214 125.5 429.734 125.104 429.372C124.72 429.011 124.166 428.83 123.443 428.83C122.743 428.83 122.178 429.011 121.748 429.372C121.319 429.734 121.065 430.22 120.986 430.83H119.477Z" fill="white"/>
<rect width="300" height="45" transform="translate(0 457)" fill="#172A59"/>
<path d="M40.7289 479.084C40.7289 477.932 40.9888 476.898 41.5086 475.983C42.0284 475.056 42.7346 474.333 43.6273 473.813C44.5313 473.293 45.5314 473.033 46.6275 473.033C47.9157 473.033 49.04 473.344 50.0005 473.966C50.961 474.587 51.6616 475.468 52.1023 476.61H50.2548C49.9271 475.898 49.4525 475.35 48.831 474.966C48.2208 474.581 47.4863 474.389 46.6275 474.389C45.8026 474.389 45.0624 474.581 44.407 474.966C43.7516 475.35 43.2375 475.898 42.8646 476.61C42.4917 477.31 42.3052 478.135 42.3052 479.084C42.3052 480.022 42.4917 480.847 42.8646 481.559C43.2375 482.26 43.7516 482.802 44.407 483.186C45.0624 483.571 45.8026 483.763 46.6275 483.763C47.4863 483.763 48.2208 483.576 48.831 483.203C49.4525 482.819 49.9271 482.271 50.2548 481.559H52.1023C51.6616 482.689 50.961 483.565 50.0005 484.186C49.04 484.797 47.9157 485.102 46.6275 485.102C45.5314 485.102 44.5313 484.847 43.6273 484.339C42.7346 483.819 42.0284 483.102 41.5086 482.186C40.9888 481.271 40.7289 480.237 40.7289 479.084ZM58.4494 485.153C57.5793 485.153 56.7883 484.955 56.0764 484.559C55.3758 484.164 54.8221 483.604 54.4153 482.881C54.0198 482.147 53.8221 481.299 53.8221 480.339C53.8221 479.39 54.0255 478.553 54.4323 477.83C54.8504 477.096 55.4154 476.536 56.1273 476.152C56.8392 475.757 57.6358 475.559 58.5172 475.559C59.3986 475.559 60.1953 475.757 60.9072 476.152C61.6191 476.536 62.1784 477.09 62.5852 477.813C63.0033 478.536 63.2124 479.378 63.2124 480.339C63.2124 481.299 62.9977 482.147 62.5683 482.881C62.1502 483.604 61.5795 484.164 60.8563 484.559C60.1331 484.955 59.3308 485.153 58.4494 485.153ZM58.4494 483.797C59.0031 483.797 59.5229 483.667 60.0088 483.407C60.4947 483.147 60.8846 482.757 61.1784 482.237C61.4835 481.717 61.636 481.085 61.636 480.339C61.636 479.593 61.4891 478.96 61.1953 478.44C60.9015 477.921 60.5173 477.536 60.0427 477.288C59.5681 477.028 59.054 476.898 58.5003 476.898C57.9353 476.898 57.4155 477.028 56.9409 477.288C56.4776 477.536 56.1047 477.921 55.8222 478.44C55.5397 478.96 55.3984 479.593 55.3984 480.339C55.3984 481.096 55.534 481.734 55.8052 482.254C56.0877 482.774 56.4606 483.164 56.9239 483.424C57.3872 483.672 57.8957 483.797 58.4494 483.797ZM66.7829 472.457V485H65.2404V472.457H66.7829ZM70.9541 472.457V485H69.4117V472.457H70.9541ZM82.058 480C82.058 480.294 82.041 480.604 82.0071 480.932H74.583C74.6395 481.847 74.9503 482.565 75.5153 483.085C76.0916 483.593 76.7865 483.847 77.6001 483.847C78.2668 483.847 78.8205 483.695 79.2612 483.39C79.7132 483.073 80.0296 482.655 80.2104 482.135H81.8715C81.6229 483.028 81.1257 483.757 80.3799 484.322C79.6341 484.876 78.7075 485.153 77.6001 485.153C76.7187 485.153 75.9277 484.955 75.2271 484.559C74.5378 484.164 73.9954 483.604 73.5999 482.881C73.2044 482.147 73.0067 481.299 73.0067 480.339C73.0067 479.378 73.1988 478.536 73.583 477.813C73.9672 477.09 74.5039 476.536 75.1932 476.152C75.8938 475.757 76.6961 475.559 77.6001 475.559C78.4815 475.559 79.2612 475.751 79.9392 476.135C80.6172 476.519 81.137 477.05 81.4986 477.728C81.8715 478.395 82.058 479.152 82.058 480ZM80.4647 479.678C80.4647 479.09 80.3347 478.587 80.0748 478.169C79.8149 477.74 79.459 477.418 79.007 477.203C78.5663 476.977 78.0747 476.864 77.5323 476.864C76.7526 476.864 76.0859 477.113 75.5322 477.61C74.9898 478.107 74.6791 478.796 74.6 479.678H80.4647ZM83.5177 480.339C83.5177 479.378 83.7098 478.542 84.094 477.83C84.4782 477.107 85.0093 476.548 85.6873 476.152C86.3766 475.757 87.1619 475.559 88.0433 475.559C89.1846 475.559 90.1225 475.836 90.857 476.389C91.6028 476.943 92.0944 477.711 92.3317 478.695H90.6706C90.5124 478.13 90.2016 477.683 89.7383 477.356C89.2863 477.028 88.7213 476.864 88.0433 476.864C87.1619 476.864 86.45 477.169 85.9076 477.779C85.3652 478.378 85.094 479.231 85.094 480.339C85.094 481.457 85.3652 482.322 85.9076 482.932C86.45 483.542 87.1619 483.847 88.0433 483.847C88.7213 483.847 89.2863 483.689 89.7383 483.373C90.1903 483.056 90.5011 482.604 90.6706 482.017H92.3317C92.0831 482.966 91.5859 483.729 90.8401 484.305C90.0943 484.87 89.162 485.153 88.0433 485.153C87.1619 485.153 86.3766 484.955 85.6873 484.559C85.0093 484.164 84.4782 483.604 84.094 482.881C83.7098 482.158 83.5177 481.311 83.5177 480.339ZM96.2712 476.983V482.457C96.2712 482.909 96.3673 483.232 96.5594 483.424C96.7515 483.604 97.0848 483.695 97.5594 483.695H98.6951V485H97.3052C96.4464 485 95.8023 484.802 95.3729 484.407C94.9435 484.011 94.7288 483.361 94.7288 482.457V476.983H93.5253V475.711H94.7288V473.372H96.2712V475.711H98.6951V476.983H96.2712ZM101.361 474.203C101.067 474.203 100.818 474.101 100.615 473.898C100.411 473.694 100.31 473.446 100.31 473.152C100.31 472.858 100.411 472.61 100.615 472.406C100.818 472.203 101.067 472.101 101.361 472.101C101.643 472.101 101.88 472.203 102.072 472.406C102.276 472.61 102.378 472.858 102.378 473.152C102.378 473.446 102.276 473.694 102.072 473.898C101.88 474.101 101.643 474.203 101.361 474.203ZM102.106 475.711V485H100.564V475.711H102.106ZM113.21 480C113.21 480.294 113.193 480.604 113.159 480.932H105.735C105.792 481.847 106.103 482.565 106.668 483.085C107.244 483.593 107.939 483.847 108.752 483.847C109.419 483.847 109.973 483.695 110.413 483.39C110.865 483.073 111.182 482.655 111.363 482.135H113.024C112.775 483.028 112.278 483.757 111.532 484.322C110.786 484.876 109.86 485.153 108.752 485.153C107.871 485.153 107.08 484.955 106.379 484.559C105.69 484.164 105.148 483.604 104.752 482.881C104.357 482.147 104.159 481.299 104.159 480.339C104.159 479.378 104.351 478.536 104.735 477.813C105.119 477.09 105.656 476.536 106.345 476.152C107.046 475.757 107.848 475.559 108.752 475.559C109.634 475.559 110.413 475.751 111.091 476.135C111.769 476.519 112.289 477.05 112.651 477.728C113.024 478.395 113.21 479.152 113.21 480ZM111.617 479.678C111.617 479.09 111.487 478.587 111.227 478.169C110.967 477.74 110.611 477.418 110.159 477.203C109.719 476.977 109.227 476.864 108.685 476.864C107.905 476.864 107.238 477.113 106.684 477.61C106.142 478.107 105.831 478.796 105.752 479.678H111.617ZM119.138 482.271V481.101L125.087 472.864H126.935V480.932H128.63V482.271H126.935V485H125.409V482.271H119.138ZM125.477 474.474L120.918 480.932H125.477V474.474Z" fill="white"/>
<defs>
<clipPath id="clip0">
<rect width="25" height="25" fill="white" transform="translate(40 37.5)"/>
</clipPath>
<clipPath id="clip1">
<rect width="20" height="20" fill="white" transform="translate(240 289.5)"/>
</clipPath>
</defs>
</svg>
