<svg width="1066" height="1024" viewBox="0 0 1066 1024" fill="none" xmlns="http://www.w3.org/2000/svg">
<g clip-path="url(#clip0)">
<path d="M346.829 369.212C365.754 369.212 381.096 353.877 381.096 334.96C381.096 316.044 365.754 300.709 346.829 300.709C327.903 300.709 312.561 316.044 312.561 334.96C312.561 353.877 327.903 369.212 346.829 369.212Z" fill="#0A3DFA"/>
<path d="M513.553 463.469C513.553 544.288 465.485 572.507 406.191 572.507C346.896 572.507 298.829 544.288 298.829 463.469C298.829 382.651 406.191 279.837 406.191 279.837C406.191 279.837 513.553 382.651 513.553 463.469Z" fill="white"/>
<path d="M402.28 560.144L403.38 492.506L449.14 408.828L403.552 481.896L404.046 451.483L435.584 390.943L404.177 443.435L405.066 388.736L438.837 340.539L405.206 380.135L405.761 279.837L402.27 412.613L402.557 407.136L368.222 354.604L402.007 417.65L398.808 478.739L398.712 477.118L359.129 421.836L398.592 482.846L398.192 490.486L398.121 490.601L398.153 491.228L390.037 646.216H400.881L402.182 566.162L441.548 505.301L402.28 560.144Z" fill="#172A59"/>
<path d="M833 496.57C833 562.724 793.654 585.823 745.119 585.823C696.584 585.823 657.238 562.724 657.238 496.57C657.238 430.416 745.119 346.258 745.119 346.258C745.119 346.258 833 430.416 833 496.57Z" fill="white"/>
<path d="M741.918 575.703L742.817 520.338L780.274 451.844L742.958 511.653L743.363 486.759L769.178 437.204L743.47 480.171L744.198 435.397L771.841 395.945L744.312 428.357L744.767 346.258L741.909 454.942L742.145 450.459L714.039 407.458L741.694 459.065L739.075 509.07L738.997 507.742L706.596 462.491L738.899 512.431L738.571 518.685L738.513 518.779L738.539 519.292L731.895 646.157H740.772L741.837 580.629L774.061 530.811L741.918 575.703Z" fill="#172A59"/>
<path d="M529.946 659.02C693.945 659.02 826.892 652.303 826.892 644.017C826.892 635.73 693.945 629.013 529.946 629.013C365.947 629.013 233 635.73 233 644.017C233 652.303 365.947 659.02 529.946 659.02Z" fill="#172A59"/>
<path d="M710.843 671.375C738.932 671.375 761.703 670.224 761.703 668.805C761.703 667.386 738.932 666.235 710.843 666.235C682.754 666.235 659.983 667.386 659.983 668.805C659.983 670.224 682.754 671.375 710.843 671.375Z" fill="#172A59"/>
<path d="M526.802 696.163C554.891 696.163 577.662 695.013 577.662 693.594C577.662 692.174 554.891 691.024 526.802 691.024C498.713 691.024 475.942 692.174 475.942 693.594C475.942 695.013 498.713 696.163 526.802 696.163Z" fill="#172A59"/>
<path d="M387.174 678.68C451.348 678.68 503.371 676.052 503.371 672.809C503.371 669.567 451.348 666.938 387.174 666.938C323.001 666.938 270.978 669.567 270.978 672.809C270.978 676.052 323.001 678.68 387.174 678.68Z" fill="#172A59"/>
<path d="M284.982 625.174C308.343 625.174 327.281 606.244 327.281 582.894C327.281 559.544 308.343 540.615 284.982 540.615C261.621 540.615 242.683 559.544 242.683 582.894C242.683 606.244 261.621 625.174 284.982 625.174Z" fill="#172A59"/>
<path d="M278.166 615.997L265.316 615.846L265.045 638.857L277.895 639.009L278.166 615.997Z" fill="#172A59"/>
<path d="M303.865 616.3L291.015 616.149L290.744 639.16L303.593 639.311L303.865 616.3Z" fill="#172A59"/>
<path d="M286.458 639.377C286.484 637.16 281.711 635.307 275.797 635.237C269.883 635.168 265.068 636.908 265.042 639.125C265.016 641.341 269.789 643.195 275.703 643.265C281.616 643.334 286.432 641.594 286.458 639.377Z" fill="#172A59"/>
<path d="M312.163 639.145C312.189 636.928 307.416 635.075 301.502 635.005C295.588 634.935 290.773 636.676 290.747 638.892C290.721 641.109 295.494 642.962 301.408 643.032C307.321 643.102 312.137 641.361 312.163 639.145Z" fill="#172A59"/>
<path d="M286.179 586.654C294.163 586.654 300.635 580.184 300.635 572.204C300.635 564.223 294.163 557.754 286.179 557.754C278.195 557.754 271.722 564.223 271.722 572.204C271.722 580.184 278.195 586.654 286.179 586.654Z" fill="white"/>
<path d="M286.179 577.02C288.84 577.02 290.998 574.864 290.998 572.204C290.998 569.544 288.84 567.387 286.179 567.387C283.517 567.387 281.36 569.544 281.36 572.204C281.36 574.864 283.517 577.02 286.179 577.02Z" fill="#172A59"/>
<path d="M244.416 543.095C241.181 527.767 252.281 512.448 269.207 508.879C286.134 505.31 302.478 514.842 305.713 530.17C308.948 545.498 297.693 551.005 280.766 554.574C263.84 558.143 247.651 558.423 244.416 543.095Z" fill="#A0DC78"/>
<path d="M349.506 606.481C349.506 635.956 331.976 646.248 310.35 646.248C309.849 646.248 309.349 646.243 308.849 646.231C307.847 646.21 306.855 646.162 305.874 646.095C286.357 644.715 271.194 633.894 271.194 606.481C271.194 578.112 307.463 542.314 310.188 539.665L310.192 539.66C310.297 539.558 310.35 539.508 310.35 539.508C310.35 539.508 349.506 577.005 349.506 606.481Z" fill="#A0DC78"/>
<path d="M308.923 641.739L323.244 621.737L308.887 643.935L308.849 646.231C307.847 646.21 306.854 646.162 305.874 646.095L307.418 616.606L307.406 616.377L307.432 616.334L307.577 613.549L293.185 591.296L307.623 611.46L307.656 612.051L308.823 589.77L296.501 566.775L308.973 585.859L310.187 539.665L310.192 539.508V539.66L309.989 576.087L322.256 561.646L309.939 579.225L309.615 599.174L321.068 580.029L309.567 602.11L309.386 613.2L326.014 586.553L309.324 617.071L308.923 641.739Z" fill="#172A59"/>
<path d="M614.487 624.716C637.848 624.716 656.786 605.787 656.786 582.437C656.786 559.087 637.848 540.157 614.487 540.157C591.125 540.157 572.188 559.087 572.188 582.437C572.188 605.787 591.125 624.716 614.487 624.716Z" fill="#172A59"/>
<path d="M618.097 616.04L605.813 619.814L612.577 641.811L624.86 638.038L618.097 616.04Z" fill="#172A59"/>
<path d="M642.663 608.497L630.379 612.27L637.143 634.268L649.426 630.494L642.663 608.497Z" fill="#172A59"/>
<path d="M624.072 642.759C629.725 641.023 633.78 637.897 633.128 635.778C632.476 633.659 627.365 633.349 621.712 635.086C616.059 636.822 612.004 639.948 612.656 642.067C613.307 644.186 618.418 644.496 624.072 642.759Z" fill="#172A59"/>
<path d="M648.481 634.701C654.135 632.965 658.189 629.839 657.538 627.72C656.886 625.601 651.775 625.291 646.122 627.028C640.469 628.764 636.414 631.89 637.065 634.009C637.717 636.128 642.828 636.438 648.481 634.701Z" fill="#172A59"/>
<path d="M612.364 586.341C620.349 586.341 626.821 579.871 626.821 571.891C626.821 563.91 620.349 557.441 612.364 557.441C604.38 557.441 597.908 563.91 597.908 571.891C597.908 579.871 604.38 586.341 612.364 586.341Z" fill="white"/>
<path d="M612.365 576.708C615.026 576.708 617.184 574.551 617.184 571.891C617.184 569.231 615.026 567.074 612.365 567.074C609.703 567.074 607.546 569.231 607.546 571.891C607.546 574.551 609.703 576.708 612.365 576.708Z" fill="#172A59"/>
<path d="M563.71 556.901C555.952 543.29 561.847 525.317 576.878 516.757C591.909 508.198 610.383 512.294 618.142 525.905C625.9 539.516 616.861 548.192 601.831 556.751C586.8 565.31 571.468 570.512 563.71 556.901Z" fill="#A0DC78"/>
<path d="M539.049 601.083C539.049 628.141 522.957 637.588 503.105 637.588C502.645 637.588 502.186 637.583 501.728 637.573C500.808 637.553 499.897 637.509 498.997 637.448C481.081 636.18 467.162 626.247 467.162 601.083C467.162 575.042 500.455 542.182 502.956 539.75L502.961 539.745C503.057 539.651 503.105 539.605 503.105 539.605C503.105 539.605 539.049 574.026 539.049 601.083Z" fill="#A0DC78"/>
<path d="M501.795 633.449L514.941 615.088L501.762 635.465L501.727 637.573C500.808 637.553 499.896 637.509 498.996 637.448L500.413 610.377L500.402 610.167L500.426 610.128L500.56 607.571L487.348 587.144L500.602 605.654L500.632 606.197L501.703 585.743L490.392 564.636L501.841 582.153L502.956 539.75L502.96 539.605V539.745L502.774 573.183L514.035 559.927L502.728 576.064L502.43 594.376L512.944 576.802L502.386 597.071L502.22 607.252L517.484 582.79L502.163 610.804L501.795 633.449Z" fill="#172A59"/>
<path d="M680.402 612.368C680.402 641.843 662.873 652.135 641.246 652.135C640.745 652.135 640.245 652.129 639.746 652.118C638.744 652.097 637.751 652.049 636.771 651.982C617.254 650.602 602.09 639.781 602.09 612.368C602.09 583.998 638.36 548.201 641.084 545.552L641.089 545.547C641.194 545.445 641.246 545.395 641.246 545.395C641.246 545.395 680.402 582.892 680.402 612.368Z" fill="#A0DC78"/>
<path d="M639.819 647.626L654.141 627.624L639.784 649.822L639.745 652.118C638.743 652.097 637.751 652.049 636.77 651.982L638.314 622.493L638.302 622.264L638.328 622.221L638.474 619.436L624.081 597.183L638.519 617.347L638.553 617.938L639.719 595.657L627.397 572.662L639.869 591.746L641.084 545.552L641.089 545.395V545.548L640.886 581.974L653.153 567.533L640.836 585.112L640.511 605.061L651.965 585.916L640.463 607.997L640.282 619.087L656.91 592.44L640.22 622.958L639.819 647.626Z" fill="#172A59"/>
<path d="M617.173 607.746C618.744 604.435 611.463 597.694 600.909 592.691C590.355 587.688 580.526 586.317 578.955 589.628C577.383 592.94 584.665 599.68 595.219 604.684C605.772 609.687 615.602 611.058 617.173 607.746Z" fill="#172A59"/>
<path d="M291.618 603.876C292.982 600.474 285.299 594.195 274.456 589.852C263.614 585.508 253.719 584.745 252.355 588.147C250.991 591.549 258.674 597.828 269.516 602.172C280.358 606.515 290.253 607.278 291.618 603.876Z" fill="#172A59"/>
</g>
<path d="M436.289 741.434V753.163H434.746V744.417L430.848 753.163H429.763L425.848 744.4V753.163H424.305V741.434H425.966L430.305 751.129L434.645 741.434H436.289ZM438.328 748.485C438.328 747.536 438.52 746.705 438.905 745.993C439.289 745.27 439.814 744.711 440.481 744.315C441.159 743.92 441.91 743.722 442.735 743.722C443.549 743.722 444.255 743.897 444.854 744.248C445.453 744.598 445.899 745.039 446.193 745.57V743.875H447.753V753.163H446.193V751.434C445.888 751.977 445.43 752.429 444.82 752.79C444.221 753.141 443.521 753.316 442.718 753.316C441.894 753.316 441.148 753.112 440.481 752.706C439.814 752.299 439.289 751.728 438.905 750.994C438.52 750.259 438.328 749.423 438.328 748.485ZM446.193 748.502C446.193 747.801 446.052 747.191 445.769 746.671C445.487 746.152 445.103 745.756 444.617 745.485C444.142 745.202 443.617 745.061 443.04 745.061C442.464 745.061 441.939 745.197 441.464 745.468C440.99 745.739 440.611 746.135 440.328 746.655C440.046 747.174 439.905 747.785 439.905 748.485C439.905 749.197 440.046 749.819 440.328 750.35C440.611 750.869 440.99 751.271 441.464 751.553C441.939 751.824 442.464 751.96 443.04 751.96C443.617 751.96 444.142 751.824 444.617 751.553C445.103 751.271 445.487 750.869 445.769 750.35C446.052 749.819 446.193 749.203 446.193 748.502ZM449.783 748.485C449.783 747.536 449.975 746.705 450.359 745.993C450.743 745.27 451.269 744.711 451.936 744.315C452.614 743.92 453.365 743.722 454.19 743.722C455.003 743.722 455.71 743.897 456.309 744.248C456.908 744.598 457.354 745.039 457.648 745.57V743.875H459.207V753.163H457.648V751.434C457.343 751.977 456.885 752.429 456.275 752.79C455.676 753.141 454.975 753.316 454.173 753.316C453.348 753.316 452.602 753.112 451.936 752.706C451.269 752.299 450.743 751.728 450.359 750.994C449.975 750.259 449.783 749.423 449.783 748.485ZM457.648 748.502C457.648 747.801 457.506 747.191 457.224 746.671C456.941 746.152 456.557 745.756 456.071 745.485C455.597 745.202 455.071 745.061 454.495 745.061C453.919 745.061 453.393 745.197 452.919 745.468C452.444 745.739 452.065 746.135 451.783 746.655C451.5 747.174 451.359 747.785 451.359 748.485C451.359 749.197 451.5 749.819 451.783 750.35C452.065 750.869 452.444 751.271 452.919 751.553C453.393 751.824 453.919 751.96 454.495 751.96C455.071 751.96 455.597 751.824 456.071 751.553C456.557 751.271 456.941 750.869 457.224 750.35C457.506 749.819 457.648 749.203 457.648 748.502ZM467 753.163L463.356 749.061V753.163H461.814V740.62H463.356V747.994L466.933 743.875H469.085L464.712 748.502L469.102 753.163H467ZM475.886 742.366C475.593 742.366 475.344 742.264 475.141 742.061C474.948 741.858 474.852 741.609 474.852 741.315C474.852 741.021 474.948 740.773 475.141 740.569C475.344 740.366 475.593 740.264 475.886 740.264C476.18 740.264 476.423 740.366 476.615 740.569C476.819 740.773 476.92 741.021 476.92 741.315C476.92 741.609 476.819 741.858 476.615 742.061C476.423 742.264 476.18 742.366 475.886 742.366ZM476.649 755.18C476.649 756.005 476.44 756.61 476.022 756.994C475.604 757.378 474.994 757.57 474.191 757.57H473.293V756.265H473.937C474.367 756.265 474.666 756.18 474.835 756.011C475.016 755.841 475.107 755.553 475.107 755.146V743.875H476.649V755.18ZM487.735 748.163C487.735 748.457 487.718 748.768 487.684 749.095H480.26C480.317 750.011 480.628 750.728 481.193 751.248C481.769 751.756 482.464 752.011 483.277 752.011C483.944 752.011 484.498 751.858 484.938 751.553C485.39 751.237 485.707 750.819 485.888 750.299H487.549C487.3 751.191 486.803 751.92 486.057 752.485C485.311 753.039 484.385 753.316 483.277 753.316C482.396 753.316 481.605 753.118 480.904 752.723C480.215 752.327 479.673 751.768 479.277 751.045C478.882 750.31 478.684 749.463 478.684 748.502C478.684 747.542 478.876 746.7 479.26 745.977C479.644 745.253 480.181 744.7 480.87 744.315C481.571 743.92 482.373 743.722 483.277 743.722C484.159 743.722 484.938 743.914 485.616 744.298C486.294 744.683 486.814 745.214 487.176 745.892C487.549 746.558 487.735 747.316 487.735 748.163ZM486.142 747.841C486.142 747.253 486.012 746.751 485.752 746.332C485.492 745.903 485.136 745.581 484.684 745.366C484.244 745.14 483.752 745.027 483.21 745.027C482.43 745.027 481.763 745.276 481.209 745.773C480.667 746.27 480.356 746.96 480.277 747.841H486.142ZM502.765 748.163C502.765 748.457 502.748 748.768 502.714 749.095H495.29C495.347 750.011 495.657 750.728 496.222 751.248C496.799 751.756 497.494 752.011 498.307 752.011C498.974 752.011 499.528 751.858 499.968 751.553C500.42 751.237 500.737 750.819 500.918 750.299H502.579C502.33 751.191 501.833 751.92 501.087 752.485C500.341 753.039 499.415 753.316 498.307 753.316C497.426 753.316 496.635 753.118 495.934 752.723C495.245 752.327 494.703 751.768 494.307 751.045C493.912 750.31 493.714 749.463 493.714 748.502C493.714 747.542 493.906 746.7 494.29 745.977C494.674 745.253 495.211 744.7 495.9 744.315C496.601 743.92 497.403 743.722 498.307 743.722C499.189 743.722 499.968 743.914 500.646 744.298C501.324 744.683 501.844 745.214 502.206 745.892C502.579 746.558 502.765 747.316 502.765 748.163ZM501.172 747.841C501.172 747.253 501.042 746.751 500.782 746.332C500.522 745.903 500.166 745.581 499.714 745.366C499.273 745.14 498.782 745.027 498.239 745.027C497.46 745.027 496.793 745.276 496.239 745.773C495.697 746.27 495.386 746.96 495.307 747.841H501.172ZM513.276 748.163C513.276 748.457 513.259 748.768 513.225 749.095H505.801C505.858 750.011 506.168 750.728 506.733 751.248C507.31 751.756 508.005 752.011 508.818 752.011C509.485 752.011 510.039 751.858 510.479 751.553C510.931 751.237 511.248 750.819 511.429 750.299H513.09C512.841 751.191 512.344 751.92 511.598 752.485C510.852 753.039 509.926 753.316 508.818 753.316C507.937 753.316 507.146 753.118 506.445 752.723C505.756 752.327 505.214 751.768 504.818 751.045C504.423 750.31 504.225 749.463 504.225 748.502C504.225 747.542 504.417 746.7 504.801 745.977C505.185 745.253 505.722 744.7 506.411 744.315C507.112 743.92 507.914 743.722 508.818 743.722C509.7 743.722 510.479 743.914 511.157 744.298C511.835 744.683 512.355 745.214 512.717 745.892C513.09 746.558 513.276 747.316 513.276 748.163ZM511.683 747.841C511.683 747.253 511.553 746.751 511.293 746.332C511.033 745.903 510.677 745.581 510.225 745.366C509.784 745.14 509.293 745.027 508.75 745.027C507.971 745.027 507.304 745.276 506.75 745.773C506.208 746.27 505.897 746.96 505.818 747.841H511.683ZM516.855 745.383C517.126 744.852 517.51 744.44 518.007 744.146C518.516 743.852 519.131 743.705 519.855 743.705V745.299H519.448C517.719 745.299 516.855 746.236 516.855 748.112V753.163H515.312V743.875H516.855V745.383ZM524.924 753.316C524.212 753.316 523.573 753.197 523.008 752.96C522.443 752.711 521.997 752.372 521.669 751.943C521.341 751.502 521.161 750.999 521.127 750.434H522.72C522.765 750.898 522.98 751.276 523.364 751.57C523.76 751.864 524.274 752.011 524.907 752.011C525.494 752.011 525.957 751.881 526.296 751.621C526.635 751.361 526.805 751.033 526.805 750.638C526.805 750.231 526.624 749.932 526.263 749.739C525.901 749.536 525.342 749.338 524.585 749.146C523.895 748.965 523.33 748.785 522.89 748.604C522.46 748.412 522.087 748.135 521.771 747.773C521.466 747.4 521.313 746.914 521.313 746.316C521.313 745.841 521.454 745.406 521.737 745.01C522.019 744.615 522.421 744.304 522.94 744.078C523.46 743.841 524.053 743.722 524.72 743.722C525.748 743.722 526.579 743.982 527.212 744.502C527.845 745.022 528.184 745.734 528.229 746.638H526.686C526.652 746.152 526.455 745.762 526.093 745.468C525.743 745.174 525.268 745.027 524.669 745.027C524.116 745.027 523.675 745.146 523.347 745.383C523.019 745.621 522.856 745.931 522.856 746.316C522.856 746.621 522.952 746.875 523.144 747.078C523.347 747.27 523.596 747.429 523.89 747.553C524.195 747.666 524.613 747.796 525.144 747.943C525.811 748.124 526.353 748.304 526.771 748.485C527.189 748.655 527.545 748.915 527.839 749.265C528.144 749.615 528.302 750.073 528.314 750.638C528.314 751.146 528.172 751.604 527.89 752.011C527.607 752.418 527.206 752.74 526.686 752.977C526.178 753.203 525.59 753.316 524.924 753.316ZM532.372 745.146V750.621C532.372 751.073 532.468 751.395 532.661 751.587C532.853 751.768 533.186 751.858 533.661 751.858H534.796V753.163H533.406C532.548 753.163 531.903 752.966 531.474 752.57C531.045 752.175 530.83 751.525 530.83 750.621V745.146H529.626V743.875H530.83V741.536H532.372V743.875H534.796V745.146H532.372ZM545.14 748.163C545.14 748.457 545.123 748.768 545.089 749.095H537.665C537.722 750.011 538.032 750.728 538.597 751.248C539.174 751.756 539.869 752.011 540.682 752.011C541.349 752.011 541.903 751.858 542.343 751.553C542.795 751.237 543.112 750.819 543.293 750.299H544.954C544.705 751.191 544.208 751.92 543.462 752.485C542.716 753.039 541.79 753.316 540.682 753.316C539.801 753.316 539.01 753.118 538.309 752.723C537.62 752.327 537.078 751.768 536.682 751.045C536.287 750.31 536.089 749.463 536.089 748.502C536.089 747.542 536.281 746.7 536.665 745.977C537.049 745.253 537.586 744.7 538.275 744.315C538.976 743.92 539.778 743.722 540.682 743.722C541.564 743.722 542.343 743.914 543.021 744.298C543.699 744.683 544.219 745.214 544.581 745.892C544.954 746.558 545.14 747.316 545.14 748.163ZM543.547 747.841C543.547 747.253 543.417 746.751 543.157 746.332C542.897 745.903 542.541 745.581 542.089 745.366C541.648 745.14 541.157 745.027 540.614 745.027C539.835 745.027 539.168 745.276 538.614 745.773C538.072 746.27 537.761 746.96 537.682 747.841H543.547ZM555.746 753.316C554.876 753.316 554.085 753.118 553.373 752.723C552.672 752.327 552.119 751.768 551.712 751.045C551.316 750.31 551.119 749.463 551.119 748.502C551.119 747.553 551.322 746.717 551.729 745.993C552.147 745.259 552.712 744.7 553.424 744.315C554.136 743.92 554.932 743.722 555.814 743.722C556.695 743.722 557.492 743.92 558.204 744.315C558.916 744.7 559.475 745.253 559.882 745.977C560.3 746.7 560.509 747.542 560.509 748.502C560.509 749.463 560.294 750.31 559.865 751.045C559.447 751.768 558.876 752.327 558.153 752.723C557.43 753.118 556.627 753.316 555.746 753.316ZM555.746 751.96C556.3 751.96 556.82 751.83 557.305 751.57C557.791 751.31 558.181 750.92 558.475 750.4C558.78 749.881 558.933 749.248 558.933 748.502C558.933 747.756 558.786 747.123 558.492 746.604C558.198 746.084 557.814 745.7 557.339 745.451C556.865 745.191 556.351 745.061 555.797 745.061C555.232 745.061 554.712 745.191 554.237 745.451C553.774 745.7 553.401 746.084 553.119 746.604C552.836 747.123 552.695 747.756 552.695 748.502C552.695 749.259 552.831 749.898 553.102 750.417C553.384 750.937 553.757 751.327 554.221 751.587C554.684 751.836 555.192 751.96 555.746 751.96ZM564.079 745.604C564.396 745.05 564.859 744.598 565.469 744.248C566.08 743.897 566.775 743.722 567.554 743.722C568.39 743.722 569.142 743.92 569.809 744.315C570.475 744.711 571.001 745.27 571.385 745.993C571.769 746.705 571.961 747.536 571.961 748.485C571.961 749.423 571.769 750.259 571.385 750.994C571.001 751.728 570.47 752.299 569.792 752.706C569.125 753.112 568.379 753.316 567.554 753.316C566.752 753.316 566.046 753.141 565.435 752.79C564.837 752.44 564.385 751.994 564.079 751.451V753.163H562.537V740.62H564.079V745.604ZM570.385 748.485C570.385 747.785 570.244 747.174 569.961 746.655C569.679 746.135 569.294 745.739 568.809 745.468C568.334 745.197 567.808 745.061 567.232 745.061C566.667 745.061 566.142 745.202 565.656 745.485C565.181 745.756 564.797 746.157 564.503 746.688C564.221 747.208 564.079 747.813 564.079 748.502C564.079 749.203 564.221 749.819 564.503 750.35C564.797 750.869 565.181 751.271 565.656 751.553C566.142 751.824 566.667 751.96 567.232 751.96C567.808 751.96 568.334 751.824 568.809 751.553C569.294 751.271 569.679 750.869 569.961 750.35C570.244 749.819 570.385 749.197 570.385 748.485ZM574.822 742.366C574.528 742.366 574.28 742.264 574.076 742.061C573.884 741.858 573.788 741.609 573.788 741.315C573.788 741.021 573.884 740.773 574.076 740.569C574.28 740.366 574.528 740.264 574.822 740.264C575.116 740.264 575.359 740.366 575.551 740.569C575.754 740.773 575.856 741.021 575.856 741.315C575.856 741.609 575.754 741.858 575.551 742.061C575.359 742.264 575.116 742.366 574.822 742.366ZM575.585 755.18C575.585 756.005 575.376 756.61 574.958 756.994C574.54 757.378 573.929 757.57 573.127 757.57H572.229V756.265H572.873C573.302 756.265 573.602 756.18 573.771 756.011C573.952 755.841 574.042 755.553 574.042 755.146V743.875H575.585V755.18ZM586.671 748.163C586.671 748.457 586.654 748.768 586.62 749.095H579.196C579.252 750.011 579.563 750.728 580.128 751.248C580.705 751.756 581.399 752.011 582.213 752.011C582.88 752.011 583.433 751.858 583.874 751.553C584.326 751.237 584.643 750.819 584.823 750.299H586.484C586.236 751.191 585.739 751.92 584.993 752.485C584.247 753.039 583.32 753.316 582.213 753.316C581.332 753.316 580.541 753.118 579.84 752.723C579.151 752.327 578.608 751.768 578.213 751.045C577.817 750.31 577.62 749.463 577.62 748.502C577.62 747.542 577.812 746.7 578.196 745.977C578.58 745.253 579.117 744.7 579.806 744.315C580.507 743.92 581.309 743.722 582.213 743.722C583.094 743.722 583.874 743.914 584.552 744.298C585.23 744.683 585.75 745.214 586.112 745.892C586.484 746.558 586.671 747.316 586.671 748.163ZM585.078 747.841C585.078 747.253 584.948 746.751 584.688 746.332C584.428 745.903 584.072 745.581 583.62 745.366C583.179 745.14 582.688 745.027 582.145 745.027C581.366 745.027 580.699 745.276 580.145 745.773C579.603 746.27 579.292 746.96 579.213 747.841H585.078ZM588.131 748.502C588.131 747.542 588.323 746.705 588.707 745.993C589.091 745.27 589.622 744.711 590.3 744.315C590.99 743.92 591.775 743.722 592.656 743.722C593.798 743.722 594.735 743.999 595.47 744.553C596.216 745.106 596.707 745.875 596.945 746.858H595.284C595.125 746.293 594.815 745.847 594.351 745.519C593.899 745.191 593.334 745.027 592.656 745.027C591.775 745.027 591.063 745.332 590.521 745.943C589.978 746.542 589.707 747.395 589.707 748.502C589.707 749.621 589.978 750.485 590.521 751.095C591.063 751.706 591.775 752.011 592.656 752.011C593.334 752.011 593.899 751.853 594.351 751.536C594.803 751.22 595.114 750.768 595.284 750.18H596.945C596.696 751.129 596.199 751.892 595.453 752.468C594.707 753.033 593.775 753.316 592.656 753.316C591.775 753.316 590.99 753.118 590.3 752.723C589.622 752.327 589.091 751.768 588.707 751.045C588.323 750.321 588.131 749.474 588.131 748.502ZM600.884 745.146V750.621C600.884 751.073 600.98 751.395 601.172 751.587C601.364 751.768 601.698 751.858 602.172 751.858H603.308V753.163H601.918C601.059 753.163 600.415 752.966 599.986 752.57C599.556 752.175 599.342 751.525 599.342 750.621V745.146H598.138V743.875H599.342V741.536H600.884V743.875H603.308V745.146H600.884ZM609.119 748.485C609.119 747.536 609.312 746.705 609.696 745.993C610.08 745.27 610.605 744.711 611.272 744.315C611.95 743.92 612.702 743.722 613.526 743.722C614.34 743.722 615.046 743.897 615.645 744.248C616.244 744.598 616.69 745.039 616.984 745.57V743.875H618.544V753.163H616.984V751.434C616.679 751.977 616.222 752.429 615.611 752.79C615.012 753.141 614.312 753.316 613.51 753.316C612.685 753.316 611.939 753.112 611.272 752.706C610.605 752.299 610.08 751.728 609.696 750.994C609.312 750.259 609.119 749.423 609.119 748.485ZM616.984 748.502C616.984 747.801 616.843 747.191 616.561 746.671C616.278 746.152 615.894 745.756 615.408 745.485C614.933 745.202 614.408 745.061 613.832 745.061C613.255 745.061 612.73 745.197 612.255 745.468C611.781 745.739 611.402 746.135 611.12 746.655C610.837 747.174 610.696 747.785 610.696 748.485C610.696 749.197 610.837 749.819 611.12 750.35C611.402 750.869 611.781 751.271 612.255 751.553C612.73 751.824 613.255 751.96 613.832 751.96C614.408 751.96 614.933 751.824 615.408 751.553C615.894 751.271 616.278 750.869 616.561 750.35C616.843 749.819 616.984 749.203 616.984 748.502ZM620.574 748.485C620.574 747.536 620.766 746.705 621.15 745.993C621.534 745.27 622.06 744.711 622.727 744.315C623.405 743.92 624.156 743.722 624.981 743.722C625.795 743.722 626.501 743.897 627.1 744.248C627.699 744.598 628.145 745.039 628.439 745.57V743.875H629.998V753.163H628.439V751.434C628.134 751.977 627.676 752.429 627.066 752.79C626.467 753.141 625.766 753.316 624.964 753.316C624.139 753.316 623.393 753.112 622.727 752.706C622.06 752.299 621.534 751.728 621.15 750.994C620.766 750.259 620.574 749.423 620.574 748.485ZM628.439 748.502C628.439 747.801 628.298 747.191 628.015 746.671C627.733 746.152 627.348 745.756 626.862 745.485C626.388 745.202 625.862 745.061 625.286 745.061C624.71 745.061 624.184 745.197 623.71 745.468C623.235 745.739 622.857 746.135 622.574 746.655C622.292 747.174 622.15 747.785 622.15 748.485C622.15 749.197 622.292 749.819 622.574 750.35C622.857 750.869 623.235 751.271 623.71 751.553C624.184 751.824 624.71 751.96 625.286 751.96C625.862 751.96 626.388 751.824 626.862 751.553C627.348 751.271 627.733 750.869 628.015 750.35C628.298 749.819 628.439 749.203 628.439 748.502ZM637.13 743.705C638.26 743.705 639.176 744.05 639.876 744.739C640.577 745.417 640.927 746.4 640.927 747.688V753.163H639.402V747.909C639.402 746.982 639.17 746.276 638.707 745.79C638.243 745.293 637.611 745.044 636.808 745.044C635.995 745.044 635.345 745.299 634.859 745.807C634.385 746.316 634.147 747.056 634.147 748.027V753.163H632.605V743.875H634.147V745.197C634.452 744.722 634.865 744.355 635.385 744.095C635.916 743.835 636.498 743.705 637.13 743.705Z" fill="black"/>
<rect width="263" height="45" transform="translate(401.5 799.163)" fill="#FA5200"/>
<g clip-path="url(#clip1)">
<path d="M431.501 827.636C430.824 827.636 430.148 827.488 429.621 827.194L422.411 823.163C421.83 822.838 421.5 822.361 421.5 821.85C421.5 821.339 421.833 820.859 422.411 820.537L429.621 816.506C430.675 815.916 432.326 815.916 433.382 816.506L440.59 820.537C441.171 820.862 441.501 821.339 441.501 821.85C441.501 822.361 441.168 822.841 440.59 823.163L433.38 827.194C432.853 827.488 432.177 827.636 431.501 827.636ZM431.501 816.948C430.976 816.948 430.449 817.057 430.058 817.275L422.851 821.306C422.56 821.47 422.393 821.666 422.393 821.85C422.393 822.033 422.56 822.23 422.851 822.394L430.058 826.425C430.84 826.862 432.161 826.862 432.943 826.425L440.151 822.394C440.441 822.23 440.608 822.033 440.608 821.85C440.608 821.666 440.441 821.47 440.151 821.306L432.943 817.275C432.552 817.057 432.025 816.948 431.501 816.948Z" fill="white"/>
</g>
<path d="M468.161 827.282C467.065 827.282 466.065 827.028 465.161 826.519C464.257 825.999 463.54 825.282 463.009 824.367C462.489 823.44 462.229 822.4 462.229 821.248C462.229 820.095 462.489 819.061 463.009 818.146C463.54 817.219 464.257 816.502 465.161 815.993C466.065 815.473 467.065 815.214 468.161 815.214C469.269 815.214 470.274 815.473 471.178 815.993C472.082 816.502 472.794 817.214 473.314 818.129C473.834 819.044 474.094 820.084 474.094 821.248C474.094 822.412 473.834 823.451 473.314 824.367C472.794 825.282 472.082 825.999 471.178 826.519C470.274 827.028 469.269 827.282 468.161 827.282ZM468.161 825.943C468.986 825.943 469.726 825.751 470.382 825.367C471.049 824.982 471.568 824.434 471.941 823.722C472.325 823.011 472.518 822.186 472.518 821.248C472.518 820.299 472.325 819.474 471.941 818.773C471.568 818.061 471.054 817.513 470.399 817.129C469.743 816.745 468.998 816.553 468.161 816.553C467.325 816.553 466.579 816.745 465.924 817.129C465.269 817.513 464.749 818.061 464.365 818.773C463.992 819.474 463.805 820.299 463.805 821.248C463.805 822.186 463.992 823.011 464.365 823.722C464.749 824.434 465.269 824.982 465.924 825.367C466.591 825.751 467.336 825.943 468.161 825.943ZM477.673 819.604C477.989 819.05 478.452 818.598 479.062 818.248C479.673 817.897 480.368 817.722 481.147 817.722C481.984 817.722 482.735 817.92 483.402 818.315C484.068 818.711 484.594 819.27 484.978 819.993C485.362 820.705 485.554 821.536 485.554 822.485C485.554 823.423 485.362 824.259 484.978 824.994C484.594 825.728 484.063 826.299 483.385 826.706C482.718 827.112 481.972 827.316 481.147 827.316C480.345 827.316 479.639 827.141 479.029 826.79C478.43 826.44 477.978 825.994 477.673 825.451V827.163H476.13V814.62H477.673V819.604ZM483.978 822.485C483.978 821.785 483.837 821.174 483.554 820.655C483.272 820.135 482.888 819.739 482.402 819.468C481.927 819.197 481.402 819.061 480.825 819.061C480.26 819.061 479.735 819.202 479.249 819.485C478.774 819.756 478.39 820.157 478.096 820.688C477.814 821.208 477.673 821.813 477.673 822.502C477.673 823.203 477.814 823.819 478.096 824.35C478.39 824.869 478.774 825.271 479.249 825.553C479.735 825.824 480.26 825.96 480.825 825.96C481.402 825.96 481.927 825.824 482.402 825.553C482.888 825.271 483.272 824.869 483.554 824.35C483.837 823.819 483.978 823.197 483.978 822.485ZM488.415 816.366C488.121 816.366 487.873 816.264 487.669 816.061C487.477 815.858 487.381 815.609 487.381 815.315C487.381 815.021 487.477 814.773 487.669 814.569C487.873 814.366 488.121 814.264 488.415 814.264C488.709 814.264 488.952 814.366 489.144 814.569C489.347 814.773 489.449 815.021 489.449 815.315C489.449 815.609 489.347 815.858 489.144 816.061C488.952 816.264 488.709 816.366 488.415 816.366ZM489.178 829.18C489.178 830.005 488.969 830.61 488.551 830.994C488.133 831.378 487.522 831.57 486.72 831.57H485.822V830.265H486.466C486.895 830.265 487.195 830.18 487.364 830.011C487.545 829.841 487.635 829.553 487.635 829.146V817.875H489.178V829.18ZM500.264 822.163C500.264 822.457 500.247 822.768 500.213 823.095H492.789C492.846 824.011 493.156 824.728 493.721 825.248C494.298 825.756 494.993 826.011 495.806 826.011C496.473 826.011 497.027 825.858 497.467 825.553C497.919 825.237 498.236 824.819 498.416 824.299H500.078C499.829 825.191 499.332 825.92 498.586 826.485C497.84 827.039 496.914 827.316 495.806 827.316C494.925 827.316 494.134 827.118 493.433 826.723C492.744 826.327 492.201 825.768 491.806 825.045C491.41 824.31 491.213 823.463 491.213 822.502C491.213 821.542 491.405 820.7 491.789 819.977C492.173 819.253 492.71 818.7 493.399 818.315C494.1 817.92 494.902 817.722 495.806 817.722C496.688 817.722 497.467 817.914 498.145 818.298C498.823 818.683 499.343 819.214 499.705 819.892C500.078 820.558 500.264 821.316 500.264 822.163ZM498.671 821.841C498.671 821.253 498.541 820.751 498.281 820.332C498.021 819.903 497.665 819.581 497.213 819.366C496.772 819.14 496.281 819.027 495.738 819.027C494.959 819.027 494.292 819.276 493.738 819.773C493.196 820.27 492.885 820.96 492.806 821.841H498.671ZM501.724 822.502C501.724 821.542 501.916 820.705 502.3 819.993C502.684 819.27 503.215 818.711 503.893 818.315C504.583 817.92 505.368 817.722 506.249 817.722C507.391 817.722 508.329 817.999 509.063 818.553C509.809 819.106 510.3 819.875 510.538 820.858H508.877C508.718 820.293 508.408 819.847 507.944 819.519C507.492 819.191 506.927 819.027 506.249 819.027C505.368 819.027 504.656 819.332 504.114 819.943C503.571 820.542 503.3 821.395 503.3 822.502C503.3 823.621 503.571 824.485 504.114 825.095C504.656 825.706 505.368 826.011 506.249 826.011C506.927 826.011 507.492 825.853 507.944 825.536C508.396 825.22 508.707 824.768 508.877 824.18H510.538C510.289 825.129 509.792 825.892 509.046 826.468C508.3 827.033 507.368 827.316 506.249 827.316C505.368 827.316 504.583 827.118 503.893 826.723C503.215 826.327 502.684 825.768 502.3 825.045C501.916 824.321 501.724 823.474 501.724 822.502ZM514.477 819.146V824.621C514.477 825.073 514.573 825.395 514.765 825.587C514.957 825.768 515.291 825.858 515.765 825.858H516.901V827.163H515.511C514.652 827.163 514.008 826.966 513.579 826.57C513.149 826.175 512.935 825.525 512.935 824.621V819.146H511.731V817.875H512.935V815.536H514.477V817.875H516.901V819.146H514.477ZM522.713 822.485C522.713 821.536 522.905 820.705 523.289 819.993C523.673 819.27 524.198 818.711 524.865 818.315C525.543 817.92 526.295 817.722 527.12 817.722C527.933 817.722 528.639 817.897 529.238 818.248C529.837 818.598 530.284 819.039 530.577 819.57V817.875H532.137V827.163H530.577V825.434C530.272 825.977 529.815 826.429 529.204 826.79C528.605 827.141 527.905 827.316 527.103 827.316C526.278 827.316 525.532 827.112 524.865 826.706C524.198 826.299 523.673 825.728 523.289 824.994C522.905 824.259 522.713 823.423 522.713 822.485ZM530.577 822.502C530.577 821.801 530.436 821.191 530.154 820.671C529.871 820.152 529.487 819.756 529.001 819.485C528.526 819.202 528.001 819.061 527.425 819.061C526.848 819.061 526.323 819.197 525.848 819.468C525.374 819.739 524.995 820.135 524.713 820.655C524.43 821.174 524.289 821.785 524.289 822.485C524.289 823.197 524.43 823.819 524.713 824.35C524.995 824.869 525.374 825.271 525.848 825.553C526.323 825.824 526.848 825.96 527.425 825.96C528.001 825.96 528.526 825.824 529.001 825.553C529.487 825.271 529.871 824.869 530.154 824.35C530.436 823.819 530.577 823.203 530.577 822.502ZM534.167 822.485C534.167 821.536 534.359 820.705 534.743 819.993C535.128 819.27 535.653 818.711 536.32 818.315C536.998 817.92 537.749 817.722 538.574 817.722C539.388 817.722 540.094 817.897 540.693 818.248C541.292 818.598 541.738 819.039 542.032 819.57V817.875H543.591V827.163H542.032V825.434C541.727 825.977 541.269 826.429 540.659 826.79C540.06 827.141 539.359 827.316 538.557 827.316C537.732 827.316 536.986 827.112 536.32 826.706C535.653 826.299 535.128 825.728 534.743 824.994C534.359 824.259 534.167 823.423 534.167 822.485ZM542.032 822.502C542.032 821.801 541.891 821.191 541.608 820.671C541.326 820.152 540.941 819.756 540.455 819.485C539.981 819.202 539.455 819.061 538.879 819.061C538.303 819.061 537.777 819.197 537.303 819.468C536.828 819.739 536.45 820.135 536.167 820.655C535.885 821.174 535.743 821.785 535.743 822.485C535.743 823.197 535.885 823.819 536.167 824.35C536.45 824.869 536.828 825.271 537.303 825.553C537.777 825.824 538.303 825.96 538.879 825.96C539.455 825.96 539.981 825.824 540.455 825.553C540.941 825.271 541.326 824.869 541.608 824.35C541.891 823.819 542.032 823.203 542.032 822.502ZM550.723 817.705C551.853 817.705 552.769 818.05 553.469 818.739C554.17 819.417 554.52 820.4 554.52 821.688V827.163H552.995V821.909C552.995 820.982 552.763 820.276 552.3 819.79C551.837 819.293 551.204 819.044 550.401 819.044C549.588 819.044 548.938 819.299 548.452 819.807C547.978 820.316 547.74 821.056 547.74 822.027V827.163H546.198V817.875H547.74V819.197C548.045 818.722 548.458 818.355 548.978 818.095C549.509 817.835 550.091 817.705 550.723 817.705ZM568.21 817.705C568.933 817.705 569.577 817.858 570.142 818.163C570.707 818.457 571.154 818.903 571.481 819.502C571.809 820.101 571.973 820.83 571.973 821.688V827.163H570.447V821.909C570.447 820.982 570.216 820.276 569.752 819.79C569.3 819.293 568.685 819.044 567.905 819.044C567.103 819.044 566.464 819.304 565.989 819.824C565.515 820.332 565.278 821.073 565.278 822.044V827.163H563.752V821.909C563.752 820.982 563.52 820.276 563.057 819.79C562.605 819.293 561.989 819.044 561.21 819.044C560.407 819.044 559.769 819.304 559.294 819.824C558.82 820.332 558.582 821.073 558.582 822.044V827.163H557.04V817.875H558.582V819.214C558.887 818.728 559.294 818.355 559.803 818.095C560.323 817.835 560.893 817.705 561.515 817.705C562.294 817.705 562.984 817.88 563.583 818.231C564.181 818.581 564.628 819.095 564.922 819.773C565.182 819.118 565.611 818.609 566.21 818.248C566.809 817.886 567.475 817.705 568.21 817.705ZM573.927 822.485C573.927 821.536 574.119 820.705 574.503 819.993C574.887 819.27 575.413 818.711 576.079 818.315C576.757 817.92 577.509 817.722 578.334 817.722C579.147 817.722 579.854 817.897 580.452 818.248C581.051 818.598 581.498 819.039 581.792 819.57V817.875H583.351V827.163H581.792V825.434C581.486 825.977 581.029 826.429 580.419 826.79C579.82 827.141 579.119 827.316 578.317 827.316C577.492 827.316 576.746 827.112 576.079 826.706C575.413 826.299 574.887 825.728 574.503 824.994C574.119 824.259 573.927 823.423 573.927 822.485ZM581.792 822.502C581.792 821.801 581.65 821.191 581.368 820.671C581.085 820.152 580.701 819.756 580.215 819.485C579.741 819.202 579.215 819.061 578.639 819.061C578.063 819.061 577.537 819.197 577.062 819.468C576.588 819.739 576.209 820.135 575.927 820.655C575.644 821.174 575.503 821.785 575.503 822.485C575.503 823.197 575.644 823.819 575.927 824.35C576.209 824.869 576.588 825.271 577.062 825.553C577.537 825.824 578.063 825.96 578.639 825.96C579.215 825.96 579.741 825.824 580.215 825.553C580.701 825.271 581.085 824.869 581.368 824.35C581.65 823.819 581.792 823.203 581.792 822.502ZM591.144 827.163L587.5 823.061V827.163H585.958V814.62H587.5V821.994L591.076 817.875H593.229L588.856 822.502L593.246 827.163H591.144ZM603.156 822.163C603.156 822.457 603.139 822.768 603.105 823.095H595.681C595.737 824.011 596.048 824.728 596.613 825.248C597.189 825.756 597.884 826.011 598.698 826.011C599.365 826.011 599.918 825.858 600.359 825.553C600.811 825.237 601.127 824.819 601.308 824.299H602.969C602.721 825.191 602.224 825.92 601.478 826.485C600.732 827.039 599.805 827.316 598.698 827.316C597.817 827.316 597.026 827.118 596.325 826.723C595.636 826.327 595.093 825.768 594.698 825.045C594.302 824.31 594.104 823.463 594.104 822.502C594.104 821.542 594.297 820.7 594.681 819.977C595.065 819.253 595.602 818.7 596.291 818.315C596.992 817.92 597.794 817.722 598.698 817.722C599.579 817.722 600.359 817.914 601.037 818.298C601.715 818.683 602.235 819.214 602.596 819.892C602.969 820.558 603.156 821.316 603.156 822.163ZM601.562 821.841C601.562 821.253 601.433 820.751 601.173 820.332C600.913 819.903 600.557 819.581 600.105 819.366C599.664 819.14 599.173 819.027 598.63 819.027C597.85 819.027 597.184 819.276 596.63 819.773C596.088 820.27 595.777 820.96 595.698 821.841H601.562ZM609.717 817.705C610.847 817.705 611.763 818.05 612.463 818.739C613.164 819.417 613.514 820.4 613.514 821.688V827.163H611.989V821.909C611.989 820.982 611.757 820.276 611.294 819.79C610.83 819.293 610.198 819.044 609.395 819.044C608.582 819.044 607.932 819.299 607.446 819.807C606.972 820.316 606.734 821.056 606.734 822.027V827.163H605.192V817.875H606.734V819.197C607.039 818.722 607.452 818.355 607.972 818.095C608.503 817.835 609.085 817.705 609.717 817.705Z" fill="white"/>
<rect width="1066" height="100" fill="white"/>
<g clip-path="url(#clip2)">
<path d="M52.5007 51.9662C51.6552 51.9662 50.8097 51.781 50.1512 51.4134L41.1385 46.3751C40.413 45.9688 40 45.3719 40 44.7334C40 44.095 40.4158 43.4953 41.1385 43.0918L50.1512 38.0534C51.4682 37.3155 53.5331 37.3155 54.8529 38.0534L63.8629 43.0918C64.5884 43.498 65.0013 44.095 65.0013 44.7334C65.0013 45.3719 64.5856 45.9716 63.8629 46.3751L54.8501 51.4134C54.1916 51.781 53.3461 51.9662 52.5007 51.9662ZM52.5007 38.6062C51.8449 38.6062 51.1864 38.7416 50.6981 39.0152L41.6881 44.0535C41.3254 44.2581 41.1161 44.504 41.1161 44.7334C41.1161 44.9628 41.3254 45.2088 41.6881 45.4133L50.6981 50.4516C51.6747 50.9989 53.3266 50.9989 54.3032 50.4516L63.3132 45.4133C63.6759 45.2088 63.8852 44.9628 63.8852 44.7334C63.8852 44.504 63.6759 44.2581 63.3132 44.0535L54.3032 39.0152C53.8149 38.7416 53.1564 38.6062 52.5007 38.6062Z" fill="#172A59"/>
<path d="M52.5007 57.2504C51.6552 57.2504 50.8097 57.0653 50.1512 56.6977L41.1385 51.6621C40.413 51.2559 39.9972 50.6589 40 50.0205C40 49.382 40.4158 48.7823 41.1385 48.3788L43.8172 46.9085C44.0878 46.7592 44.4255 46.856 44.5762 47.1241C44.7268 47.3921 44.6292 47.7266 44.3585 47.8758L41.6826 49.3434C41.3226 49.5451 41.1134 49.7938 41.1134 50.0205C41.1134 50.2499 41.3226 50.4958 41.6854 50.7004L50.6953 55.7387C51.672 56.2859 53.3238 56.2859 54.3004 55.7387L63.3104 50.7004C63.6731 50.4958 63.8824 50.2499 63.8824 50.0205C63.8824 49.7911 63.6731 49.5451 63.3104 49.3406L60.6401 47.873C60.3694 47.7238 60.2717 47.3894 60.4224 47.1213C60.5731 46.8532 60.9107 46.7592 61.1814 46.9057L63.8573 48.3733C64.5856 48.7795 65.0013 49.3793 65.0013 50.0177C65.0013 50.6561 64.5856 51.2559 63.8629 51.6594L54.8501 56.6977C54.1916 57.068 53.3461 57.2504 52.5007 57.2504Z" fill="#172A59"/>
<path d="M52.5007 62.4353C51.6552 62.4353 50.8097 62.2501 50.1512 61.8826L41.1385 56.8442C40.413 56.438 40 55.841 40 55.2026C40 54.5642 40.4158 53.9672 41.1385 53.5609L43.7474 52.1486C44.0181 52.0022 44.3557 52.1016 44.5036 52.3697C44.6515 52.6378 44.551 52.9722 44.2804 53.1187L41.677 54.5255C41.3198 54.7244 41.1106 54.9732 41.1106 55.1998C41.1106 55.4264 41.3198 55.6752 41.6826 55.8797L50.6925 60.918C51.6691 61.4652 53.321 61.4652 54.2976 60.918L63.3132 55.8825C63.6759 55.6779 63.8852 55.432 63.8852 55.2026C63.8852 54.9732 63.6759 54.7272 63.3132 54.5227L60.8521 53.0137C60.5898 52.8534 60.5089 52.5134 60.6707 52.2537C60.8326 51.9939 61.1758 51.9137 61.4381 52.074L63.8796 53.572C64.5856 53.9644 64.9985 54.5642 64.9985 55.2026C64.9985 55.841 64.5828 56.4407 63.8601 56.8442L54.8501 61.8826C54.1916 62.2529 53.3461 62.4353 52.5007 62.4353Z" fill="#172A59"/>
</g>
<path d="M93.0682 32.6689V40.9744C93.0682 42.127 92.7349 43.0253 92.0682 43.6694C91.4015 44.3022 90.5088 44.6187 89.3901 44.6187C88.2601 44.6187 87.3448 44.2909 86.6442 43.6355C85.9549 42.9801 85.6102 42.0648 85.6102 40.8896H87.9832C87.9945 41.3981 88.1132 41.7936 88.3392 42.0761C88.5765 42.3586 88.9155 42.4999 89.3562 42.4999C89.7856 42.4999 90.1133 42.3643 90.3393 42.0931C90.5653 41.8219 90.6783 41.449 90.6783 40.9744V32.6689H93.0682ZM104.566 39.6014C104.566 39.9404 104.543 40.2455 104.498 40.5167H97.633C97.6895 41.1947 97.9268 41.7258 98.3449 42.11C98.763 42.4942 99.2772 42.6863 99.8874 42.6863C100.769 42.6863 101.396 42.3078 101.769 41.5507H104.328C104.057 42.4547 103.537 43.2005 102.769 43.7881C102 44.3644 101.057 44.6526 99.9382 44.6526C99.0342 44.6526 98.2206 44.4548 97.4974 44.0593C96.7855 43.6525 96.2262 43.0818 95.8194 42.3473C95.4239 41.6128 95.2261 40.7653 95.2261 39.8048C95.2261 38.833 95.4239 37.9799 95.8194 37.2454C96.2149 36.5109 96.7686 35.9459 97.4805 35.5504C98.1924 35.1549 99.0116 34.9571 99.9382 34.9571C100.831 34.9571 101.628 35.1492 102.328 35.5334C103.04 35.9176 103.588 36.4657 103.972 37.1776C104.368 37.8782 104.566 38.6861 104.566 39.6014ZM102.108 38.9234C102.097 38.3132 101.876 37.8273 101.447 37.4657C101.017 37.0928 100.492 36.9064 99.8704 36.9064C99.2828 36.9064 98.7856 37.0872 98.3788 37.4488C97.9833 37.7991 97.7404 38.2906 97.65 38.9234H102.108ZM119.066 39.6014C119.066 39.9404 119.043 40.2455 118.998 40.5167H112.133C112.19 41.1947 112.427 41.7258 112.845 42.11C113.263 42.4942 113.777 42.6863 114.388 42.6863C115.269 42.6863 115.896 42.3078 116.269 41.5507H118.828C118.557 42.4547 118.037 43.2005 117.269 43.7881C116.501 44.3644 115.557 44.6526 114.438 44.6526C113.534 44.6526 112.721 44.4548 111.998 44.0593C111.286 43.6525 110.726 43.0818 110.32 42.3473C109.924 41.6128 109.726 40.7653 109.726 39.8048C109.726 38.833 109.924 37.9799 110.32 37.2454C110.715 36.5109 111.269 35.9459 111.981 35.5504C112.693 35.1549 113.512 34.9571 114.438 34.9571C115.331 34.9571 116.128 35.1492 116.828 35.5334C117.54 35.9176 118.088 36.4657 118.473 37.1776C118.868 37.8782 119.066 38.6861 119.066 39.6014ZM116.608 38.9234C116.597 38.3132 116.376 37.8273 115.947 37.4657C115.518 37.0928 114.992 36.9064 114.371 36.9064C113.783 36.9064 113.286 37.0872 112.879 37.4488C112.484 37.7991 112.241 38.2906 112.15 38.9234H116.608ZM129.527 39.6014C129.527 39.9404 129.505 40.2455 129.459 40.5167H122.595C122.651 41.1947 122.888 41.7258 123.306 42.11C123.725 42.4942 124.239 42.6863 124.849 42.6863C125.73 42.6863 126.357 42.3078 126.73 41.5507H129.29C129.019 42.4547 128.499 43.2005 127.73 43.7881C126.962 44.3644 126.018 44.6526 124.9 44.6526C123.996 44.6526 123.182 44.4548 122.459 44.0593C121.747 43.6525 121.188 43.0818 120.781 42.3473C120.385 41.6128 120.188 40.7653 120.188 39.8048C120.188 38.833 120.385 37.9799 120.781 37.2454C121.176 36.5109 121.73 35.9459 122.442 35.5504C123.154 35.1549 123.973 34.9571 124.9 34.9571C125.792 34.9571 126.589 35.1492 127.29 35.5334C128.002 35.9176 128.55 36.4657 128.934 37.1776C129.329 37.8782 129.527 38.6861 129.527 39.6014ZM127.069 38.9234C127.058 38.3132 126.838 37.8273 126.408 37.4657C125.979 37.0928 125.453 36.9064 124.832 36.9064C124.244 36.9064 123.747 37.0872 123.34 37.4488C122.945 37.7991 122.702 38.2906 122.612 38.9234H127.069ZM133.632 36.5674C133.937 36.0702 134.333 35.6803 134.819 35.3978C135.316 35.1153 135.881 34.9741 136.514 34.9741V37.4657H135.887C135.141 37.4657 134.576 37.6409 134.192 37.9912C133.819 38.3415 133.632 38.9517 133.632 39.8218V44.5H131.259V35.1097H133.632V36.5674ZM141.705 44.6526C140.937 44.6526 140.248 44.517 139.638 44.2457C139.027 43.9632 138.541 43.5847 138.18 43.1101C137.83 42.6355 137.637 42.11 137.604 41.5337H139.993C140.039 41.8953 140.214 42.1948 140.519 42.4321C140.835 42.6694 141.225 42.788 141.688 42.788C142.14 42.788 142.491 42.6976 142.739 42.5168C142.999 42.336 143.129 42.1044 143.129 41.8219C143.129 41.5168 142.971 41.2908 142.655 41.1439C142.35 40.9857 141.858 40.8162 141.18 40.6354C140.479 40.4659 139.903 40.2907 139.451 40.1099C139.01 39.9291 138.626 39.6523 138.298 39.2794C137.982 38.9065 137.824 38.4036 137.824 37.7708C137.824 37.251 137.971 36.7764 138.265 36.347C138.57 35.9176 138.999 35.5786 139.553 35.33C140.118 35.0814 140.779 34.9571 141.536 34.9571C142.655 34.9571 143.547 35.2396 144.214 35.8046C144.881 36.3583 145.248 37.1098 145.316 38.059H143.044C143.011 37.6861 142.852 37.3923 142.57 37.1776C142.299 36.9516 141.931 36.8386 141.468 36.8386C141.039 36.8386 140.705 36.9177 140.468 37.0759C140.242 37.2341 140.129 37.4544 140.129 37.7369C140.129 38.0533 140.287 38.2963 140.604 38.4658C140.92 38.624 141.412 38.7878 142.078 38.9573C142.756 39.1268 143.316 39.302 143.756 39.4828C144.197 39.6636 144.576 39.9461 144.892 40.3303C145.22 40.7032 145.389 41.2004 145.401 41.8219C145.401 42.3643 145.248 42.8502 144.943 43.2796C144.649 43.709 144.22 44.048 143.655 44.2966C143.101 44.5339 142.451 44.6526 141.705 44.6526ZM150.111 37.0589V41.6015C150.111 41.9179 150.185 42.1496 150.332 42.2965C150.49 42.4321 150.75 42.4999 151.111 42.4999H152.213V44.5H150.722C148.721 44.5 147.721 43.5282 147.721 41.5846V37.0589H146.603V35.1097H147.721V32.7875H150.111V35.1097H152.213V37.0589H150.111ZM162.649 39.6014C162.649 39.9404 162.627 40.2455 162.581 40.5167H155.717C155.773 41.1947 156.01 41.7258 156.428 42.11C156.847 42.4942 157.361 42.6863 157.971 42.6863C158.852 42.6863 159.479 42.3078 159.852 41.5507H162.412C162.141 42.4547 161.621 43.2005 160.852 43.7881C160.084 44.3644 159.14 44.6526 158.022 44.6526C157.118 44.6526 156.304 44.4548 155.581 44.0593C154.869 43.6525 154.31 43.0818 153.903 42.3473C153.507 41.6128 153.31 40.7653 153.31 39.8048C153.31 38.833 153.507 37.9799 153.903 37.2454C154.298 36.5109 154.852 35.9459 155.564 35.5504C156.276 35.1549 157.095 34.9571 158.022 34.9571C158.914 34.9571 159.711 35.1492 160.412 35.5334C161.124 35.9176 161.672 36.4657 162.056 37.1776C162.451 37.8782 162.649 38.6861 162.649 39.6014ZM160.191 38.9234C160.18 38.3132 159.96 37.8273 159.53 37.4657C159.101 37.0928 158.575 36.9064 157.954 36.9064C157.366 36.9064 156.869 37.0872 156.462 37.4488C156.067 37.7991 155.824 38.2906 155.734 38.9234H160.191ZM167.81 39.8048C167.81 38.833 168.008 37.9855 168.403 37.2623C168.799 36.5278 169.347 35.9628 170.047 35.5673C170.748 35.1605 171.55 34.9571 172.454 34.9571C173.618 34.9571 174.579 35.2509 175.336 35.8385C176.104 36.4148 176.618 37.2284 176.878 38.2793H174.319C174.183 37.8725 173.951 37.5561 173.624 37.3301C173.307 37.0928 172.912 36.9742 172.437 36.9742C171.759 36.9742 171.222 37.2228 170.827 37.72C170.431 38.2059 170.234 38.9008 170.234 39.8048C170.234 40.6975 170.431 41.3925 170.827 41.8897C171.222 42.3756 171.759 42.6185 172.437 42.6185C173.398 42.6185 174.025 42.1891 174.319 41.3303H176.878C176.618 42.3473 176.104 43.1553 175.336 43.7542C174.567 44.3531 173.607 44.6526 172.454 44.6526C171.55 44.6526 170.748 44.4548 170.047 44.0593C169.347 43.6525 168.799 43.0875 168.403 42.3643C168.008 41.6298 167.81 40.7766 167.81 39.8048ZM182.786 44.6526C181.882 44.6526 181.069 44.4548 180.345 44.0593C179.622 43.6525 179.052 43.0818 178.634 42.3473C178.227 41.6128 178.023 40.7653 178.023 39.8048C178.023 38.8443 178.232 37.9968 178.65 37.2623C179.08 36.5278 179.662 35.9628 180.396 35.5673C181.131 35.1605 181.95 34.9571 182.854 34.9571C183.758 34.9571 184.577 35.1605 185.312 35.5673C186.046 35.9628 186.623 36.5278 187.041 37.2623C187.47 37.9968 187.685 38.8443 187.685 39.8048C187.685 40.7653 187.464 41.6128 187.024 42.3473C186.594 43.0818 186.007 43.6525 185.261 44.0593C184.526 44.4548 183.702 44.6526 182.786 44.6526ZM182.786 42.5846C183.216 42.5846 183.617 42.4829 183.99 42.2795C184.374 42.0648 184.679 41.7484 184.905 41.3303C185.131 40.9122 185.244 40.4037 185.244 39.8048C185.244 38.9121 185.007 38.2285 184.532 37.7539C184.069 37.268 183.498 37.025 182.82 37.025C182.142 37.025 181.572 37.268 181.108 37.7539C180.656 38.2285 180.43 38.9121 180.43 39.8048C180.43 40.6975 180.651 41.3868 181.091 41.8727C181.543 42.3473 182.108 42.5846 182.786 42.5846ZM191.799 31.957V44.5H189.426V31.957H191.799ZM196.516 31.957V44.5H194.143V31.957H196.516ZM207.59 39.6014C207.59 39.9404 207.567 40.2455 207.522 40.5167H200.657C200.714 41.1947 200.951 41.7258 201.369 42.11C201.787 42.4942 202.301 42.6863 202.912 42.6863C203.793 42.6863 204.42 42.3078 204.793 41.5507H207.353C207.081 42.4547 206.562 43.2005 205.793 43.7881C205.025 44.3644 204.081 44.6526 202.962 44.6526C202.058 44.6526 201.245 44.4548 200.522 44.0593C199.81 43.6525 199.25 43.0818 198.844 42.3473C198.448 41.6128 198.25 40.7653 198.25 39.8048C198.25 38.833 198.448 37.9799 198.844 37.2454C199.239 36.5109 199.793 35.9459 200.505 35.5504C201.217 35.1549 202.036 34.9571 202.962 34.9571C203.855 34.9571 204.652 35.1492 205.352 35.5334C206.064 35.9176 206.612 36.4657 206.997 37.1776C207.392 37.8782 207.59 38.6861 207.59 39.6014ZM205.132 38.9234C205.121 38.3132 204.9 37.8273 204.471 37.4657C204.042 37.0928 203.516 36.9064 202.895 36.9064C202.307 36.9064 201.81 37.0872 201.403 37.4488C201.008 37.7991 200.765 38.2906 200.674 38.9234H205.132ZM208.712 39.8048C208.712 38.833 208.909 37.9855 209.305 37.2623C209.7 36.5278 210.249 35.9628 210.949 35.5673C211.65 35.1605 212.452 34.9571 213.356 34.9571C214.52 34.9571 215.48 35.2509 216.238 35.8385C217.006 36.4148 217.52 37.2284 217.78 38.2793H215.221C215.085 37.8725 214.853 37.5561 214.526 37.3301C214.209 37.0928 213.814 36.9742 213.339 36.9742C212.661 36.9742 212.124 37.2228 211.729 37.72C211.333 38.2059 211.136 38.9008 211.136 39.8048C211.136 40.6975 211.333 41.3925 211.729 41.8897C212.124 42.3756 212.661 42.6185 213.339 42.6185C214.3 42.6185 214.927 42.1891 215.221 41.3303H217.78C217.52 42.3473 217.006 43.1553 216.238 43.7542C215.469 44.3531 214.509 44.6526 213.356 44.6526C212.452 44.6526 211.65 44.4548 210.949 44.0593C210.249 43.6525 209.7 43.0875 209.305 42.3643C208.909 41.6298 208.712 40.7766 208.712 39.8048ZM222.281 37.0589V41.6015C222.281 41.9179 222.355 42.1496 222.502 42.2965C222.66 42.4321 222.92 42.4999 223.281 42.4999H224.383V44.5H222.891C220.891 44.5 219.891 43.5282 219.891 41.5846V37.0589H218.773V35.1097H219.891V32.7875H222.281V35.1097H224.383V37.0589H222.281ZM227.293 33.991C226.875 33.991 226.525 33.861 226.242 33.6011C225.971 33.3299 225.836 32.9966 225.836 32.6011C225.836 32.2056 225.971 31.8779 226.242 31.618C226.525 31.3468 226.875 31.2112 227.293 31.2112C227.711 31.2112 228.056 31.3468 228.327 31.618C228.61 31.8779 228.751 32.2056 228.751 32.6011C228.751 32.9966 228.61 33.3299 228.327 33.6011C228.056 33.861 227.711 33.991 227.293 33.991ZM228.463 35.1097V44.5H226.09V35.1097H228.463ZM239.537 39.6014C239.537 39.9404 239.514 40.2455 239.469 40.5167H232.604C232.661 41.1947 232.898 41.7258 233.316 42.11C233.734 42.4942 234.248 42.6863 234.858 42.6863C235.74 42.6863 236.367 42.3078 236.74 41.5507H239.299C239.028 42.4547 238.508 43.2005 237.74 43.7881C236.972 44.3644 236.028 44.6526 234.909 44.6526C234.005 44.6526 233.192 44.4548 232.468 44.0593C231.757 43.6525 231.197 43.0818 230.79 42.3473C230.395 41.6128 230.197 40.7653 230.197 39.8048C230.197 38.833 230.395 37.9799 230.79 37.2454C231.186 36.5109 231.74 35.9459 232.452 35.5504C233.163 35.1549 233.983 34.9571 234.909 34.9571C235.802 34.9571 236.599 35.1492 237.299 35.5334C238.011 35.9176 238.559 36.4657 238.943 37.1776C239.339 37.8782 239.537 38.6861 239.537 39.6014ZM237.079 38.9234C237.068 38.3132 236.847 37.8273 236.418 37.4657C235.988 37.0928 235.463 36.9064 234.841 36.9064C234.254 36.9064 233.757 37.0872 233.35 37.4488C232.954 37.7991 232.711 38.2906 232.621 38.9234H237.079Z" fill="#172A59"/>
<path d="M94.7056 57.492L90.9472 67.5H89.0464L85.2736 57.492H87.0304L89.9968 65.8152L92.9776 57.492H94.7056ZM99.52 67.6296C98.7712 67.6296 98.0944 67.4616 97.4896 67.1256C96.8848 66.78 96.4096 66.3 96.064 65.6856C95.7184 65.0616 95.5456 64.3416 95.5456 63.5256C95.5456 62.7192 95.7232 62.004 96.0784 61.38C96.4336 60.756 96.9184 60.276 97.5328 59.94C98.1472 59.604 98.8336 59.436 99.592 59.436C100.35 59.436 101.037 59.604 101.651 59.94C102.266 60.276 102.75 60.756 103.106 61.38C103.461 62.004 103.638 62.7192 103.638 63.5256C103.638 64.332 103.456 65.0472 103.091 65.6712C102.726 66.2952 102.227 66.78 101.594 67.1256C100.97 67.4616 100.278 67.6296 99.52 67.6296ZM99.52 66.204C99.9424 66.204 100.336 66.1032 100.701 65.9016C101.075 65.7 101.378 65.3976 101.608 64.9944C101.838 64.5912 101.954 64.1016 101.954 63.5256C101.954 62.9496 101.843 62.4648 101.622 62.0712C101.402 61.668 101.109 61.3656 100.744 61.164C100.379 60.9624 99.9856 60.8616 99.5632 60.8616C99.1408 60.8616 98.7472 60.9624 98.3824 61.164C98.0272 61.3656 97.744 61.668 97.5328 62.0712C97.3216 62.4648 97.216 62.9496 97.216 63.5256C97.216 64.38 97.432 65.0424 97.864 65.5128C98.3056 65.9736 98.8576 66.204 99.52 66.204ZM108.703 67.6296C107.954 67.6296 107.277 67.4616 106.672 67.1256C106.068 66.78 105.592 66.3 105.247 65.6856C104.901 65.0616 104.728 64.3416 104.728 63.5256C104.728 62.7192 104.906 62.004 105.261 61.38C105.616 60.756 106.101 60.276 106.716 59.94C107.33 59.604 108.016 59.436 108.775 59.436C109.533 59.436 110.22 59.604 110.834 59.94C111.448 60.276 111.933 60.756 112.288 61.38C112.644 62.004 112.821 62.7192 112.821 63.5256C112.821 64.332 112.639 65.0472 112.274 65.6712C111.909 66.2952 111.41 66.78 110.776 67.1256C110.152 67.4616 109.461 67.6296 108.703 67.6296ZM108.703 66.204C109.125 66.204 109.519 66.1032 109.884 65.9016C110.258 65.7 110.56 65.3976 110.791 64.9944C111.021 64.5912 111.136 64.1016 111.136 63.5256C111.136 62.9496 111.026 62.4648 110.805 62.0712C110.584 61.668 110.292 61.3656 109.927 61.164C109.562 60.9624 109.168 60.8616 108.746 60.8616C108.324 60.8616 107.93 60.9624 107.565 61.164C107.21 61.3656 106.927 61.668 106.716 62.0712C106.504 62.4648 106.399 62.9496 106.399 63.5256C106.399 64.38 106.615 65.0424 107.047 65.5128C107.488 65.9736 108.04 66.204 108.703 66.204ZM116.086 60.7176C116.326 60.3144 116.642 60.0024 117.036 59.7816C117.439 59.5512 117.914 59.436 118.462 59.436V61.1352H118.044C117.401 61.1352 116.911 61.2984 116.575 61.6248C116.249 61.9512 116.086 62.5176 116.086 63.324V67.5H114.444V59.5656H116.086V60.7176ZM121.612 60.7464C121.891 60.3624 122.27 60.0504 122.75 59.8104C123.239 59.5608 123.782 59.436 124.377 59.436C125.078 59.436 125.711 59.604 126.278 59.94C126.844 60.276 127.291 60.756 127.617 61.38C127.943 61.9944 128.107 62.7 128.107 63.4968C128.107 64.2936 127.943 65.0088 127.617 65.6424C127.291 66.2664 126.839 66.756 126.263 67.1112C125.697 67.4568 125.068 67.6296 124.377 67.6296C123.763 67.6296 123.215 67.5096 122.735 67.2696C122.265 67.0296 121.891 66.7224 121.612 66.348V67.5H119.971V56.844H121.612V60.7464ZM126.436 63.4968C126.436 62.9496 126.321 62.4792 126.091 62.0856C125.87 61.6824 125.572 61.38 125.198 61.1784C124.833 60.9672 124.439 60.8616 124.017 60.8616C123.604 60.8616 123.211 60.9672 122.836 61.1784C122.471 61.3896 122.174 61.6968 121.943 62.1C121.723 62.5032 121.612 62.9784 121.612 63.5256C121.612 64.0728 121.723 64.5528 121.943 64.9656C122.174 65.3688 122.471 65.676 122.836 65.8872C123.211 66.0984 123.604 66.204 124.017 66.204C124.439 66.204 124.833 66.0984 125.198 65.8872C125.572 65.6664 125.87 65.3496 126.091 64.9368C126.321 64.524 126.436 64.044 126.436 63.4968ZM137.002 63.3384C137.002 63.636 136.983 63.9048 136.944 64.1448H130.882C130.93 64.7784 131.165 65.2872 131.588 65.6712C132.01 66.0552 132.528 66.2472 133.143 66.2472C134.026 66.2472 134.65 65.8776 135.015 65.1384H136.786C136.546 65.868 136.109 66.468 135.476 66.9384C134.852 67.3992 134.074 67.6296 133.143 67.6296C132.384 67.6296 131.703 67.4616 131.098 67.1256C130.503 66.78 130.032 66.3 129.687 65.6856C129.351 65.0616 129.183 64.3416 129.183 63.5256C129.183 62.7096 129.346 61.9944 129.672 61.38C130.008 60.756 130.474 60.276 131.069 59.94C131.674 59.604 132.365 59.436 133.143 59.436C133.892 59.436 134.559 59.5992 135.144 59.9256C135.73 60.252 136.186 60.7128 136.512 61.308C136.839 61.8936 137.002 62.5704 137.002 63.3384ZM135.288 62.82C135.279 62.2152 135.063 61.7304 134.64 61.3656C134.218 61.0008 133.695 60.8184 133.071 60.8184C132.504 60.8184 132.02 61.0008 131.616 61.3656C131.213 61.7208 130.973 62.2056 130.896 62.82H135.288ZM145.889 63.3384C145.889 63.636 145.87 63.9048 145.832 64.1448H139.769C139.817 64.7784 140.053 65.2872 140.475 65.6712C140.897 66.0552 141.416 66.2472 142.03 66.2472C142.913 66.2472 143.537 65.8776 143.902 65.1384H145.673C145.433 65.868 144.997 66.468 144.363 66.9384C143.739 67.3992 142.961 67.6296 142.03 67.6296C141.272 67.6296 140.59 67.4616 139.985 67.1256C139.39 66.78 138.92 66.3 138.574 65.6856C138.238 65.0616 138.07 64.3416 138.07 63.5256C138.07 62.7096 138.233 61.9944 138.56 61.38C138.896 60.756 139.361 60.276 139.957 59.94C140.561 59.604 141.253 59.436 142.03 59.436C142.779 59.436 143.446 59.5992 144.032 59.9256C144.617 60.252 145.073 60.7128 145.4 61.308C145.726 61.8936 145.889 62.5704 145.889 63.3384ZM144.176 62.82C144.166 62.2152 143.95 61.7304 143.528 61.3656C143.105 61.0008 142.582 60.8184 141.958 60.8184C141.392 60.8184 140.907 61.0008 140.504 61.3656C140.101 61.7208 139.861 62.2056 139.784 62.82H144.176ZM149.147 56.844V67.5H147.505V56.844H149.147ZM150.755 63.4968C150.755 62.7 150.918 61.9944 151.244 61.38C151.58 60.7656 152.031 60.2904 152.598 59.9544C153.174 59.6088 153.812 59.436 154.513 59.436C155.031 59.436 155.54 59.5512 156.039 59.7816C156.548 60.0024 156.951 60.3 157.249 60.6744V56.844H158.905V67.5H157.249V66.3048C156.98 66.6888 156.606 67.0056 156.126 67.2552C155.655 67.5048 155.113 67.6296 154.499 67.6296C153.807 67.6296 153.174 67.4568 152.598 67.1112C152.031 66.756 151.58 66.2664 151.244 65.6424C150.918 65.0088 150.755 64.2936 150.755 63.4968ZM157.249 63.5256C157.249 62.9784 157.134 62.5032 156.903 62.1C156.683 61.6968 156.39 61.3896 156.025 61.1784C155.66 60.9672 155.267 60.8616 154.844 60.8616C154.422 60.8616 154.028 60.9672 153.663 61.1784C153.299 61.38 153.001 61.6824 152.771 62.0856C152.55 62.4792 152.439 62.9496 152.439 63.4968C152.439 64.044 152.55 64.524 152.771 64.9368C153.001 65.3496 153.299 65.6664 153.663 65.8872C154.038 66.0984 154.431 66.204 154.844 66.204C155.267 66.204 155.66 66.0984 156.025 65.8872C156.39 65.676 156.683 65.3688 156.903 64.9656C157.134 64.5528 157.249 64.0728 157.249 63.5256ZM167.869 66.0312L170.115 59.5656H171.858L168.834 67.5H166.875L163.866 59.5656H165.623L167.869 66.0312ZM172.552 63.4968C172.552 62.7 172.715 61.9944 173.041 61.38C173.377 60.7656 173.828 60.2904 174.395 59.9544C174.971 59.6088 175.604 59.436 176.296 59.436C176.92 59.436 177.462 59.5608 177.923 59.8104C178.393 60.0504 178.768 60.3528 179.046 60.7176V59.5656H180.702V67.5H179.046V66.3192C178.768 66.6936 178.388 67.0056 177.908 67.2552C177.428 67.5048 176.881 67.6296 176.267 67.6296C175.585 67.6296 174.961 67.4568 174.395 67.1112C173.828 66.756 173.377 66.2664 173.041 65.6424C172.715 65.0088 172.552 64.2936 172.552 63.4968ZM179.046 63.5256C179.046 62.9784 178.931 62.5032 178.7 62.1C178.48 61.6968 178.187 61.3896 177.822 61.1784C177.457 60.9672 177.064 60.8616 176.641 60.8616C176.219 60.8616 175.825 60.9672 175.46 61.1784C175.096 61.38 174.798 61.6824 174.568 62.0856C174.347 62.4792 174.236 62.9496 174.236 63.4968C174.236 64.044 174.347 64.524 174.568 64.9368C174.798 65.3496 175.096 65.6664 175.46 65.8872C175.835 66.0984 176.228 66.204 176.641 66.204C177.064 66.204 177.457 66.0984 177.822 65.8872C178.187 65.676 178.48 65.3688 178.7 64.9656C178.931 64.5528 179.046 64.0728 179.046 63.5256ZM186.861 59.436C187.485 59.436 188.042 59.5656 188.532 59.8248C189.031 60.084 189.42 60.468 189.698 60.9768C189.977 61.4856 190.116 62.1 190.116 62.82V67.5H188.489V63.0648C188.489 62.3544 188.311 61.812 187.956 61.4376C187.601 61.0536 187.116 60.8616 186.501 60.8616C185.887 60.8616 185.397 61.0536 185.033 61.4376C184.677 61.812 184.5 62.3544 184.5 63.0648V67.5H182.858V59.5656H184.5V60.4728C184.769 60.1464 185.109 59.892 185.522 59.7096C185.945 59.5272 186.391 59.436 186.861 59.436ZM203.222 63.3384C203.222 63.636 203.203 63.9048 203.165 64.1448H197.102C197.15 64.7784 197.386 65.2872 197.808 65.6712C198.23 66.0552 198.749 66.2472 199.363 66.2472C200.246 66.2472 200.87 65.8776 201.235 65.1384H203.006C202.766 65.868 202.33 66.468 201.696 66.9384C201.072 67.3992 200.294 67.6296 199.363 67.6296C198.605 67.6296 197.923 67.4616 197.318 67.1256C196.723 66.78 196.253 66.3 195.907 65.6856C195.571 65.0616 195.403 64.3416 195.403 63.5256C195.403 62.7096 195.566 61.9944 195.893 61.38C196.229 60.756 196.694 60.276 197.29 59.94C197.894 59.604 198.586 59.436 199.363 59.436C200.112 59.436 200.779 59.5992 201.365 59.9256C201.95 60.252 202.406 60.7128 202.733 61.308C203.059 61.8936 203.222 62.5704 203.222 63.3384ZM201.509 62.82C201.499 62.2152 201.283 61.7304 200.861 61.3656C200.438 61.0008 199.915 60.8184 199.291 60.8184C198.725 60.8184 198.24 61.0008 197.837 61.3656C197.434 61.7208 197.194 62.2056 197.117 62.82H201.509ZM212.11 63.3384C212.11 63.636 212.091 63.9048 212.052 64.1448H205.99C206.038 64.7784 206.273 65.2872 206.695 65.6712C207.118 66.0552 207.636 66.2472 208.251 66.2472C209.134 66.2472 209.758 65.8776 210.123 65.1384H211.894C211.654 65.868 211.217 66.468 210.583 66.9384C209.959 67.3992 209.182 67.6296 208.251 67.6296C207.492 67.6296 206.811 67.4616 206.206 67.1256C205.611 66.78 205.14 66.3 204.795 65.6856C204.459 65.0616 204.291 64.3416 204.291 63.5256C204.291 62.7096 204.454 61.9944 204.78 61.38C205.116 60.756 205.582 60.276 206.177 59.94C206.782 59.604 207.473 59.436 208.251 59.436C208.999 59.436 209.667 59.5992 210.252 59.9256C210.838 60.252 211.294 60.7128 211.62 61.308C211.947 61.8936 212.11 62.5704 212.11 63.3384ZM210.396 62.82C210.387 62.2152 210.171 61.7304 209.748 61.3656C209.326 61.0008 208.803 60.8184 208.179 60.8184C207.612 60.8184 207.127 61.0008 206.724 61.3656C206.321 61.7208 206.081 62.2056 206.004 62.82H210.396ZM217.729 59.436C218.353 59.436 218.909 59.5656 219.399 59.8248C219.898 60.084 220.287 60.468 220.565 60.9768C220.844 61.4856 220.983 62.1 220.983 62.82V67.5H219.356V63.0648C219.356 62.3544 219.178 61.812 218.823 61.4376C218.468 61.0536 217.983 60.8616 217.369 60.8616C216.754 60.8616 216.265 61.0536 215.9 61.4376C215.545 61.812 215.367 62.3544 215.367 63.0648V67.5H213.725V59.5656H215.367V60.4728C215.636 60.1464 215.977 59.892 216.389 59.7096C216.812 59.5272 217.258 59.436 217.729 59.436ZM226.27 63.5256C226.27 62.7096 226.434 61.9944 226.76 61.38C227.096 60.756 227.557 60.276 228.142 59.94C228.728 59.604 229.4 59.436 230.158 59.436C231.118 59.436 231.91 59.6664 232.534 60.1272C233.168 60.5784 233.595 61.2264 233.816 62.0712H232.045C231.901 61.6776 231.67 61.3704 231.354 61.1496C231.037 60.9288 230.638 60.8184 230.158 60.8184C229.486 60.8184 228.949 61.0584 228.546 61.5384C228.152 62.0088 227.955 62.6712 227.955 63.5256C227.955 64.38 228.152 65.0472 228.546 65.5272C228.949 66.0072 229.486 66.2472 230.158 66.2472C231.109 66.2472 231.738 65.8296 232.045 64.9944H233.816C233.586 65.8008 233.154 66.444 232.52 66.924C231.886 67.3944 231.099 67.6296 230.158 67.6296C229.4 67.6296 228.728 67.4616 228.142 67.1256C227.557 66.78 227.096 66.3 226.76 65.6856C226.434 65.0616 226.27 64.3416 226.27 63.5256ZM238.893 67.6296C238.145 67.6296 237.468 67.4616 236.863 67.1256C236.258 66.78 235.783 66.3 235.437 65.6856C235.092 65.0616 234.919 64.3416 234.919 63.5256C234.919 62.7192 235.097 62.004 235.452 61.38C235.807 60.756 236.292 60.276 236.906 59.94C237.521 59.604 238.207 59.436 238.965 59.436C239.724 59.436 240.41 59.604 241.025 59.94C241.639 60.276 242.124 60.756 242.479 61.38C242.834 62.004 243.012 62.7192 243.012 63.5256C243.012 64.332 242.829 65.0472 242.465 65.6712C242.1 66.2952 241.601 66.78 240.967 67.1256C240.343 67.4616 239.652 67.6296 238.893 67.6296ZM238.893 66.204C239.316 66.204 239.709 66.1032 240.074 65.9016C240.449 65.7 240.751 65.3976 240.981 64.9944C241.212 64.5912 241.327 64.1016 241.327 63.5256C241.327 62.9496 241.217 62.4648 240.996 62.0712C240.775 61.668 240.482 61.3656 240.117 61.164C239.753 60.9624 239.359 60.8616 238.937 60.8616C238.514 60.8616 238.121 60.9624 237.756 61.164C237.401 61.3656 237.117 61.668 236.906 62.0712C236.695 62.4648 236.589 62.9496 236.589 63.5256C236.589 64.38 236.805 65.0424 237.237 65.5128C237.679 65.9736 238.231 66.204 238.893 66.204ZM246.276 56.844V67.5H244.635V56.844H246.276ZM250.073 56.844V67.5H248.432V56.844H250.073ZM259.5 63.3384C259.5 63.636 259.481 63.9048 259.443 64.1448H253.38C253.428 64.7784 253.664 65.2872 254.086 65.6712C254.508 66.0552 255.027 66.2472 255.641 66.2472C256.524 66.2472 257.148 65.8776 257.513 65.1384H259.284C259.044 65.868 258.608 66.468 257.974 66.9384C257.35 67.3992 256.572 67.6296 255.641 67.6296C254.883 67.6296 254.201 67.4616 253.596 67.1256C253.001 66.78 252.531 66.3 252.185 65.6856C251.849 65.0616 251.681 64.3416 251.681 63.5256C251.681 62.7096 251.844 61.9944 252.171 61.38C252.507 60.756 252.972 60.276 253.568 59.94C254.172 59.604 254.864 59.436 255.641 59.436C256.39 59.436 257.057 59.5992 257.643 59.9256C258.228 60.252 258.684 60.7128 259.011 61.308C259.337 61.8936 259.5 62.5704 259.5 63.3384ZM257.787 62.82C257.777 62.2152 257.561 61.7304 257.139 61.3656C256.716 61.0008 256.193 60.8184 255.569 60.8184C255.003 60.8184 254.518 61.0008 254.115 61.3656C253.712 61.7208 253.472 62.2056 253.395 62.82H257.787ZM260.569 63.5256C260.569 62.7096 260.732 61.9944 261.058 61.38C261.394 60.756 261.855 60.276 262.441 59.94C263.026 59.604 263.698 59.436 264.457 59.436C265.417 59.436 266.209 59.6664 266.833 60.1272C267.466 60.5784 267.894 61.2264 268.114 62.0712H266.343C266.199 61.6776 265.969 61.3704 265.652 61.1496C265.335 60.9288 264.937 60.8184 264.457 60.8184C263.785 60.8184 263.247 61.0584 262.844 61.5384C262.45 62.0088 262.254 62.6712 262.254 63.5256C262.254 64.38 262.45 65.0472 262.844 65.5272C263.247 66.0072 263.785 66.2472 264.457 66.2472C265.407 66.2472 266.036 65.8296 266.343 64.9944H268.114C267.884 65.8008 267.452 66.444 266.818 66.924C266.185 67.3944 265.398 67.6296 264.457 67.6296C263.698 67.6296 263.026 67.4616 262.441 67.1256C261.855 66.78 261.394 66.3 261.058 65.6856C260.732 65.0616 260.569 64.3416 260.569 63.5256ZM271.666 60.9048V65.2968C271.666 65.5944 271.733 65.8104 271.867 65.9448C272.011 66.0696 272.251 66.132 272.587 66.132H273.595V67.5H272.299C271.56 67.5 270.994 67.3272 270.6 66.9816C270.206 66.636 270.01 66.0744 270.01 65.2968V60.9048H269.074V59.5656H270.01V57.5928H271.666V59.5656H273.595V60.9048H271.666ZM275.943 58.5144C275.646 58.5144 275.396 58.4136 275.195 58.212C274.993 58.0104 274.892 57.7608 274.892 57.4632C274.892 57.1656 274.993 56.916 275.195 56.7144C275.396 56.5128 275.646 56.412 275.943 56.412C276.231 56.412 276.476 56.5128 276.678 56.7144C276.879 56.916 276.98 57.1656 276.98 57.4632C276.98 57.7608 276.879 58.0104 276.678 58.212C276.476 58.4136 276.231 58.5144 275.943 58.5144ZM276.75 59.5656V67.5H275.108V59.5656H276.75ZM286.177 63.3384C286.177 63.636 286.158 63.9048 286.119 64.1448H280.057C280.105 64.7784 280.34 65.2872 280.763 65.6712C281.185 66.0552 281.703 66.2472 282.318 66.2472C283.201 66.2472 283.825 65.8776 284.19 65.1384H285.961C285.721 65.868 285.284 66.468 284.651 66.9384C284.027 67.3992 283.249 67.6296 282.318 67.6296C281.559 67.6296 280.878 67.4616 280.273 67.1256C279.678 66.78 279.207 66.3 278.862 65.6856C278.526 65.0616 278.358 64.3416 278.358 63.5256C278.358 62.7096 278.521 61.9944 278.847 61.38C279.183 60.756 279.649 60.276 280.244 59.94C280.849 59.604 281.54 59.436 282.318 59.436C283.067 59.436 283.734 59.5992 284.319 59.9256C284.905 60.252 285.361 60.7128 285.687 61.308C286.014 61.8936 286.177 62.5704 286.177 63.3384ZM284.463 62.82C284.454 62.2152 284.238 61.7304 283.815 61.3656C283.393 61.0008 282.87 60.8184 282.246 60.8184C281.679 60.8184 281.195 61.0008 280.791 61.3656C280.388 61.7208 280.148 62.2056 280.071 62.82H284.463ZM288.455 67.6008C288.157 67.6008 287.908 67.5 287.706 67.2984C287.504 67.0968 287.404 66.8472 287.404 66.5496C287.404 66.252 287.504 66.0024 287.706 65.8008C287.908 65.5992 288.157 65.4984 288.455 65.4984C288.743 65.4984 288.988 65.5992 289.189 65.8008C289.391 66.0024 289.492 66.252 289.492 66.5496C289.492 66.8472 289.391 67.0968 289.189 67.2984C288.988 67.5 288.743 67.6008 288.455 67.6008Z" fill="#172A59"/>
<path d="M971.311 47.5196H980.689C980.968 47.5196 981.197 47.2846 981.197 46.9974V40.8877H970.803V46.9974C970.803 47.2846 971.032 47.5196 971.311 47.5196ZM967.906 40C972.811 40 977.741 40 982.671 40L986 43.1854V58.0679C986 59.1384 985.136 60 984.094 60C978.706 60 973.294 60 967.906 60C966.864 60 966 59.1384 966 58.0679V41.9582C966 40.8877 966.864 40 967.906 40ZM982.341 40.8877H982.061V46.9974C982.061 47.7807 981.451 48.4073 980.689 48.4073H971.311C970.549 48.4073 969.939 47.7546 969.939 46.9974V40.8877H967.906C967.321 40.8877 966.864 41.3838 966.864 41.9582V58.0679C966.864 58.6423 967.321 59.1123 967.906 59.1123H968.999V53.2637C968.999 52.0104 970.015 50.9661 971.235 50.9661H980.765C981.985 50.9661 982.976 52.0104 982.976 53.2637V59.1123H984.094C984.679 59.1123 985.136 58.6423 985.136 58.0679V43.5509L982.341 40.8877ZM980.765 51.8538H971.235C970.473 51.8538 969.863 52.4804 969.863 53.2637V59.1123H982.112V53.2637C982.112 52.4804 981.502 51.8538 980.765 51.8538ZM977.436 41.436H980.231V46.9713H977.436V41.436ZM979.367 42.3238H978.274V46.0836H979.367V42.3238Z" fill="#0A3DFA"/>
<g clip-path="url(#clip3)">
<path d="M1020.95 49.4445H1016.52V45C1016.52 44.8527 1016.46 44.7114 1016.36 44.6072C1016.25 44.503 1016.11 44.4445 1015.97 44.4445C1015.82 44.4445 1015.68 44.503 1015.57 44.6072C1015.47 44.7114 1015.41 44.8527 1015.41 45V49.4445H1010.98C1010.84 49.4445 1010.7 49.503 1010.59 49.6072C1010.49 49.7114 1010.43 49.8527 1010.43 50C1010.43 50.1474 1010.49 50.2887 1010.59 50.3929C1010.7 50.497 1010.84 50.5556 1010.98 50.5556H1015.41V55C1015.41 55.1474 1015.47 55.2887 1015.57 55.3929C1015.68 55.497 1015.82 55.5556 1015.97 55.5556C1016.11 55.5556 1016.25 55.497 1016.36 55.3929C1016.46 55.2887 1016.52 55.1474 1016.52 55V50.5556H1020.95C1021.1 50.5556 1021.24 50.497 1021.34 50.3929C1021.44 50.2887 1021.5 50.1474 1021.5 50C1021.5 49.8527 1021.44 49.7114 1021.34 49.6072C1021.24 49.503 1021.1 49.4445 1020.95 49.4445Z" fill="#0A3DFA"/>
<path d="M1015.97 40C1014 40 1012.07 40.5865 1010.43 41.6853C1008.79 42.7841 1007.51 44.3459 1006.76 46.1732C1006 48.0004 1005.81 50.0111 1006.19 51.9509C1006.58 53.8907 1007.53 55.6725 1008.92 57.0711C1010.31 58.4696 1012.09 59.422 1014.02 59.8079C1015.96 60.1937 1017.96 59.9957 1019.78 59.2388C1021.6 58.4819 1023.16 57.2002 1024.25 55.5557C1025.35 53.9112 1025.93 51.9778 1025.93 50C1025.93 47.3488 1024.88 44.807 1023.01 42.9323C1021.14 41.0576 1018.61 40.0031 1015.97 40V40ZM1015.97 58.8889C1014.21 58.8889 1012.5 58.3676 1011.04 57.3908C1009.59 56.4141 1008.45 55.0259 1007.78 53.4016C1007.11 51.7774 1006.94 49.9901 1007.28 48.2659C1007.62 46.5416 1008.46 44.9577 1009.7 43.7146C1010.94 42.4715 1012.52 41.6249 1014.24 41.2819C1015.96 40.9389 1017.74 41.115 1019.36 41.7877C1020.98 42.4605 1022.36 43.5998 1023.33 45.0616C1024.31 46.5234 1024.83 48.2419 1024.83 50C1024.82 52.3566 1023.89 54.6159 1022.23 56.2823C1020.57 57.9487 1018.31 58.8861 1015.97 58.8889V58.8889Z" fill="#0A3DFA"/>
</g>
<line y1="99.5" x2="1066" y2="99.5" stroke="#25438E"/>
<defs>
<clipPath id="clip0">
<rect width="600" height="416.327" fill="white" transform="translate(233 279.837)"/>
</clipPath>
<clipPath id="clip1">
<rect width="20" height="20" fill="white" transform="translate(421.5 811.663)"/>
</clipPath>
<clipPath id="clip2">
<rect width="25" height="25" fill="white" transform="translate(40 37.5)"/>
</clipPath>
<clipPath id="clip3">
<rect width="20" height="20" fill="white" transform="translate(1006 40)"/>
</clipPath>
</defs>
</svg>
