<svg width="828" height="260" viewBox="0 0 828 260" fill="none" xmlns="http://www.w3.org/2000/svg">
<g clip-path="url(#clip0)">
<rect width="798.56" height="100" transform="translate(14.72 20)" fill="white"/>
<g clip-path="url(#clip1)">
<path d="M64.3906 70C64.3906 71.5907 65.6845 72.8846 67.2752 72.8846C68.8659 72.8846 70.1599 71.5907 70.1599 70C70.1599 68.4093 68.8659 67.1154 67.2752 67.1154C65.6845 67.1154 64.3906 68.4093 64.3906 70Z" fill="#172A59"/>
<path d="M64.3906 79.6154C64.3906 81.2061 65.6845 82.5 67.2752 82.5C68.8659 82.5 70.1599 81.2061 70.1599 79.6154C70.1599 78.0247 68.8659 76.7308 67.2752 76.7308C65.6845 76.7308 64.3906 78.0247 64.3906 79.6154Z" fill="#172A59"/>
<path d="M64.3906 60.3846C64.3906 61.9753 65.6845 63.2692 67.2752 63.2692C68.8659 63.2692 70.1599 61.9753 70.1599 60.3846C70.1599 58.7939 68.8659 57.5 67.2752 57.5C65.6845 57.5 64.3906 58.7939 64.3906 60.3846Z" fill="#172A59"/>
</g>
<path d="M108.941 52.6689V54.5842H105.788V64.5H103.415V54.5842H100.262V52.6689H108.941ZM111.876 53.991C111.458 53.991 111.107 53.861 110.825 53.6011C110.554 53.3299 110.418 52.9966 110.418 52.6011C110.418 52.2056 110.554 51.8779 110.825 51.618C111.107 51.3468 111.458 51.2112 111.876 51.2112C112.294 51.2112 112.638 51.3468 112.91 51.618C113.192 51.8779 113.333 52.2056 113.333 52.6011C113.333 52.9966 113.192 53.3299 112.91 53.6011C112.638 53.861 112.294 53.991 111.876 53.991ZM113.045 55.1097V64.5H110.672V55.1097H113.045ZM118.153 57.0589V61.6015C118.153 61.9179 118.226 62.1496 118.373 62.2965C118.531 62.4321 118.791 62.4999 119.153 62.4999H120.254V64.5H118.763C116.763 64.5 115.763 63.5282 115.763 61.5846V57.0589H114.644V55.1097H115.763V52.7875H118.153V55.1097H120.254V57.0589H118.153ZM124.334 51.957V64.5H121.961V51.957H124.334ZM135.408 59.6014C135.408 59.9404 135.385 60.2455 135.34 60.5167H128.475C128.532 61.1947 128.769 61.7258 129.187 62.11C129.605 62.4942 130.12 62.6863 130.73 62.6863C131.611 62.6863 132.238 62.3078 132.611 61.5507H135.171C134.899 62.4547 134.38 63.2005 133.611 63.7881C132.843 64.3644 131.899 64.6526 130.781 64.6526C129.877 64.6526 129.063 64.4548 128.34 64.0593C127.628 63.6525 127.069 63.0818 126.662 62.3473C126.266 61.6128 126.068 60.7653 126.068 59.8048C126.068 58.833 126.266 57.9799 126.662 57.2454C127.057 56.5109 127.611 55.9459 128.323 55.5504C129.035 55.1549 129.854 54.9571 130.781 54.9571C131.673 54.9571 132.47 55.1492 133.171 55.5334C133.882 55.9176 134.43 56.4657 134.815 57.1776C135.21 57.8782 135.408 58.6861 135.408 59.6014ZM132.95 58.9234C132.939 58.3132 132.719 57.8273 132.289 57.4657C131.86 57.0928 131.334 56.9064 130.713 56.9064C130.125 56.9064 129.628 57.0872 129.221 57.4488C128.826 57.7991 128.583 58.2906 128.492 58.9234H132.95Z" fill="#172A59"/>
<path d="M107.266 77.492V78.8312H104.602V87.5H102.96V78.8312H100.282V77.492H107.266ZM113.032 79.436C113.637 79.436 114.174 79.5656 114.645 79.8248C115.125 80.084 115.499 80.468 115.768 80.9768C116.046 81.4856 116.186 82.1 116.186 82.82V87.5H114.558V83.0648C114.558 82.3544 114.381 81.812 114.026 81.4376C113.67 81.0536 113.186 80.8616 112.571 80.8616C111.957 80.8616 111.467 81.0536 111.102 81.4376C110.747 81.812 110.57 82.3544 110.57 83.0648V87.5H108.928V76.844H110.57V80.4872C110.848 80.1512 111.198 79.892 111.621 79.7096C112.053 79.5272 112.523 79.436 113.032 79.436ZM119.115 78.5144C118.817 78.5144 118.568 78.4136 118.366 78.212C118.164 78.0104 118.064 77.7608 118.064 77.4632C118.064 77.1656 118.164 76.916 118.366 76.7144C118.568 76.5128 118.817 76.412 119.115 76.412C119.403 76.412 119.648 76.5128 119.849 76.7144C120.051 76.916 120.152 77.1656 120.152 77.4632C120.152 77.7608 120.051 78.0104 119.849 78.212C119.648 78.4136 119.403 78.5144 119.115 78.5144ZM119.921 79.5656V87.5H118.28V79.5656H119.921ZM124.957 87.6296C124.333 87.6296 123.771 87.5192 123.272 87.2984C122.782 87.068 122.393 86.7608 122.105 86.3768C121.817 85.9832 121.664 85.5464 121.645 85.0664H123.344C123.373 85.4024 123.531 85.6856 123.819 85.916C124.117 86.1368 124.486 86.2472 124.928 86.2472C125.389 86.2472 125.744 86.1608 125.993 85.988C126.253 85.8056 126.382 85.5752 126.382 85.2968C126.382 84.9992 126.238 84.7784 125.95 84.6344C125.672 84.4904 125.225 84.332 124.611 84.1592C124.016 83.996 123.531 83.8376 123.157 83.684C122.782 83.5304 122.456 83.2952 122.177 82.9784C121.909 82.6616 121.774 82.244 121.774 81.7256C121.774 81.3032 121.899 80.9192 122.149 80.5736C122.398 80.2184 122.753 79.94 123.214 79.7384C123.685 79.5368 124.222 79.436 124.827 79.436C125.729 79.436 126.454 79.6664 127.001 80.1272C127.558 80.5784 127.856 81.1976 127.894 81.9848H126.253C126.224 81.6296 126.08 81.3464 125.821 81.1352C125.561 80.924 125.211 80.8184 124.769 80.8184C124.337 80.8184 124.006 80.9 123.776 81.0632C123.545 81.2264 123.43 81.4424 123.43 81.7112C123.43 81.9224 123.507 82.1 123.661 82.244C123.814 82.388 124.001 82.5032 124.222 82.5896C124.443 82.6664 124.769 82.7672 125.201 82.892C125.777 83.0456 126.248 83.204 126.613 83.3672C126.987 83.5208 127.309 83.7512 127.577 84.0584C127.846 84.3656 127.985 84.7736 127.995 85.2824C127.995 85.7336 127.87 86.1368 127.621 86.492C127.371 86.8472 127.016 87.1256 126.555 87.3272C126.104 87.5288 125.571 87.6296 124.957 87.6296ZM134.345 78.5144C134.047 78.5144 133.797 78.4136 133.596 78.212C133.394 78.0104 133.293 77.7608 133.293 77.4632C133.293 77.1656 133.394 76.916 133.596 76.7144C133.797 76.5128 134.047 76.412 134.345 76.412C134.633 76.412 134.877 76.5128 135.079 76.7144C135.281 76.916 135.381 77.1656 135.381 77.4632C135.381 77.7608 135.281 78.0104 135.079 78.212C134.877 78.4136 134.633 78.5144 134.345 78.5144ZM135.151 79.5656V87.5H133.509V79.5656H135.151ZM140.186 87.6296C139.562 87.6296 139.001 87.5192 138.501 87.2984C138.012 87.068 137.623 86.7608 137.335 86.3768C137.047 85.9832 136.893 85.5464 136.874 85.0664H138.573C138.602 85.4024 138.761 85.6856 139.049 85.916C139.346 86.1368 139.716 86.2472 140.157 86.2472C140.618 86.2472 140.973 86.1608 141.223 85.988C141.482 85.8056 141.612 85.5752 141.612 85.2968C141.612 84.9992 141.468 84.7784 141.18 84.6344C140.901 84.4904 140.455 84.332 139.841 84.1592C139.245 83.996 138.761 83.8376 138.386 83.684C138.012 83.5304 137.685 83.2952 137.407 82.9784C137.138 82.6616 137.004 82.244 137.004 81.7256C137.004 81.3032 137.129 80.9192 137.378 80.5736C137.628 80.2184 137.983 79.94 138.444 79.7384C138.914 79.5368 139.452 79.436 140.057 79.436C140.959 79.436 141.684 79.6664 142.231 80.1272C142.788 80.5784 143.085 81.1976 143.124 81.9848H141.482C141.453 81.6296 141.309 81.3464 141.05 81.1352C140.791 80.924 140.441 80.8184 139.999 80.8184C139.567 80.8184 139.236 80.9 139.005 81.0632C138.775 81.2264 138.66 81.4424 138.66 81.7112C138.66 81.9224 138.737 82.1 138.89 82.244C139.044 82.388 139.231 82.5032 139.452 82.5896C139.673 82.6664 139.999 82.7672 140.431 82.892C141.007 83.0456 141.477 83.204 141.842 83.3672C142.217 83.5208 142.538 83.7512 142.807 84.0584C143.076 84.3656 143.215 84.7736 143.225 85.2824C143.225 85.7336 143.1 86.1368 142.85 86.492C142.601 86.8472 142.245 87.1256 141.785 87.3272C141.333 87.5288 140.801 87.6296 140.186 87.6296ZM148.192 83.4968C148.192 82.7 148.355 81.9944 148.681 81.38C149.017 80.7656 149.469 80.2904 150.035 79.9544C150.611 79.6088 151.245 79.436 151.936 79.436C152.56 79.436 153.102 79.5608 153.563 79.8104C154.033 80.0504 154.408 80.3528 154.686 80.7176V79.5656H156.342V87.5H154.686V86.3192C154.408 86.6936 154.029 87.0056 153.549 87.2552C153.069 87.5048 152.521 87.6296 151.907 87.6296C151.225 87.6296 150.601 87.4568 150.035 87.1112C149.469 86.756 149.017 86.2664 148.681 85.6424C148.355 85.0088 148.192 84.2936 148.192 83.4968ZM154.686 83.5256C154.686 82.9784 154.571 82.5032 154.341 82.1C154.12 81.6968 153.827 81.3896 153.462 81.1784C153.097 80.9672 152.704 80.8616 152.281 80.8616C151.859 80.8616 151.465 80.9672 151.101 81.1784C150.736 81.38 150.438 81.6824 150.208 82.0856C149.987 82.4792 149.877 82.9496 149.877 83.4968C149.877 84.044 149.987 84.524 150.208 84.9368C150.438 85.3496 150.736 85.6664 151.101 85.8872C151.475 86.0984 151.869 86.204 152.281 86.204C152.704 86.204 153.097 86.0984 153.462 85.8872C153.827 85.676 154.12 85.3688 154.341 84.9656C154.571 84.5528 154.686 84.0728 154.686 83.5256ZM165.119 87.6296C164.495 87.6296 163.933 87.5192 163.434 87.2984C162.945 87.068 162.556 86.7608 162.268 86.3768C161.98 85.9832 161.826 85.5464 161.807 85.0664H163.506C163.535 85.4024 163.693 85.6856 163.981 85.916C164.279 86.1368 164.649 86.2472 165.09 86.2472C165.551 86.2472 165.906 86.1608 166.156 85.988C166.415 85.8056 166.545 85.5752 166.545 85.2968C166.545 84.9992 166.401 84.7784 166.113 84.6344C165.834 84.4904 165.388 84.332 164.773 84.1592C164.178 83.996 163.693 83.8376 163.319 83.684C162.945 83.5304 162.618 83.2952 162.34 82.9784C162.071 82.6616 161.937 82.244 161.937 81.7256C161.937 81.3032 162.061 80.9192 162.311 80.5736C162.561 80.2184 162.916 79.94 163.377 79.7384C163.847 79.5368 164.385 79.436 164.989 79.436C165.892 79.436 166.617 79.6664 167.164 80.1272C167.721 80.5784 168.018 81.1976 168.057 81.9848H166.415C166.386 81.6296 166.242 81.3464 165.983 81.1352C165.724 80.924 165.373 80.8184 164.932 80.8184C164.5 80.8184 164.169 80.9 163.938 81.0632C163.708 81.2264 163.593 81.4424 163.593 81.7112C163.593 81.9224 163.669 82.1 163.823 82.244C163.977 82.388 164.164 82.5032 164.385 82.5896C164.605 82.6664 164.932 82.7672 165.364 82.892C165.94 83.0456 166.41 83.204 166.775 83.3672C167.149 83.5208 167.471 83.7512 167.74 84.0584C168.009 84.3656 168.148 84.7736 168.157 85.2824C168.157 85.7336 168.033 86.1368 167.783 86.492C167.533 86.8472 167.178 87.1256 166.717 87.3272C166.266 87.5288 165.733 87.6296 165.119 87.6296ZM177.117 79.5656V87.5H175.475V86.564C175.216 86.8904 174.875 87.1496 174.453 87.3416C174.04 87.524 173.598 87.6152 173.128 87.6152C172.504 87.6152 171.942 87.4856 171.443 87.2264C170.954 86.9672 170.565 86.5832 170.277 86.0744C169.998 85.5656 169.859 84.9512 169.859 84.2312V79.5656H171.486V83.9864C171.486 84.6968 171.664 85.244 172.019 85.628C172.374 86.0024 172.859 86.1896 173.474 86.1896C174.088 86.1896 174.573 86.0024 174.928 85.628C175.293 85.244 175.475 84.6968 175.475 83.9864V79.5656H177.117ZM180.924 80.7464C181.203 80.3624 181.582 80.0504 182.062 79.8104C182.552 79.5608 183.094 79.436 183.689 79.436C184.39 79.436 185.024 79.604 185.59 79.94C186.156 80.276 186.603 80.756 186.929 81.38C187.256 81.9944 187.419 82.7 187.419 83.4968C187.419 84.2936 187.256 85.0088 186.929 85.6424C186.603 86.2664 186.152 86.756 185.576 87.1112C185.009 87.4568 184.38 87.6296 183.689 87.6296C183.075 87.6296 182.528 87.5096 182.048 87.2696C181.577 87.0296 181.203 86.7224 180.924 86.348V87.5H179.283V76.844H180.924V80.7464ZM185.748 83.4968C185.748 82.9496 185.633 82.4792 185.403 82.0856C185.182 81.6824 184.884 81.38 184.51 81.1784C184.145 80.9672 183.752 80.8616 183.329 80.8616C182.916 80.8616 182.523 80.9672 182.148 81.1784C181.784 81.3896 181.486 81.6968 181.256 82.1C181.035 82.5032 180.924 82.9784 180.924 83.5256C180.924 84.0728 181.035 84.5528 181.256 84.9656C181.486 85.3688 181.784 85.676 182.148 85.8872C182.523 86.0984 182.916 86.204 183.329 86.204C183.752 86.204 184.145 86.0984 184.51 85.8872C184.884 85.6664 185.182 85.3496 185.403 84.9368C185.633 84.524 185.748 84.044 185.748 83.4968ZM190.957 80.9048V85.2968C190.957 85.5944 191.025 85.8104 191.159 85.9448C191.303 86.0696 191.543 86.132 191.879 86.132H192.887V87.5H191.591C190.852 87.5 190.285 87.3272 189.892 86.9816C189.498 86.636 189.301 86.0744 189.301 85.2968V80.9048H188.365V79.5656H189.301V77.5928H190.957V79.5656H192.887V80.9048H190.957ZM195.235 78.5144C194.938 78.5144 194.688 78.4136 194.486 78.212C194.285 78.0104 194.184 77.7608 194.184 77.4632C194.184 77.1656 194.285 76.916 194.486 76.7144C194.688 76.5128 194.938 76.412 195.235 76.412C195.523 76.412 195.768 76.5128 195.97 76.7144C196.171 76.916 196.272 77.1656 196.272 77.4632C196.272 77.7608 196.171 78.0104 195.97 78.212C195.768 78.4136 195.523 78.5144 195.235 78.5144ZM196.042 79.5656V87.5H194.4V79.5656H196.042ZM200.112 80.9048V85.2968C200.112 85.5944 200.179 85.8104 200.314 85.9448C200.458 86.0696 200.698 86.132 201.034 86.132H202.042V87.5H200.746C200.006 87.5 199.44 87.3272 199.046 86.9816C198.653 86.636 198.456 86.0744 198.456 85.2968V80.9048H197.52V79.5656H198.456V77.5928H200.112V79.5656H202.042V80.9048H200.112ZM205.196 76.844V87.5H203.555V76.844H205.196ZM214.624 83.3384C214.624 83.636 214.604 83.9048 214.566 84.1448H208.504C208.552 84.7784 208.787 85.2872 209.209 85.6712C209.632 86.0552 210.15 86.2472 210.764 86.2472C211.648 86.2472 212.272 85.8776 212.636 85.1384H214.408C214.168 85.868 213.731 86.468 213.097 86.9384C212.473 87.3992 211.696 87.6296 210.764 87.6296C210.006 87.6296 209.324 87.4616 208.72 87.1256C208.124 86.78 207.654 86.3 207.308 85.6856C206.972 85.0616 206.804 84.3416 206.804 83.5256C206.804 82.7096 206.968 81.9944 207.294 81.38C207.63 80.756 208.096 80.276 208.691 79.94C209.296 79.604 209.987 79.436 210.764 79.436C211.513 79.436 212.18 79.5992 212.766 79.9256C213.352 80.252 213.808 80.7128 214.134 81.308C214.46 81.8936 214.624 82.5704 214.624 83.3384ZM212.91 82.82C212.9 82.2152 212.684 81.7304 212.262 81.3656C211.84 81.0008 211.316 80.8184 210.692 80.8184C210.126 80.8184 209.641 81.0008 209.238 81.3656C208.835 81.7208 208.595 82.2056 208.518 82.82H212.91Z" fill="#172A59"/>
<path d="M678.591 67.5196H687.969C688.248 67.5196 688.477 67.2846 688.477 66.9974V60.8877H678.083V66.9974C678.083 67.2846 678.312 67.5196 678.591 67.5196ZM675.186 60C680.091 60 685.021 60 689.951 60L693.28 63.1854V78.0679C693.28 79.1384 692.416 80 691.374 80C685.987 80 680.574 80 675.186 80C674.144 80 673.28 79.1384 673.28 78.0679V61.9582C673.28 60.8877 674.144 60 675.186 60ZM689.621 60.8877H689.341V66.9974C689.341 67.7807 688.731 68.4073 687.969 68.4073H678.591C677.829 68.4073 677.219 67.7546 677.219 66.9974V60.8877H675.186C674.602 60.8877 674.144 61.3838 674.144 61.9582V78.0679C674.144 78.6423 674.602 79.1123 675.186 79.1123H676.279V73.2637C676.279 72.0104 677.295 70.9661 678.515 70.9661H688.045C689.265 70.9661 690.256 72.0104 690.256 73.2637V79.1123H691.374C691.959 79.1123 692.416 78.6423 692.416 78.0679V63.5509L689.621 60.8877ZM688.045 71.8538H678.515C677.753 71.8538 677.143 72.4804 677.143 73.2637V79.1123H689.392V73.2637C689.392 72.4804 688.782 71.8538 688.045 71.8538ZM684.716 61.436H687.511V66.9713H684.716V61.436ZM686.647 62.3238H685.554V66.0836H686.647V62.3238Z" fill="#0A3DFA"/>
<g clip-path="url(#clip2)">
<path d="M728.229 69.4445H723.8V65C723.8 64.8527 723.741 64.7114 723.638 64.6072C723.534 64.503 723.393 64.4445 723.246 64.4445C723.099 64.4445 722.958 64.503 722.855 64.6072C722.751 64.7114 722.692 64.8527 722.692 65V69.4445H718.263C718.116 69.4445 717.975 69.503 717.872 69.6072C717.768 69.7114 717.709 69.8527 717.709 70C717.709 70.1474 717.768 70.2887 717.872 70.3929C717.975 70.497 718.116 70.5556 718.263 70.5556H722.692V75C722.692 75.1474 722.751 75.2887 722.855 75.3929C722.958 75.497 723.099 75.5556 723.246 75.5556C723.393 75.5556 723.534 75.497 723.638 75.3929C723.741 75.2887 723.8 75.1474 723.8 75V70.5556H728.229C728.376 70.5556 728.517 70.497 728.621 70.3929C728.725 70.2887 728.783 70.1474 728.783 70C728.783 69.8527 728.725 69.7114 728.621 69.6072C728.517 69.503 728.376 69.4445 728.229 69.4445Z" fill="#0A3DFA"/>
<path d="M723.246 60C721.275 60 719.348 60.5865 717.709 61.6853C716.07 62.7841 714.793 64.3459 714.039 66.1732C713.284 68.0004 713.087 70.0111 713.472 71.9509C713.856 73.8907 714.805 75.6725 716.199 77.0711C717.593 78.4696 719.369 79.422 721.302 79.8079C723.235 80.1937 725.239 79.9957 727.06 79.2388C728.881 78.4819 730.438 77.2002 731.533 75.5557C732.628 73.9112 733.212 71.9778 733.212 70C733.209 67.3488 732.158 64.807 730.29 62.9323C728.422 61.0576 725.889 60.0031 723.246 60ZM723.246 78.8889C721.494 78.8889 719.781 78.3676 718.325 77.3908C716.868 76.4141 715.732 75.0259 715.062 73.4016C714.391 71.7774 714.216 69.9901 714.558 68.2659C714.899 66.5416 715.743 64.9577 716.982 63.7146C718.221 62.4715 719.8 61.6249 721.518 61.2819C723.236 60.9389 725.018 61.115 726.636 61.7877C728.255 62.4605 729.639 63.5998 730.612 65.0616C731.586 66.5234 732.105 68.2419 732.105 70C732.102 72.3566 731.168 74.6159 729.507 76.2823C727.847 77.9487 725.595 78.8861 723.246 78.8889Z" fill="#0A3DFA"/>
</g>
<path d="M761.016 70C761.016 71.2725 762.052 72.3077 763.324 72.3077C764.597 72.3077 765.632 71.2725 765.632 70C765.632 68.7274 764.597 67.6923 763.324 67.6923C762.052 67.6923 761.016 68.7274 761.016 70Z" fill="#0A3DFA"/>
<path d="M761.016 77.6923C761.016 78.9649 762.052 80 763.324 80C764.597 80 765.632 78.9649 765.632 77.6923C765.632 76.4197 764.597 75.3846 763.324 75.3846C762.052 75.3846 761.016 76.4197 761.016 77.6923Z" fill="#0A3DFA"/>
<path d="M761.016 62.3077C761.016 63.5803 762.052 64.6154 763.324 64.6154C764.597 64.6154 765.632 63.5803 765.632 62.3077C765.632 61.0351 764.597 60 763.324 60C762.052 60 761.016 61.0351 761.016 62.3077Z" fill="#0A3DFA"/>
<line x1="14.72" y1="119.5" x2="813.28" y2="119.5" stroke="#25438E"/>
</g>
<g clip-path="url(#clip3)">
<rect width="798.56" height="100" transform="translate(14.72 140)" fill="#172A59"/>
<g clip-path="url(#clip4)">
<path d="M64.3906 190C64.3906 191.591 65.6845 192.885 67.2752 192.885C68.8659 192.885 70.1599 191.591 70.1599 190C70.1599 188.409 68.8659 187.115 67.2752 187.115C65.6845 187.115 64.3906 188.409 64.3906 190Z" fill="white"/>
<path d="M64.3906 199.615C64.3906 201.206 65.6845 202.5 67.2752 202.5C68.8659 202.5 70.1599 201.206 70.1599 199.615C70.1599 198.025 68.8659 196.731 67.2752 196.731C65.6845 196.731 64.3906 198.025 64.3906 199.615Z" fill="white"/>
<path d="M64.3906 180.385C64.3906 181.975 65.6845 183.269 67.2752 183.269C68.8659 183.269 70.1599 181.975 70.1599 180.385C70.1599 178.794 68.8659 177.5 67.2752 177.5C65.6845 177.5 64.3906 178.794 64.3906 180.385Z" fill="white"/>
</g>
<path d="M108.941 172.669V174.584H105.788V184.5H103.415V174.584H100.262V172.669H108.941ZM111.876 173.991C111.458 173.991 111.107 173.861 110.825 173.601C110.554 173.33 110.418 172.997 110.418 172.601C110.418 172.206 110.554 171.878 110.825 171.618C111.107 171.347 111.458 171.211 111.876 171.211C112.294 171.211 112.638 171.347 112.91 171.618C113.192 171.878 113.333 172.206 113.333 172.601C113.333 172.997 113.192 173.33 112.91 173.601C112.638 173.861 112.294 173.991 111.876 173.991ZM113.045 175.11V184.5H110.672V175.11H113.045ZM118.153 177.059V181.602C118.153 181.918 118.226 182.15 118.373 182.296C118.531 182.432 118.791 182.5 119.153 182.5H120.254V184.5H118.763C116.763 184.5 115.763 183.528 115.763 181.585V177.059H114.644V175.11H115.763V172.788H118.153V175.11H120.254V177.059H118.153ZM124.334 171.957V184.5H121.961V171.957H124.334ZM135.408 179.601C135.408 179.94 135.385 180.246 135.34 180.517H128.475C128.532 181.195 128.769 181.726 129.187 182.11C129.605 182.494 130.12 182.686 130.73 182.686C131.611 182.686 132.238 182.308 132.611 181.551H135.171C134.899 182.455 134.38 183.2 133.611 183.788C132.843 184.364 131.899 184.653 130.781 184.653C129.877 184.653 129.063 184.455 128.34 184.059C127.628 183.652 127.069 183.082 126.662 182.347C126.266 181.613 126.068 180.765 126.068 179.805C126.068 178.833 126.266 177.98 126.662 177.245C127.057 176.511 127.611 175.946 128.323 175.55C129.035 175.155 129.854 174.957 130.781 174.957C131.673 174.957 132.47 175.149 133.171 175.533C133.882 175.918 134.43 176.466 134.815 177.178C135.21 177.878 135.408 178.686 135.408 179.601ZM132.95 178.923C132.939 178.313 132.719 177.827 132.289 177.466C131.86 177.093 131.334 176.906 130.713 176.906C130.125 176.906 129.628 177.087 129.221 177.449C128.826 177.799 128.583 178.291 128.492 178.923H132.95Z" fill="white"/>
<path d="M107.266 197.492V198.831H104.602V207.5H102.96V198.831H100.282V197.492H107.266ZM113.032 199.436C113.637 199.436 114.174 199.566 114.645 199.825C115.125 200.084 115.499 200.468 115.768 200.977C116.046 201.486 116.186 202.1 116.186 202.82V207.5H114.558V203.065C114.558 202.354 114.381 201.812 114.026 201.438C113.67 201.054 113.186 200.862 112.571 200.862C111.957 200.862 111.467 201.054 111.102 201.438C110.747 201.812 110.57 202.354 110.57 203.065V207.5H108.928V196.844H110.57V200.487C110.848 200.151 111.198 199.892 111.621 199.71C112.053 199.527 112.523 199.436 113.032 199.436ZM119.115 198.514C118.817 198.514 118.568 198.414 118.366 198.212C118.164 198.01 118.064 197.761 118.064 197.463C118.064 197.166 118.164 196.916 118.366 196.714C118.568 196.513 118.817 196.412 119.115 196.412C119.403 196.412 119.648 196.513 119.849 196.714C120.051 196.916 120.152 197.166 120.152 197.463C120.152 197.761 120.051 198.01 119.849 198.212C119.648 198.414 119.403 198.514 119.115 198.514ZM119.921 199.566V207.5H118.28V199.566H119.921ZM124.957 207.63C124.333 207.63 123.771 207.519 123.272 207.298C122.782 207.068 122.393 206.761 122.105 206.377C121.817 205.983 121.664 205.546 121.645 205.066H123.344C123.373 205.402 123.531 205.686 123.819 205.916C124.117 206.137 124.486 206.247 124.928 206.247C125.389 206.247 125.744 206.161 125.993 205.988C126.253 205.806 126.382 205.575 126.382 205.297C126.382 204.999 126.238 204.778 125.95 204.634C125.672 204.49 125.225 204.332 124.611 204.159C124.016 203.996 123.531 203.838 123.157 203.684C122.782 203.53 122.456 203.295 122.177 202.978C121.909 202.662 121.774 202.244 121.774 201.726C121.774 201.303 121.899 200.919 122.149 200.574C122.398 200.218 122.753 199.94 123.214 199.738C123.685 199.537 124.222 199.436 124.827 199.436C125.729 199.436 126.454 199.666 127.001 200.127C127.558 200.578 127.856 201.198 127.894 201.985H126.253C126.224 201.63 126.08 201.346 125.821 201.135C125.561 200.924 125.211 200.818 124.769 200.818C124.337 200.818 124.006 200.9 123.776 201.063C123.545 201.226 123.43 201.442 123.43 201.711C123.43 201.922 123.507 202.1 123.661 202.244C123.814 202.388 124.001 202.503 124.222 202.59C124.443 202.666 124.769 202.767 125.201 202.892C125.777 203.046 126.248 203.204 126.613 203.367C126.987 203.521 127.309 203.751 127.577 204.058C127.846 204.366 127.985 204.774 127.995 205.282C127.995 205.734 127.87 206.137 127.621 206.492C127.371 206.847 127.016 207.126 126.555 207.327C126.104 207.529 125.571 207.63 124.957 207.63ZM134.345 198.514C134.047 198.514 133.797 198.414 133.596 198.212C133.394 198.01 133.293 197.761 133.293 197.463C133.293 197.166 133.394 196.916 133.596 196.714C133.797 196.513 134.047 196.412 134.345 196.412C134.633 196.412 134.877 196.513 135.079 196.714C135.281 196.916 135.381 197.166 135.381 197.463C135.381 197.761 135.281 198.01 135.079 198.212C134.877 198.414 134.633 198.514 134.345 198.514ZM135.151 199.566V207.5H133.509V199.566H135.151ZM140.186 207.63C139.562 207.63 139.001 207.519 138.501 207.298C138.012 207.068 137.623 206.761 137.335 206.377C137.047 205.983 136.893 205.546 136.874 205.066H138.573C138.602 205.402 138.761 205.686 139.049 205.916C139.346 206.137 139.716 206.247 140.157 206.247C140.618 206.247 140.973 206.161 141.223 205.988C141.482 205.806 141.612 205.575 141.612 205.297C141.612 204.999 141.468 204.778 141.18 204.634C140.901 204.49 140.455 204.332 139.841 204.159C139.245 203.996 138.761 203.838 138.386 203.684C138.012 203.53 137.685 203.295 137.407 202.978C137.138 202.662 137.004 202.244 137.004 201.726C137.004 201.303 137.129 200.919 137.378 200.574C137.628 200.218 137.983 199.94 138.444 199.738C138.914 199.537 139.452 199.436 140.057 199.436C140.959 199.436 141.684 199.666 142.231 200.127C142.788 200.578 143.085 201.198 143.124 201.985H141.482C141.453 201.63 141.309 201.346 141.05 201.135C140.791 200.924 140.441 200.818 139.999 200.818C139.567 200.818 139.236 200.9 139.005 201.063C138.775 201.226 138.66 201.442 138.66 201.711C138.66 201.922 138.737 202.1 138.89 202.244C139.044 202.388 139.231 202.503 139.452 202.59C139.673 202.666 139.999 202.767 140.431 202.892C141.007 203.046 141.477 203.204 141.842 203.367C142.217 203.521 142.538 203.751 142.807 204.058C143.076 204.366 143.215 204.774 143.225 205.282C143.225 205.734 143.1 206.137 142.85 206.492C142.601 206.847 142.245 207.126 141.785 207.327C141.333 207.529 140.801 207.63 140.186 207.63ZM148.192 203.497C148.192 202.7 148.355 201.994 148.681 201.38C149.017 200.766 149.469 200.29 150.035 199.954C150.611 199.609 151.245 199.436 151.936 199.436C152.56 199.436 153.102 199.561 153.563 199.81C154.033 200.05 154.408 200.353 154.686 200.718V199.566H156.342V207.5H154.686V206.319C154.408 206.694 154.029 207.006 153.549 207.255C153.069 207.505 152.521 207.63 151.907 207.63C151.225 207.63 150.601 207.457 150.035 207.111C149.469 206.756 149.017 206.266 148.681 205.642C148.355 205.009 148.192 204.294 148.192 203.497ZM154.686 203.526C154.686 202.978 154.571 202.503 154.341 202.1C154.12 201.697 153.827 201.39 153.462 201.178C153.097 200.967 152.704 200.862 152.281 200.862C151.859 200.862 151.465 200.967 151.101 201.178C150.736 201.38 150.438 201.682 150.208 202.086C149.987 202.479 149.877 202.95 149.877 203.497C149.877 204.044 149.987 204.524 150.208 204.937C150.438 205.35 150.736 205.666 151.101 205.887C151.475 206.098 151.869 206.204 152.281 206.204C152.704 206.204 153.097 206.098 153.462 205.887C153.827 205.676 154.12 205.369 154.341 204.966C154.571 204.553 154.686 204.073 154.686 203.526ZM165.119 207.63C164.495 207.63 163.933 207.519 163.434 207.298C162.945 207.068 162.556 206.761 162.268 206.377C161.98 205.983 161.826 205.546 161.807 205.066H163.506C163.535 205.402 163.693 205.686 163.981 205.916C164.279 206.137 164.649 206.247 165.09 206.247C165.551 206.247 165.906 206.161 166.156 205.988C166.415 205.806 166.545 205.575 166.545 205.297C166.545 204.999 166.401 204.778 166.113 204.634C165.834 204.49 165.388 204.332 164.773 204.159C164.178 203.996 163.693 203.838 163.319 203.684C162.945 203.53 162.618 203.295 162.34 202.978C162.071 202.662 161.937 202.244 161.937 201.726C161.937 201.303 162.061 200.919 162.311 200.574C162.561 200.218 162.916 199.94 163.377 199.738C163.847 199.537 164.385 199.436 164.989 199.436C165.892 199.436 166.617 199.666 167.164 200.127C167.721 200.578 168.018 201.198 168.057 201.985H166.415C166.386 201.63 166.242 201.346 165.983 201.135C165.724 200.924 165.373 200.818 164.932 200.818C164.5 200.818 164.169 200.9 163.938 201.063C163.708 201.226 163.593 201.442 163.593 201.711C163.593 201.922 163.669 202.1 163.823 202.244C163.977 202.388 164.164 202.503 164.385 202.59C164.605 202.666 164.932 202.767 165.364 202.892C165.94 203.046 166.41 203.204 166.775 203.367C167.149 203.521 167.471 203.751 167.74 204.058C168.009 204.366 168.148 204.774 168.157 205.282C168.157 205.734 168.033 206.137 167.783 206.492C167.533 206.847 167.178 207.126 166.717 207.327C166.266 207.529 165.733 207.63 165.119 207.63ZM177.117 199.566V207.5H175.475V206.564C175.216 206.89 174.875 207.15 174.453 207.342C174.04 207.524 173.598 207.615 173.128 207.615C172.504 207.615 171.942 207.486 171.443 207.226C170.954 206.967 170.565 206.583 170.277 206.074C169.998 205.566 169.859 204.951 169.859 204.231V199.566H171.486V203.986C171.486 204.697 171.664 205.244 172.019 205.628C172.374 206.002 172.859 206.19 173.474 206.19C174.088 206.19 174.573 206.002 174.928 205.628C175.293 205.244 175.475 204.697 175.475 203.986V199.566H177.117ZM180.924 200.746C181.203 200.362 181.582 200.05 182.062 199.81C182.552 199.561 183.094 199.436 183.689 199.436C184.39 199.436 185.024 199.604 185.59 199.94C186.156 200.276 186.603 200.756 186.929 201.38C187.256 201.994 187.419 202.7 187.419 203.497C187.419 204.294 187.256 205.009 186.929 205.642C186.603 206.266 186.152 206.756 185.576 207.111C185.009 207.457 184.38 207.63 183.689 207.63C183.075 207.63 182.528 207.51 182.048 207.27C181.577 207.03 181.203 206.722 180.924 206.348V207.5H179.283V196.844H180.924V200.746ZM185.748 203.497C185.748 202.95 185.633 202.479 185.403 202.086C185.182 201.682 184.884 201.38 184.51 201.178C184.145 200.967 183.752 200.862 183.329 200.862C182.916 200.862 182.523 200.967 182.148 201.178C181.784 201.39 181.486 201.697 181.256 202.1C181.035 202.503 180.924 202.978 180.924 203.526C180.924 204.073 181.035 204.553 181.256 204.966C181.486 205.369 181.784 205.676 182.148 205.887C182.523 206.098 182.916 206.204 183.329 206.204C183.752 206.204 184.145 206.098 184.51 205.887C184.884 205.666 185.182 205.35 185.403 204.937C185.633 204.524 185.748 204.044 185.748 203.497ZM190.957 200.905V205.297C190.957 205.594 191.025 205.81 191.159 205.945C191.303 206.07 191.543 206.132 191.879 206.132H192.887V207.5H191.591C190.852 207.5 190.285 207.327 189.892 206.982C189.498 206.636 189.301 206.074 189.301 205.297V200.905H188.365V199.566H189.301V197.593H190.957V199.566H192.887V200.905H190.957ZM195.235 198.514C194.938 198.514 194.688 198.414 194.486 198.212C194.285 198.01 194.184 197.761 194.184 197.463C194.184 197.166 194.285 196.916 194.486 196.714C194.688 196.513 194.938 196.412 195.235 196.412C195.523 196.412 195.768 196.513 195.97 196.714C196.171 196.916 196.272 197.166 196.272 197.463C196.272 197.761 196.171 198.01 195.97 198.212C195.768 198.414 195.523 198.514 195.235 198.514ZM196.042 199.566V207.5H194.4V199.566H196.042ZM200.112 200.905V205.297C200.112 205.594 200.179 205.81 200.314 205.945C200.458 206.07 200.698 206.132 201.034 206.132H202.042V207.5H200.746C200.006 207.5 199.44 207.327 199.046 206.982C198.653 206.636 198.456 206.074 198.456 205.297V200.905H197.52V199.566H198.456V197.593H200.112V199.566H202.042V200.905H200.112ZM205.196 196.844V207.5H203.555V196.844H205.196ZM214.624 203.338C214.624 203.636 214.604 203.905 214.566 204.145H208.504C208.552 204.778 208.787 205.287 209.209 205.671C209.632 206.055 210.15 206.247 210.764 206.247C211.648 206.247 212.272 205.878 212.636 205.138H214.408C214.168 205.868 213.731 206.468 213.097 206.938C212.473 207.399 211.696 207.63 210.764 207.63C210.006 207.63 209.324 207.462 208.72 207.126C208.124 206.78 207.654 206.3 207.308 205.686C206.972 205.062 206.804 204.342 206.804 203.526C206.804 202.71 206.968 201.994 207.294 201.38C207.63 200.756 208.096 200.276 208.691 199.94C209.296 199.604 209.987 199.436 210.764 199.436C211.513 199.436 212.18 199.599 212.766 199.926C213.352 200.252 213.808 200.713 214.134 201.308C214.46 201.894 214.624 202.57 214.624 203.338ZM212.91 202.82C212.9 202.215 212.684 201.73 212.262 201.366C211.84 201.001 211.316 200.818 210.692 200.818C210.126 200.818 209.641 201.001 209.238 201.366C208.835 201.721 208.595 202.206 208.518 202.82H212.91Z" fill="white"/>
<path d="M761.016 190C761.016 191.273 762.052 192.308 763.324 192.308C764.597 192.308 765.632 191.273 765.632 190C765.632 188.727 764.597 187.692 763.324 187.692C762.052 187.692 761.016 188.727 761.016 190Z" fill="white"/>
<path d="M761.016 197.692C761.016 198.965 762.052 200 763.324 200C764.597 200 765.632 198.965 765.632 197.692C765.632 196.42 764.597 195.385 763.324 195.385C762.052 195.385 761.016 196.42 761.016 197.692Z" fill="white"/>
<path d="M761.016 182.308C761.016 183.58 762.052 184.615 763.324 184.615C764.597 184.615 765.632 183.58 765.632 182.308C765.632 181.035 764.597 180 763.324 180C762.052 180 761.016 181.035 761.016 182.308Z" fill="white"/>
<line x1="14.72" y1="239.5" x2="813.28" y2="239.5" stroke="#25438E"/>
</g>
<rect x="0.5" y="0.5" width="827" height="259" rx="4.5" stroke="#7B61FF" stroke-dasharray="10 5"/>
<defs>
<clipPath id="clip0">
<rect width="798.56" height="100" fill="white" transform="translate(14.72 20)"/>
</clipPath>
<clipPath id="clip1">
<rect width="25" height="25" fill="white" transform="translate(54.72 57.5)"/>
</clipPath>
<clipPath id="clip2">
<rect width="20" height="20" fill="white" transform="translate(713.28 60)"/>
</clipPath>
<clipPath id="clip3">
<rect width="798.56" height="100" fill="white" transform="translate(14.72 140)"/>
</clipPath>
<clipPath id="clip4">
<rect width="25" height="25" fill="white" transform="translate(54.72 177.5)"/>
</clipPath>
</defs>
</svg>
