<svg width="590" height="141" viewBox="0 0 590 141" fill="none" xmlns="http://www.w3.org/2000/svg">
<g clip-path="url(#clip0)">
<path d="M46.2192 8.06993C46.6169 7.69168 46.9345 7.23847 47.1533 6.73686C47.3722 6.23526 47.4879 5.69535 47.4936 5.14881C47.4993 4.60227 47.395 4.06009 47.1868 3.55407C46.9785 3.04804 46.6705 2.58836 46.2808 2.20196C45.8912 1.81556 45.4276 1.51024 44.9174 1.30388C44.4072 1.09753 43.8606 0.994296 43.3097 1.00024C42.7587 1.00619 42.2145 1.1212 41.709 1.33852C41.2034 1.55584 40.7467 1.8711 40.3656 2.26581L38.7465 3.87194C35.277 1.69855 31.1645 0.762657 27.087 1.21852C23.0094 1.67438 19.2101 3.49479 16.3153 6.37969L8.74459 13.8925H1.32494C0.973543 13.8925 0.63654 14.0309 0.388066 14.2774C0.139592 14.5239 0 14.8582 0 15.2068C0.0236528 23.1287 3.19528 30.7219 8.82674 36.3387L10.1225 37.6242C9.41102 38.5255 8.89579 39.5635 8.60941 40.6725C8.32304 41.7816 8.27175 42.9375 8.45879 44.0672C8.64583 45.1968 9.06714 46.2757 9.69607 47.2356C10.325 48.1955 11.1479 49.0155 12.1126 49.6438C13.0774 50.272 14.1631 50.6948 15.301 50.8855C16.439 51.0761 17.6044 51.0305 18.7236 50.7515C19.8429 50.4724 20.8916 49.966 21.8034 49.2643C22.7153 48.5626 23.4704 47.6808 24.0211 46.6747C26.9765 47.6218 30.0627 48.1061 33.1685 48.11C33.5199 48.11 33.8569 47.9715 34.1054 47.725C34.3539 47.4785 34.4934 47.1442 34.4934 46.7956V39.4458L42.0668 31.9331C43.7614 30.2624 45.1031 28.2731 46.0131 26.0817C46.9231 23.8903 47.3832 21.5408 47.3666 19.1708C47.3794 15.8049 46.4163 12.5063 44.5921 9.66817L46.2192 8.06993ZM44.3457 4.12692C44.4857 4.26452 44.5969 4.42829 44.6728 4.60877C44.7486 4.78925 44.7877 4.98285 44.7877 5.17839C44.7877 5.37393 44.7486 5.56753 44.6728 5.74801C44.5969 5.92848 44.4857 6.09226 44.3457 6.22986L43.0764 7.489C42.7505 7.10258 42.4139 6.73457 42.0721 6.39547C41.7303 6.05637 41.354 5.7199 40.9697 5.40183L42.239 4.14269C42.5162 3.86365 42.8936 3.70503 43.2885 3.70158C43.6834 3.69813 44.0636 3.85014 44.3457 4.12429V4.12692ZM16.6916 48.3833C15.6477 48.3842 14.6237 48.1009 13.7309 47.5644C12.8381 47.0278 12.1108 46.2586 11.6282 45.3404C11.1456 44.4222 10.9261 43.3903 10.9938 42.357C11.0615 41.3236 11.4136 40.3285 12.0119 39.48C14.7315 42.1379 17.9391 44.2545 21.4614 45.7152C20.9605 46.5255 20.2596 47.1957 19.425 47.6625C18.5905 48.1294 17.6497 48.3774 16.6916 48.3833ZM44.7352 19.1761C44.7492 21.2005 44.3551 23.2073 43.576 25.0785C42.797 26.9496 41.6487 28.6474 40.1986 30.072L32.249 37.958C32.1256 38.0801 32.0276 38.2251 31.9608 38.3848C31.8939 38.5445 31.8595 38.7157 31.8595 38.8886V45.4392C29.0932 45.3151 26.3627 44.7689 23.7641 43.82C19.9983 42.4635 16.5802 40.3005 13.7529 37.4848L10.7055 34.4803C5.89235 29.6791 3.03674 23.2834 2.68698 16.5211H9.29312C9.64422 16.5204 9.98065 16.3814 10.2285 16.1347L18.1782 8.24868C20.7727 5.65376 24.2162 4.06338 27.8882 3.76408C31.5602 3.46479 35.2192 4.47627 38.2059 6.61628C38.9132 7.1023 39.5764 7.6485 40.188 8.24868C40.7985 8.86315 41.3552 9.52797 41.8522 10.236C43.7459 12.835 44.7524 15.9667 44.7246 19.1735L44.7352 19.1761Z" fill="#172A59"/>
</g>
<path d="M100.148 10.2403C100.088 10.18 100.017 10.1322 99.938 10.0996C99.8593 10.067 99.775 10.0502 99.6899 10.0502C99.6047 10.0502 99.5204 10.067 99.4417 10.0996C99.3631 10.1322 99.2916 10.18 99.2315 10.2403C96.6814 12.7965 95.2493 16.2599 95.2493 19.8706C95.2493 23.4813 96.6814 26.9447 99.2315 29.5009C99.3531 29.6225 99.5179 29.6908 99.6899 29.6908C99.8618 29.6908 100.027 29.6225 100.148 29.5009C100.27 29.3793 100.338 29.2145 100.338 29.0425C100.338 28.8706 100.27 28.7057 100.148 28.5842C97.841 26.2712 96.5454 23.1376 96.5454 19.8706C96.5454 16.6036 97.841 13.47 100.148 11.157C100.208 11.0969 100.256 11.0254 100.289 10.9468C100.322 10.8681 100.338 10.7838 100.338 10.6987C100.338 10.6135 100.322 10.5292 100.289 10.4505C100.256 10.3719 100.208 10.3004 100.148 10.2403Z" fill="#172A59" stroke="#172A59"/>
<path d="M139.314 45.7275L127.952 34.3662C127.506 33.9408 126.913 33.7034 126.296 33.7034C125.68 33.7034 125.087 33.9408 124.64 34.3662L124.462 34.5444L122.61 32.6931C125.981 29.0818 127.798 24.2908 127.671 19.3523C127.543 14.4138 125.481 9.72302 121.928 6.29043C118.375 2.85785 113.616 0.958194 108.676 1.0007C103.736 1.0432 99.0109 3.02447 95.5177 6.51767C92.0245 10.0109 90.0432 14.7365 90.0007 19.6764C89.9582 24.6164 91.8579 29.3754 95.2904 32.9282C98.723 36.481 103.414 38.5433 108.352 38.6708C113.291 38.7983 118.082 36.9808 121.693 33.6098L123.545 35.4612L123.367 35.6393C122.929 36.079 122.682 36.6744 122.682 37.2951C122.682 37.9158 122.929 38.5113 123.367 38.9509L134.727 50.3153C135.166 50.7538 135.762 51 136.383 51C137.004 51 137.599 50.7538 138.039 50.3153L139.311 49.0427C139.751 48.6036 139.998 48.0076 139.999 47.3859C140 46.7641 139.753 46.1676 139.314 45.7275ZM91.3583 19.8695C91.3584 16.4064 92.3854 13.021 94.3095 10.1415C96.2336 7.26204 98.9684 5.0178 102.168 3.69257C105.368 2.36734 108.888 2.02066 112.285 2.69635C115.681 3.37205 118.801 5.03978 121.25 7.48865C123.699 9.93751 125.367 13.0575 126.042 16.4542C126.718 19.8508 126.371 23.3715 125.046 26.571C123.72 29.7706 121.476 32.5053 118.597 34.4293C115.717 36.3533 112.332 37.3803 108.868 37.3803C104.226 37.3751 99.7751 35.5286 96.4924 32.2458C93.2097 28.963 91.3633 24.512 91.3583 19.8695ZM138.395 48.1239L137.123 49.3965C136.926 49.5915 136.661 49.7009 136.384 49.7009C136.106 49.7009 135.841 49.5915 135.644 49.3965L124.283 38.0352C124.088 37.8388 123.978 37.5729 123.978 37.2956C123.978 37.0184 124.088 36.7525 124.283 36.5561L125.556 35.2819C125.752 35.086 126.017 34.9759 126.295 34.9759C126.572 34.9759 126.838 35.086 127.034 35.2819L138.395 46.6442C138.591 46.8406 138.701 47.1067 138.701 47.384C138.701 47.6614 138.591 47.9275 138.395 48.1239Z" fill="#001028" stroke="#001028"/>
<g clip-path="url(#clip1)">
<path d="M208.755 26.0002L229.009 5.6196C230.094 4.53263 230.094 2.81161 229.009 1.81522C227.924 0.728259 226.206 0.728259 225.212 1.81522L204.957 22.1958L184.612 1.81522C183.526 0.728259 181.808 0.728259 180.814 1.81522C179.729 2.90219 179.729 4.62321 180.814 5.6196L201.069 26.0002L180.814 46.3807C179.729 47.4677 179.729 49.1887 180.814 50.1851C181.356 50.7286 182.08 51.0003 182.713 51.0003C183.346 51.0003 184.069 50.7286 184.612 50.1851L204.957 29.8045L225.302 50.1851C225.844 50.7286 226.568 51.0003 227.201 51.0003C227.834 51.0003 228.557 50.7286 229.1 50.1851C230.185 49.0981 230.185 47.3771 229.1 46.3807L208.755 26.0002Z" fill="#172A59"/>
</g>
<g clip-path="url(#clip2)">
<path d="M307.373 24.6111H296.3V13.5C296.3 13.1316 296.154 12.7783 295.894 12.5179C295.635 12.2574 295.283 12.1111 294.916 12.1111C294.549 12.1111 294.197 12.2574 293.937 12.5179C293.677 12.7783 293.531 13.1316 293.531 13.5V24.6111H282.458C282.091 24.6111 281.739 24.7574 281.479 25.0179C281.22 25.2783 281.074 25.6316 281.074 26C281.074 26.3683 281.22 26.7216 281.479 26.9821C281.739 27.2425 282.091 27.3889 282.458 27.3889H293.531V38.5C293.531 38.8683 293.677 39.2216 293.937 39.4821C294.197 39.7425 294.549 39.8889 294.916 39.8889C295.283 39.8889 295.635 39.7425 295.894 39.4821C296.154 39.2216 296.3 38.8683 296.3 38.5V27.3889H307.373C307.741 27.3889 308.093 27.2425 308.352 26.9821C308.612 26.7216 308.758 26.3683 308.758 26C308.758 25.6316 308.612 25.2783 308.352 25.0179C308.093 24.7574 307.741 24.6111 307.373 24.6111Z" fill="#172A59"/>
<path d="M294.916 1C289.988 1 285.171 2.46622 281.073 5.21326C276.976 7.9603 273.782 11.8648 271.897 16.4329C270.011 21.0011 269.517 26.0277 270.479 30.8773C271.44 35.7268 273.813 40.1814 277.298 43.6777C280.782 47.174 285.222 49.555 290.055 50.5196C294.888 51.4843 299.898 50.9892 304.45 49.097C309.003 47.2048 312.894 44.0005 315.632 39.8893C318.37 35.778 319.831 30.9445 319.831 26C319.823 19.372 317.196 13.0176 312.525 8.33086C307.854 3.64412 301.521 1.00772 294.916 1ZM294.916 48.2222C290.535 48.2222 286.253 46.9189 282.611 44.4771C278.969 42.0353 276.131 38.5647 274.454 34.5041C272.778 30.4435 272.339 25.9753 273.194 21.6647C274.049 17.354 276.158 13.3944 279.255 10.2865C282.352 7.17868 286.299 5.06222 290.595 4.20477C294.891 3.34732 299.344 3.7874 303.391 5.46934C307.438 7.15129 310.897 9.99957 313.33 13.654C315.764 17.3084 317.063 21.6049 317.063 26C317.056 31.8916 314.72 37.5398 310.568 41.7058C306.416 45.8717 300.787 48.2152 294.916 48.2222Z" fill="#172A59"/>
</g>
<path d="M379.341 26C379.341 29.1814 381.929 31.7692 385.111 31.7692C388.292 31.7692 390.88 29.1814 390.88 26C390.88 22.8186 388.292 20.2308 385.111 20.2308C381.929 20.2308 379.341 22.8186 379.341 26Z" fill="#172A59"/>
<path d="M379.341 45.2307C379.341 48.4122 381.929 51 385.111 51C388.292 51 390.88 48.4122 390.88 45.2307C390.88 42.0493 388.292 39.4615 385.111 39.4615C381.929 39.4615 379.341 42.0493 379.341 45.2307Z" fill="#172A59"/>
<path d="M379.341 6.76923C379.341 9.95064 381.929 12.5385 385.111 12.5385C388.292 12.5385 390.88 9.95064 390.88 6.76923C390.88 3.58782 388.292 1 385.111 1C381.929 1 379.341 3.58782 379.341 6.76923Z" fill="#172A59"/>
<g clip-path="url(#clip3)">
<path d="M475.001 29.9323C473.31 29.9323 471.619 29.562 470.302 28.8268L452.277 18.7502C450.826 17.9377 450 16.7437 450 15.4669C450 14.19 450.832 12.9905 452.277 12.1835L470.302 2.10688C472.936 0.631039 477.066 0.631039 479.706 2.10688L497.726 12.1835C499.177 12.9961 500.003 14.19 500.003 15.4669C500.003 16.7437 499.171 17.9432 497.726 18.7502L479.7 28.8268C478.383 29.562 476.692 29.9323 475.001 29.9323ZM475.001 3.21238C473.69 3.21238 472.373 3.48323 471.396 4.03045L453.376 14.1071C452.651 14.5161 452.232 15.0081 452.232 15.4669C452.232 15.9256 452.651 16.4176 453.376 16.8266L471.396 26.9033C473.349 27.9977 476.653 27.9977 478.606 26.9033L496.626 16.8266C497.352 16.4176 497.77 15.9256 497.77 15.4669C497.77 15.0081 497.352 14.5161 496.626 14.1071L478.606 4.03045C477.63 3.48323 476.313 3.21238 475.001 3.21238Z" fill="#172A59"/>
<path d="M475.001 40.5009C473.31 40.5009 471.619 40.1306 470.302 39.3954L452.277 29.3243C450.826 28.5118 449.994 27.3178 450 26.041C450 24.7641 450.832 23.5647 452.277 22.7576L457.634 19.817C458.176 19.5185 458.851 19.712 459.152 20.2481C459.454 20.7843 459.258 21.4531 458.717 21.7516L453.365 24.6867C452.645 25.0902 452.227 25.5877 452.227 26.041C452.227 26.4998 452.645 26.9917 453.371 27.4007L471.391 37.4774C473.344 38.5718 476.648 38.5718 478.601 37.4774L496.621 27.4007C497.346 26.9917 497.765 26.4998 497.765 26.041C497.765 25.5822 497.346 25.0902 496.621 24.6812L491.28 21.7461C490.739 21.4476 490.543 20.7788 490.845 20.2426C491.146 19.7065 491.821 19.5185 492.363 19.8115L497.715 22.7466C499.171 23.5591 500.003 24.7586 500.003 26.0354C500.003 27.3123 499.171 28.5118 497.726 29.3188L479.7 39.3954C478.383 40.1361 476.692 40.5009 475.001 40.5009Z" fill="#172A59"/>
<path d="M475.001 50.8705C473.31 50.8705 471.619 50.5002 470.302 49.765L452.277 39.6884C450.826 38.8758 450 37.6819 450 36.405C450 35.1282 450.832 33.9342 452.277 33.1217L457.495 30.2971C458.036 30.0042 458.711 30.2032 459.007 30.7393C459.303 31.2755 459.102 31.9443 458.561 32.2373L453.354 35.0508C452.64 35.4488 452.221 35.9463 452.221 36.3995C452.221 36.8528 452.64 37.3502 453.365 37.7593L471.385 47.8359C473.338 48.9304 476.642 48.9304 478.595 47.8359L496.626 37.7648C497.352 37.3558 497.77 36.8638 497.77 36.405C497.77 35.9463 497.352 35.4543 496.626 35.0453L491.704 32.0273C491.18 31.7067 491.018 31.0268 491.341 30.5072C491.665 29.9876 492.352 29.8273 492.876 30.1479L497.759 33.1438C499.171 33.9287 499.997 35.1282 499.997 36.405C499.997 37.6819 499.166 38.8814 497.72 39.6884L479.7 49.765C478.383 50.5057 476.692 50.8705 475.001 50.8705Z" fill="#172A59"/>
</g>
<g clip-path="url(#clip4)">
<path d="M586.095 46.2394H543.908C541.755 46.2394 540.002 44.4952 540.002 42.3497V9.67686C540.002 7.5329 541.755 5.78723 543.908 5.78723H586.095C588.25 5.78723 590.002 7.5329 590.002 9.67686V42.3497C590.002 44.4952 588.25 46.2394 586.095 46.2394ZM543.908 8.89893C543.477 8.89893 543.127 9.24744 543.127 9.67686V42.3497C543.127 42.7776 543.477 43.1277 543.908 43.1277H586.095C586.525 43.1277 586.877 42.7776 586.877 42.3497V9.67686C586.877 9.24744 586.525 8.89893 586.095 8.89893H543.908Z" fill="#172A59"/>
<path d="M577.501 24.4574C574.054 24.4574 571.251 21.6662 571.251 18.234C571.251 14.8018 574.054 12.0106 577.501 12.0106C580.948 12.0106 583.751 14.8018 583.751 18.234C583.751 21.6662 580.948 24.4574 577.501 24.4574ZM577.501 15.1223C575.778 15.1223 574.376 16.5179 574.376 18.234C574.376 19.9501 575.778 21.3457 577.501 21.3457C579.225 21.3457 580.626 19.9501 580.626 18.234C580.626 16.5179 579.225 15.1223 577.501 15.1223Z" fill="#172A59"/>
<path d="M541.564 37.7537C541.129 37.7537 540.696 37.5748 540.387 37.2216C539.818 36.576 539.884 35.5927 540.534 35.0263L555.571 21.9245C557.317 20.4029 559.876 20.3718 561.659 21.8514L572.393 30.7586C573.056 31.3094 573.145 32.2896 572.593 32.9508C572.04 33.6105 571.057 33.6976 570.392 33.15L559.657 24.2412C559.064 23.7495 558.21 23.7589 557.629 24.2661L542.592 37.3679C542.296 37.6277 541.929 37.7537 541.564 37.7537Z" fill="#172A59"/>
<path d="M588.437 37.7538C588.095 37.7538 587.751 37.6433 587.462 37.413L578.76 30.4801C578.187 30.0212 577.387 30.0212 576.809 30.4801L568.109 37.413C567.434 37.9513 566.45 37.8393 565.912 37.1703C565.373 36.4982 565.482 35.5195 566.156 34.9828L574.857 28.0499C576.584 26.6761 578.992 26.6792 580.714 28.0515L589.415 34.9828C590.089 35.5211 590.198 36.4997 589.659 37.1703C589.349 37.553 588.896 37.7538 588.437 37.7538Z" fill="#172A59"/>
</g>
<path d="M10.0741 131.568C13.9231 135.198 19.1122 137.428 24.8259 137.428C36.6906 137.428 46.308 127.833 46.308 116C46.308 104.165 36.6901 94.5711 24.8259 94.5711C19.0253 94.5711 13.7672 96.8683 9.90141 100.594L7.42188 98.0356C11.9343 93.6844 18.0702 91 24.8254 91C38.6444 91 49.888 102.216 49.888 116C49.888 129.786 38.6444 141 24.8254 141C18.1682 141 12.1136 138.393 7.62182 134.155L10.0741 131.568Z" fill="#172A59"/>
<path d="M0.0150433 115.999L0.00112152 115.986L8.396 107.611L10.9284 110.137L6.83989 114.214H31.5762V117.786H6.83989L10.9284 121.864L8.396 124.389L7.62939e-06 116.014L0.0150433 115.999Z" fill="#172A59"/>
<g clip-path="url(#clip5)">
<path d="M124.455 97.7164C124.455 98.7188 125.261 99.5313 126.255 99.5313C127.242 99.5313 128.046 98.7188 128.046 97.7164C128.046 96.7151 127.241 95.8994 126.255 95.8994C125.261 95.8994 124.455 96.714 124.455 97.7164Z" fill="#172A59"/>
<path d="M132.354 105.62C132.354 106.618 133.16 107.435 134.15 107.435C135.139 107.435 135.948 106.618 135.948 105.62C135.948 104.617 135.139 103.802 134.15 103.802C133.16 103.802 132.354 104.617 132.354 105.62Z" fill="#172A59"/>
<path d="M137.112 118.425C138.185 118.425 139.055 117.544 139.055 116.458C139.055 115.372 138.185 114.492 137.112 114.492C136.039 114.492 135.169 115.372 135.169 116.458C135.169 117.544 136.039 118.425 137.112 118.425Z" fill="#172A59"/>
<path d="M134.151 129.665C135.43 129.665 136.467 128.616 136.467 127.321C136.467 126.026 135.43 124.977 134.151 124.977C132.872 124.977 131.835 126.026 131.835 127.321C131.835 128.616 132.872 129.665 134.151 129.665Z" fill="#172A59"/>
<path d="M123.938 135.322C123.938 136.615 124.975 137.669 126.256 137.669C127.532 137.669 128.569 136.615 128.569 135.322C128.569 134.029 127.532 132.978 126.256 132.978C124.974 132.978 123.938 134.029 123.938 135.322Z" fill="#172A59"/>
<path d="M112.97 138.4C112.97 139.835 114.123 141.001 115.543 141.001C116.96 141.001 118.113 139.834 118.113 138.4C118.113 136.963 116.96 135.8 115.543 135.8C114.122 135.8 112.97 136.963 112.97 138.4Z" fill="#172A59"/>
<path d="M104.8 137.926C106.219 137.926 107.37 136.76 107.37 135.322C107.37 133.884 106.219 132.718 104.8 132.718C103.38 132.718 102.229 133.884 102.229 135.322C102.229 136.76 103.38 137.926 104.8 137.926Z" fill="#172A59"/>
<path d="M93.8809 127.321C93.8809 128.96 95.1956 130.288 96.8102 130.288C98.4301 130.288 99.7428 128.96 99.7428 127.321C99.7428 125.688 98.4301 124.36 96.8102 124.36C95.1956 124.36 93.8809 125.688 93.8809 127.321Z" fill="#172A59"/>
<path d="M90.9517 116.458C90.9517 118.094 92.2643 119.422 93.881 119.422C95.5009 119.422 96.8104 118.094 96.8104 116.458C96.8104 114.818 95.5009 113.495 93.881 113.495C92.2643 113.495 90.9517 114.818 90.9517 116.458Z" fill="#172A59"/>
<path d="M93.4338 105.62C93.4338 107.506 94.9446 109.035 96.8103 109.035C98.6781 109.035 100.192 107.507 100.192 105.62C100.192 103.731 98.6781 102.198 96.8103 102.198C94.9446 102.198 93.4338 103.731 93.4338 105.62Z" fill="#172A59"/>
<path d="M101.421 97.7164C101.421 99.6056 102.933 101.136 104.8 101.136C106.664 101.136 108.18 99.6066 108.18 97.7164C108.18 95.8337 106.663 94.2978 104.8 94.2978C102.933 94.2978 101.421 95.8326 101.421 97.7164Z" fill="#172A59"/>
<path d="M111.862 94.721C111.862 96.7745 113.511 98.4398 115.543 98.4398C117.57 98.4398 119.217 96.7745 119.217 94.721C119.217 92.6653 117.569 91 115.543 91C113.511 91.0011 111.862 92.6653 111.862 94.721Z" fill="#172A59"/>
</g>
<defs>
<clipPath id="clip0">
<rect width="50" height="50" fill="white" transform="translate(0 1)"/>
</clipPath>
<clipPath id="clip1">
<rect width="50" height="50" fill="white" transform="translate(180 1)"/>
</clipPath>
<clipPath id="clip2">
<rect width="50" height="50" fill="white" transform="translate(270 1)"/>
</clipPath>
<clipPath id="clip3">
<rect width="50" height="50" fill="white" transform="translate(450 1)"/>
</clipPath>
<clipPath id="clip4">
<rect width="50" height="50" fill="white" transform="translate(540 1)"/>
</clipPath>
<clipPath id="clip5">
<rect width="50" height="50" fill="white" transform="translate(90 91)"/>
</clipPath>
</defs>
</svg>
