<svg width="590" height="50" viewBox="0 0 590 50" fill="none" xmlns="http://www.w3.org/2000/svg">
<g clip-path="url(#clip0)">
<path d="M205.001 39.9323C203.31 39.9323 201.619 39.562 200.302 38.8268L182.277 28.7502C180.826 27.9377 180 26.7437 180 25.4669C180 24.19 180.832 22.9905 182.277 22.1835L200.302 12.1069C202.936 10.631 207.066 10.631 209.706 12.1069L227.726 22.1835C229.177 22.9961 230.003 24.19 230.003 25.4669C230.003 26.7437 229.171 27.9432 227.726 28.7502L209.7 38.8268C208.383 39.562 206.692 39.9323 205.001 39.9323ZM205.001 13.2124C203.69 13.2124 202.373 13.4832 201.396 14.0305L183.376 24.1071C182.651 24.5161 182.232 25.0081 182.232 25.4669C182.232 25.9256 182.651 26.4176 183.376 26.8266L201.396 36.9033C203.349 37.9977 206.653 37.9977 208.606 36.9033L226.626 26.8266C227.352 26.4176 227.77 25.9256 227.77 25.4669C227.77 25.0081 227.352 24.5161 226.626 24.1071L208.606 14.0305C207.63 13.4832 206.313 13.2124 205.001 13.2124Z" fill="#172A59"/>
</g>
<path d="M10.0741 40.5683C13.9231 44.1978 19.1122 46.4283 24.8259 46.4283C36.6906 46.4283 46.308 36.8333 46.308 25C46.308 13.165 36.6901 3.57111 24.8259 3.57111C19.0253 3.57111 13.7672 5.86833 9.90141 9.59445L7.42188 7.03556C11.9343 2.68444 18.0702 0 24.8254 0C38.6444 0 49.888 11.2156 49.888 25C49.888 38.7856 38.6444 50 24.8254 50C18.1682 50 12.1136 47.3933 7.62182 43.155L10.0741 40.5683Z" fill="#172A59"/>
<path d="M31.5611 24.9989L31.5751 24.9855L23.1802 16.6105L20.6477 19.1366L24.7363 23.2144H0V26.7855H24.7363L20.6477 30.8639L23.1802 33.3894L31.5762 25.0139L31.5611 24.9989Z" fill="#172A59"/>
<path d="M103.278 18.799H126.722C127.421 18.799 127.992 18.2115 127.992 17.4935V2.21932H102.008V17.4935C102.008 18.2115 102.579 18.799 103.278 18.799ZM94.7649 0C107.027 0 119.352 0 131.677 0L140 7.96345V45.1697C140 47.846 137.84 50 135.235 50C121.766 50 108.234 50 94.7649 50C92.1601 50 90 47.846 90 45.1697V4.89556C90 2.21932 92.1601 0 94.7649 0ZM130.851 2.21932H130.152V17.4935C130.152 19.4517 128.628 21.0183 126.722 21.0183H103.278C101.372 21.0183 99.8475 19.3864 99.8475 17.4935V2.21932H94.7649C93.3037 2.21932 92.1601 3.45953 92.1601 4.89556V45.1697C92.1601 46.6057 93.3037 47.7807 94.7649 47.7807H97.4968V33.1593C97.4968 30.0261 100.038 27.4151 103.088 27.4151H126.912C129.962 27.4151 132.44 30.0261 132.44 33.1593V47.7807H135.235C136.696 47.7807 137.84 46.6057 137.84 45.1697V8.87728L130.851 2.21932ZM126.912 29.6345H103.088C101.182 29.6345 99.6569 31.201 99.6569 33.1593V47.7807H130.28V33.1593C130.28 31.201 128.755 29.6345 126.912 29.6345ZM118.59 3.59008H125.578V17.4282H118.59V3.59008ZM123.418 5.8094H120.686V15.2089H123.418V5.8094Z" fill="#172A59"/>
<path d="M315.703 7.7682H304.771V0.98868C304.771 0.437844 304.276 0 303.726 0H286.607C286.056 0 285.562 0.437844 285.562 0.98868V7.7682H274.63C274.079 7.7682 273.698 8.1778 273.698 8.71451V16.6946C273.698 17.2454 274.079 17.655 274.63 17.655H277.935V46.1855C277.935 48.29 279.644 49.999 281.749 49.999H308.584C310.689 49.999 312.398 48.29 312.398 46.1855V17.655H315.703C316.254 17.655 316.635 17.2313 316.635 16.6946V8.71451C316.635 8.16367 316.254 7.7682 315.703 7.7682ZM287.54 1.97736H302.793V7.7682H287.54V1.97736ZM310.42 46.1855C310.42 47.2024 309.587 48.0216 308.584 48.0216H281.749C280.732 48.0216 279.913 47.2024 279.913 46.1855V17.655H310.42V46.1855ZM314.658 15.6776H275.675V9.74556H314.658V15.6776Z" fill="#172A59"/>
<path d="M296.155 24.717H294.178V40.3947H296.155V24.717Z" fill="#172A59"/>
<path d="M302.794 24.717H300.816V40.3947H302.794V24.717Z" fill="#172A59"/>
<path d="M289.517 24.717H287.54V40.3947H289.517V24.717Z" fill="#172A59"/>
<path d="M405.538 10L385.077 30.9231L364.308 10.4615L360 14.9231L385.231 39.6923L410 14.3077L405.538 10Z" fill="#172A59"/>
<path d="M474.989 15.9082C474.764 15.9082 474.56 15.8437 474.388 15.7149L468.967 11.7111C468.71 11.5179 468.56 11.2066 468.56 10.8845V3.95023C468.56 3.39205 469.021 2.93048 469.579 2.93048H480.41C480.968 2.93048 481.43 3.39205 481.43 3.95023V10.8845C481.43 11.2173 481.28 11.5179 481.011 11.7111L475.59 15.7149C475.419 15.833 475.204 15.9082 474.989 15.9082ZM470.599 10.38L475 13.6218L479.412 10.3693V4.96998H470.599V10.38Z" fill="#172A59"/>
<path d="M480.41 3.19882C480.829 3.19882 481.162 3.53158 481.162 3.95022V10.8845C481.162 11.1314 481.054 11.3461 480.85 11.4964L475.44 15.5002C475.311 15.5968 475.15 15.6398 474.989 15.6398C474.871 15.6398 474.7 15.6183 474.549 15.5002L469.129 11.4964C468.935 11.3461 468.828 11.1207 468.828 10.8845V3.95022C468.828 3.53158 469.161 3.19882 469.579 3.19882H480.41ZM475 13.9545L475.322 13.7184L479.466 10.6591L479.68 10.4981V10.2297V5.23832V4.70161H479.144H470.867H470.331V5.23832V10.2405V10.5088L470.545 10.6698L474.678 13.7184L475 13.9545ZM480.41 2.66211H469.579C468.871 2.66211 468.291 3.24176 468.291 3.95022V10.8845C468.291 11.2924 468.484 11.6789 468.807 11.9257L474.227 15.9296C474.453 16.1014 474.721 16.1765 474.989 16.1765C475.258 16.1765 475.526 16.0906 475.752 15.9296L481.172 11.9257C481.505 11.6789 481.698 11.3032 481.698 10.8845V3.95022C481.698 3.24176 481.119 2.66211 480.41 2.66211ZM475 13.289L470.867 10.2405V5.23832H479.144V10.2297L475 13.289Z" fill="white"/>
<path d="M455.389 47.0696C452.565 47.0696 450.268 44.7724 450.268 41.9493V13.5251C450.268 10.702 452.565 8.40491 455.389 8.40491H464.985C465.543 8.40491 466.005 8.86648 466.005 9.42466C466.005 9.98284 465.543 10.4444 464.985 10.4444H455.389C453.693 10.4444 452.308 11.8291 452.308 13.5251V41.9493C452.308 43.6454 453.693 45.0301 455.389 45.0301H494.611C496.307 45.0301 497.692 43.6454 497.692 41.9493V13.5251C497.692 11.8291 496.307 10.4444 494.611 10.4444H485.004C484.446 10.4444 483.984 9.98284 483.984 9.42466C483.984 8.86648 484.446 8.40491 485.004 8.40491H494.611C497.434 8.40491 499.732 10.702 499.732 13.5251V41.9493C499.732 44.7724 497.434 47.0696 494.611 47.0696H455.389Z" fill="#172A59"/>
<path d="M494.611 8.67325C497.284 8.67325 499.463 10.8523 499.463 13.5251V41.9493C499.463 44.6221 497.284 46.8012 494.611 46.8012H455.389C452.716 46.8012 450.537 44.6221 450.537 41.9493V13.5251C450.537 10.8523 452.716 8.67325 455.389 8.67325H464.985C465.404 8.67325 465.736 9.00601 465.736 9.42464C465.736 9.84328 465.404 10.176 464.985 10.176H455.389C453.542 10.176 452.04 11.6788 452.04 13.5251V41.9493C452.04 43.7956 453.542 45.2984 455.389 45.2984H494.611C496.458 45.2984 497.96 43.7956 497.96 41.9493V13.5251C497.96 11.6788 496.458 10.176 494.611 10.176H485.004C484.586 10.176 484.253 9.84328 484.253 9.42464C484.253 9.00601 484.586 8.67325 485.004 8.67325H494.611ZM494.611 8.13654H485.004C484.296 8.13654 483.716 8.71618 483.716 9.42464C483.716 10.1331 484.296 10.7127 485.004 10.7127H494.611C496.168 10.7127 497.424 11.9794 497.424 13.5251V41.9493C497.424 43.5058 496.157 44.7617 494.611 44.7617H455.389C453.832 44.7617 452.576 43.4951 452.576 41.9493V13.5251C452.576 11.9687 453.843 10.7127 455.389 10.7127H464.985C465.693 10.7127 466.273 10.1331 466.273 9.42464C466.273 8.71618 465.693 8.13654 464.985 8.13654H455.389C452.415 8.13654 450 10.5517 450 13.5251V41.9493C450 44.9227 452.415 47.3379 455.389 47.3379H494.611C497.585 47.3379 500 44.9227 500 41.9493V13.5251C500 10.5517 497.585 8.13654 494.611 8.13654Z" fill="white"/>
<path d="M463.826 25.8588C461.496 25.8588 459.596 23.9588 459.596 21.6295C459.596 19.3002 461.496 17.4002 463.826 17.4002C466.155 17.4002 468.055 19.3002 468.055 21.6295C468.055 23.9588 466.155 25.8588 463.826 25.8588ZM463.826 19.4397C462.623 19.4397 461.636 20.4273 461.636 21.6295C461.636 22.8317 462.623 23.8193 463.826 23.8193C465.028 23.8193 466.015 22.8317 466.015 21.6295C466.015 20.4273 465.028 19.4397 463.826 19.4397Z" fill="#172A59"/>
<path d="M463.826 17.6685C466.005 17.6685 467.787 19.4504 467.787 21.6295C467.787 23.8085 466.005 25.5904 463.826 25.5904C461.647 25.5904 459.865 23.8085 459.865 21.6295C459.865 19.4504 461.647 17.6685 463.826 17.6685ZM463.826 24.0876C465.178 24.0876 466.284 22.982 466.284 21.6295C466.284 20.277 465.178 19.1713 463.826 19.1713C462.473 19.1713 461.368 20.277 461.368 21.6295C461.368 22.982 462.473 24.0876 463.826 24.0876ZM463.826 17.1318C461.346 17.1318 459.328 19.1499 459.328 21.6295C459.328 24.1091 461.346 26.1271 463.826 26.1271C466.305 26.1271 468.323 24.1091 468.323 21.6295C468.323 19.1499 466.305 17.1318 463.826 17.1318ZM463.826 23.5509C462.763 23.5509 461.904 22.6922 461.904 21.6295C461.904 20.5668 462.763 19.708 463.826 19.708C464.888 19.708 465.747 20.5668 465.747 21.6295C465.747 22.6922 464.888 23.5509 463.826 23.5509Z" fill="white"/>
<path d="M457.321 38.0636C457.289 38.0636 457.256 38.0636 457.224 38.0636C456.956 38.0421 456.709 37.9133 456.527 37.6986C456.355 37.4947 456.269 37.2263 456.29 36.958C456.537 34.3066 457.138 32.1598 458.083 30.6033C459.382 28.4565 461.368 27.3186 463.815 27.3186C466.262 27.3186 468.238 28.4457 469.547 30.5926C470.502 32.192 471.104 34.3281 471.34 36.9472C471.361 37.2156 471.286 37.4839 471.104 37.6879C470.932 37.8918 470.685 38.0207 470.406 38.0529H470.384H470.363C470.352 38.0529 470.352 38.0529 470.309 38.0529C469.794 38.0529 469.354 37.645 469.3 37.1297C468.828 31.9666 466.971 29.3474 463.804 29.3474C460.638 29.3474 458.802 31.9773 458.33 37.1404C458.287 37.6664 457.847 38.0636 457.321 38.0636Z" fill="#172A59"/>
<path d="M463.826 27.587C466.166 27.587 468.076 28.6712 469.322 30.7321C470.256 32.2993 470.846 34.3925 471.082 36.9794C471.104 37.1727 471.039 37.3766 470.91 37.5269C470.782 37.6772 470.599 37.7738 470.395 37.7952H470.352H470.331H470.32C469.944 37.7952 469.611 37.4947 469.579 37.1082C469.343 34.5213 468.753 32.5462 467.83 31.2044C466.853 29.7982 465.5 29.0791 463.826 29.0791C462.151 29.0791 460.799 29.7982 459.822 31.2044C458.899 32.5355 458.308 34.5213 458.072 37.1082C458.04 37.4947 457.707 37.7952 457.332 37.7952C457.31 37.7952 457.289 37.7952 457.267 37.7952C456.848 37.7523 456.548 37.3981 456.58 36.9794C456.816 34.3603 457.417 32.2671 458.341 30.7321C459.575 28.6819 461.475 27.587 463.826 27.587ZM463.826 27.0503C461.282 27.0503 459.221 28.2311 457.868 30.4638C456.891 32.0739 456.28 34.2529 456.033 36.9365C455.968 37.645 456.494 38.2675 457.203 38.3319C457.246 38.3319 457.278 38.3319 457.321 38.3319C457.976 38.3319 458.534 37.8274 458.598 37.1619C459.06 32.1598 460.82 29.6265 463.826 29.6265C466.831 29.6265 468.592 32.1598 469.053 37.1619C469.118 37.8274 469.676 38.3319 470.331 38.3319C470.374 38.3319 470.406 38.3319 470.449 38.3212C471.157 38.2568 471.683 37.6342 471.619 36.9258C471.372 34.2422 470.749 32.0739 469.783 30.453C468.431 28.2311 466.37 27.0503 463.826 27.0503Z" fill="white"/>
<path d="M476.546 21.8442C475.987 21.8442 475.526 21.3826 475.526 20.8244C475.526 20.2662 475.987 19.8047 476.546 19.8047H490.929C491.488 19.8047 491.949 20.2662 491.949 20.8244C491.949 21.3826 491.488 21.8442 490.929 21.8442H476.546Z" fill="#172A59"/>
<path d="M490.93 20.073C491.348 20.073 491.681 20.4058 491.681 20.8244C491.681 21.2431 491.348 21.5758 490.93 21.5758H476.546C476.127 21.5758 475.794 21.2431 475.794 20.8244C475.794 20.4058 476.127 20.073 476.546 20.073H490.93ZM490.93 19.5363H476.546C475.837 19.5363 475.258 20.116 475.258 20.8244C475.258 21.5329 475.837 22.1125 476.546 22.1125H490.93C491.638 22.1125 492.218 21.5329 492.218 20.8244C492.218 20.116 491.638 19.5363 490.93 19.5363Z" fill="white"/>
<path d="M476.546 31.0649C475.987 31.0649 475.526 30.6033 475.526 30.0451C475.526 29.4869 475.987 29.0254 476.546 29.0254H490.929C491.488 29.0254 491.949 29.4869 491.949 30.0451C491.949 30.6033 491.488 31.0649 490.929 31.0649H476.546Z" fill="#172A59"/>
<path d="M490.93 29.2937C491.348 29.2937 491.681 29.6265 491.681 30.0451C491.681 30.4638 491.348 30.7965 490.93 30.7965H476.546C476.127 30.7965 475.794 30.4638 475.794 30.0451C475.794 29.6265 476.127 29.2937 476.546 29.2937H490.93ZM490.93 28.757H476.546C475.837 28.757 475.258 29.3367 475.258 30.0451C475.258 30.7536 475.837 31.3332 476.546 31.3332H490.93C491.638 31.3332 492.218 30.7643 492.218 30.0451C492.218 29.3367 491.638 28.757 490.93 28.757Z" fill="white"/>
<path d="M476.546 35.6591C475.987 35.6591 475.526 35.1975 475.526 34.6393C475.526 34.0812 475.987 33.6196 476.546 33.6196H483.738C484.296 33.6196 484.757 34.0812 484.757 34.6393C484.757 35.1975 484.296 35.6591 483.738 35.6591H476.546Z" fill="#172A59"/>
<path d="M483.738 33.8879C484.156 33.8879 484.489 34.2207 484.489 34.6393C484.489 35.058 484.156 35.3907 483.738 35.3907H476.546C476.127 35.3907 475.794 35.058 475.794 34.6393C475.794 34.2207 476.127 33.8879 476.546 33.8879H483.738ZM483.738 33.3512H476.546C475.837 33.3512 475.258 33.9309 475.258 34.6393C475.258 35.3478 475.837 35.9274 476.546 35.9274H483.738C484.446 35.9274 485.026 35.3478 485.026 34.6393C485.026 33.9309 484.446 33.3512 483.738 33.3512Z" fill="white"/>
<path d="M476.546 26.4384C475.987 26.4384 475.526 25.9769 475.526 25.4187C475.526 24.8605 475.987 24.3989 476.546 24.3989H490.929C491.488 24.3989 491.949 24.8605 491.949 25.4187C491.949 25.9769 491.488 26.4384 490.929 26.4384H476.546Z" fill="#172A59"/>
<path d="M490.93 24.6673C491.348 24.6673 491.681 25 491.681 25.4187C491.681 25.8373 491.348 26.1701 490.93 26.1701H476.546C476.127 26.1701 475.794 25.8373 475.794 25.4187C475.794 25 476.127 24.6673 476.546 24.6673H490.93ZM490.93 24.1306H476.546C475.837 24.1306 475.258 24.7102 475.258 25.4187C475.258 26.1271 475.837 26.7068 476.546 26.7068H490.93C491.638 26.7068 492.218 26.1271 492.218 25.4187C492.218 24.7102 491.638 24.1306 490.93 24.1306Z" fill="white"/>
<path d="M578.932 32.9545C576.205 32.9545 573.761 34.2614 572.227 36.25L558.42 28.2386C558.818 27.2727 559.045 26.1364 559.045 25C559.045 23.8636 558.818 22.7273 558.42 21.7614L572.227 13.75C573.818 15.7386 576.205 17.0455 578.932 17.0455C583.648 17.0455 587.455 13.2386 587.455 8.52273C587.455 3.80682 583.648 0 578.932 0C574.216 0 570.409 3.80682 570.409 8.52273C570.409 9.65909 570.636 10.7955 571.034 11.7614L557.227 19.7727C555.636 17.7841 553.25 16.4773 550.523 16.4773C545.807 16.4773 542 20.2841 542 25C542 29.7159 545.807 33.5227 550.523 33.5227C553.25 33.5227 555.693 32.2159 557.227 30.2273L571.034 38.2386C570.636 39.2045 570.409 40.3409 570.409 41.4773C570.409 46.1932 574.216 50 578.932 50C583.648 50 587.455 46.1932 587.455 41.4773C587.455 36.7614 583.648 32.9545 578.932 32.9545ZM578.932 2.27273C582.398 2.27273 585.182 5.05682 585.182 8.52273C585.182 11.9886 582.398 14.7727 578.932 14.7727C575.466 14.7727 572.682 11.9886 572.682 8.52273C572.682 5.05682 575.466 2.27273 578.932 2.27273ZM550.523 31.25C547.057 31.25 544.273 28.4659 544.273 25C544.273 21.5341 547.057 18.75 550.523 18.75C553.989 18.75 556.773 21.5341 556.773 25C556.773 28.4659 553.989 31.25 550.523 31.25ZM578.932 47.7273C575.466 47.7273 572.682 44.9432 572.682 41.4773C572.682 38.0114 575.466 35.2273 578.932 35.2273C582.398 35.2273 585.182 38.0114 585.182 41.4773C585.182 44.9432 582.398 47.7273 578.932 47.7273Z" fill="#172A59"/>
<defs>
<clipPath id="clip0">
<rect width="50" height="50" fill="white" transform="translate(180)"/>
</clipPath>
</defs>
</svg>
