<svg width="300" height="246" viewBox="0 0 300 246" fill="none" xmlns="http://www.w3.org/2000/svg">
<line y1="0.5" x2="300" y2="0.5" stroke="#25438E"/>
<rect width="300" height="45" transform="translate(0 21)" fill="#172A59"/>
<path d="M40.5933 43.0675C40.5933 41.9036 40.8532 40.864 41.373 39.9487C41.9041 39.0221 42.6216 38.3045 43.5256 37.796C44.4409 37.2762 45.4636 37.0163 46.5936 37.0163C47.9157 37.0163 49.0739 37.3553 50.0683 38.0333C51.0627 38.7113 51.7577 39.6492 52.1532 40.847H49.4242C49.153 40.282 48.7688 39.8583 48.2716 39.5758C47.7857 39.2933 47.2207 39.152 46.5766 39.152C45.8873 39.152 45.2715 39.3159 44.7291 39.6436C44.198 39.96 43.7799 40.412 43.4748 40.9996C43.181 41.5872 43.0341 42.2765 43.0341 43.0675C43.0341 43.8472 43.181 44.5365 43.4748 45.1354C43.7799 45.723 44.198 46.1806 44.7291 46.5083C45.2715 46.8247 45.8873 46.9829 46.5766 46.9829C47.2207 46.9829 47.7857 46.8417 48.2716 46.5592C48.7688 46.2654 49.153 45.836 49.4242 45.271H52.1532C51.7577 46.4801 51.0627 47.4236 50.0683 48.1016C49.0852 48.7683 47.927 49.1017 46.5936 49.1017C45.4636 49.1017 44.4409 48.8474 43.5256 48.3389C42.6216 47.8191 41.9041 47.1016 41.373 46.1863C40.8532 45.271 40.5933 44.2314 40.5933 43.0675ZM58.3497 49.1526C57.4457 49.1526 56.6321 48.9548 55.9089 48.5593C55.1857 48.1525 54.615 47.5818 54.1969 46.8473C53.7901 46.1128 53.5867 45.2653 53.5867 44.3048C53.5867 43.3443 53.7958 42.4968 54.2139 41.7623C54.6433 41.0278 55.2252 40.4628 55.9597 40.0673C56.6942 39.6605 57.5135 39.4571 58.4175 39.4571C59.3215 39.4571 60.1408 39.6605 60.8753 40.0673C61.6098 40.4628 62.1861 41.0278 62.6042 41.7623C63.0336 42.4968 63.2483 43.3443 63.2483 44.3048C63.2483 45.2653 63.0279 46.1128 62.5872 46.8473C62.1578 47.5818 61.5702 48.1525 60.8244 48.5593C60.0899 48.9548 59.265 49.1526 58.3497 49.1526ZM58.3497 47.0846C58.7791 47.0846 59.1802 46.9829 59.5531 46.7795C59.9373 46.5648 60.2425 46.2484 60.4685 45.8303C60.6945 45.4122 60.8074 44.9037 60.8074 44.3048C60.8074 43.4121 60.5701 42.7285 60.0955 42.2539C59.6322 41.768 59.0616 41.525 58.3836 41.525C57.7056 41.525 57.1349 41.768 56.6716 42.2539C56.2196 42.7285 55.9936 43.4121 55.9936 44.3048C55.9936 45.1975 56.214 45.8868 56.6547 46.3727C57.1067 46.8473 57.6717 47.0846 58.3497 47.0846ZM67.3619 36.457V49H64.9889V36.457H67.3619ZM72.0795 36.457V49H69.7065V36.457H72.0795ZM83.1532 44.1014C83.1532 44.4404 83.1306 44.7455 83.0854 45.0167H76.2207C76.2772 45.6947 76.5145 46.2258 76.9326 46.61C77.3507 46.9942 77.8648 47.1863 78.475 47.1863C79.3564 47.1863 79.9836 46.8078 80.3565 46.0507H82.9159C82.6447 46.9547 82.1249 47.7005 81.3565 48.2881C80.5881 48.8644 79.6446 49.1526 78.5259 49.1526C77.6219 49.1526 76.8083 48.9548 76.0851 48.5593C75.3732 48.1525 74.8138 47.5818 74.407 46.8473C74.0115 46.1128 73.8138 45.2653 73.8138 44.3048C73.8138 43.333 74.0115 42.4799 74.407 41.7454C74.8025 41.0109 75.3562 40.4459 76.0681 40.0504C76.78 39.6549 77.5993 39.4571 78.5259 39.4571C79.4186 39.4571 80.2152 39.6492 80.9158 40.0334C81.6277 40.4176 82.1758 40.9657 82.56 41.6776C82.9555 42.3782 83.1532 43.1861 83.1532 44.1014ZM80.6955 43.4234C80.6842 42.8132 80.4638 42.3273 80.0344 41.9657C79.605 41.5928 79.0796 41.4064 78.4581 41.4064C77.8705 41.4064 77.3733 41.5872 76.9665 41.9488C76.571 42.2991 76.328 42.7906 76.2376 43.4234H80.6955ZM84.2751 44.3048C84.2751 43.333 84.4729 42.4855 84.8684 41.7623C85.2639 41.0278 85.8119 40.4628 86.5125 40.0673C87.2131 39.6605 88.0154 39.4571 88.9194 39.4571C90.0833 39.4571 91.0438 39.7509 91.8009 40.3385C92.5693 40.9148 93.0835 41.7284 93.3434 42.7793H90.7839C90.6483 42.3725 90.4167 42.0561 90.089 41.8301C89.7726 41.5928 89.3771 41.4742 88.9025 41.4742C88.2245 41.4742 87.6877 41.7228 87.2922 42.22C86.8967 42.7059 86.699 43.4008 86.699 44.3048C86.699 45.1975 86.8967 45.8925 87.2922 46.3897C87.6877 46.8756 88.2245 47.1185 88.9025 47.1185C89.863 47.1185 90.4901 46.6891 90.7839 45.8303H93.3434C93.0835 46.8473 92.5693 47.6553 91.8009 48.2542C91.0325 48.8531 90.072 49.1526 88.9194 49.1526C88.0154 49.1526 87.2131 48.9548 86.5125 48.5593C85.8119 48.1525 85.2639 47.5875 84.8684 46.8643C84.4729 46.1298 84.2751 45.2766 84.2751 44.3048ZM97.8447 41.5589V46.1015C97.8447 46.4179 97.9181 46.6496 98.065 46.7965C98.2232 46.9321 98.4831 46.9999 98.8447 46.9999H99.9465V49H98.4549C96.4548 49 95.4547 48.0282 95.4547 46.0846V41.5589H94.336V39.6097H95.4547V37.2875H97.8447V39.6097H99.9465V41.5589H97.8447ZM102.857 38.491C102.439 38.491 102.088 38.361 101.806 38.1011C101.535 37.8299 101.399 37.4966 101.399 37.1011C101.399 36.7056 101.535 36.3779 101.806 36.118C102.088 35.8468 102.439 35.7112 102.857 35.7112C103.275 35.7112 103.619 35.8468 103.891 36.118C104.173 36.3779 104.314 36.7056 104.314 37.1011C104.314 37.4966 104.173 37.8299 103.891 38.1011C103.619 38.361 103.275 38.491 102.857 38.491ZM104.026 39.6097V49H101.653V39.6097H104.026ZM115.1 44.1014C115.1 44.4404 115.077 44.7455 115.032 45.0167H108.167C108.224 45.6947 108.461 46.2258 108.879 46.61C109.297 46.9942 109.812 47.1863 110.422 47.1863C111.303 47.1863 111.93 46.8078 112.303 46.0507H114.863C114.592 46.9547 114.072 47.7005 113.303 48.2881C112.535 48.8644 111.591 49.1526 110.473 49.1526C109.569 49.1526 108.755 48.9548 108.032 48.5593C107.32 48.1525 106.761 47.5818 106.354 46.8473C105.958 46.1128 105.761 45.2653 105.761 44.3048C105.761 43.333 105.958 42.4799 106.354 41.7454C106.749 41.0109 107.303 40.4459 108.015 40.0504C108.727 39.6549 109.546 39.4571 110.473 39.4571C111.365 39.4571 112.162 39.6492 112.863 40.0334C113.575 40.4176 114.123 40.9657 114.507 41.6776C114.902 42.3782 115.1 43.1861 115.1 44.1014ZM112.642 43.4234C112.631 42.8132 112.411 42.3273 111.981 41.9657C111.552 41.5928 111.026 41.4064 110.405 41.4064C109.817 41.4064 109.32 41.5872 108.913 41.9488C108.518 42.2991 108.275 42.7906 108.184 43.4234H112.642ZM120.426 49.1526C119.657 49.1526 118.968 49.017 118.358 48.7457C117.747 48.4632 117.262 48.0847 116.9 47.6101C116.55 47.1355 116.358 46.61 116.324 46.0337H118.714C118.759 46.3953 118.934 46.6948 119.239 46.9321C119.555 47.1694 119.945 47.288 120.409 47.288C120.861 47.288 121.211 47.1976 121.459 47.0168C121.719 46.836 121.849 46.6044 121.849 46.3219C121.849 46.0168 121.691 45.7908 121.375 45.6439C121.07 45.4857 120.578 45.3162 119.9 45.1354C119.199 44.9659 118.623 44.7907 118.171 44.6099C117.73 44.4291 117.346 44.1523 117.019 43.7794C116.702 43.4065 116.544 42.9036 116.544 42.2708C116.544 41.751 116.691 41.2764 116.985 40.847C117.29 40.4176 117.719 40.0786 118.273 39.83C118.838 39.5814 119.499 39.4571 120.256 39.4571C121.375 39.4571 122.267 39.7396 122.934 40.3046C123.601 40.8583 123.968 41.6098 124.036 42.559H121.765C121.731 42.1861 121.572 41.8923 121.29 41.6776C121.019 41.4516 120.652 41.3386 120.188 41.3386C119.759 41.3386 119.425 41.4177 119.188 41.5759C118.962 41.7341 118.849 41.9544 118.849 42.2369C118.849 42.5533 119.007 42.7963 119.324 42.9658C119.64 43.124 120.132 43.2878 120.798 43.4573C121.476 43.6268 122.036 43.802 122.476 43.9828C122.917 44.1636 123.296 44.4461 123.612 44.8303C123.94 45.2032 124.109 45.7004 124.121 46.3219C124.121 46.8643 123.968 47.3502 123.663 47.7796C123.369 48.209 122.94 48.548 122.375 48.7966C121.821 49.0339 121.171 49.1526 120.426 49.1526Z" fill="white"/>
<g clip-path="url(#clip0)">
<path d="M254.949 42.9445H250.52V38.5C250.52 38.3527 250.462 38.2114 250.358 38.1072C250.254 38.003 250.113 37.9445 249.966 37.9445C249.819 37.9445 249.679 38.003 249.575 38.1072C249.471 38.2114 249.413 38.3527 249.413 38.5V42.9445H244.983C244.836 42.9445 244.695 43.003 244.592 43.1072C244.488 43.2114 244.429 43.3527 244.429 43.5C244.429 43.6474 244.488 43.7887 244.592 43.8929C244.695 43.997 244.836 44.0556 244.983 44.0556H249.413V48.5C249.413 48.6474 249.471 48.7887 249.575 48.8929C249.679 48.997 249.819 49.0556 249.966 49.0556C250.113 49.0556 250.254 48.997 250.358 48.8929C250.462 48.7887 250.52 48.6474 250.52 48.5V44.0556H254.949C255.096 44.0556 255.237 43.997 255.341 43.8929C255.445 43.7887 255.503 43.6474 255.503 43.5C255.503 43.3527 255.445 43.2114 255.341 43.1072C255.237 43.003 255.096 42.9445 254.949 42.9445Z" fill="white"/>
<path d="M249.966 33.5C247.995 33.5 246.068 34.0865 244.429 35.1853C242.79 36.2841 241.513 37.8459 240.759 39.6732C240.004 41.5004 239.807 43.5111 240.192 45.4509C240.576 47.3907 241.525 49.1725 242.919 50.5711C244.313 51.9696 246.089 52.922 248.022 53.3079C249.955 53.6937 251.959 53.4957 253.78 52.7388C255.601 51.9819 257.158 50.7002 258.253 49.0557C259.348 47.4112 259.932 45.4778 259.932 43.5C259.929 40.8488 258.878 38.307 257.01 36.4323C255.142 34.5576 252.608 33.5031 249.966 33.5ZM249.966 52.3889C248.214 52.3889 246.501 51.8676 245.045 50.8908C243.588 49.9141 242.452 48.5259 241.782 46.9016C241.111 45.2774 240.936 43.4901 241.278 41.7659C241.619 40.0416 242.463 38.4577 243.702 37.2146C244.941 35.9715 246.519 35.1249 248.238 34.7819C249.956 34.4389 251.738 34.615 253.356 35.2877C254.975 35.9605 256.359 37.0998 257.332 38.5616C258.306 40.0234 258.825 41.7419 258.825 43.5C258.822 45.8566 257.888 48.1159 256.227 49.7823C254.567 51.4487 252.315 52.3861 249.966 52.3889Z" fill="white"/>
</g>
<rect width="300" height="45" transform="translate(0 66)" fill="#172A59"/>
<path d="M40.7289 88.0844C40.7289 86.9318 40.9888 85.8979 41.5086 84.9826C42.0284 84.056 42.7346 83.3328 43.6273 82.813C44.5313 82.2932 45.5314 82.0333 46.6275 82.0333C47.9157 82.0333 49.04 82.344 50.0005 82.9655C50.961 83.587 51.6616 84.4684 52.1023 85.6097H50.2548C49.9271 84.8978 49.4525 84.3498 48.831 83.9656C48.2208 83.5814 47.4863 83.3893 46.6275 83.3893C45.8026 83.3893 45.0624 83.5814 44.407 83.9656C43.7516 84.3498 43.2375 84.8978 42.8646 85.6097C42.4917 86.3103 42.3052 87.1352 42.3052 88.0844C42.3052 89.0223 42.4917 89.8472 42.8646 90.5591C43.2375 91.2597 43.7516 91.8021 44.407 92.1863C45.0624 92.5705 45.8026 92.7626 46.6275 92.7626C47.4863 92.7626 48.2208 92.5762 48.831 92.2033C49.4525 91.8191 49.9271 91.271 50.2548 90.5591H52.1023C51.6616 91.6891 50.961 92.5649 50.0005 93.1864C49.04 93.7966 47.9157 94.1017 46.6275 94.1017C45.5314 94.1017 44.5313 93.8474 43.6273 93.3389C42.7346 92.8191 42.0284 92.1016 41.5086 91.1863C40.9888 90.271 40.7289 89.237 40.7289 88.0844ZM58.4494 94.1526C57.5793 94.1526 56.7883 93.9548 56.0764 93.5593C55.3758 93.1638 54.8221 92.6044 54.4153 91.8812C54.0198 91.1467 53.8221 90.2992 53.8221 89.3387C53.8221 88.3895 54.0255 87.5533 54.4323 86.8301C54.8504 86.0956 55.4154 85.5363 56.1273 85.1521C56.8392 84.7566 57.6358 84.5588 58.5172 84.5588C59.3986 84.5588 60.1953 84.7566 60.9072 85.1521C61.6191 85.5363 62.1784 86.09 62.5852 86.8132C63.0033 87.5364 63.2124 88.3782 63.2124 89.3387C63.2124 90.2992 62.9977 91.1467 62.5683 91.8812C62.1502 92.6044 61.5795 93.1638 60.8563 93.5593C60.1331 93.9548 59.3308 94.1526 58.4494 94.1526ZM58.4494 92.7965C59.0031 92.7965 59.5229 92.6666 60.0088 92.4067C60.4947 92.1468 60.8846 91.7569 61.1784 91.2371C61.4835 90.7173 61.636 90.0845 61.636 89.3387C61.636 88.5929 61.4891 87.9601 61.1953 87.4403C60.9015 86.9205 60.5173 86.5363 60.0427 86.2877C59.5681 86.0278 59.054 85.8979 58.5003 85.8979C57.9353 85.8979 57.4155 86.0278 56.9409 86.2877C56.4776 86.5363 56.1047 86.9205 55.8222 87.4403C55.5397 87.9601 55.3984 88.5929 55.3984 89.3387C55.3984 90.0958 55.534 90.7343 55.8052 91.2541C56.0877 91.7739 56.4606 92.1637 56.9239 92.4236C57.3872 92.6722 57.8957 92.7965 58.4494 92.7965ZM66.7829 81.457V94H65.2404V81.457H66.7829ZM70.9541 81.457V94H69.4117V81.457H70.9541ZM82.058 88.9997C82.058 89.2935 82.041 89.6043 82.0071 89.932H74.583C74.6395 90.8473 74.9503 91.5648 75.5153 92.0846C76.0916 92.5931 76.7865 92.8474 77.6001 92.8474C78.2668 92.8474 78.8205 92.6948 79.2612 92.3897C79.7132 92.0733 80.0296 91.6552 80.2104 91.1354H81.8715C81.6229 92.0281 81.1257 92.757 80.3799 93.322C79.6341 93.8757 78.7075 94.1526 77.6001 94.1526C76.7187 94.1526 75.9277 93.9548 75.2271 93.5593C74.5378 93.1638 73.9954 92.6044 73.5999 91.8812C73.2044 91.1467 73.0067 90.2992 73.0067 89.3387C73.0067 88.3782 73.1988 87.5364 73.583 86.8132C73.9672 86.09 74.5039 85.5363 75.1932 85.1521C75.8938 84.7566 76.6961 84.5588 77.6001 84.5588C78.4815 84.5588 79.2612 84.7509 79.9392 85.1351C80.6172 85.5193 81.137 86.0504 81.4986 86.7284C81.8715 87.3951 82.058 88.1522 82.058 88.9997ZM80.4647 88.6777C80.4647 88.0901 80.3347 87.5872 80.0748 87.1691C79.8149 86.7397 79.459 86.4177 79.007 86.203C78.5663 85.977 78.0747 85.864 77.5323 85.864C76.7526 85.864 76.0859 86.1126 75.5322 86.6098C74.9898 87.107 74.6791 87.7963 74.6 88.6777H80.4647ZM83.5177 89.3387C83.5177 88.3782 83.7098 87.542 84.094 86.8301C84.4782 86.1069 85.0093 85.5476 85.6873 85.1521C86.3766 84.7566 87.1619 84.5588 88.0433 84.5588C89.1846 84.5588 90.1225 84.8357 90.857 85.3894C91.6028 85.9431 92.0944 86.7115 92.3317 87.6946H90.6706C90.5124 87.1296 90.2016 86.6832 89.7383 86.3555C89.2863 86.0278 88.7213 85.864 88.0433 85.864C87.1619 85.864 86.45 86.1691 85.9076 86.7793C85.3652 87.3782 85.094 88.2313 85.094 89.3387C85.094 90.4574 85.3652 91.3219 85.9076 91.9321C86.45 92.5423 87.1619 92.8474 88.0433 92.8474C88.7213 92.8474 89.2863 92.6892 89.7383 92.3728C90.1903 92.0564 90.5011 91.6044 90.6706 91.0168H92.3317C92.0831 91.966 91.5859 92.7287 90.8401 93.305C90.0943 93.87 89.162 94.1526 88.0433 94.1526C87.1619 94.1526 86.3766 93.9548 85.6873 93.5593C85.0093 93.1638 84.4782 92.6044 84.094 91.8812C83.7098 91.158 83.5177 90.3105 83.5177 89.3387ZM96.2712 85.9826V91.4575C96.2712 91.9095 96.3673 92.2315 96.5594 92.4236C96.7515 92.6044 97.0848 92.6948 97.5594 92.6948H98.6951V94H97.3052C96.4464 94 95.8023 93.8022 95.3729 93.4067C94.9435 93.0112 94.7288 92.3615 94.7288 91.4575V85.9826H93.5253V84.7114H94.7288V82.3723H96.2712V84.7114H98.6951V85.9826H96.2712ZM101.361 83.2028C101.067 83.2028 100.818 83.1011 100.615 82.8977C100.411 82.6943 100.31 82.4457 100.31 82.1519C100.31 81.8581 100.411 81.6095 100.615 81.4061C100.818 81.2027 101.067 81.101 101.361 81.101C101.643 81.101 101.88 81.2027 102.072 81.4061C102.276 81.6095 102.378 81.8581 102.378 82.1519C102.378 82.4457 102.276 82.6943 102.072 82.8977C101.88 83.1011 101.643 83.2028 101.361 83.2028ZM102.106 84.7114V94H100.564V84.7114H102.106ZM113.21 88.9997C113.21 89.2935 113.193 89.6043 113.159 89.932H105.735C105.792 90.8473 106.103 91.5648 106.668 92.0846C107.244 92.5931 107.939 92.8474 108.752 92.8474C109.419 92.8474 109.973 92.6948 110.413 92.3897C110.865 92.0733 111.182 91.6552 111.363 91.1354H113.024C112.775 92.0281 112.278 92.757 111.532 93.322C110.786 93.8757 109.86 94.1526 108.752 94.1526C107.871 94.1526 107.08 93.9548 106.379 93.5593C105.69 93.1638 105.148 92.6044 104.752 91.8812C104.357 91.1467 104.159 90.2992 104.159 89.3387C104.159 88.3782 104.351 87.5364 104.735 86.8132C105.119 86.09 105.656 85.5363 106.345 85.1521C107.046 84.7566 107.848 84.5588 108.752 84.5588C109.634 84.5588 110.413 84.7509 111.091 85.1351C111.769 85.5193 112.289 86.0504 112.651 86.7284C113.024 87.3951 113.21 88.1522 113.21 88.9997ZM111.617 88.6777C111.617 88.0901 111.487 87.5872 111.227 87.1691C110.967 86.7397 110.611 86.4177 110.159 86.203C109.719 85.977 109.227 85.864 108.685 85.864C107.905 85.864 107.238 86.1126 106.684 86.6098C106.142 87.107 105.831 87.7963 105.752 88.6777H111.617ZM119.104 83.152V81.7451H122.291V94H120.731V83.152H119.104Z" fill="white"/>
<rect width="300" height="45" transform="translate(0 111)" fill="#25438E"/>
<path d="M40.7289 133.084C40.7289 131.932 40.9888 130.898 41.5086 129.983C42.0284 129.056 42.7346 128.333 43.6273 127.813C44.5313 127.293 45.5314 127.033 46.6275 127.033C47.9157 127.033 49.04 127.344 50.0005 127.966C50.961 128.587 51.6616 129.468 52.1023 130.61H50.2548C49.9271 129.898 49.4525 129.35 48.831 128.966C48.2208 128.581 47.4863 128.389 46.6275 128.389C45.8026 128.389 45.0624 128.581 44.407 128.966C43.7516 129.35 43.2375 129.898 42.8646 130.61C42.4917 131.31 42.3052 132.135 42.3052 133.084C42.3052 134.022 42.4917 134.847 42.8646 135.559C43.2375 136.26 43.7516 136.802 44.407 137.186C45.0624 137.571 45.8026 137.763 46.6275 137.763C47.4863 137.763 48.2208 137.576 48.831 137.203C49.4525 136.819 49.9271 136.271 50.2548 135.559H52.1023C51.6616 136.689 50.961 137.565 50.0005 138.186C49.04 138.797 47.9157 139.102 46.6275 139.102C45.5314 139.102 44.5313 138.847 43.6273 138.339C42.7346 137.819 42.0284 137.102 41.5086 136.186C40.9888 135.271 40.7289 134.237 40.7289 133.084ZM58.4494 139.153C57.5793 139.153 56.7883 138.955 56.0764 138.559C55.3758 138.164 54.8221 137.604 54.4153 136.881C54.0198 136.147 53.8221 135.299 53.8221 134.339C53.8221 133.39 54.0255 132.553 54.4323 131.83C54.8504 131.096 55.4154 130.536 56.1273 130.152C56.8392 129.757 57.6358 129.559 58.5172 129.559C59.3986 129.559 60.1953 129.757 60.9072 130.152C61.6191 130.536 62.1784 131.09 62.5852 131.813C63.0033 132.536 63.2124 133.378 63.2124 134.339C63.2124 135.299 62.9977 136.147 62.5683 136.881C62.1502 137.604 61.5795 138.164 60.8563 138.559C60.1331 138.955 59.3308 139.153 58.4494 139.153ZM58.4494 137.797C59.0031 137.797 59.5229 137.667 60.0088 137.407C60.4947 137.147 60.8846 136.757 61.1784 136.237C61.4835 135.717 61.636 135.085 61.636 134.339C61.636 133.593 61.4891 132.96 61.1953 132.44C60.9015 131.921 60.5173 131.536 60.0427 131.288C59.5681 131.028 59.054 130.898 58.5003 130.898C57.9353 130.898 57.4155 131.028 56.9409 131.288C56.4776 131.536 56.1047 131.921 55.8222 132.44C55.5397 132.96 55.3984 133.593 55.3984 134.339C55.3984 135.096 55.534 135.734 55.8052 136.254C56.0877 136.774 56.4606 137.164 56.9239 137.424C57.3872 137.672 57.8957 137.797 58.4494 137.797ZM66.7829 126.457V139H65.2404V126.457H66.7829ZM70.9541 126.457V139H69.4117V126.457H70.9541ZM82.058 134C82.058 134.294 82.041 134.604 82.0071 134.932H74.583C74.6395 135.847 74.9503 136.565 75.5153 137.085C76.0916 137.593 76.7865 137.847 77.6001 137.847C78.2668 137.847 78.8205 137.695 79.2612 137.39C79.7132 137.073 80.0296 136.655 80.2104 136.135H81.8715C81.6229 137.028 81.1257 137.757 80.3799 138.322C79.6341 138.876 78.7075 139.153 77.6001 139.153C76.7187 139.153 75.9277 138.955 75.2271 138.559C74.5378 138.164 73.9954 137.604 73.5999 136.881C73.2044 136.147 73.0067 135.299 73.0067 134.339C73.0067 133.378 73.1988 132.536 73.583 131.813C73.9672 131.09 74.5039 130.536 75.1932 130.152C75.8938 129.757 76.6961 129.559 77.6001 129.559C78.4815 129.559 79.2612 129.751 79.9392 130.135C80.6172 130.519 81.137 131.05 81.4986 131.728C81.8715 132.395 82.058 133.152 82.058 134ZM80.4647 133.678C80.4647 133.09 80.3347 132.587 80.0748 132.169C79.8149 131.74 79.459 131.418 79.007 131.203C78.5663 130.977 78.0747 130.864 77.5323 130.864C76.7526 130.864 76.0859 131.113 75.5322 131.61C74.9898 132.107 74.6791 132.796 74.6 133.678H80.4647ZM83.5177 134.339C83.5177 133.378 83.7098 132.542 84.094 131.83C84.4782 131.107 85.0093 130.548 85.6873 130.152C86.3766 129.757 87.1619 129.559 88.0433 129.559C89.1846 129.559 90.1225 129.836 90.857 130.389C91.6028 130.943 92.0944 131.711 92.3317 132.695H90.6706C90.5124 132.13 90.2016 131.683 89.7383 131.356C89.2863 131.028 88.7213 130.864 88.0433 130.864C87.1619 130.864 86.45 131.169 85.9076 131.779C85.3652 132.378 85.094 133.231 85.094 134.339C85.094 135.457 85.3652 136.322 85.9076 136.932C86.45 137.542 87.1619 137.847 88.0433 137.847C88.7213 137.847 89.2863 137.689 89.7383 137.373C90.1903 137.056 90.5011 136.604 90.6706 136.017H92.3317C92.0831 136.966 91.5859 137.729 90.8401 138.305C90.0943 138.87 89.162 139.153 88.0433 139.153C87.1619 139.153 86.3766 138.955 85.6873 138.559C85.0093 138.164 84.4782 137.604 84.094 136.881C83.7098 136.158 83.5177 135.311 83.5177 134.339ZM96.2712 130.983V136.457C96.2712 136.909 96.3673 137.232 96.5594 137.424C96.7515 137.604 97.0848 137.695 97.5594 137.695H98.6951V139H97.3052C96.4464 139 95.8023 138.802 95.3729 138.407C94.9435 138.011 94.7288 137.361 94.7288 136.457V130.983H93.5253V129.711H94.7288V127.372H96.2712V129.711H98.6951V130.983H96.2712ZM101.361 128.203C101.067 128.203 100.818 128.101 100.615 127.898C100.411 127.694 100.31 127.446 100.31 127.152C100.31 126.858 100.411 126.61 100.615 126.406C100.818 126.203 101.067 126.101 101.361 126.101C101.643 126.101 101.88 126.203 102.072 126.406C102.276 126.61 102.378 126.858 102.378 127.152C102.378 127.446 102.276 127.694 102.072 127.898C101.88 128.101 101.643 128.203 101.361 128.203ZM102.106 129.711V139H100.564V129.711H102.106ZM113.21 134C113.21 134.294 113.193 134.604 113.159 134.932H105.735C105.792 135.847 106.103 136.565 106.668 137.085C107.244 137.593 107.939 137.847 108.752 137.847C109.419 137.847 109.973 137.695 110.413 137.39C110.865 137.073 111.182 136.655 111.363 136.135H113.024C112.775 137.028 112.278 137.757 111.532 138.322C110.786 138.876 109.86 139.153 108.752 139.153C107.871 139.153 107.08 138.955 106.379 138.559C105.69 138.164 105.148 137.604 104.752 136.881C104.357 136.147 104.159 135.299 104.159 134.339C104.159 133.378 104.351 132.536 104.735 131.813C105.119 131.09 105.656 130.536 106.345 130.152C107.046 129.757 107.848 129.559 108.752 129.559C109.634 129.559 110.413 129.751 111.091 130.135C111.769 130.519 112.289 131.05 112.651 131.728C113.024 132.395 113.21 133.152 113.21 134ZM111.617 133.678C111.617 133.09 111.487 132.587 111.227 132.169C110.967 131.74 110.611 131.418 110.159 131.203C109.719 130.977 109.227 130.864 108.685 130.864C107.905 130.864 107.238 131.113 106.684 131.61C106.142 132.107 105.831 132.796 105.752 133.678H111.617ZM119.324 137.763C120.76 136.61 121.884 135.666 122.697 134.932C123.511 134.186 124.195 133.412 124.748 132.61C125.313 131.796 125.596 131 125.596 130.22C125.596 129.485 125.415 128.909 125.054 128.491C124.703 128.062 124.133 127.847 123.342 127.847C122.573 127.847 121.974 128.09 121.545 128.576C121.127 129.05 120.901 129.689 120.867 130.491H119.375C119.42 129.225 119.805 128.248 120.528 127.559C121.251 126.869 122.183 126.525 123.325 126.525C124.489 126.525 125.409 126.847 126.087 127.491C126.777 128.135 127.121 129.022 127.121 130.152C127.121 131.09 126.839 132.005 126.274 132.898C125.72 133.779 125.087 134.559 124.376 135.237C123.664 135.904 122.754 136.683 121.647 137.576H127.477V138.864H119.324V137.763Z" fill="white"/>
<rect width="300" height="45" transform="translate(0 156)" fill="#172A59"/>
<path d="M40.7289 178.084C40.7289 176.932 40.9888 175.898 41.5086 174.983C42.0284 174.056 42.7346 173.333 43.6273 172.813C44.5313 172.293 45.5314 172.033 46.6275 172.033C47.9157 172.033 49.04 172.344 50.0005 172.966C50.961 173.587 51.6616 174.468 52.1023 175.61H50.2548C49.9271 174.898 49.4525 174.35 48.831 173.966C48.2208 173.581 47.4863 173.389 46.6275 173.389C45.8026 173.389 45.0624 173.581 44.407 173.966C43.7516 174.35 43.2375 174.898 42.8646 175.61C42.4917 176.31 42.3052 177.135 42.3052 178.084C42.3052 179.022 42.4917 179.847 42.8646 180.559C43.2375 181.26 43.7516 181.802 44.407 182.186C45.0624 182.571 45.8026 182.763 46.6275 182.763C47.4863 182.763 48.2208 182.576 48.831 182.203C49.4525 181.819 49.9271 181.271 50.2548 180.559H52.1023C51.6616 181.689 50.961 182.565 50.0005 183.186C49.04 183.797 47.9157 184.102 46.6275 184.102C45.5314 184.102 44.5313 183.847 43.6273 183.339C42.7346 182.819 42.0284 182.102 41.5086 181.186C40.9888 180.271 40.7289 179.237 40.7289 178.084ZM58.4494 184.153C57.5793 184.153 56.7883 183.955 56.0764 183.559C55.3758 183.164 54.8221 182.604 54.4153 181.881C54.0198 181.147 53.8221 180.299 53.8221 179.339C53.8221 178.39 54.0255 177.553 54.4323 176.83C54.8504 176.096 55.4154 175.536 56.1273 175.152C56.8392 174.757 57.6358 174.559 58.5172 174.559C59.3986 174.559 60.1953 174.757 60.9072 175.152C61.6191 175.536 62.1784 176.09 62.5852 176.813C63.0033 177.536 63.2124 178.378 63.2124 179.339C63.2124 180.299 62.9977 181.147 62.5683 181.881C62.1502 182.604 61.5795 183.164 60.8563 183.559C60.1331 183.955 59.3308 184.153 58.4494 184.153ZM58.4494 182.797C59.0031 182.797 59.5229 182.667 60.0088 182.407C60.4947 182.147 60.8846 181.757 61.1784 181.237C61.4835 180.717 61.636 180.085 61.636 179.339C61.636 178.593 61.4891 177.96 61.1953 177.44C60.9015 176.921 60.5173 176.536 60.0427 176.288C59.5681 176.028 59.054 175.898 58.5003 175.898C57.9353 175.898 57.4155 176.028 56.9409 176.288C56.4776 176.536 56.1047 176.921 55.8222 177.44C55.5397 177.96 55.3984 178.593 55.3984 179.339C55.3984 180.096 55.534 180.734 55.8052 181.254C56.0877 181.774 56.4606 182.164 56.9239 182.424C57.3872 182.672 57.8957 182.797 58.4494 182.797ZM66.7829 171.457V184H65.2404V171.457H66.7829ZM70.9541 171.457V184H69.4117V171.457H70.9541ZM82.058 179C82.058 179.294 82.041 179.604 82.0071 179.932H74.583C74.6395 180.847 74.9503 181.565 75.5153 182.085C76.0916 182.593 76.7865 182.847 77.6001 182.847C78.2668 182.847 78.8205 182.695 79.2612 182.39C79.7132 182.073 80.0296 181.655 80.2104 181.135H81.8715C81.6229 182.028 81.1257 182.757 80.3799 183.322C79.6341 183.876 78.7075 184.153 77.6001 184.153C76.7187 184.153 75.9277 183.955 75.2271 183.559C74.5378 183.164 73.9954 182.604 73.5999 181.881C73.2044 181.147 73.0067 180.299 73.0067 179.339C73.0067 178.378 73.1988 177.536 73.583 176.813C73.9672 176.09 74.5039 175.536 75.1932 175.152C75.8938 174.757 76.6961 174.559 77.6001 174.559C78.4815 174.559 79.2612 174.751 79.9392 175.135C80.6172 175.519 81.137 176.05 81.4986 176.728C81.8715 177.395 82.058 178.152 82.058 179ZM80.4647 178.678C80.4647 178.09 80.3347 177.587 80.0748 177.169C79.8149 176.74 79.459 176.418 79.007 176.203C78.5663 175.977 78.0747 175.864 77.5323 175.864C76.7526 175.864 76.0859 176.113 75.5322 176.61C74.9898 177.107 74.6791 177.796 74.6 178.678H80.4647ZM83.5177 179.339C83.5177 178.378 83.7098 177.542 84.094 176.83C84.4782 176.107 85.0093 175.548 85.6873 175.152C86.3766 174.757 87.1619 174.559 88.0433 174.559C89.1846 174.559 90.1225 174.836 90.857 175.389C91.6028 175.943 92.0944 176.711 92.3317 177.695H90.6706C90.5124 177.13 90.2016 176.683 89.7383 176.356C89.2863 176.028 88.7213 175.864 88.0433 175.864C87.1619 175.864 86.45 176.169 85.9076 176.779C85.3652 177.378 85.094 178.231 85.094 179.339C85.094 180.457 85.3652 181.322 85.9076 181.932C86.45 182.542 87.1619 182.847 88.0433 182.847C88.7213 182.847 89.2863 182.689 89.7383 182.373C90.1903 182.056 90.5011 181.604 90.6706 181.017H92.3317C92.0831 181.966 91.5859 182.729 90.8401 183.305C90.0943 183.87 89.162 184.153 88.0433 184.153C87.1619 184.153 86.3766 183.955 85.6873 183.559C85.0093 183.164 84.4782 182.604 84.094 181.881C83.7098 181.158 83.5177 180.311 83.5177 179.339ZM96.2712 175.983V181.457C96.2712 181.909 96.3673 182.232 96.5594 182.424C96.7515 182.604 97.0848 182.695 97.5594 182.695H98.6951V184H97.3052C96.4464 184 95.8023 183.802 95.3729 183.407C94.9435 183.011 94.7288 182.361 94.7288 181.457V175.983H93.5253V174.711H94.7288V172.372H96.2712V174.711H98.6951V175.983H96.2712ZM101.361 173.203C101.067 173.203 100.818 173.101 100.615 172.898C100.411 172.694 100.31 172.446 100.31 172.152C100.31 171.858 100.411 171.61 100.615 171.406C100.818 171.203 101.067 171.101 101.361 171.101C101.643 171.101 101.88 171.203 102.072 171.406C102.276 171.61 102.378 171.858 102.378 172.152C102.378 172.446 102.276 172.694 102.072 172.898C101.88 173.101 101.643 173.203 101.361 173.203ZM102.106 174.711V184H100.564V174.711H102.106ZM113.21 179C113.21 179.294 113.193 179.604 113.159 179.932H105.735C105.792 180.847 106.103 181.565 106.668 182.085C107.244 182.593 107.939 182.847 108.752 182.847C109.419 182.847 109.973 182.695 110.413 182.39C110.865 182.073 111.182 181.655 111.363 181.135H113.024C112.775 182.028 112.278 182.757 111.532 183.322C110.786 183.876 109.86 184.153 108.752 184.153C107.871 184.153 107.08 183.955 106.379 183.559C105.69 183.164 105.148 182.604 104.752 181.881C104.357 181.147 104.159 180.299 104.159 179.339C104.159 178.378 104.351 177.536 104.735 176.813C105.119 176.09 105.656 175.536 106.345 175.152C107.046 174.757 107.848 174.559 108.752 174.559C109.634 174.559 110.413 174.751 111.091 175.135C111.769 175.519 112.289 176.05 112.651 176.728C113.024 177.395 113.21 178.152 113.21 179ZM111.617 178.678C111.617 178.09 111.487 177.587 111.227 177.169C110.967 176.74 110.611 176.418 110.159 176.203C109.719 175.977 109.227 175.864 108.685 175.864C107.905 175.864 107.238 176.113 106.684 176.61C106.142 177.107 105.831 177.796 105.752 178.678H111.617ZM119.477 174.83C119.556 173.79 119.957 172.977 120.68 172.389C121.404 171.802 122.342 171.508 123.494 171.508C124.263 171.508 124.924 171.649 125.477 171.932C126.042 172.203 126.466 172.576 126.749 173.05C127.042 173.525 127.189 174.062 127.189 174.661C127.189 175.361 126.986 175.966 126.579 176.474C126.184 176.983 125.664 177.31 125.02 177.457V177.542C125.754 177.723 126.336 178.079 126.765 178.61C127.195 179.141 127.41 179.836 127.41 180.695C127.41 181.339 127.263 181.921 126.969 182.441C126.675 182.949 126.234 183.35 125.647 183.644C125.059 183.938 124.353 184.085 123.528 184.085C122.33 184.085 121.347 183.774 120.579 183.152C119.81 182.52 119.381 181.627 119.291 180.474H120.782C120.861 181.152 121.138 181.706 121.613 182.135C122.087 182.565 122.72 182.78 123.511 182.78C124.302 182.78 124.901 182.576 125.308 182.169C125.726 181.751 125.935 181.215 125.935 180.559C125.935 179.712 125.652 179.101 125.087 178.729C124.522 178.356 123.669 178.169 122.528 178.169H122.138V176.881H122.545C123.585 176.87 124.37 176.7 124.901 176.372C125.432 176.033 125.698 175.514 125.698 174.813C125.698 174.214 125.5 173.734 125.104 173.372C124.72 173.011 124.166 172.83 123.443 172.83C122.743 172.83 122.178 173.011 121.748 173.372C121.319 173.734 121.065 174.22 120.986 174.83H119.477Z" fill="white"/>
<rect width="300" height="45" transform="translate(0 201)" fill="#172A59"/>
<path d="M40.7289 223.084C40.7289 221.932 40.9888 220.898 41.5086 219.983C42.0284 219.056 42.7346 218.333 43.6273 217.813C44.5313 217.293 45.5314 217.033 46.6275 217.033C47.9157 217.033 49.04 217.344 50.0005 217.966C50.961 218.587 51.6616 219.468 52.1023 220.61H50.2548C49.9271 219.898 49.4525 219.35 48.831 218.966C48.2208 218.581 47.4863 218.389 46.6275 218.389C45.8026 218.389 45.0624 218.581 44.407 218.966C43.7516 219.35 43.2375 219.898 42.8646 220.61C42.4917 221.31 42.3052 222.135 42.3052 223.084C42.3052 224.022 42.4917 224.847 42.8646 225.559C43.2375 226.26 43.7516 226.802 44.407 227.186C45.0624 227.571 45.8026 227.763 46.6275 227.763C47.4863 227.763 48.2208 227.576 48.831 227.203C49.4525 226.819 49.9271 226.271 50.2548 225.559H52.1023C51.6616 226.689 50.961 227.565 50.0005 228.186C49.04 228.797 47.9157 229.102 46.6275 229.102C45.5314 229.102 44.5313 228.847 43.6273 228.339C42.7346 227.819 42.0284 227.102 41.5086 226.186C40.9888 225.271 40.7289 224.237 40.7289 223.084ZM58.4494 229.153C57.5793 229.153 56.7883 228.955 56.0764 228.559C55.3758 228.164 54.8221 227.604 54.4153 226.881C54.0198 226.147 53.8221 225.299 53.8221 224.339C53.8221 223.39 54.0255 222.553 54.4323 221.83C54.8504 221.096 55.4154 220.536 56.1273 220.152C56.8392 219.757 57.6358 219.559 58.5172 219.559C59.3986 219.559 60.1953 219.757 60.9072 220.152C61.6191 220.536 62.1784 221.09 62.5852 221.813C63.0033 222.536 63.2124 223.378 63.2124 224.339C63.2124 225.299 62.9977 226.147 62.5683 226.881C62.1502 227.604 61.5795 228.164 60.8563 228.559C60.1331 228.955 59.3308 229.153 58.4494 229.153ZM58.4494 227.797C59.0031 227.797 59.5229 227.667 60.0088 227.407C60.4947 227.147 60.8846 226.757 61.1784 226.237C61.4835 225.717 61.636 225.085 61.636 224.339C61.636 223.593 61.4891 222.96 61.1953 222.44C60.9015 221.921 60.5173 221.536 60.0427 221.288C59.5681 221.028 59.054 220.898 58.5003 220.898C57.9353 220.898 57.4155 221.028 56.9409 221.288C56.4776 221.536 56.1047 221.921 55.8222 222.44C55.5397 222.96 55.3984 223.593 55.3984 224.339C55.3984 225.096 55.534 225.734 55.8052 226.254C56.0877 226.774 56.4606 227.164 56.9239 227.424C57.3872 227.672 57.8957 227.797 58.4494 227.797ZM66.7829 216.457V229H65.2404V216.457H66.7829ZM70.9541 216.457V229H69.4117V216.457H70.9541ZM82.058 224C82.058 224.294 82.041 224.604 82.0071 224.932H74.583C74.6395 225.847 74.9503 226.565 75.5153 227.085C76.0916 227.593 76.7865 227.847 77.6001 227.847C78.2668 227.847 78.8205 227.695 79.2612 227.39C79.7132 227.073 80.0296 226.655 80.2104 226.135H81.8715C81.6229 227.028 81.1257 227.757 80.3799 228.322C79.6341 228.876 78.7075 229.153 77.6001 229.153C76.7187 229.153 75.9277 228.955 75.2271 228.559C74.5378 228.164 73.9954 227.604 73.5999 226.881C73.2044 226.147 73.0067 225.299 73.0067 224.339C73.0067 223.378 73.1988 222.536 73.583 221.813C73.9672 221.09 74.5039 220.536 75.1932 220.152C75.8938 219.757 76.6961 219.559 77.6001 219.559C78.4815 219.559 79.2612 219.751 79.9392 220.135C80.6172 220.519 81.137 221.05 81.4986 221.728C81.8715 222.395 82.058 223.152 82.058 224ZM80.4647 223.678C80.4647 223.09 80.3347 222.587 80.0748 222.169C79.8149 221.74 79.459 221.418 79.007 221.203C78.5663 220.977 78.0747 220.864 77.5323 220.864C76.7526 220.864 76.0859 221.113 75.5322 221.61C74.9898 222.107 74.6791 222.796 74.6 223.678H80.4647ZM83.5177 224.339C83.5177 223.378 83.7098 222.542 84.094 221.83C84.4782 221.107 85.0093 220.548 85.6873 220.152C86.3766 219.757 87.1619 219.559 88.0433 219.559C89.1846 219.559 90.1225 219.836 90.857 220.389C91.6028 220.943 92.0944 221.711 92.3317 222.695H90.6706C90.5124 222.13 90.2016 221.683 89.7383 221.356C89.2863 221.028 88.7213 220.864 88.0433 220.864C87.1619 220.864 86.45 221.169 85.9076 221.779C85.3652 222.378 85.094 223.231 85.094 224.339C85.094 225.457 85.3652 226.322 85.9076 226.932C86.45 227.542 87.1619 227.847 88.0433 227.847C88.7213 227.847 89.2863 227.689 89.7383 227.373C90.1903 227.056 90.5011 226.604 90.6706 226.017H92.3317C92.0831 226.966 91.5859 227.729 90.8401 228.305C90.0943 228.87 89.162 229.153 88.0433 229.153C87.1619 229.153 86.3766 228.955 85.6873 228.559C85.0093 228.164 84.4782 227.604 84.094 226.881C83.7098 226.158 83.5177 225.311 83.5177 224.339ZM96.2712 220.983V226.457C96.2712 226.909 96.3673 227.232 96.5594 227.424C96.7515 227.604 97.0848 227.695 97.5594 227.695H98.6951V229H97.3052C96.4464 229 95.8023 228.802 95.3729 228.407C94.9435 228.011 94.7288 227.361 94.7288 226.457V220.983H93.5253V219.711H94.7288V217.372H96.2712V219.711H98.6951V220.983H96.2712ZM101.361 218.203C101.067 218.203 100.818 218.101 100.615 217.898C100.411 217.694 100.31 217.446 100.31 217.152C100.31 216.858 100.411 216.61 100.615 216.406C100.818 216.203 101.067 216.101 101.361 216.101C101.643 216.101 101.88 216.203 102.072 216.406C102.276 216.61 102.378 216.858 102.378 217.152C102.378 217.446 102.276 217.694 102.072 217.898C101.88 218.101 101.643 218.203 101.361 218.203ZM102.106 219.711V229H100.564V219.711H102.106ZM113.21 224C113.21 224.294 113.193 224.604 113.159 224.932H105.735C105.792 225.847 106.103 226.565 106.668 227.085C107.244 227.593 107.939 227.847 108.752 227.847C109.419 227.847 109.973 227.695 110.413 227.39C110.865 227.073 111.182 226.655 111.363 226.135H113.024C112.775 227.028 112.278 227.757 111.532 228.322C110.786 228.876 109.86 229.153 108.752 229.153C107.871 229.153 107.08 228.955 106.379 228.559C105.69 228.164 105.148 227.604 104.752 226.881C104.357 226.147 104.159 225.299 104.159 224.339C104.159 223.378 104.351 222.536 104.735 221.813C105.119 221.09 105.656 220.536 106.345 220.152C107.046 219.757 107.848 219.559 108.752 219.559C109.634 219.559 110.413 219.751 111.091 220.135C111.769 220.519 112.289 221.05 112.651 221.728C113.024 222.395 113.21 223.152 113.21 224ZM111.617 223.678C111.617 223.09 111.487 222.587 111.227 222.169C110.967 221.74 110.611 221.418 110.159 221.203C109.719 220.977 109.227 220.864 108.685 220.864C107.905 220.864 107.238 221.113 106.684 221.61C106.142 222.107 105.831 222.796 105.752 223.678H111.617ZM119.138 226.271V225.101L125.087 216.864H126.935V224.932H128.63V226.271H126.935V229H125.409V226.271H119.138ZM125.477 218.474L120.918 224.932H125.477V218.474Z" fill="white"/>
<defs>
<clipPath id="clip0">
<rect width="20" height="20" fill="white" transform="translate(240 33.5)"/>
</clipPath>
</defs>
</svg>
