<svg width="1366" height="1024" viewBox="0 0 1366 1024" fill="none" xmlns="http://www.w3.org/2000/svg">
<rect width="1366" height="1024" fill="#172A59"/>
<g clip-path="url(#clip0)">
<path d="M532.989 248.142H483V249.858H532.989V248.142Z" fill="white"/>
<path d="M517.542 247.974L532.676 244.963L532.342 243.28L517.207 246.291L517.542 247.974Z" fill="white"/>
<path d="M517.158 246.132L531.415 240.225L530.758 238.64L516.501 244.546L517.158 246.132Z" fill="white"/>
<path d="M516.422 244.399L529.253 235.823L528.3 234.397L515.469 242.972L516.422 244.399Z" fill="white"/>
<path d="M515.365 242.843L526.275 231.931L525.062 230.717L514.152 241.63L515.365 242.843Z" fill="white"/>
<path d="M514.02 241.523L522.593 228.69L521.167 227.736L512.593 240.57L514.02 241.523Z" fill="white"/>
<path d="M512.446 240.49L518.351 226.23L516.766 225.573L510.861 239.833L512.446 240.49Z" fill="white"/>
<path d="M510.701 239.785L513.71 224.647L512.028 224.313L509.019 239.45L510.701 239.785Z" fill="white"/>
<path d="M508.852 224H507.136V239.433H508.852V224Z" fill="white"/>
<path d="M505.291 239.782L506.973 239.447L503.962 224.31L502.28 224.644L505.291 239.782Z" fill="white"/>
<path d="M503.547 240.489L505.132 239.832L499.225 225.574L497.64 226.231L503.547 240.489Z" fill="white"/>
<path d="M501.971 241.524L503.397 240.571L494.825 227.737L493.399 228.69L501.971 241.524Z" fill="white"/>
<path d="M500.625 242.841L501.838 241.628L490.928 230.716L489.715 231.929L500.625 242.841Z" fill="white"/>
<path d="M499.566 244.397L500.519 242.97L487.688 234.395L486.735 235.822L499.566 244.397Z" fill="white"/>
<path d="M498.832 246.134L499.489 244.549L485.232 238.644L484.576 240.229L498.832 246.134Z" fill="white"/>
<path d="M498.446 247.981L498.781 246.298L483.647 243.285L483.312 244.968L498.446 247.981Z" fill="white"/>
<path d="M483.649 254.718L498.783 251.707L498.448 250.024L483.314 253.035L483.649 254.718Z" fill="white"/>
<path d="M485.231 259.358L499.487 253.452L498.831 251.867L484.575 257.773L485.231 259.358Z" fill="white"/>
<path d="M487.687 263.603L500.518 255.027L499.565 253.6L486.734 262.176L487.687 263.603Z" fill="white"/>
<path d="M490.929 267.283L501.838 256.371L500.625 255.158L489.716 266.07L490.929 267.283Z" fill="white"/>
<path d="M494.821 270.263L503.395 257.429L501.968 256.475L493.394 269.309L494.821 270.263Z" fill="white"/>
<path d="M499.222 272.426L505.127 258.167L503.542 257.51L497.636 271.77L499.222 272.426Z" fill="white"/>
<path d="M503.959 273.684L506.968 258.546L505.285 258.211L502.276 273.349L503.959 273.684Z" fill="white"/>
<path d="M508.852 258.567H507.136V274H508.852V258.567Z" fill="white"/>
<path d="M512.026 273.69L513.708 273.356L510.697 258.218L509.015 258.552L512.026 273.69Z" fill="white"/>
<path d="M516.763 272.425L518.347 271.768L512.441 257.509L510.856 258.166L516.763 272.425Z" fill="white"/>
<path d="M521.176 270.263L522.603 269.31L514.029 256.478L512.603 257.431L521.176 270.263Z" fill="white"/>
<path d="M525.062 267.285L526.275 266.072L515.365 255.16L514.152 256.373L525.062 267.285Z" fill="white"/>
<path d="M528.306 263.602L529.259 262.176L516.428 253.602L515.475 255.028L528.306 263.602Z" fill="white"/>
</g>
<path d="M592.329 248.624C592.329 246.992 592.697 245.528 593.433 244.232C594.169 242.92 595.169 241.896 596.433 241.16C597.713 240.424 599.129 240.056 600.681 240.056C602.505 240.056 604.097 240.496 605.457 241.376C606.817 242.256 607.809 243.504 608.433 245.12H605.817C605.353 244.112 604.681 243.336 603.801 242.792C602.937 242.248 601.897 241.976 600.681 241.976C599.513 241.976 598.465 242.248 597.537 242.792C596.609 243.336 595.881 244.112 595.353 245.12C594.825 246.112 594.561 247.28 594.561 248.624C594.561 249.952 594.825 251.12 595.353 252.128C595.881 253.12 596.609 253.888 597.537 254.432C598.465 254.976 599.513 255.248 600.681 255.248C601.897 255.248 602.937 254.984 603.801 254.456C604.681 253.912 605.353 253.136 605.817 252.128H608.433C607.809 253.728 606.817 254.968 605.457 255.848C604.097 256.712 602.505 257.144 600.681 257.144C599.129 257.144 597.713 256.784 596.433 256.064C595.169 255.328 594.169 254.312 593.433 253.016C592.697 251.72 592.329 250.256 592.329 248.624ZM617.42 257.216C616.188 257.216 615.068 256.936 614.06 256.376C613.068 255.816 612.284 255.024 611.708 254C611.148 252.96 610.868 251.76 610.868 250.4C610.868 249.056 611.156 247.872 611.732 246.848C612.324 245.808 613.124 245.016 614.132 244.472C615.14 243.912 616.268 243.632 617.516 243.632C618.764 243.632 619.892 243.912 620.9 244.472C621.908 245.016 622.7 245.8 623.276 246.824C623.868 247.848 624.164 249.04 624.164 250.4C624.164 251.76 623.86 252.96 623.252 254C622.66 255.024 621.852 255.816 620.828 256.376C619.804 256.936 618.668 257.216 617.42 257.216ZM617.42 255.296C618.204 255.296 618.94 255.112 619.628 254.744C620.316 254.376 620.868 253.824 621.284 253.088C621.716 252.352 621.932 251.456 621.932 250.4C621.932 249.344 621.724 248.448 621.308 247.712C620.892 246.976 620.348 246.432 619.676 246.08C619.004 245.712 618.276 245.528 617.492 245.528C616.692 245.528 615.956 245.712 615.284 246.08C614.628 246.432 614.1 246.976 613.7 247.712C613.3 248.448 613.1 249.344 613.1 250.4C613.1 251.472 613.292 252.376 613.676 253.112C614.076 253.848 614.604 254.4 615.26 254.768C615.916 255.12 616.636 255.296 617.42 255.296ZM629.22 239.24V257H627.036V239.24H629.22ZM635.126 239.24V257H632.942V239.24H635.126ZM650.848 249.92C650.848 250.336 650.824 250.776 650.776 251.24H640.264C640.344 252.536 640.784 253.552 641.584 254.288C642.4 255.008 643.384 255.368 644.536 255.368C645.48 255.368 646.264 255.152 646.888 254.72C647.528 254.272 647.976 253.68 648.232 252.944H650.584C650.232 254.208 649.528 255.24 648.472 256.04C647.416 256.824 646.104 257.216 644.536 257.216C643.288 257.216 642.168 256.936 641.176 256.376C640.2 255.816 639.432 255.024 638.872 254C638.312 252.96 638.032 251.76 638.032 250.4C638.032 249.04 638.304 247.848 638.848 246.824C639.392 245.8 640.152 245.016 641.128 244.472C642.12 243.912 643.256 243.632 644.536 243.632C645.784 243.632 646.888 243.904 647.848 244.448C648.808 244.992 649.544 245.744 650.056 246.704C650.584 247.648 650.848 248.72 650.848 249.92ZM648.592 249.464C648.592 248.632 648.408 247.92 648.04 247.328C647.672 246.72 647.168 246.264 646.528 245.96C645.904 245.64 645.208 245.48 644.44 245.48C643.336 245.48 642.392 245.832 641.608 246.536C640.84 247.24 640.4 248.216 640.288 249.464H648.592ZM652.915 250.4C652.915 249.04 653.187 247.856 653.731 246.848C654.275 245.824 655.027 245.032 655.987 244.472C656.963 243.912 658.075 243.632 659.323 243.632C660.939 243.632 662.267 244.024 663.307 244.808C664.363 245.592 665.059 246.68 665.395 248.072H663.043C662.819 247.272 662.379 246.64 661.723 246.176C661.083 245.712 660.283 245.48 659.323 245.48C658.075 245.48 657.067 245.912 656.299 246.776C655.531 247.624 655.147 248.832 655.147 250.4C655.147 251.984 655.531 253.208 656.299 254.072C657.067 254.936 658.075 255.368 659.323 255.368C660.283 255.368 661.083 255.144 661.723 254.696C662.363 254.248 662.803 253.608 663.043 252.776H665.395C665.043 254.12 664.339 255.2 663.283 256.016C662.227 256.816 660.907 257.216 659.323 257.216C658.075 257.216 656.963 256.936 655.987 256.376C655.027 255.816 654.275 255.024 653.731 254C653.187 252.976 652.915 251.776 652.915 250.4ZM670.973 245.648V253.4C670.973 254.04 671.109 254.496 671.381 254.768C671.653 255.024 672.125 255.152 672.797 255.152H674.405V257H672.437C671.221 257 670.309 256.72 669.701 256.16C669.093 255.6 668.789 254.68 668.789 253.4V245.648H667.085V243.848H668.789V240.536H670.973V243.848H674.405V245.648H670.973ZM678.179 241.712C677.763 241.712 677.411 241.568 677.123 241.28C676.835 240.992 676.691 240.64 676.691 240.224C676.691 239.808 676.835 239.456 677.123 239.168C677.411 238.88 677.763 238.736 678.179 238.736C678.579 238.736 678.915 238.88 679.187 239.168C679.475 239.456 679.619 239.808 679.619 240.224C679.619 240.64 679.475 240.992 679.187 241.28C678.915 241.568 678.579 241.712 678.179 241.712ZM679.235 243.848V257H677.051V243.848H679.235ZM694.957 249.92C694.957 250.336 694.933 250.776 694.885 251.24H684.373C684.453 252.536 684.893 253.552 685.693 254.288C686.509 255.008 687.493 255.368 688.645 255.368C689.589 255.368 690.373 255.152 690.997 254.72C691.637 254.272 692.085 253.68 692.341 252.944H694.693C694.341 254.208 693.637 255.24 692.581 256.04C691.525 256.824 690.213 257.216 688.645 257.216C687.397 257.216 686.277 256.936 685.285 256.376C684.309 255.816 683.541 255.024 682.981 254C682.421 252.96 682.141 251.76 682.141 250.4C682.141 249.04 682.413 247.848 682.957 246.824C683.501 245.8 684.261 245.016 685.237 244.472C686.229 243.912 687.365 243.632 688.645 243.632C689.893 243.632 690.997 243.904 691.957 244.448C692.917 244.992 693.653 245.744 694.165 246.704C694.693 247.648 694.957 248.72 694.957 249.92ZM692.701 249.464C692.701 248.632 692.517 247.92 692.149 247.328C691.781 246.72 691.277 246.264 690.637 245.96C690.013 245.64 689.317 245.48 688.549 245.48C687.445 245.48 686.501 245.832 685.717 246.536C684.949 247.24 684.509 248.216 684.397 249.464H692.701ZM700.024 246.296C700.472 245.512 701.128 244.872 701.992 244.376C702.856 243.88 703.84 243.632 704.944 243.632C706.128 243.632 707.192 243.912 708.136 244.472C709.08 245.032 709.824 245.824 710.368 246.848C710.912 247.856 711.184 249.032 711.184 250.376C711.184 251.704 710.912 252.888 710.368 253.928C709.824 254.968 709.072 255.776 708.112 256.352C707.168 256.928 706.112 257.216 704.944 257.216C703.808 257.216 702.808 256.968 701.944 256.472C701.096 255.976 700.456 255.344 700.024 254.576V257H697.84V239.24H700.024V246.296ZM708.952 250.376C708.952 249.384 708.752 248.52 708.352 247.784C707.952 247.048 707.408 246.488 706.72 246.104C706.048 245.72 705.304 245.528 704.488 245.528C703.688 245.528 702.944 245.728 702.256 246.128C701.584 246.512 701.04 247.08 700.624 247.832C700.224 248.568 700.024 249.424 700.024 250.4C700.024 251.392 700.224 252.264 700.624 253.016C701.04 253.752 701.584 254.32 702.256 254.72C702.944 255.104 703.688 255.296 704.488 255.296C705.304 255.296 706.048 255.104 706.72 254.72C707.408 254.32 707.952 253.752 708.352 253.016C708.752 252.264 708.952 251.384 708.952 250.376ZM726.059 249.92C726.059 250.336 726.035 250.776 725.987 251.24H715.475C715.555 252.536 715.995 253.552 716.795 254.288C717.611 255.008 718.595 255.368 719.747 255.368C720.691 255.368 721.475 255.152 722.099 254.72C722.739 254.272 723.187 253.68 723.443 252.944H725.795C725.443 254.208 724.739 255.24 723.683 256.04C722.627 256.824 721.315 257.216 719.747 257.216C718.499 257.216 717.379 256.936 716.387 256.376C715.411 255.816 714.643 255.024 714.083 254C713.523 252.96 713.243 251.76 713.243 250.4C713.243 249.04 713.515 247.848 714.059 246.824C714.603 245.8 715.363 245.016 716.339 244.472C717.331 243.912 718.467 243.632 719.747 243.632C720.995 243.632 722.099 243.904 723.059 244.448C724.019 244.992 724.755 245.744 725.267 246.704C725.795 247.648 726.059 248.72 726.059 249.92ZM723.803 249.464C723.803 248.632 723.619 247.92 723.251 247.328C722.883 246.72 722.379 246.264 721.739 245.96C721.115 245.64 720.419 245.48 719.651 245.48C718.547 245.48 717.603 245.832 716.819 246.536C716.051 247.24 715.611 248.216 715.499 249.464H723.803ZM735.47 243.608C736.462 243.608 737.358 243.824 738.158 244.256C738.958 244.672 739.582 245.304 740.03 246.152C740.494 247 740.726 248.032 740.726 249.248V257H738.566V249.56C738.566 248.248 738.238 247.248 737.582 246.56C736.926 245.856 736.03 245.504 734.894 245.504C733.742 245.504 732.822 245.864 732.134 246.584C731.462 247.304 731.126 248.352 731.126 249.728V257H728.942V239.24H731.126V245.72C731.558 245.048 732.15 244.528 732.902 244.16C733.67 243.792 734.526 243.608 735.47 243.608ZM756.293 249.92C756.293 250.336 756.269 250.776 756.221 251.24H745.709C745.789 252.536 746.229 253.552 747.029 254.288C747.845 255.008 748.829 255.368 749.981 255.368C750.925 255.368 751.709 255.152 752.333 254.72C752.973 254.272 753.421 253.68 753.677 252.944H756.029C755.677 254.208 754.973 255.24 753.917 256.04C752.861 256.824 751.549 257.216 749.981 257.216C748.733 257.216 747.613 256.936 746.621 256.376C745.645 255.816 744.877 255.024 744.317 254C743.757 252.96 743.477 251.76 743.477 250.4C743.477 249.04 743.749 247.848 744.293 246.824C744.837 245.8 745.597 245.016 746.573 244.472C747.565 243.912 748.701 243.632 749.981 243.632C751.229 243.632 752.333 243.904 753.293 244.448C754.253 244.992 754.989 245.744 755.501 246.704C756.029 247.648 756.293 248.72 756.293 249.92ZM754.037 249.464C754.037 248.632 753.853 247.92 753.485 247.328C753.117 246.72 752.613 246.264 751.973 245.96C751.349 245.64 750.653 245.48 749.885 245.48C748.781 245.48 747.837 245.832 747.053 246.536C746.285 247.24 745.845 248.216 745.733 249.464H754.037ZM771.176 249.92C771.176 250.336 771.152 250.776 771.104 251.24H760.592C760.672 252.536 761.112 253.552 761.912 254.288C762.728 255.008 763.712 255.368 764.864 255.368C765.808 255.368 766.592 255.152 767.216 254.72C767.856 254.272 768.304 253.68 768.56 252.944H770.912C770.56 254.208 769.856 255.24 768.8 256.04C767.744 256.824 766.432 257.216 764.864 257.216C763.616 257.216 762.496 256.936 761.504 256.376C760.528 255.816 759.76 255.024 759.2 254C758.64 252.96 758.36 251.76 758.36 250.4C758.36 249.04 758.632 247.848 759.176 246.824C759.72 245.8 760.48 245.016 761.456 244.472C762.448 243.912 763.584 243.632 764.864 243.632C766.112 243.632 767.216 243.904 768.176 244.448C769.136 244.992 769.872 245.744 770.384 246.704C770.912 247.648 771.176 248.72 771.176 249.92ZM768.92 249.464C768.92 248.632 768.736 247.92 768.368 247.328C768 246.72 767.496 246.264 766.856 245.96C766.232 245.64 765.536 245.48 764.768 245.48C763.664 245.48 762.72 245.832 761.936 246.536C761.168 247.24 760.728 248.216 760.616 249.464H768.92ZM776.243 245.984C776.627 245.232 777.171 244.648 777.875 244.232C778.595 243.816 779.467 243.608 780.491 243.608V245.864H779.915C777.467 245.864 776.243 247.192 776.243 249.848V257H774.059V243.848H776.243V245.984ZM787.668 257.216C786.66 257.216 785.756 257.048 784.956 256.712C784.156 256.36 783.524 255.88 783.06 255.272C782.596 254.648 782.34 253.936 782.292 253.136H784.548C784.612 253.792 784.916 254.328 785.46 254.744C786.02 255.16 786.748 255.368 787.644 255.368C788.476 255.368 789.132 255.184 789.612 254.816C790.092 254.448 790.332 253.984 790.332 253.424C790.332 252.848 790.076 252.424 789.564 252.152C789.052 251.864 788.26 251.584 787.188 251.312C786.212 251.056 785.412 250.8 784.788 250.544C784.18 250.272 783.652 249.88 783.204 249.368C782.772 248.84 782.556 248.152 782.556 247.304C782.556 246.632 782.756 246.016 783.156 245.456C783.556 244.896 784.124 244.456 784.86 244.136C785.596 243.8 786.436 243.632 787.38 243.632C788.836 243.632 790.012 244 790.908 244.736C791.804 245.472 792.284 246.48 792.348 247.76H790.164C790.116 247.072 789.836 246.52 789.324 246.104C788.828 245.688 788.156 245.48 787.308 245.48C786.524 245.48 785.9 245.648 785.436 245.984C784.972 246.32 784.74 246.76 784.74 247.304C784.74 247.736 784.876 248.096 785.148 248.384C785.436 248.656 785.788 248.88 786.204 249.056C786.636 249.216 787.228 249.4 787.98 249.608C788.924 249.864 789.692 250.12 790.284 250.376C790.876 250.616 791.38 250.984 791.796 251.48C792.228 251.976 792.452 252.624 792.468 253.424C792.468 254.144 792.268 254.792 791.868 255.368C791.468 255.944 790.9 256.4 790.164 256.736C789.444 257.056 788.612 257.216 787.668 257.216ZM806.879 243.848L798.959 263.192H796.703L799.295 256.856L793.991 243.848H796.415L800.543 254.504L804.623 243.848H806.879ZM813.731 257.216C812.723 257.216 811.819 257.048 811.019 256.712C810.219 256.36 809.587 255.88 809.123 255.272C808.659 254.648 808.403 253.936 808.355 253.136H810.611C810.675 253.792 810.979 254.328 811.523 254.744C812.083 255.16 812.811 255.368 813.707 255.368C814.539 255.368 815.195 255.184 815.675 254.816C816.155 254.448 816.395 253.984 816.395 253.424C816.395 252.848 816.139 252.424 815.627 252.152C815.115 251.864 814.323 251.584 813.251 251.312C812.275 251.056 811.475 250.8 810.851 250.544C810.243 250.272 809.715 249.88 809.267 249.368C808.835 248.84 808.619 248.152 808.619 247.304C808.619 246.632 808.819 246.016 809.219 245.456C809.619 244.896 810.187 244.456 810.923 244.136C811.659 243.8 812.499 243.632 813.443 243.632C814.899 243.632 816.075 244 816.971 244.736C817.867 245.472 818.347 246.48 818.411 247.76H816.227C816.179 247.072 815.899 246.52 815.387 246.104C814.891 245.688 814.219 245.48 813.371 245.48C812.587 245.48 811.963 245.648 811.499 245.984C811.035 246.32 810.803 246.76 810.803 247.304C810.803 247.736 810.939 248.096 811.211 248.384C811.499 248.656 811.851 248.88 812.267 249.056C812.699 249.216 813.291 249.4 814.043 249.608C814.987 249.864 815.755 250.12 816.347 250.376C816.939 250.616 817.443 250.984 817.859 251.48C818.291 251.976 818.515 252.624 818.531 253.424C818.531 254.144 818.331 254.792 817.931 255.368C817.531 255.944 816.963 256.4 816.227 256.736C815.507 257.056 814.675 257.216 813.731 257.216ZM824.278 245.648V253.4C824.278 254.04 824.414 254.496 824.686 254.768C824.958 255.024 825.43 255.152 826.102 255.152H827.71V257H825.742C824.526 257 823.614 256.72 823.006 256.16C822.398 255.6 822.094 254.68 822.094 253.4V245.648H820.39V243.848H822.094V240.536H824.278V243.848H827.71V245.648H824.278ZM842.356 249.92C842.356 250.336 842.332 250.776 842.284 251.24H831.772C831.852 252.536 832.292 253.552 833.092 254.288C833.908 255.008 834.892 255.368 836.044 255.368C836.988 255.368 837.772 255.152 838.396 254.72C839.036 254.272 839.484 253.68 839.74 252.944H842.092C841.74 254.208 841.036 255.24 839.98 256.04C838.924 256.824 837.612 257.216 836.044 257.216C834.796 257.216 833.676 256.936 832.684 256.376C831.708 255.816 830.94 255.024 830.38 254C829.82 252.96 829.54 251.76 829.54 250.4C829.54 249.04 829.812 247.848 830.356 246.824C830.9 245.8 831.66 245.016 832.636 244.472C833.628 243.912 834.764 243.632 836.044 243.632C837.292 243.632 838.396 243.904 839.356 244.448C840.316 244.992 841.052 245.744 841.564 246.704C842.092 247.648 842.356 248.72 842.356 249.92ZM840.1 249.464C840.1 248.632 839.916 247.92 839.548 247.328C839.18 246.72 838.676 246.264 838.036 245.96C837.412 245.64 836.716 245.48 835.948 245.48C834.844 245.48 833.9 245.832 833.116 246.536C832.348 247.24 831.908 248.216 831.796 249.464H840.1ZM857.239 249.92C857.239 250.336 857.215 250.776 857.167 251.24H846.655C846.735 252.536 847.175 253.552 847.975 254.288C848.791 255.008 849.775 255.368 850.927 255.368C851.871 255.368 852.655 255.152 853.279 254.72C853.919 254.272 854.367 253.68 854.623 252.944H856.975C856.623 254.208 855.919 255.24 854.863 256.04C853.807 256.824 852.495 257.216 850.927 257.216C849.679 257.216 848.559 256.936 847.567 256.376C846.591 255.816 845.823 255.024 845.263 254C844.703 252.96 844.423 251.76 844.423 250.4C844.423 249.04 844.695 247.848 845.239 246.824C845.783 245.8 846.543 245.016 847.519 244.472C848.511 243.912 849.647 243.632 850.927 243.632C852.175 243.632 853.279 243.904 854.239 244.448C855.199 244.992 855.935 245.744 856.447 246.704C856.975 247.648 857.239 248.72 857.239 249.92ZM854.983 249.464C854.983 248.632 854.799 247.92 854.431 247.328C854.063 246.72 853.559 246.264 852.919 245.96C852.295 245.64 851.599 245.48 850.831 245.48C849.727 245.48 848.783 245.832 847.999 246.536C847.231 247.24 846.791 248.216 846.679 249.464H854.983ZM875.937 243.608C876.961 243.608 877.873 243.824 878.673 244.256C879.473 244.672 880.105 245.304 880.569 246.152C881.033 247 881.265 248.032 881.265 249.248V257H879.105V249.56C879.105 248.248 878.777 247.248 878.121 246.56C877.481 245.856 876.609 245.504 875.505 245.504C874.369 245.504 873.465 245.872 872.793 246.608C872.121 247.328 871.785 248.376 871.785 249.752V257H869.625V249.56C869.625 248.248 869.297 247.248 868.641 246.56C868.001 245.856 867.129 245.504 866.025 245.504C864.889 245.504 863.985 245.872 863.313 246.608C862.641 247.328 862.305 248.376 862.305 249.752V257H860.121V243.848H862.305V245.744C862.737 245.056 863.313 244.528 864.033 244.16C864.769 243.792 865.577 243.608 866.457 243.608C867.561 243.608 868.537 243.856 869.385 244.352C870.233 244.848 870.865 245.576 871.281 246.536C871.649 245.608 872.257 244.888 873.105 244.376C873.953 243.864 874.897 243.608 875.937 243.608Z" fill="white"/>
<rect width="340" height="42" transform="translate(483 489)" fill="white"/>
<path d="M505.722 513.675H509.106V515H504.08V504.992H505.722V513.675ZM513.92 515.13C513.171 515.13 512.494 514.962 511.89 514.626C511.285 514.28 510.81 513.8 510.464 513.186C510.118 512.562 509.946 511.842 509.946 511.026C509.946 510.219 510.123 509.504 510.478 508.88C510.834 508.256 511.318 507.776 511.933 507.44C512.547 507.104 513.234 506.936 513.992 506.936C514.75 506.936 515.437 507.104 516.051 507.44C516.666 507.776 517.15 508.256 517.506 508.88C517.861 509.504 518.038 510.219 518.038 511.026C518.038 511.832 517.856 512.547 517.491 513.171C517.126 513.795 516.627 514.28 515.994 514.626C515.37 514.962 514.678 515.13 513.92 515.13ZM513.92 513.704C514.342 513.704 514.736 513.603 515.101 513.402C515.475 513.2 515.778 512.898 516.008 512.494C516.238 512.091 516.354 511.602 516.354 511.026C516.354 510.45 516.243 509.965 516.022 509.571C515.802 509.168 515.509 508.866 515.144 508.664C514.779 508.462 514.386 508.362 513.963 508.362C513.541 508.362 513.147 508.462 512.782 508.664C512.427 508.866 512.144 509.168 511.933 509.571C511.722 509.965 511.616 510.45 511.616 511.026C511.616 511.88 511.832 512.542 512.264 513.013C512.706 513.474 513.258 513.704 513.92 513.704ZM521.303 508.218C521.543 507.814 521.86 507.502 522.253 507.282C522.656 507.051 523.132 506.936 523.679 506.936V508.635H523.261C522.618 508.635 522.128 508.798 521.792 509.125C521.466 509.451 521.303 510.018 521.303 510.824V515H519.661V507.066H521.303V508.218ZM532.46 510.838C532.46 511.136 532.441 511.405 532.402 511.645H526.34C526.388 512.278 526.623 512.787 527.045 513.171C527.468 513.555 527.986 513.747 528.601 513.747C529.484 513.747 530.108 513.378 530.473 512.638H532.244C532.004 513.368 531.567 513.968 530.933 514.438C530.309 514.899 529.532 515.13 528.601 515.13C527.842 515.13 527.161 514.962 526.556 514.626C525.961 514.28 525.49 513.8 525.145 513.186C524.809 512.562 524.641 511.842 524.641 511.026C524.641 510.21 524.804 509.494 525.13 508.88C525.466 508.256 525.932 507.776 526.527 507.44C527.132 507.104 527.823 506.936 528.601 506.936C529.349 506.936 530.017 507.099 530.602 507.426C531.188 507.752 531.644 508.213 531.97 508.808C532.297 509.394 532.46 510.07 532.46 510.838ZM530.746 510.32C530.737 509.715 530.521 509.23 530.098 508.866C529.676 508.501 529.153 508.318 528.529 508.318C527.962 508.318 527.477 508.501 527.074 508.866C526.671 509.221 526.431 509.706 526.354 510.32H530.746ZM543.68 506.936C544.304 506.936 544.861 507.066 545.351 507.325C545.85 507.584 546.239 507.968 546.517 508.477C546.805 508.986 546.949 509.6 546.949 510.32V515H545.322V510.565C545.322 509.854 545.144 509.312 544.789 508.938C544.434 508.554 543.949 508.362 543.335 508.362C542.72 508.362 542.231 508.554 541.866 508.938C541.511 509.312 541.333 509.854 541.333 510.565V515H539.706V510.565C539.706 509.854 539.528 509.312 539.173 508.938C538.818 508.554 538.333 508.362 537.719 508.362C537.104 508.362 536.615 508.554 536.25 508.938C535.895 509.312 535.717 509.854 535.717 510.565V515H534.075V507.066H535.717V507.973C535.986 507.646 536.327 507.392 536.739 507.21C537.152 507.027 537.594 506.936 538.064 506.936C538.698 506.936 539.264 507.07 539.763 507.339C540.263 507.608 540.647 507.997 540.915 508.506C541.155 508.026 541.53 507.646 542.039 507.368C542.547 507.08 543.095 506.936 543.68 506.936ZM553.614 506.014C553.316 506.014 553.066 505.914 552.865 505.712C552.663 505.51 552.562 505.261 552.562 504.963C552.562 504.666 552.663 504.416 552.865 504.214C553.066 504.013 553.316 503.912 553.614 503.912C553.902 503.912 554.146 504.013 554.348 504.214C554.55 504.416 554.65 504.666 554.65 504.963C554.65 505.261 554.55 505.51 554.348 505.712C554.146 505.914 553.902 506.014 553.614 506.014ZM554.42 507.066V515H552.778V507.066H554.42ZM558.217 508.232C558.495 507.867 558.875 507.56 559.355 507.31C559.835 507.061 560.377 506.936 560.982 506.936C561.673 506.936 562.302 507.109 562.868 507.454C563.444 507.79 563.895 508.266 564.222 508.88C564.548 509.494 564.711 510.2 564.711 510.997C564.711 511.794 564.548 512.509 564.222 513.142C563.895 513.766 563.444 514.256 562.868 514.611C562.302 514.957 561.673 515.13 560.982 515.13C560.377 515.13 559.839 515.01 559.369 514.77C558.899 514.52 558.515 514.213 558.217 513.848V518.773H556.575V507.066H558.217V508.232ZM563.041 510.997C563.041 510.45 562.926 509.979 562.695 509.586C562.475 509.182 562.177 508.88 561.803 508.678C561.438 508.467 561.044 508.362 560.622 508.362C560.209 508.362 559.815 508.467 559.441 508.678C559.076 508.89 558.779 509.197 558.548 509.6C558.327 510.003 558.217 510.478 558.217 511.026C558.217 511.573 558.327 512.053 558.548 512.466C558.779 512.869 559.076 513.176 559.441 513.387C559.815 513.598 560.209 513.704 560.622 513.704C561.044 513.704 561.438 513.598 561.803 513.387C562.177 513.166 562.475 512.85 562.695 512.437C562.926 512.024 563.041 511.544 563.041 510.997ZM569.215 515.13C568.591 515.13 568.029 515.019 567.53 514.798C567.04 514.568 566.651 514.261 566.363 513.877C566.075 513.483 565.922 513.046 565.903 512.566H567.602C567.631 512.902 567.789 513.186 568.077 513.416C568.375 513.637 568.744 513.747 569.186 513.747C569.647 513.747 570.002 513.661 570.251 513.488C570.511 513.306 570.64 513.075 570.64 512.797C570.64 512.499 570.496 512.278 570.208 512.134C569.93 511.99 569.483 511.832 568.869 511.659C568.274 511.496 567.789 511.338 567.415 511.184C567.04 511.03 566.714 510.795 566.435 510.478C566.167 510.162 566.032 509.744 566.032 509.226C566.032 508.803 566.157 508.419 566.407 508.074C566.656 507.718 567.011 507.44 567.472 507.238C567.943 507.037 568.48 506.936 569.085 506.936C569.987 506.936 570.712 507.166 571.259 507.627C571.816 508.078 572.114 508.698 572.152 509.485H570.511C570.482 509.13 570.338 508.846 570.079 508.635C569.819 508.424 569.469 508.318 569.027 508.318C568.595 508.318 568.264 508.4 568.034 508.563C567.803 508.726 567.688 508.942 567.688 509.211C567.688 509.422 567.765 509.6 567.919 509.744C568.072 509.888 568.259 510.003 568.48 510.09C568.701 510.166 569.027 510.267 569.459 510.392C570.035 510.546 570.506 510.704 570.871 510.867C571.245 511.021 571.567 511.251 571.835 511.558C572.104 511.866 572.243 512.274 572.253 512.782C572.253 513.234 572.128 513.637 571.879 513.992C571.629 514.347 571.274 514.626 570.813 514.827C570.362 515.029 569.829 515.13 569.215 515.13ZM581.212 507.066V515H579.571V514.064C579.312 514.39 578.971 514.65 578.548 514.842C578.136 515.024 577.694 515.115 577.224 515.115C576.6 515.115 576.038 514.986 575.539 514.726C575.049 514.467 574.66 514.083 574.372 513.574C574.094 513.066 573.955 512.451 573.955 511.731V507.066H575.582V511.486C575.582 512.197 575.76 512.744 576.115 513.128C576.47 513.502 576.955 513.69 577.569 513.69C578.184 513.69 578.668 513.502 579.024 513.128C579.388 512.744 579.571 512.197 579.571 511.486V507.066H581.212ZM592.983 506.936C593.607 506.936 594.164 507.066 594.654 507.325C595.153 507.584 595.542 507.968 595.82 508.477C596.108 508.986 596.252 509.6 596.252 510.32V515H594.625V510.565C594.625 509.854 594.447 509.312 594.092 508.938C593.737 508.554 593.252 508.362 592.638 508.362C592.023 508.362 591.534 508.554 591.169 508.938C590.814 509.312 590.636 509.854 590.636 510.565V515H589.009V510.565C589.009 509.854 588.831 509.312 588.476 508.938C588.121 508.554 587.636 508.362 587.022 508.362C586.407 508.362 585.918 508.554 585.553 508.938C585.198 509.312 585.02 509.854 585.02 510.565V515H583.378V507.066H585.02V507.973C585.289 507.646 585.63 507.392 586.042 507.21C586.455 507.027 586.897 506.936 587.367 506.936C588.001 506.936 588.567 507.07 589.066 507.339C589.566 507.608 589.95 507.997 590.218 508.506C590.458 508.026 590.833 507.646 591.342 507.368C591.85 507.08 592.398 506.936 592.983 506.936Z" fill="#8990A9"/>
<rect width="60" height="42" transform="translate(823 489)" fill="#0A3DFA"/>
<path d="M847.03 516.227C848.569 517.679 850.645 518.571 852.93 518.571C857.676 518.571 861.523 514.733 861.523 510C861.523 505.266 857.676 501.428 852.93 501.428C850.61 501.428 848.507 502.347 846.961 503.838L845.969 502.814C847.774 501.074 850.228 500 852.93 500C858.458 500 862.955 504.486 862.955 510C862.955 515.514 858.458 520 852.93 520C850.267 520 847.845 518.957 846.049 517.262L847.03 516.227Z" fill="white"/>
<path d="M855.624 510L855.63 509.994L852.272 506.644L851.259 507.655L852.895 509.286H843V510.714H852.895L851.259 512.346L852.272 513.356L855.63 510.006L855.624 510Z" fill="white"/>
<rect width="400" height="32" transform="translate(483 531)" fill="#FCD228"/>
<path d="M511.323 544.872C511.064 544.373 510.704 543.998 510.243 543.749C509.782 543.49 509.25 543.36 508.645 543.36C507.982 543.36 507.392 543.509 506.874 543.806C506.355 544.104 505.947 544.526 505.65 545.074C505.362 545.621 505.218 546.254 505.218 546.974C505.218 547.694 505.362 548.333 505.65 548.89C505.947 549.437 506.355 549.859 506.874 550.157C507.392 550.454 507.982 550.603 508.645 550.603C509.538 550.603 510.262 550.354 510.819 549.854C511.376 549.355 511.717 548.678 511.842 547.824H508.083V546.514H513.598V547.795C513.493 548.573 513.214 549.288 512.763 549.941C512.322 550.594 511.741 551.117 511.021 551.51C510.31 551.894 509.518 552.086 508.645 552.086C507.704 552.086 506.845 551.87 506.067 551.438C505.29 550.997 504.67 550.387 504.21 549.61C503.758 548.832 503.533 547.954 503.533 546.974C503.533 545.995 503.758 545.117 504.21 544.339C504.67 543.562 505.29 542.957 506.067 542.525C506.854 542.083 507.714 541.862 508.645 541.862C509.71 541.862 510.656 542.126 511.482 542.654C512.317 543.173 512.922 543.912 513.296 544.872H511.323ZM522.49 547.838C522.49 548.136 522.47 548.405 522.432 548.645H516.369C516.417 549.278 516.653 549.787 517.075 550.171C517.497 550.555 518.016 550.747 518.63 550.747C519.513 550.747 520.137 550.378 520.502 549.638H522.273C522.033 550.368 521.597 550.968 520.963 551.438C520.339 551.899 519.561 552.13 518.63 552.13C517.872 552.13 517.19 551.962 516.585 551.626C515.99 551.28 515.52 550.8 515.174 550.186C514.838 549.562 514.67 548.842 514.67 548.026C514.67 547.21 514.833 546.494 515.16 545.88C515.496 545.256 515.961 544.776 516.557 544.44C517.161 544.104 517.853 543.936 518.63 543.936C519.379 543.936 520.046 544.099 520.632 544.426C521.218 544.752 521.673 545.213 522 545.808C522.326 546.394 522.49 547.07 522.49 547.838ZM520.776 547.32C520.766 546.715 520.55 546.23 520.128 545.866C519.705 545.501 519.182 545.318 518.558 545.318C517.992 545.318 517.507 545.501 517.104 545.866C516.701 546.221 516.461 546.706 516.384 547.32H520.776ZM531.377 547.838C531.377 548.136 531.358 548.405 531.319 548.645H525.257C525.305 549.278 525.54 549.787 525.963 550.171C526.385 550.555 526.903 550.747 527.518 550.747C528.401 550.747 529.025 550.378 529.39 549.638H531.161C530.921 550.368 530.484 550.968 529.851 551.438C529.227 551.899 528.449 552.13 527.518 552.13C526.759 552.13 526.078 551.962 525.473 551.626C524.878 551.28 524.407 550.8 524.062 550.186C523.726 549.562 523.558 548.842 523.558 548.026C523.558 547.21 523.721 546.494 524.047 545.88C524.383 545.256 524.849 544.776 525.444 544.44C526.049 544.104 526.74 543.936 527.518 543.936C528.267 543.936 528.934 544.099 529.519 544.426C530.105 544.752 530.561 545.213 530.887 545.808C531.214 546.394 531.377 547.07 531.377 547.838ZM529.663 547.32C529.654 546.715 529.438 546.23 529.015 545.866C528.593 545.501 528.07 545.318 527.446 545.318C526.879 545.318 526.395 545.501 525.991 545.866C525.588 546.221 525.348 546.706 525.271 547.32H529.663ZM536.319 545.405H534.85V552H533.194V545.405H532.258V544.066H533.194V543.504C533.194 542.592 533.434 541.93 533.914 541.517C534.404 541.094 535.167 540.883 536.204 540.883V542.251C535.704 542.251 535.354 542.347 535.152 542.539C534.951 542.722 534.85 543.043 534.85 543.504V544.066H536.319V545.405ZM548.786 547.838C548.786 548.136 548.767 548.405 548.729 548.645H542.666C542.714 549.278 542.95 549.787 543.372 550.171C543.794 550.555 544.313 550.747 544.927 550.747C545.81 550.747 546.434 550.378 546.799 549.638H548.57C548.33 550.368 547.894 550.968 547.26 551.438C546.636 551.899 545.858 552.13 544.927 552.13C544.169 552.13 543.487 551.962 542.882 551.626C542.287 551.28 541.817 550.8 541.471 550.186C541.135 549.562 540.967 548.842 540.967 548.026C540.967 547.21 541.13 546.494 541.457 545.88C541.793 545.256 542.258 544.776 542.854 544.44C543.458 544.104 544.15 543.936 544.927 543.936C545.676 543.936 546.343 544.099 546.929 544.426C547.514 544.752 547.97 545.213 548.297 545.808C548.623 546.394 548.786 547.07 548.786 547.838ZM547.073 547.32C547.063 546.715 546.847 546.23 546.425 545.866C546.002 545.501 545.479 545.318 544.855 545.318C544.289 545.318 543.804 545.501 543.401 545.866C542.998 546.221 542.758 546.706 542.681 547.32H547.073ZM557.674 547.838C557.674 548.136 557.655 548.405 557.616 548.645H551.554C551.602 549.278 551.837 549.787 552.259 550.171C552.682 550.555 553.2 550.747 553.815 550.747C554.698 550.747 555.322 550.378 555.687 549.638H557.458C557.218 550.368 556.781 550.968 556.147 551.438C555.523 551.899 554.746 552.13 553.815 552.13C553.056 552.13 552.375 551.962 551.77 551.626C551.175 551.28 550.704 550.8 550.359 550.186C550.023 549.562 549.855 548.842 549.855 548.026C549.855 547.21 550.018 546.494 550.344 545.88C550.68 545.256 551.146 544.776 551.741 544.44C552.346 544.104 553.037 543.936 553.815 543.936C554.563 543.936 555.231 544.099 555.816 544.426C556.402 544.752 556.858 545.213 557.184 545.808C557.511 546.394 557.674 547.07 557.674 547.838ZM555.96 547.32C555.951 546.715 555.735 546.23 555.312 545.866C554.89 545.501 554.367 545.318 553.743 545.318C553.176 545.318 552.691 545.501 552.288 545.866C551.885 546.221 551.645 546.706 551.568 547.32H555.96ZM563.293 543.936C563.917 543.936 564.473 544.066 564.963 544.325C565.462 544.584 565.851 544.968 566.129 545.477C566.408 545.986 566.547 546.6 566.547 547.32V552H564.92V547.565C564.92 546.854 564.742 546.312 564.387 545.938C564.032 545.554 563.547 545.362 562.933 545.362C562.318 545.362 561.829 545.554 561.464 545.938C561.109 546.312 560.931 546.854 560.931 547.565V552H559.289V544.066H560.931V544.973C561.2 544.646 561.541 544.392 561.953 544.21C562.376 544.027 562.822 543.936 563.293 543.936ZM585.414 541.992L582.447 552H580.59L578.487 544.426L576.255 552L574.412 552.014L571.575 541.992H573.318L575.391 550.142L577.638 541.992H579.481L581.569 550.099L583.657 541.992H585.414ZM594.04 547.838C594.04 548.136 594.02 548.405 593.982 548.645H587.919C587.968 549.278 588.203 549.787 588.625 550.171C589.048 550.555 589.566 550.747 590.18 550.747C591.064 550.747 591.688 550.378 592.052 549.638H593.823C593.583 550.368 593.147 550.968 592.513 551.438C591.889 551.899 591.111 552.13 590.18 552.13C589.422 552.13 588.74 551.962 588.135 551.626C587.54 551.28 587.07 550.8 586.724 550.186C586.388 549.562 586.22 548.842 586.22 548.026C586.22 547.21 586.383 546.494 586.71 545.88C587.046 545.256 587.512 544.776 588.107 544.44C588.712 544.104 589.403 543.936 590.18 543.936C590.929 543.936 591.596 544.099 592.182 544.426C592.768 544.752 593.224 545.213 593.55 545.808C593.876 546.394 594.04 547.07 594.04 547.838ZM592.326 547.32C592.316 546.715 592.1 546.23 591.678 545.866C591.255 545.501 590.732 545.318 590.108 545.318C589.542 545.318 589.057 545.501 588.654 545.866C588.251 546.221 588.011 546.706 587.934 547.32H592.326ZM597.297 545.246C597.575 544.862 597.954 544.55 598.434 544.31C598.924 544.061 599.466 543.936 600.061 543.936C600.762 543.936 601.396 544.104 601.962 544.44C602.529 544.776 602.975 545.256 603.301 545.88C603.628 546.494 603.791 547.2 603.791 547.997C603.791 548.794 603.628 549.509 603.301 550.142C602.975 550.766 602.524 551.256 601.948 551.611C601.381 551.957 600.753 552.13 600.061 552.13C599.447 552.13 598.9 552.01 598.42 551.77C597.949 551.53 597.575 551.222 597.297 550.848V552H595.655V541.344H597.297V545.246ZM602.121 547.997C602.121 547.45 602.005 546.979 601.775 546.586C601.554 546.182 601.257 545.88 600.882 545.678C600.517 545.467 600.124 545.362 599.701 545.362C599.289 545.362 598.895 545.467 598.521 545.678C598.156 545.89 597.858 546.197 597.628 546.6C597.407 547.003 597.297 547.478 597.297 548.026C597.297 548.573 597.407 549.053 597.628 549.466C597.858 549.869 598.156 550.176 598.521 550.387C598.895 550.598 599.289 550.704 599.701 550.704C600.124 550.704 600.517 550.598 600.882 550.387C601.257 550.166 601.554 549.85 601.775 549.437C602.005 549.024 602.121 548.544 602.121 547.997ZM607.056 541.992V552H605.414V541.992H607.056ZM612.48 541.992C613.546 541.992 614.477 542.198 615.274 542.611C616.08 543.014 616.699 543.6 617.131 544.368C617.573 545.126 617.794 546.014 617.794 547.032C617.794 548.05 617.573 548.933 617.131 549.682C616.699 550.43 616.08 551.006 615.274 551.41C614.477 551.803 613.546 552 612.48 552H609.211V541.992H612.48ZM612.48 550.661C613.651 550.661 614.549 550.344 615.173 549.71C615.797 549.077 616.109 548.184 616.109 547.032C616.109 545.87 615.797 544.963 615.173 544.31C614.549 543.658 613.651 543.331 612.48 543.331H610.853V550.661H612.48ZM623.996 543.014C623.699 543.014 623.449 542.914 623.248 542.712C623.046 542.51 622.945 542.261 622.945 541.963C622.945 541.666 623.046 541.416 623.248 541.214C623.449 541.013 623.699 540.912 623.996 540.912C624.284 540.912 624.529 541.013 624.731 541.214C624.932 541.416 625.033 541.666 625.033 541.963C625.033 542.261 624.932 542.51 624.731 542.712C624.529 542.914 624.284 543.014 623.996 543.014ZM624.803 544.066V552H623.161V544.066H624.803ZM630.961 543.936C631.585 543.936 632.142 544.066 632.632 544.325C633.131 544.584 633.52 544.968 633.798 545.477C634.077 545.986 634.216 546.6 634.216 547.32V552H632.589V547.565C632.589 546.854 632.411 546.312 632.056 545.938C631.701 545.554 631.216 545.362 630.601 545.362C629.987 545.362 629.497 545.554 629.133 545.938C628.777 546.312 628.6 546.854 628.6 547.565V552H626.958V544.066H628.6V544.973C628.869 544.646 629.209 544.392 629.622 544.21C630.045 544.027 630.491 543.936 630.961 543.936Z" fill="#172A59"/>
<rect width="400" height="65" transform="translate(483 384)" fill="#FCD228"/>
<g clip-path="url(#clip1)">
<path d="M526.11 407.535C526.308 407.346 526.467 407.119 526.577 406.868C526.686 406.618 526.744 406.348 526.747 406.074C526.75 405.801 526.698 405.53 526.593 405.277C526.489 405.024 526.335 404.794 526.14 404.601C525.946 404.408 525.714 404.255 525.459 404.152C525.204 404.049 524.93 403.997 524.655 404C524.379 404.003 524.107 404.061 523.854 404.169C523.602 404.278 523.373 404.436 523.183 404.633L522.373 405.436C520.638 404.349 518.582 403.881 516.543 404.109C514.505 404.337 512.605 405.247 511.158 406.69L507.372 410.446H503.662C503.487 410.446 503.318 410.515 503.194 410.639C503.07 410.762 503 410.929 503 411.103C503.012 415.064 504.598 418.861 507.413 421.669L508.061 422.312C507.706 422.763 507.448 423.282 507.305 423.836C507.162 424.391 507.136 424.969 507.229 425.534C507.323 426.098 507.534 426.638 507.848 427.118C508.162 427.598 508.574 428.008 509.056 428.322C509.539 428.636 510.082 428.847 510.651 428.943C511.219 429.038 511.802 429.015 512.362 428.876C512.921 428.736 513.446 428.483 513.902 428.132C514.358 427.781 514.735 427.34 515.011 426.837C516.488 427.311 518.031 427.553 519.584 427.555C519.76 427.555 519.928 427.486 520.053 427.362C520.177 427.239 520.247 427.072 520.247 426.898V423.223L524.033 419.467C524.881 418.631 525.552 417.637 526.007 416.541C526.462 415.445 526.692 414.27 526.683 413.085C526.69 411.402 526.208 409.753 525.296 408.334L526.11 407.535ZM525.173 405.563C525.243 405.632 525.298 405.714 525.336 405.804C525.374 405.895 525.394 405.991 525.394 406.089C525.394 406.187 525.374 406.284 525.336 406.374C525.298 406.464 525.243 406.546 525.173 406.615L524.538 407.244C524.375 407.051 524.207 406.867 524.036 406.698C523.865 406.528 523.677 406.36 523.485 406.201L524.12 405.571C524.258 405.432 524.447 405.353 524.644 405.351C524.842 405.349 525.032 405.425 525.173 405.562V405.563ZM511.346 427.692C510.824 427.692 510.312 427.55 509.865 427.282C509.419 427.014 509.055 426.629 508.814 426.17C508.573 425.711 508.463 425.195 508.497 424.678C508.531 424.162 508.707 423.664 509.006 423.24C510.366 424.569 511.97 425.627 513.731 426.358C513.48 426.763 513.13 427.098 512.713 427.331C512.295 427.565 511.825 427.689 511.346 427.692ZM525.368 413.088C525.375 414.1 525.178 415.104 524.788 416.039C524.398 416.975 523.824 417.824 523.099 418.536L519.125 422.479C519.063 422.54 519.014 422.613 518.98 422.692C518.947 422.772 518.93 422.858 518.93 422.944V426.22C517.547 426.158 516.181 425.884 514.882 425.41C512.999 424.732 511.29 423.65 509.876 422.242L508.353 420.74C505.946 418.34 504.518 415.142 504.343 411.761H507.647C507.822 411.76 507.99 411.691 508.114 411.567L512.089 407.624C513.386 406.327 515.108 405.532 516.944 405.382C518.78 405.232 520.61 405.738 522.103 406.808C522.457 407.051 522.788 407.324 523.094 407.624C523.399 407.932 523.678 408.264 523.926 408.618C524.873 409.918 525.376 411.483 525.362 413.087L525.368 413.088Z" fill="#172A59"/>
</g>
<path d="M550.848 420.746H554.983V422H549.305V410.186H550.848V420.746ZM560.673 422.153C559.802 422.153 559.011 421.955 558.3 421.559C557.599 421.164 557.045 420.604 556.638 419.881C556.243 419.147 556.045 418.299 556.045 417.339C556.045 416.39 556.249 415.553 556.655 414.83C557.073 414.096 557.638 413.536 558.35 413.152C559.062 412.757 559.859 412.559 560.74 412.559C561.622 412.559 562.418 412.757 563.13 413.152C563.842 413.536 564.402 414.09 564.808 414.813C565.226 415.536 565.435 416.378 565.435 417.339C565.435 418.299 565.221 419.147 564.791 419.881C564.373 420.604 563.803 421.164 563.079 421.559C562.356 421.955 561.554 422.153 560.673 422.153ZM560.673 420.797C561.226 420.797 561.746 420.667 562.232 420.407C562.718 420.147 563.108 419.757 563.401 419.237C563.707 418.717 563.859 418.085 563.859 417.339C563.859 416.593 563.712 415.96 563.418 415.44C563.125 414.921 562.74 414.536 562.266 414.288C561.791 414.028 561.277 413.898 560.723 413.898C560.158 413.898 559.639 414.028 559.164 414.288C558.701 414.536 558.328 414.921 558.045 415.44C557.763 415.96 557.622 416.593 557.622 417.339C557.622 418.096 557.757 418.734 558.028 419.254C558.311 419.774 558.684 420.164 559.147 420.424C559.61 420.672 560.119 420.797 560.673 420.797ZM569.006 414.22C569.277 413.689 569.661 413.276 570.159 412.983C570.667 412.689 571.283 412.542 572.006 412.542V414.135H571.599C569.87 414.135 569.006 415.073 569.006 416.949V422H567.464V412.711H569.006V414.22ZM582.262 417C582.262 417.294 582.245 417.604 582.211 417.932H574.787C574.843 418.847 575.154 419.565 575.719 420.085C576.295 420.593 576.99 420.847 577.804 420.847C578.47 420.847 579.024 420.695 579.465 420.39C579.917 420.073 580.233 419.655 580.414 419.135H582.075C581.827 420.028 581.329 420.757 580.584 421.322C579.838 421.876 578.911 422.153 577.804 422.153C576.922 422.153 576.131 421.955 575.431 421.559C574.741 421.164 574.199 420.604 573.804 419.881C573.408 419.147 573.21 418.299 573.21 417.339C573.21 416.378 573.402 415.536 573.787 414.813C574.171 414.09 574.708 413.536 575.397 413.152C576.097 412.757 576.9 412.559 577.804 412.559C578.685 412.559 579.465 412.751 580.143 413.135C580.821 413.519 581.341 414.05 581.702 414.728C582.075 415.395 582.262 416.152 582.262 417ZM580.668 416.678C580.668 416.09 580.538 415.587 580.278 415.169C580.019 414.74 579.663 414.418 579.211 414.203C578.77 413.977 578.278 413.864 577.736 413.864C576.956 413.864 576.29 414.113 575.736 414.61C575.193 415.107 574.883 415.796 574.804 416.678H580.668ZM595.468 412.542C596.191 412.542 596.835 412.694 597.4 413C597.965 413.293 598.411 413.74 598.739 414.339C599.067 414.937 599.231 415.666 599.231 416.525V422H597.705V416.745C597.705 415.819 597.473 415.113 597.01 414.627C596.558 414.13 595.942 413.881 595.163 413.881C594.36 413.881 593.722 414.141 593.247 414.661C592.773 415.169 592.535 415.909 592.535 416.881V422H591.01V416.745C591.01 415.819 590.778 415.113 590.315 414.627C589.863 414.13 589.247 413.881 588.467 413.881C587.665 413.881 587.027 414.141 586.552 414.661C586.077 415.169 585.84 415.909 585.84 416.881V422H584.298V412.711H585.84V414.05C586.145 413.565 586.552 413.192 587.06 412.932C587.58 412.672 588.151 412.542 588.772 412.542C589.552 412.542 590.241 412.717 590.84 413.067C591.439 413.418 591.886 413.932 592.179 414.61C592.439 413.954 592.869 413.446 593.468 413.084C594.066 412.723 594.733 412.542 595.468 412.542ZM607.076 411.203C606.783 411.203 606.534 411.101 606.331 410.898C606.127 410.694 606.025 410.446 606.025 410.152C606.025 409.858 606.127 409.61 606.331 409.406C606.534 409.203 606.783 409.101 607.076 409.101C607.359 409.101 607.596 409.203 607.788 409.406C607.992 409.61 608.093 409.858 608.093 410.152C608.093 410.446 607.992 410.694 607.788 410.898C607.596 411.101 607.359 411.203 607.076 411.203ZM607.822 412.711V422H606.28V412.711H607.822ZM611.993 414.423C612.299 413.892 612.751 413.452 613.349 413.101C613.96 412.74 614.666 412.559 615.468 412.559C616.293 412.559 617.039 412.757 617.706 413.152C618.384 413.548 618.915 414.107 619.299 414.83C619.683 415.542 619.875 416.373 619.875 417.322C619.875 418.26 619.683 419.096 619.299 419.83C618.915 420.565 618.384 421.136 617.706 421.542C617.039 421.949 616.293 422.153 615.468 422.153C614.677 422.153 613.977 421.977 613.366 421.627C612.767 421.265 612.31 420.819 611.993 420.288V426.407H610.451V412.711H611.993V414.423ZM618.299 417.322C618.299 416.621 618.158 416.011 617.875 415.491C617.593 414.971 617.208 414.576 616.722 414.305C616.248 414.033 615.722 413.898 615.146 413.898C614.581 413.898 614.056 414.039 613.57 414.322C613.095 414.593 612.711 414.994 612.417 415.525C612.135 416.045 611.993 416.649 611.993 417.339C611.993 418.039 612.135 418.655 612.417 419.186C612.711 419.706 613.095 420.107 613.57 420.39C614.056 420.661 614.581 420.797 615.146 420.797C615.722 420.797 616.248 420.661 616.722 420.39C617.208 420.107 617.593 419.706 617.875 419.186C618.158 418.655 618.299 418.034 618.299 417.322ZM625.194 422.153C624.482 422.153 623.843 422.034 623.278 421.797C622.713 421.548 622.267 421.209 621.939 420.78C621.612 420.339 621.431 419.836 621.397 419.271H622.99C623.035 419.734 623.25 420.113 623.634 420.407C624.03 420.7 624.544 420.847 625.177 420.847C625.764 420.847 626.228 420.717 626.567 420.458C626.906 420.198 627.075 419.87 627.075 419.474C627.075 419.068 626.894 418.768 626.533 418.576C626.171 418.373 625.612 418.175 624.855 417.983C624.165 417.802 623.6 417.621 623.16 417.44C622.73 417.248 622.357 416.971 622.041 416.61C621.736 416.237 621.583 415.751 621.583 415.152C621.583 414.678 621.725 414.243 622.007 413.847C622.29 413.452 622.691 413.141 623.211 412.915C623.73 412.677 624.324 412.559 624.99 412.559C626.019 412.559 626.849 412.819 627.482 413.339C628.115 413.858 628.454 414.57 628.499 415.474H626.957C626.923 414.988 626.725 414.598 626.363 414.305C626.013 414.011 625.538 413.864 624.939 413.864C624.386 413.864 623.945 413.983 623.617 414.22C623.29 414.457 623.126 414.768 623.126 415.152C623.126 415.457 623.222 415.712 623.414 415.915C623.617 416.107 623.866 416.265 624.16 416.39C624.465 416.503 624.883 416.632 625.414 416.779C626.081 416.96 626.623 417.141 627.041 417.322C627.459 417.491 627.815 417.751 628.109 418.101C628.414 418.452 628.572 418.909 628.584 419.474C628.584 419.983 628.442 420.441 628.16 420.847C627.877 421.254 627.476 421.576 626.957 421.814C626.448 422.04 625.86 422.153 625.194 422.153ZM638.999 412.711V422H637.456V420.627C637.163 421.102 636.75 421.475 636.219 421.746C635.699 422.006 635.123 422.136 634.49 422.136C633.767 422.136 633.117 421.989 632.541 421.695C631.965 421.39 631.507 420.938 631.168 420.339C630.84 419.74 630.676 419.011 630.676 418.152V412.711H632.202V417.949C632.202 418.864 632.434 419.57 632.897 420.068C633.36 420.554 633.993 420.797 634.795 420.797C635.62 420.797 636.27 420.542 636.745 420.034C637.219 419.525 637.456 418.785 637.456 417.813V412.711H638.999ZM652.773 412.542C653.496 412.542 654.141 412.694 654.706 413C655.271 413.293 655.717 413.74 656.045 414.339C656.372 414.937 656.536 415.666 656.536 416.525V422H655.011V416.745C655.011 415.819 654.779 415.113 654.316 414.627C653.864 414.13 653.248 413.881 652.468 413.881C651.666 413.881 651.027 414.141 650.553 414.661C650.078 415.169 649.841 415.909 649.841 416.881V422H648.315V416.745C648.315 415.819 648.084 415.113 647.62 414.627C647.168 414.13 646.553 413.881 645.773 413.881C644.971 413.881 644.332 414.141 643.858 414.661C643.383 415.169 643.146 415.909 643.146 416.881V422H641.603V412.711H643.146V414.05C643.451 413.565 643.858 413.192 644.366 412.932C644.886 412.672 645.457 412.542 646.078 412.542C646.858 412.542 647.547 412.717 648.146 413.067C648.745 413.418 649.191 413.932 649.485 414.61C649.745 413.954 650.174 413.446 650.773 413.084C651.372 412.723 652.039 412.542 652.773 412.542Z" fill="#172A59"/>
<g clip-path="url(#clip2)">
<path d="M858.751 416.5L862.802 412.424C863.019 412.207 863.019 411.862 862.802 411.663C862.585 411.446 862.241 411.446 862.042 411.663L857.991 415.739L853.922 411.663C853.705 411.446 853.362 411.446 853.163 411.663C852.946 411.88 852.946 412.225 853.163 412.424L857.214 416.5L853.163 420.576C852.946 420.794 852.946 421.138 853.163 421.337C853.271 421.446 853.416 421.5 853.543 421.5C853.669 421.5 853.814 421.446 853.922 421.337L857.991 417.261L862.06 421.337C862.169 421.446 862.314 421.5 862.44 421.5C862.567 421.5 862.711 421.446 862.82 421.337C863.037 421.12 863.037 420.775 862.82 420.576L858.751 416.5Z" fill="#172A59"/>
</g>
<defs>
<clipPath id="clip0">
<rect width="50" height="50" fill="white" transform="translate(483 224)"/>
</clipPath>
<clipPath id="clip1">
<rect width="25" height="25" fill="white" transform="translate(503 404)"/>
</clipPath>
<clipPath id="clip2">
<rect width="10" height="10" fill="white" transform="translate(853 411.5)"/>
</clipPath>
</defs>
</svg>
