<svg width="273" height="274" viewBox="0 0 273 274" fill="none" xmlns="http://www.w3.org/2000/svg">
<rect width="233" height="45" transform="translate(20 20)" fill="#0A3DFA"/>
<g clip-path="url(#clip0)">
<path d="M54.9493 41.9445H50.5198V37.5C50.5198 37.3527 50.4615 37.2114 50.3577 37.1072C50.2538 37.003 50.113 36.9445 49.9662 36.9445C49.8193 36.9445 49.6785 37.003 49.5747 37.1072C49.4708 37.2114 49.4125 37.3527 49.4125 37.5V41.9445H44.9831C44.8362 41.9445 44.6954 42.003 44.5916 42.1072C44.4877 42.2114 44.4294 42.3527 44.4294 42.5C44.4294 42.6474 44.4877 42.7887 44.5916 42.8929C44.6954 42.997 44.8362 43.0556 44.9831 43.0556H49.4125V47.5C49.4125 47.6474 49.4708 47.7887 49.5747 47.8929C49.6785 47.997 49.8193 48.0556 49.9662 48.0556C50.113 48.0556 50.2538 47.997 50.3577 47.8929C50.4615 47.7887 50.5198 47.6474 50.5198 47.5V43.0556H54.9493C55.0961 43.0556 55.237 42.997 55.3408 42.8929C55.4446 42.7887 55.503 42.6474 55.503 42.5C55.503 42.3527 55.4446 42.2114 55.3408 42.1072C55.237 42.003 55.0961 41.9445 54.9493 41.9445Z" fill="white"/>
<path d="M49.9662 32.5C47.9951 32.5 46.0682 33.0865 44.4293 34.1853C42.7904 35.2841 41.513 36.8459 40.7586 38.6732C40.0043 40.5004 39.807 42.5111 40.1915 44.4509C40.5761 46.3907 41.5252 48.1725 42.919 49.5711C44.3128 50.9696 46.0887 51.922 48.0219 52.3079C49.9552 52.6937 51.959 52.4957 53.7801 51.7388C55.6012 50.9819 57.1577 49.7002 58.2528 48.0557C59.3479 46.4112 59.9324 44.4778 59.9324 42.5C59.9294 39.8488 58.8784 37.307 57.01 35.4323C55.1416 33.5576 52.6085 32.5031 49.9662 32.5ZM49.9662 51.3889C48.2141 51.3889 46.5013 50.8676 45.0445 49.8908C43.5877 48.9141 42.4522 47.5259 41.7817 45.9016C41.1112 44.2774 40.9358 42.4901 41.2776 40.7659C41.6194 39.0416 42.4631 37.4577 43.7021 36.2146C44.941 34.9715 46.5195 34.1249 48.2379 33.7819C49.9564 33.4389 51.7376 33.615 53.3564 34.2877C54.9751 34.9605 56.3587 36.0998 57.3321 37.5616C58.3055 39.0234 58.8251 40.7419 58.8251 42.5C58.8223 44.8566 57.8881 47.1159 56.2273 48.7823C54.5666 50.4487 52.3149 51.3861 49.9662 51.3889Z" fill="white"/>
</g>
<path d="M82.8476 46.7457H86.9834V48H81.3052V36.1858H82.8476V46.7457ZM92.6725 48.1526C91.8024 48.1526 91.0114 47.9548 90.2995 47.5593C89.5989 47.1638 89.0452 46.6044 88.6384 45.8812C88.2429 45.1467 88.0452 44.2992 88.0452 43.3387C88.0452 42.3895 88.2486 41.5533 88.6554 40.8301C89.0735 40.0956 89.6385 39.5363 90.3504 39.1521C91.0623 38.7566 91.8589 38.5588 92.7403 38.5588C93.6217 38.5588 94.4184 38.7566 95.1303 39.1521C95.8422 39.5363 96.4015 40.09 96.8083 40.8132C97.2264 41.5364 97.4355 42.3782 97.4355 43.3387C97.4355 44.2992 97.2208 45.1467 96.7914 45.8812C96.3733 46.6044 95.8026 47.1638 95.0794 47.5593C94.3562 47.9548 93.5539 48.1526 92.6725 48.1526ZM92.6725 46.7965C93.2262 46.7965 93.746 46.6666 94.2319 46.4067C94.7178 46.1468 95.1077 45.7569 95.4015 45.2371C95.7066 44.7173 95.8591 44.0845 95.8591 43.3387C95.8591 42.5929 95.7122 41.9601 95.4184 41.4403C95.1246 40.9205 94.7404 40.5363 94.2658 40.2877C93.7912 40.0278 93.2771 39.8979 92.7234 39.8979C92.1584 39.8979 91.6386 40.0278 91.164 40.2877C90.7007 40.5363 90.3278 40.9205 90.0453 41.4403C89.7628 41.9601 89.6215 42.5929 89.6215 43.3387C89.6215 44.0958 89.7571 44.7343 90.0283 45.2541C90.3108 45.7739 90.6837 46.1637 91.147 46.4236C91.6103 46.6722 92.1188 46.7965 92.6725 46.7965ZM101.006 40.2199C101.277 39.6888 101.661 39.2764 102.159 38.9826C102.667 38.6888 103.283 38.5419 104.006 38.5419V40.1352H103.599C101.87 40.1352 101.006 41.0731 101.006 42.9489V48H99.4635V38.7114H101.006V40.2199ZM114.262 42.9997C114.262 43.2935 114.245 43.6043 114.211 43.932H106.787C106.843 44.8473 107.154 45.5648 107.719 46.0846C108.295 46.5931 108.99 46.8474 109.804 46.8474C110.47 46.8474 111.024 46.6948 111.465 46.3897C111.917 46.0733 112.233 45.6552 112.414 45.1354H114.075C113.827 46.0281 113.329 46.757 112.584 47.322C111.838 47.8757 110.911 48.1526 109.804 48.1526C108.922 48.1526 108.131 47.9548 107.431 47.5593C106.741 47.1638 106.199 46.6044 105.804 45.8812C105.408 45.1467 105.21 44.2992 105.21 43.3387C105.21 42.3782 105.402 41.5364 105.787 40.8132C106.171 40.09 106.708 39.5363 107.397 39.1521C108.097 38.7566 108.9 38.5588 109.804 38.5588C110.685 38.5588 111.465 38.7509 112.143 39.1351C112.821 39.5193 113.341 40.0504 113.702 40.7284C114.075 41.3951 114.262 42.1522 114.262 42.9997ZM112.668 42.6777C112.668 42.0901 112.538 41.5872 112.278 41.1691C112.019 40.7397 111.663 40.4177 111.211 40.203C110.77 39.977 110.278 39.864 109.736 39.864C108.956 39.864 108.29 40.1126 107.736 40.6098C107.193 41.107 106.883 41.7963 106.804 42.6777H112.668ZM127.468 38.5419C128.191 38.5419 128.835 38.6944 129.4 38.9995C129.965 39.2933 130.411 39.7397 130.739 40.3386C131.067 40.9375 131.231 41.6663 131.231 42.5251V48H129.705V42.7455C129.705 41.8189 129.473 41.1126 129.01 40.6267C128.558 40.1295 127.942 39.8809 127.163 39.8809C126.36 39.8809 125.722 40.1408 125.247 40.6606C124.773 41.1691 124.535 41.9093 124.535 42.8811V48H123.01V42.7455C123.01 41.8189 122.778 41.1126 122.315 40.6267C121.863 40.1295 121.247 39.8809 120.467 39.8809C119.665 39.8809 119.027 40.1408 118.552 40.6606C118.077 41.1691 117.84 41.9093 117.84 42.8811V48H116.298V38.7114H117.84V40.0504C118.145 39.5645 118.552 39.1916 119.06 38.9317C119.58 38.6718 120.151 38.5419 120.772 38.5419C121.552 38.5419 122.241 38.717 122.84 39.0673C123.439 39.4176 123.886 39.9318 124.179 40.6098C124.439 39.9544 124.869 39.4459 125.468 39.0843C126.066 38.7227 126.733 38.5419 127.468 38.5419ZM139.076 37.2028C138.783 37.2028 138.534 37.1011 138.331 36.8977C138.127 36.6943 138.025 36.4457 138.025 36.1519C138.025 35.8581 138.127 35.6095 138.331 35.4061C138.534 35.2027 138.783 35.101 139.076 35.101C139.359 35.101 139.596 35.2027 139.788 35.4061C139.992 35.6095 140.093 35.8581 140.093 36.1519C140.093 36.4457 139.992 36.6943 139.788 36.8977C139.596 37.1011 139.359 37.2028 139.076 37.2028ZM139.822 38.7114V48H138.28V38.7114H139.822ZM143.993 40.4233C144.299 39.8922 144.751 39.4515 145.349 39.1012C145.96 38.7396 146.666 38.5588 147.468 38.5588C148.293 38.5588 149.039 38.7566 149.706 39.1521C150.384 39.5476 150.915 40.1069 151.299 40.8301C151.683 41.542 151.875 42.3726 151.875 43.3218C151.875 44.2597 151.683 45.0959 151.299 45.8304C150.915 46.5649 150.384 47.1355 149.706 47.5423C149.039 47.9491 148.293 48.1526 147.468 48.1526C146.677 48.1526 145.977 47.9774 145.366 47.6271C144.767 47.2655 144.31 46.8191 143.993 46.288V52.407H142.451V38.7114H143.993V40.4233ZM150.299 43.3218C150.299 42.6212 150.158 42.011 149.875 41.4912C149.593 40.9714 149.208 40.5759 148.722 40.3047C148.248 40.0335 147.722 39.8979 147.146 39.8979C146.581 39.8979 146.056 40.0391 145.57 40.3216C145.095 40.5928 144.711 40.994 144.417 41.5251C144.135 42.0449 143.993 42.6494 143.993 43.3387C143.993 44.0393 144.135 44.6552 144.417 45.1863C144.711 45.7061 145.095 46.1072 145.57 46.3897C146.056 46.6609 146.581 46.7965 147.146 46.7965C147.722 46.7965 148.248 46.6609 148.722 46.3897C149.208 46.1072 149.593 45.7061 149.875 45.1863C150.158 44.6552 150.299 44.0337 150.299 43.3218ZM157.194 48.1526C156.482 48.1526 155.843 48.0339 155.278 47.7966C154.713 47.548 154.267 47.209 153.939 46.7796C153.612 46.3389 153.431 45.836 153.397 45.271H154.99C155.035 45.7343 155.25 46.1129 155.634 46.4067C156.03 46.7005 156.544 46.8474 157.177 46.8474C157.764 46.8474 158.228 46.7174 158.567 46.4575C158.906 46.1976 159.075 45.8699 159.075 45.4744C159.075 45.0676 158.894 44.7682 158.533 44.5761C158.171 44.3727 157.612 44.1749 156.855 43.9828C156.165 43.802 155.6 43.6212 155.16 43.4404C154.73 43.2483 154.357 42.9715 154.041 42.6099C153.736 42.237 153.583 41.7511 153.583 41.1522C153.583 40.6776 153.725 40.2425 154.007 39.847C154.29 39.4515 154.691 39.1408 155.211 38.9148C155.73 38.6775 156.324 38.5588 156.99 38.5588C158.019 38.5588 158.849 38.8187 159.482 39.3385C160.115 39.8583 160.454 40.5702 160.499 41.4742H158.957C158.923 40.9883 158.725 40.5985 158.363 40.3047C158.013 40.0109 157.538 39.864 156.939 39.864C156.386 39.864 155.945 39.9826 155.617 40.2199C155.29 40.4572 155.126 40.768 155.126 41.1522C155.126 41.4573 155.222 41.7115 155.414 41.9149C155.617 42.107 155.866 42.2652 156.16 42.3895C156.465 42.5025 156.883 42.6325 157.414 42.7794C158.081 42.9602 158.623 43.141 159.041 43.3218C159.459 43.4913 159.815 43.7512 160.109 44.1015C160.414 44.4518 160.572 44.9094 160.584 45.4744C160.584 45.9829 160.442 46.4406 160.16 46.8474C159.877 47.2542 159.476 47.5762 158.957 47.8135C158.448 48.0396 157.86 48.1526 157.194 48.1526ZM170.999 38.7114V48H169.456V46.627C169.163 47.1016 168.75 47.4745 168.219 47.7457C167.699 48.0057 167.123 48.1356 166.49 48.1356C165.767 48.1356 165.117 47.9887 164.541 47.6949C163.965 47.3898 163.507 46.9378 163.168 46.3389C162.84 45.74 162.676 45.0111 162.676 44.1523V38.7114H164.202V43.9489C164.202 44.8642 164.434 45.5705 164.897 46.0677C165.36 46.5536 165.993 46.7965 166.795 46.7965C167.62 46.7965 168.27 46.5423 168.745 46.0338C169.219 45.5253 169.456 44.7851 169.456 43.8133V38.7114H170.999ZM184.773 38.5419C185.496 38.5419 186.141 38.6944 186.706 38.9995C187.271 39.2933 187.717 39.7397 188.045 40.3386C188.372 40.9375 188.536 41.6663 188.536 42.5251V48H187.011V42.7455C187.011 41.8189 186.779 41.1126 186.316 40.6267C185.864 40.1295 185.248 39.8809 184.468 39.8809C183.666 39.8809 183.027 40.1408 182.553 40.6606C182.078 41.1691 181.841 41.9093 181.841 42.8811V48H180.315V42.7455C180.315 41.8189 180.084 41.1126 179.62 40.6267C179.168 40.1295 178.553 39.8809 177.773 39.8809C176.971 39.8809 176.332 40.1408 175.858 40.6606C175.383 41.1691 175.146 41.9093 175.146 42.8811V48H173.603V38.7114H175.146V40.0504C175.451 39.5645 175.858 39.1916 176.366 38.9317C176.886 38.6718 177.457 38.5419 178.078 38.5419C178.858 38.5419 179.547 38.717 180.146 39.0673C180.745 39.4176 181.191 39.9318 181.485 40.6098C181.745 39.9544 182.174 39.4459 182.773 39.0843C183.372 38.7227 184.039 38.5419 184.773 38.5419Z" fill="white"/>
<g clip-path="url(#clip1)">
<path d="M220.737 42.5C220.737 43.7725 221.772 44.8077 223.044 44.8077C224.317 44.8077 225.352 43.7725 225.352 42.5C225.352 41.2274 224.317 40.1923 223.044 40.1923C221.772 40.1923 220.737 41.2274 220.737 42.5Z" fill="white"/>
<path d="M220.737 50.1923C220.737 51.4649 221.772 52.5 223.044 52.5C224.317 52.5 225.352 51.4649 225.352 50.1923C225.352 48.9197 224.317 47.8846 223.044 47.8846C221.772 47.8846 220.737 48.9197 220.737 50.1923Z" fill="white"/>
<path d="M220.737 34.8077C220.737 36.0803 221.772 37.1154 223.044 37.1154C224.317 37.1154 225.352 36.0803 225.352 34.8077C225.352 33.5351 224.317 32.5 223.044 32.5C221.772 32.5 220.737 33.5351 220.737 34.8077Z" fill="white"/>
</g>
<rect width="233" height="45" transform="translate(20 185)" fill="#172A59"/>
<g clip-path="url(#clip2)">
<path d="M54.9493 206.944H50.5198V202.5C50.5198 202.353 50.4615 202.211 50.3577 202.107C50.2538 202.003 50.113 201.944 49.9662 201.944C49.8193 201.944 49.6785 202.003 49.5747 202.107C49.4708 202.211 49.4125 202.353 49.4125 202.5V206.944H44.9831C44.8362 206.944 44.6954 207.003 44.5916 207.107C44.4877 207.211 44.4294 207.353 44.4294 207.5C44.4294 207.647 44.4877 207.789 44.5916 207.893C44.6954 207.997 44.8362 208.056 44.9831 208.056H49.4125V212.5C49.4125 212.647 49.4708 212.789 49.5747 212.893C49.6785 212.997 49.8193 213.056 49.9662 213.056C50.113 213.056 50.2538 212.997 50.3577 212.893C50.4615 212.789 50.5198 212.647 50.5198 212.5V208.056H54.9493C55.0961 208.056 55.237 207.997 55.3408 207.893C55.4446 207.789 55.503 207.647 55.503 207.5C55.503 207.353 55.4446 207.211 55.3408 207.107C55.237 207.003 55.0961 206.944 54.9493 206.944Z" fill="white"/>
<path d="M49.9662 197.5C47.9951 197.5 46.0682 198.086 44.4293 199.185C42.7904 200.284 41.513 201.846 40.7586 203.673C40.0043 205.5 39.807 207.511 40.1915 209.451C40.5761 211.391 41.5252 213.173 42.919 214.571C44.3128 215.97 46.0887 216.922 48.0219 217.308C49.9552 217.694 51.959 217.496 53.7801 216.739C55.6012 215.982 57.1577 214.7 58.2528 213.056C59.3479 211.411 59.9324 209.478 59.9324 207.5C59.9294 204.849 58.8784 202.307 57.01 200.432C55.1416 198.558 52.6085 197.503 49.9662 197.5ZM49.9662 216.389C48.2141 216.389 46.5013 215.868 45.0445 214.891C43.5877 213.914 42.4522 212.526 41.7817 210.902C41.1112 209.277 40.9358 207.49 41.2776 205.766C41.6194 204.042 42.4631 202.458 43.7021 201.215C44.941 199.971 46.5195 199.125 48.2379 198.782C49.9564 198.439 51.7376 198.615 53.3564 199.288C54.9751 199.961 56.3587 201.1 57.3321 202.562C58.3055 204.023 58.8251 205.742 58.8251 207.5C58.8223 209.857 57.8881 212.116 56.2273 213.782C54.5666 215.449 52.3149 216.386 49.9662 216.389Z" fill="white"/>
</g>
<path d="M82.8476 211.746H86.9834V213H81.3052V201.186H82.8476V211.746ZM92.6725 213.153C91.8024 213.153 91.0114 212.955 90.2995 212.559C89.5989 212.164 89.0452 211.604 88.6384 210.881C88.2429 210.147 88.0452 209.299 88.0452 208.339C88.0452 207.39 88.2486 206.553 88.6554 205.83C89.0735 205.096 89.6385 204.536 90.3504 204.152C91.0623 203.757 91.8589 203.559 92.7403 203.559C93.6217 203.559 94.4184 203.757 95.1303 204.152C95.8422 204.536 96.4015 205.09 96.8083 205.813C97.2264 206.536 97.4355 207.378 97.4355 208.339C97.4355 209.299 97.2208 210.147 96.7914 210.881C96.3733 211.604 95.8026 212.164 95.0794 212.559C94.3562 212.955 93.5539 213.153 92.6725 213.153ZM92.6725 211.797C93.2262 211.797 93.746 211.667 94.2319 211.407C94.7178 211.147 95.1077 210.757 95.4015 210.237C95.7066 209.717 95.8591 209.085 95.8591 208.339C95.8591 207.593 95.7122 206.96 95.4184 206.44C95.1246 205.921 94.7404 205.536 94.2658 205.288C93.7912 205.028 93.2771 204.898 92.7234 204.898C92.1584 204.898 91.6386 205.028 91.164 205.288C90.7007 205.536 90.3278 205.921 90.0453 206.44C89.7628 206.96 89.6215 207.593 89.6215 208.339C89.6215 209.096 89.7571 209.734 90.0283 210.254C90.3108 210.774 90.6837 211.164 91.147 211.424C91.6103 211.672 92.1188 211.797 92.6725 211.797ZM101.006 205.22C101.277 204.689 101.661 204.276 102.159 203.983C102.667 203.689 103.283 203.542 104.006 203.542V205.135H103.599C101.87 205.135 101.006 206.073 101.006 207.949V213H99.4635V203.711H101.006V205.22ZM114.262 208C114.262 208.294 114.245 208.604 114.211 208.932H106.787C106.843 209.847 107.154 210.565 107.719 211.085C108.295 211.593 108.99 211.847 109.804 211.847C110.47 211.847 111.024 211.695 111.465 211.39C111.917 211.073 112.233 210.655 112.414 210.135H114.075C113.827 211.028 113.329 211.757 112.584 212.322C111.838 212.876 110.911 213.153 109.804 213.153C108.922 213.153 108.131 212.955 107.431 212.559C106.741 212.164 106.199 211.604 105.804 210.881C105.408 210.147 105.21 209.299 105.21 208.339C105.21 207.378 105.402 206.536 105.787 205.813C106.171 205.09 106.708 204.536 107.397 204.152C108.097 203.757 108.9 203.559 109.804 203.559C110.685 203.559 111.465 203.751 112.143 204.135C112.821 204.519 113.341 205.05 113.702 205.728C114.075 206.395 114.262 207.152 114.262 208ZM112.668 207.678C112.668 207.09 112.538 206.587 112.278 206.169C112.019 205.74 111.663 205.418 111.211 205.203C110.77 204.977 110.278 204.864 109.736 204.864C108.956 204.864 108.29 205.113 107.736 205.61C107.193 206.107 106.883 206.796 106.804 207.678H112.668ZM127.468 203.542C128.191 203.542 128.835 203.694 129.4 204C129.965 204.293 130.411 204.74 130.739 205.339C131.067 205.937 131.231 206.666 131.231 207.525V213H129.705V207.745C129.705 206.819 129.473 206.113 129.01 205.627C128.558 205.13 127.942 204.881 127.163 204.881C126.36 204.881 125.722 205.141 125.247 205.661C124.773 206.169 124.535 206.909 124.535 207.881V213H123.01V207.745C123.01 206.819 122.778 206.113 122.315 205.627C121.863 205.13 121.247 204.881 120.467 204.881C119.665 204.881 119.027 205.141 118.552 205.661C118.077 206.169 117.84 206.909 117.84 207.881V213H116.298V203.711H117.84V205.05C118.145 204.565 118.552 204.192 119.06 203.932C119.58 203.672 120.151 203.542 120.772 203.542C121.552 203.542 122.241 203.717 122.84 204.067C123.439 204.418 123.886 204.932 124.179 205.61C124.439 204.954 124.869 204.446 125.468 204.084C126.066 203.723 126.733 203.542 127.468 203.542ZM139.076 202.203C138.783 202.203 138.534 202.101 138.331 201.898C138.127 201.694 138.025 201.446 138.025 201.152C138.025 200.858 138.127 200.61 138.331 200.406C138.534 200.203 138.783 200.101 139.076 200.101C139.359 200.101 139.596 200.203 139.788 200.406C139.992 200.61 140.093 200.858 140.093 201.152C140.093 201.446 139.992 201.694 139.788 201.898C139.596 202.101 139.359 202.203 139.076 202.203ZM139.822 203.711V213H138.28V203.711H139.822ZM143.993 205.423C144.299 204.892 144.751 204.452 145.349 204.101C145.96 203.74 146.666 203.559 147.468 203.559C148.293 203.559 149.039 203.757 149.706 204.152C150.384 204.548 150.915 205.107 151.299 205.83C151.683 206.542 151.875 207.373 151.875 208.322C151.875 209.26 151.683 210.096 151.299 210.83C150.915 211.565 150.384 212.136 149.706 212.542C149.039 212.949 148.293 213.153 147.468 213.153C146.677 213.153 145.977 212.977 145.366 212.627C144.767 212.265 144.31 211.819 143.993 211.288V217.407H142.451V203.711H143.993V205.423ZM150.299 208.322C150.299 207.621 150.158 207.011 149.875 206.491C149.593 205.971 149.208 205.576 148.722 205.305C148.248 205.033 147.722 204.898 147.146 204.898C146.581 204.898 146.056 205.039 145.57 205.322C145.095 205.593 144.711 205.994 144.417 206.525C144.135 207.045 143.993 207.649 143.993 208.339C143.993 209.039 144.135 209.655 144.417 210.186C144.711 210.706 145.095 211.107 145.57 211.39C146.056 211.661 146.581 211.797 147.146 211.797C147.722 211.797 148.248 211.661 148.722 211.39C149.208 211.107 149.593 210.706 149.875 210.186C150.158 209.655 150.299 209.034 150.299 208.322ZM157.194 213.153C156.482 213.153 155.843 213.034 155.278 212.797C154.713 212.548 154.267 212.209 153.939 211.78C153.612 211.339 153.431 210.836 153.397 210.271H154.99C155.035 210.734 155.25 211.113 155.634 211.407C156.03 211.7 156.544 211.847 157.177 211.847C157.764 211.847 158.228 211.717 158.567 211.458C158.906 211.198 159.075 210.87 159.075 210.474C159.075 210.068 158.894 209.768 158.533 209.576C158.171 209.373 157.612 209.175 156.855 208.983C156.165 208.802 155.6 208.621 155.16 208.44C154.73 208.248 154.357 207.971 154.041 207.61C153.736 207.237 153.583 206.751 153.583 206.152C153.583 205.678 153.725 205.243 154.007 204.847C154.29 204.452 154.691 204.141 155.211 203.915C155.73 203.677 156.324 203.559 156.99 203.559C158.019 203.559 158.849 203.819 159.482 204.339C160.115 204.858 160.454 205.57 160.499 206.474H158.957C158.923 205.988 158.725 205.598 158.363 205.305C158.013 205.011 157.538 204.864 156.939 204.864C156.386 204.864 155.945 204.983 155.617 205.22C155.29 205.457 155.126 205.768 155.126 206.152C155.126 206.457 155.222 206.712 155.414 206.915C155.617 207.107 155.866 207.265 156.16 207.39C156.465 207.503 156.883 207.632 157.414 207.779C158.081 207.96 158.623 208.141 159.041 208.322C159.459 208.491 159.815 208.751 160.109 209.101C160.414 209.452 160.572 209.909 160.584 210.474C160.584 210.983 160.442 211.441 160.16 211.847C159.877 212.254 159.476 212.576 158.957 212.814C158.448 213.04 157.86 213.153 157.194 213.153ZM170.999 203.711V213H169.456V211.627C169.163 212.102 168.75 212.475 168.219 212.746C167.699 213.006 167.123 213.136 166.49 213.136C165.767 213.136 165.117 212.989 164.541 212.695C163.965 212.39 163.507 211.938 163.168 211.339C162.84 210.74 162.676 210.011 162.676 209.152V203.711H164.202V208.949C164.202 209.864 164.434 210.57 164.897 211.068C165.36 211.554 165.993 211.797 166.795 211.797C167.62 211.797 168.27 211.542 168.745 211.034C169.219 210.525 169.456 209.785 169.456 208.813V203.711H170.999ZM184.773 203.542C185.496 203.542 186.141 203.694 186.706 204C187.271 204.293 187.717 204.74 188.045 205.339C188.372 205.937 188.536 206.666 188.536 207.525V213H187.011V207.745C187.011 206.819 186.779 206.113 186.316 205.627C185.864 205.13 185.248 204.881 184.468 204.881C183.666 204.881 183.027 205.141 182.553 205.661C182.078 206.169 181.841 206.909 181.841 207.881V213H180.315V207.745C180.315 206.819 180.084 206.113 179.62 205.627C179.168 205.13 178.553 204.881 177.773 204.881C176.971 204.881 176.332 205.141 175.858 205.661C175.383 206.169 175.146 206.909 175.146 207.881V213H173.603V203.711H175.146V205.05C175.451 204.565 175.858 204.192 176.366 203.932C176.886 203.672 177.457 203.542 178.078 203.542C178.858 203.542 179.547 203.717 180.146 204.067C180.745 204.418 181.191 204.932 181.485 205.61C181.745 204.954 182.174 204.446 182.773 204.084C183.372 203.723 184.039 203.542 184.773 203.542Z" fill="white"/>
<g clip-path="url(#clip3)">
<path d="M220.737 207.5C220.737 208.773 221.772 209.808 223.044 209.808C224.317 209.808 225.352 208.773 225.352 207.5C225.352 206.227 224.317 205.192 223.044 205.192C221.772 205.192 220.737 206.227 220.737 207.5Z" fill="white"/>
<path d="M220.737 215.192C220.737 216.465 221.772 217.5 223.044 217.5C224.317 217.5 225.352 216.465 225.352 215.192C225.352 213.92 224.317 212.885 223.044 212.885C221.772 212.885 220.737 213.92 220.737 215.192Z" fill="white"/>
<path d="M220.737 199.808C220.737 201.08 221.772 202.115 223.044 202.115C224.317 202.115 225.352 201.08 225.352 199.808C225.352 198.535 224.317 197.5 223.044 197.5C221.772 197.5 220.737 198.535 220.737 199.808Z" fill="white"/>
</g>
<rect width="233" height="45" transform="translate(20 75)" fill="#FA5200"/>
<g clip-path="url(#clip4)">
<path d="M54.9493 96.9445H50.5198V92.5C50.5198 92.3527 50.4615 92.2114 50.3577 92.1072C50.2538 92.003 50.113 91.9445 49.9662 91.9445C49.8193 91.9445 49.6785 92.003 49.5747 92.1072C49.4708 92.2114 49.4125 92.3527 49.4125 92.5V96.9445H44.9831C44.8362 96.9445 44.6954 97.003 44.5916 97.1072C44.4877 97.2114 44.4294 97.3527 44.4294 97.5C44.4294 97.6474 44.4877 97.7887 44.5916 97.8929C44.6954 97.997 44.8362 98.0556 44.9831 98.0556H49.4125V102.5C49.4125 102.647 49.4708 102.789 49.5747 102.893C49.6785 102.997 49.8193 103.056 49.9662 103.056C50.113 103.056 50.2538 102.997 50.3577 102.893C50.4615 102.789 50.5198 102.647 50.5198 102.5V98.0556H54.9493C55.0961 98.0556 55.237 97.997 55.3408 97.8929C55.4446 97.7887 55.503 97.6474 55.503 97.5C55.503 97.3527 55.4446 97.2114 55.3408 97.1072C55.237 97.003 55.0961 96.9445 54.9493 96.9445Z" fill="white"/>
<path d="M49.9662 87.5C47.9951 87.5 46.0682 88.0865 44.4293 89.1853C42.7904 90.2841 41.513 91.8459 40.7586 93.6732C40.0043 95.5004 39.807 97.5111 40.1915 99.4509C40.5761 101.391 41.5252 103.173 42.919 104.571C44.3128 105.97 46.0887 106.922 48.0219 107.308C49.9552 107.694 51.959 107.496 53.7801 106.739C55.6012 105.982 57.1577 104.7 58.2528 103.056C59.3479 101.411 59.9324 99.4778 59.9324 97.5C59.9294 94.8488 58.8784 92.307 57.01 90.4323C55.1416 88.5576 52.6085 87.5031 49.9662 87.5ZM49.9662 106.389C48.2141 106.389 46.5013 105.868 45.0445 104.891C43.5877 103.914 42.4522 102.526 41.7817 100.902C41.1112 99.2774 40.9358 97.4901 41.2776 95.7659C41.6194 94.0416 42.4631 92.4577 43.7021 91.2146C44.941 89.9715 46.5195 89.1249 48.2379 88.7819C49.9564 88.4389 51.7376 88.615 53.3564 89.2877C54.9751 89.9605 56.3587 91.0998 57.3321 92.5616C58.3055 94.0234 58.8251 95.7419 58.8251 97.5C58.8223 99.8566 57.8881 102.116 56.2273 103.782C54.5666 105.449 52.3149 106.386 49.9662 106.389Z" fill="white"/>
</g>
<path d="M82.8476 101.746H86.9834V103H81.3052V91.1858H82.8476V101.746ZM92.6725 103.153C91.8024 103.153 91.0114 102.955 90.2995 102.559C89.5989 102.164 89.0452 101.604 88.6384 100.881C88.2429 100.147 88.0452 99.2992 88.0452 98.3387C88.0452 97.3895 88.2486 96.5533 88.6554 95.8301C89.0735 95.0956 89.6385 94.5363 90.3504 94.1521C91.0623 93.7566 91.8589 93.5588 92.7403 93.5588C93.6217 93.5588 94.4184 93.7566 95.1303 94.1521C95.8422 94.5363 96.4015 95.09 96.8083 95.8132C97.2264 96.5364 97.4355 97.3782 97.4355 98.3387C97.4355 99.2992 97.2208 100.147 96.7914 100.881C96.3733 101.604 95.8026 102.164 95.0794 102.559C94.3562 102.955 93.5539 103.153 92.6725 103.153ZM92.6725 101.797C93.2262 101.797 93.746 101.667 94.2319 101.407C94.7178 101.147 95.1077 100.757 95.4015 100.237C95.7066 99.7173 95.8591 99.0845 95.8591 98.3387C95.8591 97.5929 95.7122 96.9601 95.4184 96.4403C95.1246 95.9205 94.7404 95.5363 94.2658 95.2877C93.7912 95.0278 93.2771 94.8979 92.7234 94.8979C92.1584 94.8979 91.6386 95.0278 91.164 95.2877C90.7007 95.5363 90.3278 95.9205 90.0453 96.4403C89.7628 96.9601 89.6215 97.5929 89.6215 98.3387C89.6215 99.0958 89.7571 99.7343 90.0283 100.254C90.3108 100.774 90.6837 101.164 91.147 101.424C91.6103 101.672 92.1188 101.797 92.6725 101.797ZM101.006 95.2199C101.277 94.6888 101.661 94.2764 102.159 93.9826C102.667 93.6888 103.283 93.5419 104.006 93.5419V95.1352H103.599C101.87 95.1352 101.006 96.0731 101.006 97.9489V103H99.4635V93.7114H101.006V95.2199ZM114.262 97.9997C114.262 98.2935 114.245 98.6043 114.211 98.932H106.787C106.843 99.8473 107.154 100.565 107.719 101.085C108.295 101.593 108.99 101.847 109.804 101.847C110.47 101.847 111.024 101.695 111.465 101.39C111.917 101.073 112.233 100.655 112.414 100.135H114.075C113.827 101.028 113.329 101.757 112.584 102.322C111.838 102.876 110.911 103.153 109.804 103.153C108.922 103.153 108.131 102.955 107.431 102.559C106.741 102.164 106.199 101.604 105.804 100.881C105.408 100.147 105.21 99.2992 105.21 98.3387C105.21 97.3782 105.402 96.5364 105.787 95.8132C106.171 95.09 106.708 94.5363 107.397 94.1521C108.097 93.7566 108.9 93.5588 109.804 93.5588C110.685 93.5588 111.465 93.7509 112.143 94.1351C112.821 94.5193 113.341 95.0504 113.702 95.7284C114.075 96.3951 114.262 97.1522 114.262 97.9997ZM112.668 97.6777C112.668 97.0901 112.538 96.5872 112.278 96.1691C112.019 95.7397 111.663 95.4177 111.211 95.203C110.77 94.977 110.278 94.864 109.736 94.864C108.956 94.864 108.29 95.1126 107.736 95.6098C107.193 96.107 106.883 96.7963 106.804 97.6777H112.668ZM127.468 93.5419C128.191 93.5419 128.835 93.6944 129.4 93.9995C129.965 94.2933 130.411 94.7397 130.739 95.3386C131.067 95.9375 131.231 96.6663 131.231 97.5251V103H129.705V97.7455C129.705 96.8189 129.473 96.1126 129.01 95.6267C128.558 95.1295 127.942 94.8809 127.163 94.8809C126.36 94.8809 125.722 95.1408 125.247 95.6606C124.773 96.1691 124.535 96.9093 124.535 97.8811V103H123.01V97.7455C123.01 96.8189 122.778 96.1126 122.315 95.6267C121.863 95.1295 121.247 94.8809 120.467 94.8809C119.665 94.8809 119.027 95.1408 118.552 95.6606C118.077 96.1691 117.84 96.9093 117.84 97.8811V103H116.298V93.7114H117.84V95.0504C118.145 94.5645 118.552 94.1916 119.06 93.9317C119.58 93.6718 120.151 93.5419 120.772 93.5419C121.552 93.5419 122.241 93.717 122.84 94.0673C123.439 94.4176 123.886 94.9318 124.179 95.6098C124.439 94.9544 124.869 94.4459 125.468 94.0843C126.066 93.7227 126.733 93.5419 127.468 93.5419ZM139.076 92.2028C138.783 92.2028 138.534 92.1011 138.331 91.8977C138.127 91.6943 138.025 91.4457 138.025 91.1519C138.025 90.8581 138.127 90.6095 138.331 90.4061C138.534 90.2027 138.783 90.101 139.076 90.101C139.359 90.101 139.596 90.2027 139.788 90.4061C139.992 90.6095 140.093 90.8581 140.093 91.1519C140.093 91.4457 139.992 91.6943 139.788 91.8977C139.596 92.1011 139.359 92.2028 139.076 92.2028ZM139.822 93.7114V103H138.28V93.7114H139.822ZM143.993 95.4233C144.299 94.8922 144.751 94.4515 145.349 94.1012C145.96 93.7396 146.666 93.5588 147.468 93.5588C148.293 93.5588 149.039 93.7566 149.706 94.1521C150.384 94.5476 150.915 95.1069 151.299 95.8301C151.683 96.542 151.875 97.3726 151.875 98.3218C151.875 99.2597 151.683 100.096 151.299 100.83C150.915 101.565 150.384 102.136 149.706 102.542C149.039 102.949 148.293 103.153 147.468 103.153C146.677 103.153 145.977 102.977 145.366 102.627C144.767 102.265 144.31 101.819 143.993 101.288V107.407H142.451V93.7114H143.993V95.4233ZM150.299 98.3218C150.299 97.6212 150.158 97.011 149.875 96.4912C149.593 95.9714 149.208 95.5759 148.722 95.3047C148.248 95.0335 147.722 94.8979 147.146 94.8979C146.581 94.8979 146.056 95.0391 145.57 95.3216C145.095 95.5928 144.711 95.994 144.417 96.5251C144.135 97.0449 143.993 97.6494 143.993 98.3387C143.993 99.0393 144.135 99.6552 144.417 100.186C144.711 100.706 145.095 101.107 145.57 101.39C146.056 101.661 146.581 101.797 147.146 101.797C147.722 101.797 148.248 101.661 148.722 101.39C149.208 101.107 149.593 100.706 149.875 100.186C150.158 99.6552 150.299 99.0337 150.299 98.3218ZM157.194 103.153C156.482 103.153 155.843 103.034 155.278 102.797C154.713 102.548 154.267 102.209 153.939 101.78C153.612 101.339 153.431 100.836 153.397 100.271H154.99C155.035 100.734 155.25 101.113 155.634 101.407C156.03 101.7 156.544 101.847 157.177 101.847C157.764 101.847 158.228 101.717 158.567 101.458C158.906 101.198 159.075 100.87 159.075 100.474C159.075 100.068 158.894 99.7682 158.533 99.5761C158.171 99.3727 157.612 99.1749 156.855 98.9828C156.165 98.802 155.6 98.6212 155.16 98.4404C154.73 98.2483 154.357 97.9715 154.041 97.6099C153.736 97.237 153.583 96.7511 153.583 96.1522C153.583 95.6776 153.725 95.2425 154.007 94.847C154.29 94.4515 154.691 94.1408 155.211 93.9148C155.73 93.6775 156.324 93.5588 156.99 93.5588C158.019 93.5588 158.849 93.8187 159.482 94.3385C160.115 94.8583 160.454 95.5702 160.499 96.4742H158.957C158.923 95.9883 158.725 95.5985 158.363 95.3047C158.013 95.0109 157.538 94.864 156.939 94.864C156.386 94.864 155.945 94.9826 155.617 95.2199C155.29 95.4572 155.126 95.768 155.126 96.1522C155.126 96.4573 155.222 96.7115 155.414 96.9149C155.617 97.107 155.866 97.2652 156.16 97.3895C156.465 97.5025 156.883 97.6325 157.414 97.7794C158.081 97.9602 158.623 98.141 159.041 98.3218C159.459 98.4913 159.815 98.7512 160.109 99.1015C160.414 99.4518 160.572 99.9094 160.584 100.474C160.584 100.983 160.442 101.441 160.16 101.847C159.877 102.254 159.476 102.576 158.957 102.814C158.448 103.04 157.86 103.153 157.194 103.153ZM170.999 93.7114V103H169.456V101.627C169.163 102.102 168.75 102.475 168.219 102.746C167.699 103.006 167.123 103.136 166.49 103.136C165.767 103.136 165.117 102.989 164.541 102.695C163.965 102.39 163.507 101.938 163.168 101.339C162.84 100.74 162.676 100.011 162.676 99.1523V93.7114H164.202V98.9489C164.202 99.8642 164.434 100.57 164.897 101.068C165.36 101.554 165.993 101.797 166.795 101.797C167.62 101.797 168.27 101.542 168.745 101.034C169.219 100.525 169.456 99.7851 169.456 98.8133V93.7114H170.999ZM184.773 93.5419C185.496 93.5419 186.141 93.6944 186.706 93.9995C187.271 94.2933 187.717 94.7397 188.045 95.3386C188.372 95.9375 188.536 96.6663 188.536 97.5251V103H187.011V97.7455C187.011 96.8189 186.779 96.1126 186.316 95.6267C185.864 95.1295 185.248 94.8809 184.468 94.8809C183.666 94.8809 183.027 95.1408 182.553 95.6606C182.078 96.1691 181.841 96.9093 181.841 97.8811V103H180.315V97.7455C180.315 96.8189 180.084 96.1126 179.62 95.6267C179.168 95.1295 178.553 94.8809 177.773 94.8809C176.971 94.8809 176.332 95.1408 175.858 95.6606C175.383 96.1691 175.146 96.9093 175.146 97.8811V103H173.603V93.7114H175.146V95.0504C175.451 94.5645 175.858 94.1916 176.366 93.9317C176.886 93.6718 177.457 93.5419 178.078 93.5419C178.858 93.5419 179.547 93.717 180.146 94.0673C180.745 94.4176 181.191 94.9318 181.485 95.6098C181.745 94.9544 182.174 94.4459 182.773 94.0843C183.372 93.7227 184.039 93.5419 184.773 93.5419Z" fill="white"/>
<g clip-path="url(#clip5)">
<path d="M220.737 97.5C220.737 98.7725 221.772 99.8077 223.044 99.8077C224.317 99.8077 225.352 98.7725 225.352 97.5C225.352 96.2274 224.317 95.1923 223.044 95.1923C221.772 95.1923 220.737 96.2274 220.737 97.5Z" fill="white"/>
<path d="M220.737 105.192C220.737 106.465 221.772 107.5 223.044 107.5C224.317 107.5 225.352 106.465 225.352 105.192C225.352 103.92 224.317 102.885 223.044 102.885C221.772 102.885 220.737 103.92 220.737 105.192Z" fill="white"/>
<path d="M220.737 89.8077C220.737 91.0803 221.772 92.1154 223.044 92.1154C224.317 92.1154 225.352 91.0803 225.352 89.8077C225.352 88.5351 224.317 87.5 223.044 87.5C221.772 87.5 220.737 88.5351 220.737 89.8077Z" fill="white"/>
</g>
<g clip-path="url(#clip6)">
<path d="M54.9493 151.944H50.5198V147.5C50.5198 147.353 50.4615 147.211 50.3577 147.107C50.2538 147.003 50.113 146.944 49.9662 146.944C49.8193 146.944 49.6785 147.003 49.5747 147.107C49.4708 147.211 49.4125 147.353 49.4125 147.5V151.944H44.9831C44.8362 151.944 44.6954 152.003 44.5916 152.107C44.4877 152.211 44.4294 152.353 44.4294 152.5C44.4294 152.647 44.4877 152.789 44.5916 152.893C44.6954 152.997 44.8362 153.056 44.9831 153.056H49.4125V157.5C49.4125 157.647 49.4708 157.789 49.5747 157.893C49.6785 157.997 49.8193 158.056 49.9662 158.056C50.113 158.056 50.2538 157.997 50.3577 157.893C50.4615 157.789 50.5198 157.647 50.5198 157.5V153.056H54.9493C55.0961 153.056 55.237 152.997 55.3408 152.893C55.4446 152.789 55.503 152.647 55.503 152.5C55.503 152.353 55.4446 152.211 55.3408 152.107C55.237 152.003 55.0961 151.944 54.9493 151.944Z" fill="#172A59"/>
<path d="M49.9662 142.5C47.9951 142.5 46.0682 143.086 44.4293 144.185C42.7904 145.284 41.513 146.846 40.7586 148.673C40.0043 150.5 39.807 152.511 40.1915 154.451C40.5761 156.391 41.5252 158.173 42.919 159.571C44.3128 160.97 46.0887 161.922 48.0219 162.308C49.9552 162.694 51.959 162.496 53.7801 161.739C55.6012 160.982 57.1577 159.7 58.2528 158.056C59.3479 156.411 59.9324 154.478 59.9324 152.5C59.9294 149.849 58.8784 147.307 57.01 145.432C55.1416 143.558 52.6085 142.503 49.9662 142.5ZM49.9662 161.389C48.2141 161.389 46.5013 160.868 45.0445 159.891C43.5877 158.914 42.4522 157.526 41.7817 155.902C41.1112 154.277 40.9358 152.49 41.2776 150.766C41.6194 149.042 42.4631 147.458 43.7021 146.215C44.941 144.971 46.5195 144.125 48.2379 143.782C49.9564 143.439 51.7376 143.615 53.3564 144.288C54.9751 144.961 56.3587 146.1 57.3321 147.562C58.3055 149.023 58.8251 150.742 58.8251 152.5C58.8223 154.857 57.8881 157.116 56.2273 158.782C54.5666 160.449 52.3149 161.386 49.9662 161.389Z" fill="#172A59"/>
</g>
<path d="M82.8476 156.746H86.9834V158H81.3052V146.186H82.8476V156.746ZM92.6725 158.153C91.8024 158.153 91.0114 157.955 90.2995 157.559C89.5989 157.164 89.0452 156.604 88.6384 155.881C88.2429 155.147 88.0452 154.299 88.0452 153.339C88.0452 152.39 88.2486 151.553 88.6554 150.83C89.0735 150.096 89.6385 149.536 90.3504 149.152C91.0623 148.757 91.8589 148.559 92.7403 148.559C93.6217 148.559 94.4184 148.757 95.1303 149.152C95.8422 149.536 96.4015 150.09 96.8083 150.813C97.2264 151.536 97.4355 152.378 97.4355 153.339C97.4355 154.299 97.2208 155.147 96.7914 155.881C96.3733 156.604 95.8026 157.164 95.0794 157.559C94.3562 157.955 93.5539 158.153 92.6725 158.153ZM92.6725 156.797C93.2262 156.797 93.746 156.667 94.2319 156.407C94.7178 156.147 95.1077 155.757 95.4015 155.237C95.7066 154.717 95.8591 154.085 95.8591 153.339C95.8591 152.593 95.7122 151.96 95.4184 151.44C95.1246 150.921 94.7404 150.536 94.2658 150.288C93.7912 150.028 93.2771 149.898 92.7234 149.898C92.1584 149.898 91.6386 150.028 91.164 150.288C90.7007 150.536 90.3278 150.921 90.0453 151.44C89.7628 151.96 89.6215 152.593 89.6215 153.339C89.6215 154.096 89.7571 154.734 90.0283 155.254C90.3108 155.774 90.6837 156.164 91.147 156.424C91.6103 156.672 92.1188 156.797 92.6725 156.797ZM101.006 150.22C101.277 149.689 101.661 149.276 102.159 148.983C102.667 148.689 103.283 148.542 104.006 148.542V150.135H103.599C101.87 150.135 101.006 151.073 101.006 152.949V158H99.4635V148.711H101.006V150.22ZM114.262 153C114.262 153.294 114.245 153.604 114.211 153.932H106.787C106.843 154.847 107.154 155.565 107.719 156.085C108.295 156.593 108.99 156.847 109.804 156.847C110.47 156.847 111.024 156.695 111.465 156.39C111.917 156.073 112.233 155.655 112.414 155.135H114.075C113.827 156.028 113.329 156.757 112.584 157.322C111.838 157.876 110.911 158.153 109.804 158.153C108.922 158.153 108.131 157.955 107.431 157.559C106.741 157.164 106.199 156.604 105.804 155.881C105.408 155.147 105.21 154.299 105.21 153.339C105.21 152.378 105.402 151.536 105.787 150.813C106.171 150.09 106.708 149.536 107.397 149.152C108.097 148.757 108.9 148.559 109.804 148.559C110.685 148.559 111.465 148.751 112.143 149.135C112.821 149.519 113.341 150.05 113.702 150.728C114.075 151.395 114.262 152.152 114.262 153ZM112.668 152.678C112.668 152.09 112.538 151.587 112.278 151.169C112.019 150.74 111.663 150.418 111.211 150.203C110.77 149.977 110.278 149.864 109.736 149.864C108.956 149.864 108.29 150.113 107.736 150.61C107.193 151.107 106.883 151.796 106.804 152.678H112.668ZM127.468 148.542C128.191 148.542 128.835 148.694 129.4 149C129.965 149.293 130.411 149.74 130.739 150.339C131.067 150.937 131.231 151.666 131.231 152.525V158H129.705V152.745C129.705 151.819 129.473 151.113 129.01 150.627C128.558 150.13 127.942 149.881 127.163 149.881C126.36 149.881 125.722 150.141 125.247 150.661C124.773 151.169 124.535 151.909 124.535 152.881V158H123.01V152.745C123.01 151.819 122.778 151.113 122.315 150.627C121.863 150.13 121.247 149.881 120.467 149.881C119.665 149.881 119.027 150.141 118.552 150.661C118.077 151.169 117.84 151.909 117.84 152.881V158H116.298V148.711H117.84V150.05C118.145 149.565 118.552 149.192 119.06 148.932C119.58 148.672 120.151 148.542 120.772 148.542C121.552 148.542 122.241 148.717 122.84 149.067C123.439 149.418 123.886 149.932 124.179 150.61C124.439 149.954 124.869 149.446 125.468 149.084C126.066 148.723 126.733 148.542 127.468 148.542ZM139.076 147.203C138.783 147.203 138.534 147.101 138.331 146.898C138.127 146.694 138.025 146.446 138.025 146.152C138.025 145.858 138.127 145.61 138.331 145.406C138.534 145.203 138.783 145.101 139.076 145.101C139.359 145.101 139.596 145.203 139.788 145.406C139.992 145.61 140.093 145.858 140.093 146.152C140.093 146.446 139.992 146.694 139.788 146.898C139.596 147.101 139.359 147.203 139.076 147.203ZM139.822 148.711V158H138.28V148.711H139.822ZM143.993 150.423C144.299 149.892 144.751 149.452 145.349 149.101C145.96 148.74 146.666 148.559 147.468 148.559C148.293 148.559 149.039 148.757 149.706 149.152C150.384 149.548 150.915 150.107 151.299 150.83C151.683 151.542 151.875 152.373 151.875 153.322C151.875 154.26 151.683 155.096 151.299 155.83C150.915 156.565 150.384 157.136 149.706 157.542C149.039 157.949 148.293 158.153 147.468 158.153C146.677 158.153 145.977 157.977 145.366 157.627C144.767 157.265 144.31 156.819 143.993 156.288V162.407H142.451V148.711H143.993V150.423ZM150.299 153.322C150.299 152.621 150.158 152.011 149.875 151.491C149.593 150.971 149.208 150.576 148.722 150.305C148.248 150.033 147.722 149.898 147.146 149.898C146.581 149.898 146.056 150.039 145.57 150.322C145.095 150.593 144.711 150.994 144.417 151.525C144.135 152.045 143.993 152.649 143.993 153.339C143.993 154.039 144.135 154.655 144.417 155.186C144.711 155.706 145.095 156.107 145.57 156.39C146.056 156.661 146.581 156.797 147.146 156.797C147.722 156.797 148.248 156.661 148.722 156.39C149.208 156.107 149.593 155.706 149.875 155.186C150.158 154.655 150.299 154.034 150.299 153.322ZM157.194 158.153C156.482 158.153 155.843 158.034 155.278 157.797C154.713 157.548 154.267 157.209 153.939 156.78C153.612 156.339 153.431 155.836 153.397 155.271H154.99C155.035 155.734 155.25 156.113 155.634 156.407C156.03 156.7 156.544 156.847 157.177 156.847C157.764 156.847 158.228 156.717 158.567 156.458C158.906 156.198 159.075 155.87 159.075 155.474C159.075 155.068 158.894 154.768 158.533 154.576C158.171 154.373 157.612 154.175 156.855 153.983C156.165 153.802 155.6 153.621 155.16 153.44C154.73 153.248 154.357 152.971 154.041 152.61C153.736 152.237 153.583 151.751 153.583 151.152C153.583 150.678 153.725 150.243 154.007 149.847C154.29 149.452 154.691 149.141 155.211 148.915C155.73 148.677 156.324 148.559 156.99 148.559C158.019 148.559 158.849 148.819 159.482 149.339C160.115 149.858 160.454 150.57 160.499 151.474H158.957C158.923 150.988 158.725 150.598 158.363 150.305C158.013 150.011 157.538 149.864 156.939 149.864C156.386 149.864 155.945 149.983 155.617 150.22C155.29 150.457 155.126 150.768 155.126 151.152C155.126 151.457 155.222 151.712 155.414 151.915C155.617 152.107 155.866 152.265 156.16 152.39C156.465 152.503 156.883 152.632 157.414 152.779C158.081 152.96 158.623 153.141 159.041 153.322C159.459 153.491 159.815 153.751 160.109 154.101C160.414 154.452 160.572 154.909 160.584 155.474C160.584 155.983 160.442 156.441 160.16 156.847C159.877 157.254 159.476 157.576 158.957 157.814C158.448 158.04 157.86 158.153 157.194 158.153ZM170.999 148.711V158H169.456V156.627C169.163 157.102 168.75 157.475 168.219 157.746C167.699 158.006 167.123 158.136 166.49 158.136C165.767 158.136 165.117 157.989 164.541 157.695C163.965 157.39 163.507 156.938 163.168 156.339C162.84 155.74 162.676 155.011 162.676 154.152V148.711H164.202V153.949C164.202 154.864 164.434 155.57 164.897 156.068C165.36 156.554 165.993 156.797 166.795 156.797C167.62 156.797 168.27 156.542 168.745 156.034C169.219 155.525 169.456 154.785 169.456 153.813V148.711H170.999ZM184.773 148.542C185.496 148.542 186.141 148.694 186.706 149C187.271 149.293 187.717 149.74 188.045 150.339C188.372 150.937 188.536 151.666 188.536 152.525V158H187.011V152.745C187.011 151.819 186.779 151.113 186.316 150.627C185.864 150.13 185.248 149.881 184.468 149.881C183.666 149.881 183.027 150.141 182.553 150.661C182.078 151.169 181.841 151.909 181.841 152.881V158H180.315V152.745C180.315 151.819 180.084 151.113 179.62 150.627C179.168 150.13 178.553 149.881 177.773 149.881C176.971 149.881 176.332 150.141 175.858 150.661C175.383 151.169 175.146 151.909 175.146 152.881V158H173.603V148.711H175.146V150.05C175.451 149.565 175.858 149.192 176.366 148.932C176.886 148.672 177.457 148.542 178.078 148.542C178.858 148.542 179.547 148.717 180.146 149.067C180.745 149.418 181.191 149.932 181.485 150.61C181.745 149.954 182.174 149.446 182.773 149.084C183.372 148.723 184.039 148.542 184.773 148.542Z" fill="#172A59"/>
<g clip-path="url(#clip7)">
<path d="M220.737 152.5C220.737 153.773 221.772 154.808 223.044 154.808C224.317 154.808 225.352 153.773 225.352 152.5C225.352 151.227 224.317 150.192 223.044 150.192C221.772 150.192 220.737 151.227 220.737 152.5Z" fill="#172A59"/>
<path d="M220.737 160.192C220.737 161.465 221.772 162.5 223.044 162.5C224.317 162.5 225.352 161.465 225.352 160.192C225.352 158.92 224.317 157.885 223.044 157.885C221.772 157.885 220.737 158.92 220.737 160.192Z" fill="#172A59"/>
<path d="M220.737 144.808C220.737 146.08 221.772 147.115 223.044 147.115C224.317 147.115 225.352 146.08 225.352 144.808C225.352 143.535 224.317 142.5 223.044 142.5C221.772 142.5 220.737 143.535 220.737 144.808Z" fill="#172A59"/>
</g>
<rect x="0.5" y="0.5" width="272" height="273" rx="4.5" stroke="#7B61FF" stroke-dasharray="10 5"/>
<defs>
<clipPath id="clip0">
<rect width="20" height="20" fill="white" transform="translate(40 32.5)"/>
</clipPath>
<clipPath id="clip1">
<rect width="20" height="20" fill="white" transform="translate(213 32.5)"/>
</clipPath>
<clipPath id="clip2">
<rect width="20" height="20" fill="white" transform="translate(40 197.5)"/>
</clipPath>
<clipPath id="clip3">
<rect width="20" height="20" fill="white" transform="translate(213 197.5)"/>
</clipPath>
<clipPath id="clip4">
<rect width="20" height="20" fill="white" transform="translate(40 87.5)"/>
</clipPath>
<clipPath id="clip5">
<rect width="20" height="20" fill="white" transform="translate(213 87.5)"/>
</clipPath>
<clipPath id="clip6">
<rect width="20" height="20" fill="white" transform="translate(40 142.5)"/>
</clipPath>
<clipPath id="clip7">
<rect width="20" height="20" fill="white" transform="translate(213 142.5)"/>
</clipPath>
</defs>
</svg>
