<svg width="456" height="453" viewBox="0 0 456 453" fill="none" xmlns="http://www.w3.org/2000/svg">
<path d="M23.5426 36.1185H27.4411V38H21.1696V26.1689H23.5426V36.1185ZM33.119 38.1526C32.215 38.1526 31.4014 37.9548 30.6782 37.5593C29.955 37.1525 29.3844 36.5818 28.9663 35.8473C28.5595 35.1128 28.3561 34.2653 28.3561 33.3048C28.3561 32.3443 28.5651 31.4968 28.9832 30.7623C29.4126 30.0278 29.9946 29.4628 30.7291 29.0673C31.4636 28.6605 32.2828 28.4571 33.1868 28.4571C34.0908 28.4571 34.9101 28.6605 35.6446 29.0673C36.3791 29.4628 36.9554 30.0278 37.3735 30.7623C37.8029 31.4968 38.0176 32.3443 38.0176 33.3048C38.0176 34.2653 37.7972 35.1128 37.3565 35.8473C36.9271 36.5818 36.3395 37.1525 35.5937 37.5593C34.8592 37.9548 34.0343 38.1526 33.119 38.1526ZM33.119 36.0846C33.5484 36.0846 33.9496 35.9829 34.3225 35.7795C34.7067 35.5648 35.0118 35.2484 35.2378 34.8303C35.4638 34.4122 35.5768 33.9037 35.5768 33.3048C35.5768 32.4121 35.3395 31.7285 34.8649 31.2539C34.4016 30.768 33.8309 30.525 33.1529 30.525C32.4749 30.525 31.9043 30.768 31.441 31.2539C30.989 31.7285 30.763 32.4121 30.763 33.3048C30.763 34.1975 30.9833 34.8868 31.424 35.3727C31.876 35.8473 32.441 36.0846 33.119 36.0846ZM42.1313 30.0674C42.4364 29.5702 42.8319 29.1803 43.3178 28.8978C43.815 28.6153 44.38 28.4741 45.0128 28.4741V30.9657H44.3856C43.6398 30.9657 43.0748 31.1409 42.6906 31.4912C42.3177 31.8415 42.1313 32.4517 42.1313 33.3218V38H39.7583V28.6097H42.1313V30.0674ZM55.3404 33.1014C55.3404 33.4404 55.3178 33.7455 55.2726 34.0167H48.4078C48.4643 34.6947 48.7016 35.2258 49.1197 35.61C49.5378 35.9942 50.052 36.1863 50.6622 36.1863C51.5436 36.1863 52.1707 35.8078 52.5436 35.0507H55.1031C54.8319 35.9547 54.3121 36.7005 53.5437 37.2881C52.7753 37.8644 51.8317 38.1526 50.713 38.1526C49.809 38.1526 48.9954 37.9548 48.2722 37.5593C47.5603 37.1525 47.001 36.5818 46.5942 35.8473C46.1987 35.1128 46.0009 34.2653 46.0009 33.3048C46.0009 32.333 46.1987 31.4799 46.5942 30.7454C46.9897 30.0109 47.5434 29.4459 48.2553 29.0504C48.9672 28.6549 49.7864 28.4571 50.713 28.4571C51.6057 28.4571 52.4024 28.6492 53.103 29.0334C53.8149 29.4176 54.3629 29.9657 54.7471 30.6776C55.1426 31.3782 55.3404 32.1861 55.3404 33.1014ZM52.8826 32.4234C52.8713 31.8132 52.651 31.3273 52.2216 30.9657C51.7922 30.5928 51.2667 30.4064 50.6452 30.4064C50.0576 30.4064 49.5604 30.5872 49.1536 30.9488C48.7581 31.2991 48.5152 31.7906 48.4248 32.4234H52.8826ZM68.734 28.4741C69.8866 28.4741 70.8132 28.83 71.5138 29.5419C72.2257 30.2425 72.5817 31.2256 72.5817 32.4912V38H70.2087V32.8133C70.2087 32.0788 70.0222 31.5194 69.6493 31.1352C69.2764 30.7397 68.7679 30.542 68.1238 30.542C67.4797 30.542 66.9656 30.7397 66.5814 31.1352C66.2085 31.5194 66.022 32.0788 66.022 32.8133V38H63.649V32.8133C63.649 32.0788 63.4626 31.5194 63.0897 31.1352C62.7168 30.7397 62.2083 30.542 61.5642 30.542C60.9088 30.542 60.389 30.7397 60.0048 31.1352C59.6319 31.5194 59.4454 32.0788 59.4454 32.8133V38H57.0724V28.6097H59.4454V29.7453C59.7505 29.3498 60.1404 29.0391 60.615 28.8131C61.1009 28.5871 61.632 28.4741 62.2083 28.4741C62.9428 28.4741 63.5982 28.6323 64.1745 28.9487C64.7508 29.2538 65.1971 29.6945 65.5135 30.2708C65.8186 29.7284 66.2593 29.2933 66.8356 28.9656C67.4232 28.6379 68.056 28.4741 68.734 28.4741ZM80.0758 27.491C79.6577 27.491 79.3074 27.361 79.0249 27.1011C78.7537 26.8299 78.6181 26.4966 78.6181 26.1011C78.6181 25.7056 78.7537 25.3779 79.0249 25.118C79.3074 24.8468 79.6577 24.7112 80.0758 24.7112C80.4939 24.7112 80.8386 24.8468 81.1098 25.118C81.3923 25.3779 81.5335 25.7056 81.5335 26.1011C81.5335 26.4966 81.3923 26.8299 81.1098 27.1011C80.8386 27.361 80.4939 27.491 80.0758 27.491ZM81.2454 28.6097V38H78.8724V28.6097H81.2454ZM85.9629 29.9657C86.268 29.5363 86.6861 29.1803 87.2172 28.8978C87.7596 28.604 88.3755 28.4571 89.0648 28.4571C89.8671 28.4571 90.5903 28.6549 91.2344 29.0504C91.8898 29.4459 92.4039 30.0109 92.7768 30.7454C93.161 31.4686 93.3531 32.3104 93.3531 33.2709C93.3531 34.2314 93.161 35.0846 92.7768 35.8304C92.4039 36.5649 91.8898 37.1355 91.2344 37.5423C90.5903 37.9491 89.8671 38.1526 89.0648 38.1526C88.3755 38.1526 87.7653 38.0113 87.2342 37.7288C86.7144 37.4463 86.2906 37.0903 85.9629 36.6609V42.4748H83.5899V28.6097H85.9629V29.9657ZM90.9293 33.2709C90.9293 32.7059 90.8106 32.22 90.5733 31.8132C90.3473 31.3951 90.0422 31.0787 89.658 30.864C89.2851 30.6493 88.8783 30.542 88.4376 30.542C88.0082 30.542 87.6014 30.655 87.2172 30.881C86.8443 31.0957 86.5392 31.4121 86.3019 31.8302C86.0759 32.2483 85.9629 32.7398 85.9629 33.3048C85.9629 33.8698 86.0759 34.3614 86.3019 34.7795C86.5392 35.1976 86.8443 35.5196 87.2172 35.7456C87.6014 35.9603 88.0082 36.0677 88.4376 36.0677C88.8783 36.0677 89.2851 35.9547 89.658 35.7287C90.0422 35.5027 90.3473 35.1806 90.5733 34.7625C90.8106 34.3444 90.9293 33.8472 90.9293 33.2709ZM98.6709 38.1526C97.9025 38.1526 97.2132 38.017 96.603 37.7457C95.9928 37.4632 95.5069 37.0847 95.1453 36.6101C94.795 36.1355 94.6029 35.61 94.569 35.0337H96.959C97.0042 35.3953 97.1793 35.6948 97.4844 35.9321C97.8008 36.1694 98.1907 36.288 98.654 36.288C99.106 36.288 99.4563 36.1976 99.7049 36.0168C99.9648 35.836 100.095 35.6044 100.095 35.3219C100.095 35.0168 99.9365 34.7908 99.6201 34.6439C99.315 34.4857 98.8235 34.3162 98.1455 34.1354C97.4449 33.9659 96.8686 33.7907 96.4166 33.6099C95.9759 33.4291 95.5917 33.1523 95.264 32.7794C94.9476 32.4065 94.7894 31.9036 94.7894 31.2708C94.7894 30.751 94.9363 30.2764 95.2301 29.847C95.5352 29.4176 95.9646 29.0786 96.5183 28.83C97.0833 28.5814 97.7443 28.4571 98.5014 28.4571C99.6201 28.4571 100.513 28.7396 101.18 29.3046C101.846 29.8583 102.213 30.6098 102.281 31.559H100.01C99.9761 31.1861 99.8179 30.8923 99.5354 30.6776C99.2642 30.4516 98.8969 30.3386 98.4336 30.3386C98.0042 30.3386 97.6709 30.4177 97.4336 30.5759C97.2076 30.7341 97.0946 30.9544 97.0946 31.2369C97.0946 31.5533 97.2528 31.7963 97.5692 31.9658C97.8856 32.124 98.3771 32.2878 99.0438 32.4573C99.7218 32.6268 100.281 32.802 100.722 32.9828C101.163 33.1636 101.541 33.4461 101.858 33.8303C102.185 34.2032 102.355 34.7004 102.366 35.3219C102.366 35.8643 102.213 36.3502 101.908 36.7796C101.615 37.209 101.185 37.548 100.62 37.7966C100.066 38.0339 99.4167 38.1526 98.6709 38.1526ZM113.179 28.6097V38H110.789V36.8135C110.484 37.2203 110.083 37.5423 109.585 37.7796C109.099 38.0057 108.568 38.1187 107.992 38.1187C107.258 38.1187 106.608 37.9661 106.043 37.661C105.478 37.3446 105.031 36.8869 104.704 36.288C104.387 35.6778 104.229 34.9546 104.229 34.1184V28.6097H106.602V33.7794C106.602 34.5252 106.789 35.1015 107.162 35.5083C107.534 35.9038 108.043 36.1016 108.687 36.1016C109.342 36.1016 109.857 35.9038 110.229 35.5083C110.602 35.1015 110.789 34.5252 110.789 33.7794V28.6097H113.179ZM127.182 28.4741C128.334 28.4741 129.261 28.83 129.962 29.5419C130.673 30.2425 131.029 31.2256 131.029 32.4912V38H128.656V32.8133C128.656 32.0788 128.47 31.5194 128.097 31.1352C127.724 30.7397 127.216 30.542 126.572 30.542C125.927 30.542 125.413 30.7397 125.029 31.1352C124.656 31.5194 124.47 32.0788 124.47 32.8133V38H122.097V32.8133C122.097 32.0788 121.91 31.5194 121.537 31.1352C121.164 30.7397 120.656 30.542 120.012 30.542C119.356 30.542 118.837 30.7397 118.452 31.1352C118.08 31.5194 117.893 32.0788 117.893 32.8133V38H115.52V28.6097H117.893V29.7453C118.198 29.3498 118.588 29.0391 119.063 28.8131C119.549 28.5871 120.08 28.4741 120.656 28.4741C121.39 28.4741 122.046 28.6323 122.622 28.9487C123.198 29.2538 123.645 29.6945 123.961 30.2708C124.266 29.7284 124.707 29.2933 125.283 28.9656C125.871 28.6379 126.504 28.4741 127.182 28.4741Z" fill="#172A59"/>
<rect x="21" y="56" width="255" height="40" fill="white"/>
<path d="M42.7216 79.6752H46.1056V81H41.08V70.992H42.7216V79.6752ZM50.92 81.1296C50.1712 81.1296 49.4944 80.9616 48.8896 80.6256C48.2848 80.28 47.8096 79.8 47.464 79.1856C47.1184 78.5616 46.9456 77.8416 46.9456 77.0256C46.9456 76.2192 47.1232 75.504 47.4784 74.88C47.8336 74.256 48.3184 73.776 48.9328 73.44C49.5472 73.104 50.2336 72.936 50.992 72.936C51.7504 72.936 52.4368 73.104 53.0512 73.44C53.6656 73.776 54.1504 74.256 54.5056 74.88C54.8608 75.504 55.0384 76.2192 55.0384 77.0256C55.0384 77.832 54.856 78.5472 54.4912 79.1712C54.1264 79.7952 53.6272 80.28 52.9936 80.6256C52.3696 80.9616 51.6784 81.1296 50.92 81.1296ZM50.92 79.704C51.3424 79.704 51.736 79.6032 52.1008 79.4016C52.4752 79.2 52.7776 78.8976 53.008 78.4944C53.2384 78.0912 53.3536 77.6016 53.3536 77.0256C53.3536 76.4496 53.2432 75.9648 53.0224 75.5712C52.8016 75.168 52.5088 74.8656 52.144 74.664C51.7792 74.4624 51.3856 74.3616 50.9632 74.3616C50.5408 74.3616 50.1472 74.4624 49.7824 74.664C49.4272 74.8656 49.144 75.168 48.9328 75.5712C48.7216 75.9648 48.616 76.4496 48.616 77.0256C48.616 77.88 48.832 78.5424 49.264 79.0128C49.7056 79.4736 50.2576 79.704 50.92 79.704ZM58.3029 74.2176C58.5429 73.8144 58.8597 73.5024 59.2533 73.2816C59.6565 73.0512 60.1317 72.936 60.6789 72.936V74.6352H60.2613C59.6181 74.6352 59.1285 74.7984 58.7925 75.1248C58.4661 75.4512 58.3029 76.0176 58.3029 76.824V81H56.6613V73.0656H58.3029V74.2176ZM69.4598 76.8384C69.4598 77.136 69.4406 77.4048 69.4022 77.6448H63.3398C63.3878 78.2784 63.623 78.7872 64.0454 79.1712C64.4678 79.5552 64.9862 79.7472 65.6006 79.7472C66.4838 79.7472 67.1078 79.3776 67.4726 78.6384H69.2438C69.0038 79.368 68.567 79.968 67.9334 80.4384C67.3094 80.8992 66.5318 81.1296 65.6006 81.1296C64.8422 81.1296 64.1606 80.9616 63.5558 80.6256C62.9606 80.28 62.4902 79.8 62.1446 79.1856C61.8086 78.5616 61.6406 77.8416 61.6406 77.0256C61.6406 76.2096 61.8038 75.4944 62.1302 74.88C62.4662 74.256 62.9318 73.776 63.527 73.44C64.1318 73.104 64.823 72.936 65.6006 72.936C66.3494 72.936 67.0166 73.0992 67.6022 73.4256C68.1878 73.752 68.6438 74.2128 68.9702 74.808C69.2966 75.3936 69.4598 76.0704 69.4598 76.8384ZM67.7462 76.32C67.7366 75.7152 67.5206 75.2304 67.0982 74.8656C66.6758 74.5008 66.1526 74.3184 65.5286 74.3184C64.9622 74.3184 64.4774 74.5008 64.0742 74.8656C63.671 75.2208 63.431 75.7056 63.3542 76.32H67.7462ZM80.6801 72.936C81.3041 72.936 81.8609 73.0656 82.3505 73.3248C82.8497 73.584 83.2385 73.968 83.5169 74.4768C83.8049 74.9856 83.9489 75.6 83.9489 76.32V81H82.3217V76.5648C82.3217 75.8544 82.1441 75.312 81.7889 74.9376C81.4337 74.5536 80.9489 74.3616 80.3345 74.3616C79.7201 74.3616 79.2305 74.5536 78.8657 74.9376C78.5105 75.312 78.3329 75.8544 78.3329 76.5648V81H76.7057V76.5648C76.7057 75.8544 76.5281 75.312 76.1729 74.9376C75.8177 74.5536 75.3329 74.3616 74.7185 74.3616C74.1041 74.3616 73.6145 74.5536 73.2497 74.9376C72.8945 75.312 72.7169 75.8544 72.7169 76.5648V81H71.0753V73.0656H72.7169V73.9728C72.9857 73.6464 73.3265 73.392 73.7393 73.2096C74.1521 73.0272 74.5937 72.936 75.0641 72.936C75.6977 72.936 76.2641 73.0704 76.7633 73.3392C77.2625 73.608 77.6465 73.9968 77.9153 74.5056C78.1553 74.0256 78.5297 73.6464 79.0385 73.368C79.5473 73.08 80.0945 72.936 80.6801 72.936ZM90.6136 72.0144C90.316 72.0144 90.0664 71.9136 89.8648 71.712C89.6632 71.5104 89.5624 71.2608 89.5624 70.9632C89.5624 70.6656 89.6632 70.416 89.8648 70.2144C90.0664 70.0128 90.316 69.912 90.6136 69.912C90.9016 69.912 91.1464 70.0128 91.348 70.2144C91.5496 70.416 91.6504 70.6656 91.6504 70.9632C91.6504 71.2608 91.5496 71.5104 91.348 71.712C91.1464 71.9136 90.9016 72.0144 90.6136 72.0144ZM91.42 73.0656V81H89.7784V73.0656H91.42ZM95.2169 74.232C95.4953 73.8672 95.8745 73.56 96.3545 73.3104C96.8345 73.0608 97.3769 72.936 97.9817 72.936C98.6729 72.936 99.3017 73.1088 99.8681 73.4544C100.444 73.7904 100.895 74.2656 101.222 74.88C101.548 75.4944 101.711 76.2 101.711 76.9968C101.711 77.7936 101.548 78.5088 101.222 79.1424C100.895 79.7664 100.444 80.256 99.8681 80.6112C99.3017 80.9568 98.6729 81.1296 97.9817 81.1296C97.3769 81.1296 96.8393 81.0096 96.3689 80.7696C95.8985 80.52 95.5145 80.2128 95.2169 79.848V84.7728H93.5753V73.0656H95.2169V74.232ZM100.041 76.9968C100.041 76.4496 99.9257 75.9792 99.6953 75.5856C99.4745 75.1824 99.1769 74.88 98.8025 74.6784C98.4377 74.4672 98.0441 74.3616 97.6217 74.3616C97.2089 74.3616 96.8153 74.4672 96.4409 74.6784C96.0761 74.8896 95.7785 75.1968 95.5481 75.6C95.3273 76.0032 95.2169 76.4784 95.2169 77.0256C95.2169 77.5728 95.3273 78.0528 95.5481 78.4656C95.7785 78.8688 96.0761 79.176 96.4409 79.3872C96.8153 79.5984 97.2089 79.704 97.6217 79.704C98.0441 79.704 98.4377 79.5984 98.8025 79.3872C99.1769 79.1664 99.4745 78.8496 99.6953 78.4368C99.9257 78.024 100.041 77.544 100.041 76.9968ZM106.215 81.1296C105.591 81.1296 105.029 81.0192 104.53 80.7984C104.04 80.568 103.651 80.2608 103.363 79.8768C103.075 79.4832 102.922 79.0464 102.903 78.5664H104.602C104.631 78.9024 104.789 79.1856 105.077 79.416C105.375 79.6368 105.744 79.7472 106.186 79.7472C106.647 79.7472 107.002 79.6608 107.251 79.488C107.511 79.3056 107.64 79.0752 107.64 78.7968C107.64 78.4992 107.496 78.2784 107.208 78.1344C106.93 77.9904 106.483 77.832 105.869 77.6592C105.274 77.496 104.789 77.3376 104.415 77.184C104.04 77.0304 103.714 76.7952 103.435 76.4784C103.167 76.1616 103.032 75.744 103.032 75.2256C103.032 74.8032 103.157 74.4192 103.407 74.0736C103.656 73.7184 104.011 73.44 104.472 73.2384C104.943 73.0368 105.48 72.936 106.085 72.936C106.987 72.936 107.712 73.1664 108.259 73.6272C108.816 74.0784 109.114 74.6976 109.152 75.4848H107.511C107.482 75.1296 107.338 74.8464 107.079 74.6352C106.819 74.424 106.469 74.3184 106.027 74.3184C105.595 74.3184 105.264 74.4 105.034 74.5632C104.803 74.7264 104.688 74.9424 104.688 75.2112C104.688 75.4224 104.765 75.6 104.919 75.744C105.072 75.888 105.259 76.0032 105.48 76.0896C105.701 76.1664 106.027 76.2672 106.459 76.392C107.035 76.5456 107.506 76.704 107.871 76.8672C108.245 77.0208 108.567 77.2512 108.835 77.5584C109.104 77.8656 109.243 78.2736 109.253 78.7824C109.253 79.2336 109.128 79.6368 108.879 79.992C108.629 80.3472 108.274 80.6256 107.813 80.8272C107.362 81.0288 106.829 81.1296 106.215 81.1296ZM118.212 73.0656V81H116.571V80.064C116.312 80.3904 115.971 80.6496 115.548 80.8416C115.136 81.024 114.694 81.1152 114.224 81.1152C113.6 81.1152 113.038 80.9856 112.539 80.7264C112.049 80.4672 111.66 80.0832 111.372 79.5744C111.094 79.0656 110.955 78.4512 110.955 77.7312V73.0656H112.582V77.4864C112.582 78.1968 112.76 78.744 113.115 79.128C113.47 79.5024 113.955 79.6896 114.569 79.6896C115.184 79.6896 115.668 79.5024 116.024 79.128C116.388 78.744 116.571 78.1968 116.571 77.4864V73.0656H118.212ZM129.983 72.936C130.607 72.936 131.164 73.0656 131.654 73.3248C132.153 73.584 132.542 73.968 132.82 74.4768C133.108 74.9856 133.252 75.6 133.252 76.32V81H131.625V76.5648C131.625 75.8544 131.447 75.312 131.092 74.9376C130.737 74.5536 130.252 74.3616 129.638 74.3616C129.023 74.3616 128.534 74.5536 128.169 74.9376C127.814 75.312 127.636 75.8544 127.636 76.5648V81H126.009V76.5648C126.009 75.8544 125.831 75.312 125.476 74.9376C125.121 74.5536 124.636 74.3616 124.022 74.3616C123.407 74.3616 122.918 74.5536 122.553 74.9376C122.198 75.312 122.02 75.8544 122.02 76.5648V81H120.378V73.0656H122.02V73.9728C122.289 73.6464 122.63 73.392 123.042 73.2096C123.455 73.0272 123.897 72.936 124.367 72.936C125.001 72.936 125.567 73.0704 126.066 73.3392C126.566 73.608 126.95 73.9968 127.218 74.5056C127.458 74.0256 127.833 73.6464 128.342 73.368C128.85 73.08 129.398 72.936 129.983 72.936Z" fill="#172A59"/>
<path d="M241.059 69.696C241.035 69.6719 241.007 69.6528 240.975 69.6397C240.944 69.6267 240.91 69.6199 240.876 69.6199C240.842 69.6199 240.808 69.6267 240.777 69.6397C240.745 69.6528 240.717 69.6719 240.693 69.696C239.673 70.7185 239.1 72.1039 239.1 73.5482C239.1 74.9925 239.673 76.3779 240.693 77.4004C240.741 77.449 240.807 77.4763 240.876 77.4763C240.945 77.4763 241.011 77.449 241.059 77.4004C241.108 77.3518 241.135 77.2858 241.135 77.217C241.135 77.1483 241.108 77.0823 241.059 77.0337C240.136 76.1085 239.618 74.855 239.618 73.5482C239.618 72.2414 240.136 70.9879 241.059 70.0627C241.083 70.0386 241.103 70.01 241.116 69.9786C241.129 69.9471 241.135 69.9134 241.135 69.8793C241.135 69.8453 241.129 69.8115 241.116 69.7801C241.103 69.7486 241.083 69.72 241.059 69.696Z" fill="#172A59" stroke="#172A59"/>
<path d="M256.726 83.8912L252.181 79.3466C252.003 79.1764 251.765 79.0814 251.519 79.0814C251.272 79.0814 251.035 79.1764 250.856 79.3466L250.785 79.4178L250.044 78.6773C251.393 77.2327 252.12 75.3163 252.069 73.3409C252.018 71.3654 251.193 69.4891 249.772 68.116C248.35 66.7429 246.447 65.9831 244.471 66.0001C242.495 66.0171 240.604 66.8096 239.207 68.2069C237.81 69.6042 237.017 71.4945 237 73.4705C236.983 75.4465 237.743 77.3502 239.116 78.7713C240.489 80.1925 242.366 81.0174 244.341 81.0684C246.317 81.1194 248.233 80.3924 249.678 79.044L250.418 79.7845L250.347 79.8558C250.172 80.0317 250.073 80.2698 250.073 80.5181C250.073 80.7664 250.172 81.0046 250.347 81.1805L254.891 85.7263C255.067 85.9017 255.305 86.0002 255.553 86.0002C255.802 86.0002 256.04 85.9017 256.216 85.7263L256.725 85.2173C256.901 85.0416 257 84.8032 257 84.5545C257 84.3058 256.902 84.0672 256.726 83.8912ZM237.543 73.5478C237.543 72.1625 237.954 70.8083 238.724 69.6565C239.494 68.5047 240.587 67.6069 241.867 67.0768C243.147 66.5467 244.555 66.4081 245.914 66.6783C247.273 66.9486 248.521 67.6157 249.5 68.5953C250.48 69.5749 251.147 70.8229 251.417 72.1816C251.687 73.5403 251.549 74.9486 251.019 76.2284C250.488 77.5083 249.591 78.6022 248.439 79.3718C247.287 80.1414 245.933 80.5522 244.548 80.5522C242.691 80.5501 240.91 79.8115 239.597 78.4984C238.284 77.1852 237.545 75.4048 237.543 73.5478ZM256.359 84.8497L255.85 85.3588C255.771 85.4368 255.665 85.4805 255.554 85.4805C255.443 85.4805 255.337 85.4368 255.258 85.3588L250.714 80.8142C250.635 80.7356 250.592 80.6292 250.592 80.5183C250.592 80.4075 250.635 80.3011 250.714 80.2225L251.223 79.7128C251.301 79.6345 251.407 79.5904 251.518 79.5904C251.629 79.5904 251.735 79.6345 251.814 79.7128L256.359 84.2579C256.437 84.3364 256.481 84.4428 256.481 84.5538C256.481 84.6648 256.437 84.7712 256.359 84.8497Z" fill="#172A59" stroke="#172A59"/>
<rect x="21" y="56" width="255" height="40" stroke="#172A59" stroke-width="2"/>
<rect width="60" height="42" transform="translate(277 55)" fill="#172A59"/>
<g clip-path="url(#clip0)">
<path d="M311.949 75.4445H307.52V71C307.52 70.8527 307.462 70.7114 307.358 70.6072C307.254 70.503 307.113 70.4445 306.966 70.4445C306.819 70.4445 306.678 70.503 306.575 70.6072C306.471 70.7114 306.412 70.8527 306.412 71V75.4445H301.983C301.836 75.4445 301.695 75.503 301.592 75.6072C301.488 75.7114 301.429 75.8527 301.429 76C301.429 76.1474 301.488 76.2887 301.592 76.3929C301.695 76.497 301.836 76.5556 301.983 76.5556H306.412V81C306.412 81.1474 306.471 81.2887 306.575 81.3929C306.678 81.497 306.819 81.5556 306.966 81.5556C307.113 81.5556 307.254 81.497 307.358 81.3929C307.462 81.2887 307.52 81.1474 307.52 81V76.5556H311.949C312.096 76.5556 312.237 76.497 312.341 76.3929C312.445 76.2887 312.503 76.1474 312.503 76C312.503 75.8527 312.445 75.7114 312.341 75.6072C312.237 75.503 312.096 75.4445 311.949 75.4445Z" fill="white"/>
<path d="M306.966 66C304.995 66 303.068 66.5865 301.429 67.6853C299.79 68.7841 298.513 70.3459 297.759 72.1732C297.004 74.0004 296.807 76.0111 297.192 77.9509C297.576 79.8907 298.525 81.6725 299.919 83.0711C301.313 84.4696 303.089 85.422 305.022 85.8079C306.955 86.1937 308.959 85.9957 310.78 85.2388C312.601 84.4819 314.158 83.2002 315.253 81.5557C316.348 79.9112 316.932 77.9778 316.932 76C316.929 73.3488 315.878 70.807 314.01 68.9323C312.142 67.0576 309.608 66.0031 306.966 66ZM306.966 84.8889C305.214 84.8889 303.501 84.3676 302.045 83.3908C300.588 82.4141 299.452 81.0259 298.782 79.4016C298.111 77.7774 297.936 75.9901 298.278 74.2659C298.619 72.5416 299.463 70.9577 300.702 69.7146C301.941 68.4715 303.519 67.6249 305.238 67.2819C306.956 66.9389 308.738 67.115 310.356 67.7877C311.975 68.4605 313.359 69.5998 314.332 71.0616C315.306 72.5234 315.825 74.2419 315.825 76C315.822 78.3566 314.888 80.6159 313.227 82.2823C311.567 83.9487 309.315 84.8861 306.966 84.8889Z" fill="white"/>
</g>
<path d="M22.7216 111.675H26.1056V113H21.08V102.992H22.7216V111.675ZM30.92 113.13C30.1712 113.13 29.4944 112.962 28.8896 112.626C28.2848 112.28 27.8096 111.8 27.464 111.186C27.1184 110.562 26.9456 109.842 26.9456 109.026C26.9456 108.219 27.1232 107.504 27.4784 106.88C27.8336 106.256 28.3184 105.776 28.9328 105.44C29.5472 105.104 30.2336 104.936 30.992 104.936C31.7504 104.936 32.4368 105.104 33.0512 105.44C33.6656 105.776 34.1504 106.256 34.5056 106.88C34.8608 107.504 35.0384 108.219 35.0384 109.026C35.0384 109.832 34.856 110.547 34.4912 111.171C34.1264 111.795 33.6272 112.28 32.9936 112.626C32.3696 112.962 31.6784 113.13 30.92 113.13ZM30.92 111.704C31.3424 111.704 31.736 111.603 32.1008 111.402C32.4752 111.2 32.7776 110.898 33.008 110.494C33.2384 110.091 33.3536 109.602 33.3536 109.026C33.3536 108.45 33.2432 107.965 33.0224 107.571C32.8016 107.168 32.5088 106.866 32.144 106.664C31.7792 106.462 31.3856 106.362 30.9632 106.362C30.5408 106.362 30.1472 106.462 29.7824 106.664C29.4272 106.866 29.144 107.168 28.9328 107.571C28.7216 107.965 28.616 108.45 28.616 109.026C28.616 109.88 28.832 110.542 29.264 111.013C29.7056 111.474 30.2576 111.704 30.92 111.704ZM38.3029 106.218C38.5429 105.814 38.8597 105.502 39.2533 105.282C39.6565 105.051 40.1317 104.936 40.6789 104.936V106.635H40.2613C39.6181 106.635 39.1285 106.798 38.7925 107.125C38.4661 107.451 38.3029 108.018 38.3029 108.824V113H36.6613V105.066H38.3029V106.218ZM49.4598 108.838C49.4598 109.136 49.4406 109.405 49.4022 109.645H43.3398C43.3878 110.278 43.623 110.787 44.0454 111.171C44.4678 111.555 44.9862 111.747 45.6006 111.747C46.4838 111.747 47.1078 111.378 47.4726 110.638H49.2438C49.0038 111.368 48.567 111.968 47.9334 112.438C47.3094 112.899 46.5318 113.13 45.6006 113.13C44.8422 113.13 44.1606 112.962 43.5558 112.626C42.9606 112.28 42.4902 111.8 42.1446 111.186C41.8086 110.562 41.6406 109.842 41.6406 109.026C41.6406 108.21 41.8038 107.494 42.1302 106.88C42.4662 106.256 42.9318 105.776 43.527 105.44C44.1318 105.104 44.823 104.936 45.6006 104.936C46.3494 104.936 47.0166 105.099 47.6022 105.426C48.1878 105.752 48.6438 106.213 48.9702 106.808C49.2966 107.394 49.4598 108.07 49.4598 108.838ZM47.7462 108.32C47.7366 107.715 47.5206 107.23 47.0982 106.866C46.6758 106.501 46.1526 106.318 45.5286 106.318C44.9622 106.318 44.4774 106.501 44.0742 106.866C43.671 107.221 43.431 107.706 43.3542 108.32H47.7462ZM60.6801 104.936C61.3041 104.936 61.8609 105.066 62.3505 105.325C62.8497 105.584 63.2385 105.968 63.5169 106.477C63.8049 106.986 63.9489 107.6 63.9489 108.32V113H62.3217V108.565C62.3217 107.854 62.1441 107.312 61.7889 106.938C61.4337 106.554 60.9489 106.362 60.3345 106.362C59.7201 106.362 59.2305 106.554 58.8657 106.938C58.5105 107.312 58.3329 107.854 58.3329 108.565V113H56.7057V108.565C56.7057 107.854 56.5281 107.312 56.1729 106.938C55.8177 106.554 55.3329 106.362 54.7185 106.362C54.1041 106.362 53.6145 106.554 53.2497 106.938C52.8945 107.312 52.7169 107.854 52.7169 108.565V113H51.0753V105.066H52.7169V105.973C52.9857 105.646 53.3265 105.392 53.7393 105.21C54.1521 105.027 54.5937 104.936 55.0641 104.936C55.6977 104.936 56.2641 105.07 56.7633 105.339C57.2625 105.608 57.6465 105.997 57.9153 106.506C58.1553 106.026 58.5297 105.646 59.0385 105.368C59.5473 105.08 60.0945 104.936 60.6801 104.936ZM70.6136 104.014C70.316 104.014 70.0664 103.914 69.8648 103.712C69.6632 103.51 69.5624 103.261 69.5624 102.963C69.5624 102.666 69.6632 102.416 69.8648 102.214C70.0664 102.013 70.316 101.912 70.6136 101.912C70.9016 101.912 71.1464 102.013 71.348 102.214C71.5496 102.416 71.6504 102.666 71.6504 102.963C71.6504 103.261 71.5496 103.51 71.348 103.712C71.1464 103.914 70.9016 104.014 70.6136 104.014ZM71.42 105.066V113H69.7784V105.066H71.42ZM75.2169 106.232C75.4953 105.867 75.8745 105.56 76.3545 105.31C76.8345 105.061 77.3769 104.936 77.9817 104.936C78.6729 104.936 79.3017 105.109 79.8681 105.454C80.4441 105.79 80.8953 106.266 81.2217 106.88C81.5481 107.494 81.7113 108.2 81.7113 108.997C81.7113 109.794 81.5481 110.509 81.2217 111.142C80.8953 111.766 80.4441 112.256 79.8681 112.611C79.3017 112.957 78.6729 113.13 77.9817 113.13C77.3769 113.13 76.8393 113.01 76.3689 112.77C75.8985 112.52 75.5145 112.213 75.2169 111.848V116.773H73.5753V105.066H75.2169V106.232ZM80.0409 108.997C80.0409 108.45 79.9257 107.979 79.6953 107.586C79.4745 107.182 79.1769 106.88 78.8025 106.678C78.4377 106.467 78.0441 106.362 77.6217 106.362C77.2089 106.362 76.8153 106.467 76.4409 106.678C76.0761 106.89 75.7785 107.197 75.5481 107.6C75.3273 108.003 75.2169 108.478 75.2169 109.026C75.2169 109.573 75.3273 110.053 75.5481 110.466C75.7785 110.869 76.0761 111.176 76.4409 111.387C76.8153 111.598 77.2089 111.704 77.6217 111.704C78.0441 111.704 78.4377 111.598 78.8025 111.387C79.1769 111.166 79.4745 110.85 79.6953 110.437C79.9257 110.024 80.0409 109.544 80.0409 108.997ZM86.2147 113.13C85.5907 113.13 85.0291 113.019 84.5299 112.798C84.0403 112.568 83.6515 112.261 83.3635 111.877C83.0755 111.483 82.9219 111.046 82.9027 110.566H84.6019C84.6307 110.902 84.7891 111.186 85.0771 111.416C85.3747 111.637 85.7443 111.747 86.1859 111.747C86.6467 111.747 87.0019 111.661 87.2515 111.488C87.5107 111.306 87.6403 111.075 87.6403 110.797C87.6403 110.499 87.4963 110.278 87.2083 110.134C86.9299 109.99 86.4835 109.832 85.8691 109.659C85.2739 109.496 84.7891 109.338 84.4147 109.184C84.0403 109.03 83.7139 108.795 83.4355 108.478C83.1667 108.162 83.0323 107.744 83.0323 107.226C83.0323 106.803 83.1571 106.419 83.4067 106.074C83.6563 105.718 84.0115 105.44 84.4723 105.238C84.9427 105.037 85.4803 104.936 86.0851 104.936C86.9875 104.936 87.7123 105.166 88.2595 105.627C88.8163 106.078 89.1139 106.698 89.1523 107.485H87.5107C87.4819 107.13 87.3379 106.846 87.0787 106.635C86.8195 106.424 86.4691 106.318 86.0275 106.318C85.5955 106.318 85.2643 106.4 85.0339 106.563C84.8035 106.726 84.6883 106.942 84.6883 107.211C84.6883 107.422 84.7651 107.6 84.9187 107.744C85.0723 107.888 85.2595 108.003 85.4803 108.09C85.7011 108.166 86.0275 108.267 86.4595 108.392C87.0355 108.546 87.5059 108.704 87.8707 108.867C88.2451 109.021 88.5667 109.251 88.8355 109.558C89.1043 109.866 89.2435 110.274 89.2531 110.782C89.2531 111.234 89.1283 111.637 88.8787 111.992C88.6291 112.347 88.2739 112.626 87.8131 112.827C87.3619 113.029 86.8291 113.13 86.2147 113.13ZM98.2125 105.066V113H96.5709V112.064C96.3117 112.39 95.9709 112.65 95.5485 112.842C95.1357 113.024 94.6941 113.115 94.2237 113.115C93.5997 113.115 93.0381 112.986 92.5389 112.726C92.0493 112.467 91.6605 112.083 91.3725 111.574C91.0941 111.066 90.9549 110.451 90.9549 109.731V105.066H92.5821V109.486C92.5821 110.197 92.7597 110.744 93.1149 111.128C93.4701 111.502 93.9549 111.69 94.5693 111.69C95.1837 111.69 95.6685 111.502 96.0237 111.128C96.3885 110.744 96.5709 110.197 96.5709 109.486V105.066H98.2125ZM109.983 104.936C110.607 104.936 111.164 105.066 111.654 105.325C112.153 105.584 112.542 105.968 112.82 106.477C113.108 106.986 113.252 107.6 113.252 108.32V113H111.625V108.565C111.625 107.854 111.447 107.312 111.092 106.938C110.737 106.554 110.252 106.362 109.638 106.362C109.023 106.362 108.534 106.554 108.169 106.938C107.814 107.312 107.636 107.854 107.636 108.565V113H106.009V108.565C106.009 107.854 105.831 107.312 105.476 106.938C105.121 106.554 104.636 106.362 104.022 106.362C103.407 106.362 102.918 106.554 102.553 106.938C102.198 107.312 102.02 107.854 102.02 108.565V113H100.378V105.066H102.02V105.973C102.289 105.646 102.63 105.392 103.042 105.21C103.455 105.027 103.897 104.936 104.367 104.936C105.001 104.936 105.567 105.07 106.066 105.339C106.566 105.608 106.95 105.997 107.218 106.506C107.458 106.026 107.833 105.646 108.342 105.368C108.85 105.08 109.398 104.936 109.983 104.936Z" fill="#8990A9"/>
<path d="M23.5426 183.119H27.4411V185H21.1696V173.169H23.5426V183.119ZM33.119 185.153C32.215 185.153 31.4014 184.955 30.6782 184.559C29.955 184.152 29.3844 183.582 28.9663 182.847C28.5595 182.113 28.3561 181.265 28.3561 180.305C28.3561 179.344 28.5651 178.497 28.9832 177.762C29.4126 177.028 29.9946 176.463 30.7291 176.067C31.4636 175.661 32.2828 175.457 33.1868 175.457C34.0908 175.457 34.9101 175.661 35.6446 176.067C36.3791 176.463 36.9554 177.028 37.3735 177.762C37.8029 178.497 38.0176 179.344 38.0176 180.305C38.0176 181.265 37.7972 182.113 37.3565 182.847C36.9271 183.582 36.3395 184.152 35.5937 184.559C34.8592 184.955 34.0343 185.153 33.119 185.153ZM33.119 183.085C33.5484 183.085 33.9496 182.983 34.3225 182.78C34.7067 182.565 35.0118 182.248 35.2378 181.83C35.4638 181.412 35.5768 180.904 35.5768 180.305C35.5768 179.412 35.3395 178.728 34.8649 178.254C34.4016 177.768 33.8309 177.525 33.1529 177.525C32.4749 177.525 31.9043 177.768 31.441 178.254C30.989 178.728 30.763 179.412 30.763 180.305C30.763 181.198 30.9833 181.887 31.424 182.373C31.876 182.847 32.441 183.085 33.119 183.085ZM42.1313 177.067C42.4364 176.57 42.8319 176.18 43.3178 175.898C43.815 175.615 44.38 175.474 45.0128 175.474V177.966H44.3856C43.6398 177.966 43.0748 178.141 42.6906 178.491C42.3177 178.841 42.1313 179.452 42.1313 180.322V185H39.7583V175.61H42.1313V177.067ZM55.3404 180.101C55.3404 180.44 55.3178 180.746 55.2726 181.017H48.4078C48.4643 181.695 48.7016 182.226 49.1197 182.61C49.5378 182.994 50.052 183.186 50.6622 183.186C51.5436 183.186 52.1707 182.808 52.5436 182.051H55.1031C54.8319 182.955 54.3121 183.7 53.5437 184.288C52.7753 184.864 51.8317 185.153 50.713 185.153C49.809 185.153 48.9954 184.955 48.2722 184.559C47.5603 184.152 47.001 183.582 46.5942 182.847C46.1987 182.113 46.0009 181.265 46.0009 180.305C46.0009 179.333 46.1987 178.48 46.5942 177.745C46.9897 177.011 47.5434 176.446 48.2553 176.05C48.9672 175.655 49.7864 175.457 50.713 175.457C51.6057 175.457 52.4024 175.649 53.103 176.033C53.8149 176.418 54.3629 176.966 54.7471 177.678C55.1426 178.378 55.3404 179.186 55.3404 180.101ZM52.8826 179.423C52.8713 178.813 52.651 178.327 52.2216 177.966C51.7922 177.593 51.2667 177.406 50.6452 177.406C50.0576 177.406 49.5604 177.587 49.1536 177.949C48.7581 178.299 48.5152 178.791 48.4248 179.423H52.8826ZM68.734 175.474C69.8866 175.474 70.8132 175.83 71.5138 176.542C72.2257 177.243 72.5817 178.226 72.5817 179.491V185H70.2087V179.813C70.2087 179.079 70.0222 178.519 69.6493 178.135C69.2764 177.74 68.7679 177.542 68.1238 177.542C67.4797 177.542 66.9656 177.74 66.5814 178.135C66.2085 178.519 66.022 179.079 66.022 179.813V185H63.649V179.813C63.649 179.079 63.4626 178.519 63.0897 178.135C62.7168 177.74 62.2083 177.542 61.5642 177.542C60.9088 177.542 60.389 177.74 60.0048 178.135C59.6319 178.519 59.4454 179.079 59.4454 179.813V185H57.0724V175.61H59.4454V176.745C59.7505 176.35 60.1404 176.039 60.615 175.813C61.1009 175.587 61.632 175.474 62.2083 175.474C62.9428 175.474 63.5982 175.632 64.1745 175.949C64.7508 176.254 65.1971 176.694 65.5135 177.271C65.8186 176.728 66.2593 176.293 66.8356 175.966C67.4232 175.638 68.056 175.474 68.734 175.474ZM80.0758 174.491C79.6577 174.491 79.3074 174.361 79.0249 174.101C78.7537 173.83 78.6181 173.497 78.6181 173.101C78.6181 172.706 78.7537 172.378 79.0249 172.118C79.3074 171.847 79.6577 171.711 80.0758 171.711C80.4939 171.711 80.8386 171.847 81.1098 172.118C81.3923 172.378 81.5335 172.706 81.5335 173.101C81.5335 173.497 81.3923 173.83 81.1098 174.101C80.8386 174.361 80.4939 174.491 80.0758 174.491ZM81.2454 175.61V185H78.8724V175.61H81.2454ZM85.9629 176.966C86.268 176.536 86.6861 176.18 87.2172 175.898C87.7596 175.604 88.3755 175.457 89.0648 175.457C89.8671 175.457 90.5903 175.655 91.2344 176.05C91.8898 176.446 92.4039 177.011 92.7768 177.745C93.161 178.469 93.3531 179.31 93.3531 180.271C93.3531 181.231 93.161 182.085 92.7768 182.83C92.4039 183.565 91.8898 184.136 91.2344 184.542C90.5903 184.949 89.8671 185.153 89.0648 185.153C88.3755 185.153 87.7653 185.011 87.2342 184.729C86.7144 184.446 86.2906 184.09 85.9629 183.661V189.475H83.5899V175.61H85.9629V176.966ZM90.9293 180.271C90.9293 179.706 90.8106 179.22 90.5733 178.813C90.3473 178.395 90.0422 178.079 89.658 177.864C89.2851 177.649 88.8783 177.542 88.4376 177.542C88.0082 177.542 87.6014 177.655 87.2172 177.881C86.8443 178.096 86.5392 178.412 86.3019 178.83C86.0759 179.248 85.9629 179.74 85.9629 180.305C85.9629 180.87 86.0759 181.361 86.3019 181.779C86.5392 182.198 86.8443 182.52 87.2172 182.746C87.6014 182.96 88.0082 183.068 88.4376 183.068C88.8783 183.068 89.2851 182.955 89.658 182.729C90.0422 182.503 90.3473 182.181 90.5733 181.763C90.8106 181.344 90.9293 180.847 90.9293 180.271ZM98.6709 185.153C97.9025 185.153 97.2132 185.017 96.603 184.746C95.9928 184.463 95.5069 184.085 95.1453 183.61C94.795 183.135 94.6029 182.61 94.569 182.034H96.959C97.0042 182.395 97.1793 182.695 97.4844 182.932C97.8008 183.169 98.1907 183.288 98.654 183.288C99.106 183.288 99.4563 183.198 99.7049 183.017C99.9648 182.836 100.095 182.604 100.095 182.322C100.095 182.017 99.9365 181.791 99.6201 181.644C99.315 181.486 98.8235 181.316 98.1455 181.135C97.4449 180.966 96.8686 180.791 96.4166 180.61C95.9759 180.429 95.5917 180.152 95.264 179.779C94.9476 179.406 94.7894 178.904 94.7894 178.271C94.7894 177.751 94.9363 177.276 95.2301 176.847C95.5352 176.418 95.9646 176.079 96.5183 175.83C97.0833 175.581 97.7443 175.457 98.5014 175.457C99.6201 175.457 100.513 175.74 101.18 176.305C101.846 176.858 102.213 177.61 102.281 178.559H100.01C99.9761 178.186 99.8179 177.892 99.5354 177.678C99.2642 177.452 98.8969 177.339 98.4336 177.339C98.0042 177.339 97.6709 177.418 97.4336 177.576C97.2076 177.734 97.0946 177.954 97.0946 178.237C97.0946 178.553 97.2528 178.796 97.5692 178.966C97.8856 179.124 98.3771 179.288 99.0438 179.457C99.7218 179.627 100.281 179.802 100.722 179.983C101.163 180.164 101.541 180.446 101.858 180.83C102.185 181.203 102.355 181.7 102.366 182.322C102.366 182.864 102.213 183.35 101.908 183.78C101.615 184.209 101.185 184.548 100.62 184.797C100.066 185.034 99.4167 185.153 98.6709 185.153ZM113.179 175.61V185H110.789V183.813C110.484 184.22 110.083 184.542 109.585 184.78C109.099 185.006 108.568 185.119 107.992 185.119C107.258 185.119 106.608 184.966 106.043 184.661C105.478 184.345 105.031 183.887 104.704 183.288C104.387 182.678 104.229 181.955 104.229 181.118V175.61H106.602V180.779C106.602 181.525 106.789 182.102 107.162 182.508C107.534 182.904 108.043 183.102 108.687 183.102C109.342 183.102 109.857 182.904 110.229 182.508C110.602 182.102 110.789 181.525 110.789 180.779V175.61H113.179ZM127.182 175.474C128.334 175.474 129.261 175.83 129.962 176.542C130.673 177.243 131.029 178.226 131.029 179.491V185H128.656V179.813C128.656 179.079 128.47 178.519 128.097 178.135C127.724 177.74 127.216 177.542 126.572 177.542C125.927 177.542 125.413 177.74 125.029 178.135C124.656 178.519 124.47 179.079 124.47 179.813V185H122.097V179.813C122.097 179.079 121.91 178.519 121.537 178.135C121.164 177.74 120.656 177.542 120.012 177.542C119.356 177.542 118.837 177.74 118.452 178.135C118.08 178.519 117.893 179.079 117.893 179.813V185H115.52V175.61H117.893V176.745C118.198 176.35 118.588 176.039 119.063 175.813C119.549 175.587 120.08 175.474 120.656 175.474C121.39 175.474 122.046 175.632 122.622 175.949C123.198 176.254 123.645 176.694 123.961 177.271C124.266 176.728 124.707 176.293 125.283 175.966C125.871 175.638 126.504 175.474 127.182 175.474Z" fill="white"/>
<rect width="257" height="42" transform="translate(20 202)" fill="white"/>
<path d="M42.7216 226.675H46.1056V228H41.08V217.992H42.7216V226.675ZM50.92 228.13C50.1712 228.13 49.4944 227.962 48.8896 227.626C48.2848 227.28 47.8096 226.8 47.464 226.186C47.1184 225.562 46.9456 224.842 46.9456 224.026C46.9456 223.219 47.1232 222.504 47.4784 221.88C47.8336 221.256 48.3184 220.776 48.9328 220.44C49.5472 220.104 50.2336 219.936 50.992 219.936C51.7504 219.936 52.4368 220.104 53.0512 220.44C53.6656 220.776 54.1504 221.256 54.5056 221.88C54.8608 222.504 55.0384 223.219 55.0384 224.026C55.0384 224.832 54.856 225.547 54.4912 226.171C54.1264 226.795 53.6272 227.28 52.9936 227.626C52.3696 227.962 51.6784 228.13 50.92 228.13ZM50.92 226.704C51.3424 226.704 51.736 226.603 52.1008 226.402C52.4752 226.2 52.7776 225.898 53.008 225.494C53.2384 225.091 53.3536 224.602 53.3536 224.026C53.3536 223.45 53.2432 222.965 53.0224 222.571C52.8016 222.168 52.5088 221.866 52.144 221.664C51.7792 221.462 51.3856 221.362 50.9632 221.362C50.5408 221.362 50.1472 221.462 49.7824 221.664C49.4272 221.866 49.144 222.168 48.9328 222.571C48.7216 222.965 48.616 223.45 48.616 224.026C48.616 224.88 48.832 225.542 49.264 226.013C49.7056 226.474 50.2576 226.704 50.92 226.704ZM58.3029 221.218C58.5429 220.814 58.8597 220.502 59.2533 220.282C59.6565 220.051 60.1317 219.936 60.6789 219.936V221.635H60.2613C59.6181 221.635 59.1285 221.798 58.7925 222.125C58.4661 222.451 58.3029 223.018 58.3029 223.824V228H56.6613V220.066H58.3029V221.218ZM69.4598 223.838C69.4598 224.136 69.4406 224.405 69.4022 224.645H63.3398C63.3878 225.278 63.623 225.787 64.0454 226.171C64.4678 226.555 64.9862 226.747 65.6006 226.747C66.4838 226.747 67.1078 226.378 67.4726 225.638H69.2438C69.0038 226.368 68.567 226.968 67.9334 227.438C67.3094 227.899 66.5318 228.13 65.6006 228.13C64.8422 228.13 64.1606 227.962 63.5558 227.626C62.9606 227.28 62.4902 226.8 62.1446 226.186C61.8086 225.562 61.6406 224.842 61.6406 224.026C61.6406 223.21 61.8038 222.494 62.1302 221.88C62.4662 221.256 62.9318 220.776 63.527 220.44C64.1318 220.104 64.823 219.936 65.6006 219.936C66.3494 219.936 67.0166 220.099 67.6022 220.426C68.1878 220.752 68.6438 221.213 68.9702 221.808C69.2966 222.394 69.4598 223.07 69.4598 223.838ZM67.7462 223.32C67.7366 222.715 67.5206 222.23 67.0982 221.866C66.6758 221.501 66.1526 221.318 65.5286 221.318C64.9622 221.318 64.4774 221.501 64.0742 221.866C63.671 222.221 63.431 222.706 63.3542 223.32H67.7462ZM80.6801 219.936C81.3041 219.936 81.8609 220.066 82.3505 220.325C82.8497 220.584 83.2385 220.968 83.5169 221.477C83.8049 221.986 83.9489 222.6 83.9489 223.32V228H82.3217V223.565C82.3217 222.854 82.1441 222.312 81.7889 221.938C81.4337 221.554 80.9489 221.362 80.3345 221.362C79.7201 221.362 79.2305 221.554 78.8657 221.938C78.5105 222.312 78.3329 222.854 78.3329 223.565V228H76.7057V223.565C76.7057 222.854 76.5281 222.312 76.1729 221.938C75.8177 221.554 75.3329 221.362 74.7185 221.362C74.1041 221.362 73.6145 221.554 73.2497 221.938C72.8945 222.312 72.7169 222.854 72.7169 223.565V228H71.0753V220.066H72.7169V220.973C72.9857 220.646 73.3265 220.392 73.7393 220.21C74.1521 220.027 74.5937 219.936 75.0641 219.936C75.6977 219.936 76.2641 220.07 76.7633 220.339C77.2625 220.608 77.6465 220.997 77.9153 221.506C78.1553 221.026 78.5297 220.646 79.0385 220.368C79.5473 220.08 80.0945 219.936 80.6801 219.936ZM90.6136 219.014C90.316 219.014 90.0664 218.914 89.8648 218.712C89.6632 218.51 89.5624 218.261 89.5624 217.963C89.5624 217.666 89.6632 217.416 89.8648 217.214C90.0664 217.013 90.316 216.912 90.6136 216.912C90.9016 216.912 91.1464 217.013 91.348 217.214C91.5496 217.416 91.6504 217.666 91.6504 217.963C91.6504 218.261 91.5496 218.51 91.348 218.712C91.1464 218.914 90.9016 219.014 90.6136 219.014ZM91.42 220.066V228H89.7784V220.066H91.42ZM95.2169 221.232C95.4953 220.867 95.8745 220.56 96.3545 220.31C96.8345 220.061 97.3769 219.936 97.9817 219.936C98.6729 219.936 99.3017 220.109 99.8681 220.454C100.444 220.79 100.895 221.266 101.222 221.88C101.548 222.494 101.711 223.2 101.711 223.997C101.711 224.794 101.548 225.509 101.222 226.142C100.895 226.766 100.444 227.256 99.8681 227.611C99.3017 227.957 98.6729 228.13 97.9817 228.13C97.3769 228.13 96.8393 228.01 96.3689 227.77C95.8985 227.52 95.5145 227.213 95.2169 226.848V231.773H93.5753V220.066H95.2169V221.232ZM100.041 223.997C100.041 223.45 99.9257 222.979 99.6953 222.586C99.4745 222.182 99.1769 221.88 98.8025 221.678C98.4377 221.467 98.0441 221.362 97.6217 221.362C97.2089 221.362 96.8153 221.467 96.4409 221.678C96.0761 221.89 95.7785 222.197 95.5481 222.6C95.3273 223.003 95.2169 223.478 95.2169 224.026C95.2169 224.573 95.3273 225.053 95.5481 225.466C95.7785 225.869 96.0761 226.176 96.4409 226.387C96.8153 226.598 97.2089 226.704 97.6217 226.704C98.0441 226.704 98.4377 226.598 98.8025 226.387C99.1769 226.166 99.4745 225.85 99.6953 225.437C99.9257 225.024 100.041 224.544 100.041 223.997ZM106.215 228.13C105.591 228.13 105.029 228.019 104.53 227.798C104.04 227.568 103.651 227.261 103.363 226.877C103.075 226.483 102.922 226.046 102.903 225.566H104.602C104.631 225.902 104.789 226.186 105.077 226.416C105.375 226.637 105.744 226.747 106.186 226.747C106.647 226.747 107.002 226.661 107.251 226.488C107.511 226.306 107.64 226.075 107.64 225.797C107.64 225.499 107.496 225.278 107.208 225.134C106.93 224.99 106.483 224.832 105.869 224.659C105.274 224.496 104.789 224.338 104.415 224.184C104.04 224.03 103.714 223.795 103.435 223.478C103.167 223.162 103.032 222.744 103.032 222.226C103.032 221.803 103.157 221.419 103.407 221.074C103.656 220.718 104.011 220.44 104.472 220.238C104.943 220.037 105.48 219.936 106.085 219.936C106.987 219.936 107.712 220.166 108.259 220.627C108.816 221.078 109.114 221.698 109.152 222.485H107.511C107.482 222.13 107.338 221.846 107.079 221.635C106.819 221.424 106.469 221.318 106.027 221.318C105.595 221.318 105.264 221.4 105.034 221.563C104.803 221.726 104.688 221.942 104.688 222.211C104.688 222.422 104.765 222.6 104.919 222.744C105.072 222.888 105.259 223.003 105.48 223.09C105.701 223.166 106.027 223.267 106.459 223.392C107.035 223.546 107.506 223.704 107.871 223.867C108.245 224.021 108.567 224.251 108.835 224.558C109.104 224.866 109.243 225.274 109.253 225.782C109.253 226.234 109.128 226.637 108.879 226.992C108.629 227.347 108.274 227.626 107.813 227.827C107.362 228.029 106.829 228.13 106.215 228.13ZM118.212 220.066V228H116.571V227.064C116.312 227.39 115.971 227.65 115.548 227.842C115.136 228.024 114.694 228.115 114.224 228.115C113.6 228.115 113.038 227.986 112.539 227.726C112.049 227.467 111.66 227.083 111.372 226.574C111.094 226.066 110.955 225.451 110.955 224.731V220.066H112.582V224.486C112.582 225.197 112.76 225.744 113.115 226.128C113.47 226.502 113.955 226.69 114.569 226.69C115.184 226.69 115.668 226.502 116.024 226.128C116.388 225.744 116.571 225.197 116.571 224.486V220.066H118.212ZM129.983 219.936C130.607 219.936 131.164 220.066 131.654 220.325C132.153 220.584 132.542 220.968 132.82 221.477C133.108 221.986 133.252 222.6 133.252 223.32V228H131.625V223.565C131.625 222.854 131.447 222.312 131.092 221.938C130.737 221.554 130.252 221.362 129.638 221.362C129.023 221.362 128.534 221.554 128.169 221.938C127.814 222.312 127.636 222.854 127.636 223.565V228H126.009V223.565C126.009 222.854 125.831 222.312 125.476 221.938C125.121 221.554 124.636 221.362 124.022 221.362C123.407 221.362 122.918 221.554 122.553 221.938C122.198 222.312 122.02 222.854 122.02 223.565V228H120.378V220.066H122.02V220.973C122.289 220.646 122.63 220.392 123.042 220.21C123.455 220.027 123.897 219.936 124.367 219.936C125.001 219.936 125.567 220.07 126.066 220.339C126.566 220.608 126.95 220.997 127.218 221.506C127.458 221.026 127.833 220.646 128.342 220.368C128.85 220.08 129.398 219.936 129.983 219.936Z" fill="#8990A9"/>
<path d="M241.059 216.696C241.035 216.672 241.007 216.653 240.975 216.64C240.944 216.627 240.91 216.62 240.876 216.62C240.842 216.62 240.808 216.627 240.777 216.64C240.745 216.653 240.717 216.672 240.693 216.696C239.673 217.719 239.1 219.104 239.1 220.548C239.1 221.993 239.673 223.378 240.693 224.4C240.741 224.449 240.807 224.476 240.876 224.476C240.945 224.476 241.011 224.449 241.059 224.4C241.108 224.352 241.135 224.286 241.135 224.217C241.135 224.148 241.108 224.082 241.059 224.034C240.136 223.108 239.618 221.855 239.618 220.548C239.618 219.241 240.136 217.988 241.059 217.063C241.083 217.039 241.103 217.01 241.116 216.979C241.129 216.947 241.135 216.913 241.135 216.879C241.135 216.845 241.129 216.812 241.116 216.78C241.103 216.749 241.083 216.72 241.059 216.696Z" fill="#172A59" stroke="#172A59"/>
<path d="M256.726 230.891L252.181 226.347C252.003 226.176 251.765 226.081 251.519 226.081C251.272 226.081 251.035 226.176 250.856 226.347L250.785 226.418L250.044 225.677C251.393 224.233 252.12 222.316 252.069 220.341C252.018 218.365 251.193 216.489 249.772 215.116C248.35 213.743 246.447 212.983 244.471 213C242.495 213.017 240.604 213.81 239.207 215.207C237.81 216.604 237.017 218.494 237 220.471C236.983 222.447 237.743 224.35 239.116 225.771C240.489 227.192 242.366 228.017 244.341 228.068C246.317 228.119 248.233 227.392 249.678 226.044L250.418 226.785L250.347 226.856C250.172 227.032 250.073 227.27 250.073 227.518C250.073 227.766 250.172 228.005 250.347 228.18L254.891 232.726C255.067 232.902 255.305 233 255.553 233C255.802 233 256.04 232.902 256.216 232.726L256.725 232.217C256.901 232.042 257 231.803 257 231.555C257 231.306 256.902 231.067 256.726 230.891ZM237.543 220.548C237.543 219.162 237.954 217.808 238.724 216.656C239.494 215.505 240.587 214.607 241.867 214.077C243.147 213.547 244.555 213.408 245.914 213.678C247.273 213.949 248.521 214.616 249.5 215.595C250.48 216.575 251.147 217.823 251.417 219.182C251.687 220.54 251.549 221.949 251.019 223.228C250.488 224.508 249.591 225.602 248.439 226.372C247.287 227.141 245.933 227.552 244.548 227.552C242.691 227.55 240.91 226.812 239.597 225.498C238.284 224.185 237.545 222.405 237.543 220.548ZM256.359 231.85L255.85 232.359C255.771 232.437 255.665 232.481 255.554 232.481C255.443 232.481 255.337 232.437 255.258 232.359L250.714 227.814C250.635 227.736 250.592 227.629 250.592 227.518C250.592 227.407 250.635 227.301 250.714 227.223L251.223 226.713C251.301 226.634 251.407 226.59 251.518 226.59C251.629 226.59 251.735 226.634 251.814 226.713L256.359 231.258C256.437 231.336 256.481 231.443 256.481 231.554C256.481 231.665 256.437 231.771 256.359 231.85Z" fill="#172A59" stroke="#172A59"/>
<rect width="60" height="42" transform="translate(277 202)" fill="#0A3DFA"/>
<g clip-path="url(#clip1)">
<path d="M311.949 222.444H307.52V218C307.52 217.853 307.462 217.711 307.358 217.607C307.254 217.503 307.113 217.444 306.966 217.444C306.819 217.444 306.678 217.503 306.575 217.607C306.471 217.711 306.412 217.853 306.412 218V222.444H301.983C301.836 222.444 301.695 222.503 301.592 222.607C301.488 222.711 301.429 222.853 301.429 223C301.429 223.147 301.488 223.289 301.592 223.393C301.695 223.497 301.836 223.556 301.983 223.556H306.412V228C306.412 228.147 306.471 228.289 306.575 228.393C306.678 228.497 306.819 228.556 306.966 228.556C307.113 228.556 307.254 228.497 307.358 228.393C307.462 228.289 307.52 228.147 307.52 228V223.556H311.949C312.096 223.556 312.237 223.497 312.341 223.393C312.445 223.289 312.503 223.147 312.503 223C312.503 222.853 312.445 222.711 312.341 222.607C312.237 222.503 312.096 222.444 311.949 222.444Z" fill="white"/>
<path d="M306.966 213C304.995 213 303.068 213.586 301.429 214.685C299.79 215.784 298.513 217.346 297.759 219.173C297.004 221 296.807 223.011 297.192 224.951C297.576 226.891 298.525 228.673 299.919 230.071C301.313 231.47 303.089 232.422 305.022 232.808C306.955 233.194 308.959 232.996 310.78 232.239C312.601 231.482 314.158 230.2 315.253 228.556C316.348 226.911 316.932 224.978 316.932 223C316.929 220.349 315.878 217.807 314.01 215.932C312.142 214.058 309.608 213.003 306.966 213ZM306.966 231.889C305.214 231.889 303.501 231.368 302.045 230.391C300.588 229.414 299.452 228.026 298.782 226.402C298.111 224.777 297.936 222.99 298.278 221.266C298.619 219.542 299.463 217.958 300.702 216.715C301.941 215.471 303.519 214.625 305.238 214.282C306.956 213.939 308.738 214.115 310.356 214.788C311.975 215.461 313.359 216.6 314.332 218.062C315.306 219.523 315.825 221.242 315.825 223C315.822 225.357 314.888 227.616 313.227 229.282C311.567 230.949 309.315 231.886 306.966 231.889Z" fill="white"/>
</g>
<path d="M22.7216 258.675H26.1056V260H21.08V249.992H22.7216V258.675ZM30.92 260.13C30.1712 260.13 29.4944 259.962 28.8896 259.626C28.2848 259.28 27.8096 258.8 27.464 258.186C27.1184 257.562 26.9456 256.842 26.9456 256.026C26.9456 255.219 27.1232 254.504 27.4784 253.88C27.8336 253.256 28.3184 252.776 28.9328 252.44C29.5472 252.104 30.2336 251.936 30.992 251.936C31.7504 251.936 32.4368 252.104 33.0512 252.44C33.6656 252.776 34.1504 253.256 34.5056 253.88C34.8608 254.504 35.0384 255.219 35.0384 256.026C35.0384 256.832 34.856 257.547 34.4912 258.171C34.1264 258.795 33.6272 259.28 32.9936 259.626C32.3696 259.962 31.6784 260.13 30.92 260.13ZM30.92 258.704C31.3424 258.704 31.736 258.603 32.1008 258.402C32.4752 258.2 32.7776 257.898 33.008 257.494C33.2384 257.091 33.3536 256.602 33.3536 256.026C33.3536 255.45 33.2432 254.965 33.0224 254.571C32.8016 254.168 32.5088 253.866 32.144 253.664C31.7792 253.462 31.3856 253.362 30.9632 253.362C30.5408 253.362 30.1472 253.462 29.7824 253.664C29.4272 253.866 29.144 254.168 28.9328 254.571C28.7216 254.965 28.616 255.45 28.616 256.026C28.616 256.88 28.832 257.542 29.264 258.013C29.7056 258.474 30.2576 258.704 30.92 258.704ZM38.3029 253.218C38.5429 252.814 38.8597 252.502 39.2533 252.282C39.6565 252.051 40.1317 251.936 40.6789 251.936V253.635H40.2613C39.6181 253.635 39.1285 253.798 38.7925 254.125C38.4661 254.451 38.3029 255.018 38.3029 255.824V260H36.6613V252.066H38.3029V253.218ZM49.4598 255.838C49.4598 256.136 49.4406 256.405 49.4022 256.645H43.3398C43.3878 257.278 43.623 257.787 44.0454 258.171C44.4678 258.555 44.9862 258.747 45.6006 258.747C46.4838 258.747 47.1078 258.378 47.4726 257.638H49.2438C49.0038 258.368 48.567 258.968 47.9334 259.438C47.3094 259.899 46.5318 260.13 45.6006 260.13C44.8422 260.13 44.1606 259.962 43.5558 259.626C42.9606 259.28 42.4902 258.8 42.1446 258.186C41.8086 257.562 41.6406 256.842 41.6406 256.026C41.6406 255.21 41.8038 254.494 42.1302 253.88C42.4662 253.256 42.9318 252.776 43.527 252.44C44.1318 252.104 44.823 251.936 45.6006 251.936C46.3494 251.936 47.0166 252.099 47.6022 252.426C48.1878 252.752 48.6438 253.213 48.9702 253.808C49.2966 254.394 49.4598 255.07 49.4598 255.838ZM47.7462 255.32C47.7366 254.715 47.5206 254.23 47.0982 253.866C46.6758 253.501 46.1526 253.318 45.5286 253.318C44.9622 253.318 44.4774 253.501 44.0742 253.866C43.671 254.221 43.431 254.706 43.3542 255.32H47.7462ZM60.6801 251.936C61.3041 251.936 61.8609 252.066 62.3505 252.325C62.8497 252.584 63.2385 252.968 63.5169 253.477C63.8049 253.986 63.9489 254.6 63.9489 255.32V260H62.3217V255.565C62.3217 254.854 62.1441 254.312 61.7889 253.938C61.4337 253.554 60.9489 253.362 60.3345 253.362C59.7201 253.362 59.2305 253.554 58.8657 253.938C58.5105 254.312 58.3329 254.854 58.3329 255.565V260H56.7057V255.565C56.7057 254.854 56.5281 254.312 56.1729 253.938C55.8177 253.554 55.3329 253.362 54.7185 253.362C54.1041 253.362 53.6145 253.554 53.2497 253.938C52.8945 254.312 52.7169 254.854 52.7169 255.565V260H51.0753V252.066H52.7169V252.973C52.9857 252.646 53.3265 252.392 53.7393 252.21C54.1521 252.027 54.5937 251.936 55.0641 251.936C55.6977 251.936 56.2641 252.07 56.7633 252.339C57.2625 252.608 57.6465 252.997 57.9153 253.506C58.1553 253.026 58.5297 252.646 59.0385 252.368C59.5473 252.08 60.0945 251.936 60.6801 251.936ZM70.6136 251.014C70.316 251.014 70.0664 250.914 69.8648 250.712C69.6632 250.51 69.5624 250.261 69.5624 249.963C69.5624 249.666 69.6632 249.416 69.8648 249.214C70.0664 249.013 70.316 248.912 70.6136 248.912C70.9016 248.912 71.1464 249.013 71.348 249.214C71.5496 249.416 71.6504 249.666 71.6504 249.963C71.6504 250.261 71.5496 250.51 71.348 250.712C71.1464 250.914 70.9016 251.014 70.6136 251.014ZM71.42 252.066V260H69.7784V252.066H71.42ZM75.2169 253.232C75.4953 252.867 75.8745 252.56 76.3545 252.31C76.8345 252.061 77.3769 251.936 77.9817 251.936C78.6729 251.936 79.3017 252.109 79.8681 252.454C80.4441 252.79 80.8953 253.266 81.2217 253.88C81.5481 254.494 81.7113 255.2 81.7113 255.997C81.7113 256.794 81.5481 257.509 81.2217 258.142C80.8953 258.766 80.4441 259.256 79.8681 259.611C79.3017 259.957 78.6729 260.13 77.9817 260.13C77.3769 260.13 76.8393 260.01 76.3689 259.77C75.8985 259.52 75.5145 259.213 75.2169 258.848V263.773H73.5753V252.066H75.2169V253.232ZM80.0409 255.997C80.0409 255.45 79.9257 254.979 79.6953 254.586C79.4745 254.182 79.1769 253.88 78.8025 253.678C78.4377 253.467 78.0441 253.362 77.6217 253.362C77.2089 253.362 76.8153 253.467 76.4409 253.678C76.0761 253.89 75.7785 254.197 75.5481 254.6C75.3273 255.003 75.2169 255.478 75.2169 256.026C75.2169 256.573 75.3273 257.053 75.5481 257.466C75.7785 257.869 76.0761 258.176 76.4409 258.387C76.8153 258.598 77.2089 258.704 77.6217 258.704C78.0441 258.704 78.4377 258.598 78.8025 258.387C79.1769 258.166 79.4745 257.85 79.6953 257.437C79.9257 257.024 80.0409 256.544 80.0409 255.997ZM86.2147 260.13C85.5907 260.13 85.0291 260.019 84.5299 259.798C84.0403 259.568 83.6515 259.261 83.3635 258.877C83.0755 258.483 82.9219 258.046 82.9027 257.566H84.6019C84.6307 257.902 84.7891 258.186 85.0771 258.416C85.3747 258.637 85.7443 258.747 86.1859 258.747C86.6467 258.747 87.0019 258.661 87.2515 258.488C87.5107 258.306 87.6403 258.075 87.6403 257.797C87.6403 257.499 87.4963 257.278 87.2083 257.134C86.9299 256.99 86.4835 256.832 85.8691 256.659C85.2739 256.496 84.7891 256.338 84.4147 256.184C84.0403 256.03 83.7139 255.795 83.4355 255.478C83.1667 255.162 83.0323 254.744 83.0323 254.226C83.0323 253.803 83.1571 253.419 83.4067 253.074C83.6563 252.718 84.0115 252.44 84.4723 252.238C84.9427 252.037 85.4803 251.936 86.0851 251.936C86.9875 251.936 87.7123 252.166 88.2595 252.627C88.8163 253.078 89.1139 253.698 89.1523 254.485H87.5107C87.4819 254.13 87.3379 253.846 87.0787 253.635C86.8195 253.424 86.4691 253.318 86.0275 253.318C85.5955 253.318 85.2643 253.4 85.0339 253.563C84.8035 253.726 84.6883 253.942 84.6883 254.211C84.6883 254.422 84.7651 254.6 84.9187 254.744C85.0723 254.888 85.2595 255.003 85.4803 255.09C85.7011 255.166 86.0275 255.267 86.4595 255.392C87.0355 255.546 87.5059 255.704 87.8707 255.867C88.2451 256.021 88.5667 256.251 88.8355 256.558C89.1043 256.866 89.2435 257.274 89.2531 257.782C89.2531 258.234 89.1283 258.637 88.8787 258.992C88.6291 259.347 88.2739 259.626 87.8131 259.827C87.3619 260.029 86.8291 260.13 86.2147 260.13ZM98.2125 252.066V260H96.5709V259.064C96.3117 259.39 95.9709 259.65 95.5485 259.842C95.1357 260.024 94.6941 260.115 94.2237 260.115C93.5997 260.115 93.0381 259.986 92.5389 259.726C92.0493 259.467 91.6605 259.083 91.3725 258.574C91.0941 258.066 90.9549 257.451 90.9549 256.731V252.066H92.5821V256.486C92.5821 257.197 92.7597 257.744 93.1149 258.128C93.4701 258.502 93.9549 258.69 94.5693 258.69C95.1837 258.69 95.6685 258.502 96.0237 258.128C96.3885 257.744 96.5709 257.197 96.5709 256.486V252.066H98.2125ZM109.983 251.936C110.607 251.936 111.164 252.066 111.654 252.325C112.153 252.584 112.542 252.968 112.82 253.477C113.108 253.986 113.252 254.6 113.252 255.32V260H111.625V255.565C111.625 254.854 111.447 254.312 111.092 253.938C110.737 253.554 110.252 253.362 109.638 253.362C109.023 253.362 108.534 253.554 108.169 253.938C107.814 254.312 107.636 254.854 107.636 255.565V260H106.009V255.565C106.009 254.854 105.831 254.312 105.476 253.938C105.121 253.554 104.636 253.362 104.022 253.362C103.407 253.362 102.918 253.554 102.553 253.938C102.198 254.312 102.02 254.854 102.02 255.565V260H100.378V252.066H102.02V252.973C102.289 252.646 102.63 252.392 103.042 252.21C103.455 252.027 103.897 251.936 104.367 251.936C105.001 251.936 105.567 252.07 106.066 252.339C106.566 252.608 106.95 252.997 107.218 253.506C107.458 253.026 107.833 252.646 108.342 252.368C108.85 252.08 109.398 251.936 109.983 251.936Z" fill="white"/>
<path d="M23.5426 330.119H27.4411V332H21.1696V320.169H23.5426V330.119ZM33.119 332.153C32.215 332.153 31.4014 331.955 30.6782 331.559C29.955 331.152 29.3844 330.582 28.9663 329.847C28.5595 329.113 28.3561 328.265 28.3561 327.305C28.3561 326.344 28.5651 325.497 28.9832 324.762C29.4126 324.028 29.9946 323.463 30.7291 323.067C31.4636 322.661 32.2828 322.457 33.1868 322.457C34.0908 322.457 34.9101 322.661 35.6446 323.067C36.3791 323.463 36.9554 324.028 37.3735 324.762C37.8029 325.497 38.0176 326.344 38.0176 327.305C38.0176 328.265 37.7972 329.113 37.3565 329.847C36.9271 330.582 36.3395 331.152 35.5937 331.559C34.8592 331.955 34.0343 332.153 33.119 332.153ZM33.119 330.085C33.5484 330.085 33.9496 329.983 34.3225 329.78C34.7067 329.565 35.0118 329.248 35.2378 328.83C35.4638 328.412 35.5768 327.904 35.5768 327.305C35.5768 326.412 35.3395 325.728 34.8649 325.254C34.4016 324.768 33.8309 324.525 33.1529 324.525C32.4749 324.525 31.9043 324.768 31.441 325.254C30.989 325.728 30.763 326.412 30.763 327.305C30.763 328.198 30.9833 328.887 31.424 329.373C31.876 329.847 32.441 330.085 33.119 330.085ZM42.1313 324.067C42.4364 323.57 42.8319 323.18 43.3178 322.898C43.815 322.615 44.38 322.474 45.0128 322.474V324.966H44.3856C43.6398 324.966 43.0748 325.141 42.6906 325.491C42.3177 325.841 42.1313 326.452 42.1313 327.322V332H39.7583V322.61H42.1313V324.067ZM55.3404 327.101C55.3404 327.44 55.3178 327.746 55.2726 328.017H48.4078C48.4643 328.695 48.7016 329.226 49.1197 329.61C49.5378 329.994 50.052 330.186 50.6622 330.186C51.5436 330.186 52.1707 329.808 52.5436 329.051H55.1031C54.8319 329.955 54.3121 330.7 53.5437 331.288C52.7753 331.864 51.8317 332.153 50.713 332.153C49.809 332.153 48.9954 331.955 48.2722 331.559C47.5603 331.152 47.001 330.582 46.5942 329.847C46.1987 329.113 46.0009 328.265 46.0009 327.305C46.0009 326.333 46.1987 325.48 46.5942 324.745C46.9897 324.011 47.5434 323.446 48.2553 323.05C48.9672 322.655 49.7864 322.457 50.713 322.457C51.6057 322.457 52.4024 322.649 53.103 323.033C53.8149 323.418 54.3629 323.966 54.7471 324.678C55.1426 325.378 55.3404 326.186 55.3404 327.101ZM52.8826 326.423C52.8713 325.813 52.651 325.327 52.2216 324.966C51.7922 324.593 51.2667 324.406 50.6452 324.406C50.0576 324.406 49.5604 324.587 49.1536 324.949C48.7581 325.299 48.5152 325.791 48.4248 326.423H52.8826ZM68.734 322.474C69.8866 322.474 70.8132 322.83 71.5138 323.542C72.2257 324.243 72.5817 325.226 72.5817 326.491V332H70.2087V326.813C70.2087 326.079 70.0222 325.519 69.6493 325.135C69.2764 324.74 68.7679 324.542 68.1238 324.542C67.4797 324.542 66.9656 324.74 66.5814 325.135C66.2085 325.519 66.022 326.079 66.022 326.813V332H63.649V326.813C63.649 326.079 63.4626 325.519 63.0897 325.135C62.7168 324.74 62.2083 324.542 61.5642 324.542C60.9088 324.542 60.389 324.74 60.0048 325.135C59.6319 325.519 59.4454 326.079 59.4454 326.813V332H57.0724V322.61H59.4454V323.745C59.7505 323.35 60.1404 323.039 60.615 322.813C61.1009 322.587 61.632 322.474 62.2083 322.474C62.9428 322.474 63.5982 322.632 64.1745 322.949C64.7508 323.254 65.1971 323.694 65.5135 324.271C65.8186 323.728 66.2593 323.293 66.8356 322.966C67.4232 322.638 68.056 322.474 68.734 322.474ZM80.0758 321.491C79.6577 321.491 79.3074 321.361 79.0249 321.101C78.7537 320.83 78.6181 320.497 78.6181 320.101C78.6181 319.706 78.7537 319.378 79.0249 319.118C79.3074 318.847 79.6577 318.711 80.0758 318.711C80.4939 318.711 80.8386 318.847 81.1098 319.118C81.3923 319.378 81.5335 319.706 81.5335 320.101C81.5335 320.497 81.3923 320.83 81.1098 321.101C80.8386 321.361 80.4939 321.491 80.0758 321.491ZM81.2454 322.61V332H78.8724V322.61H81.2454ZM85.9629 323.966C86.268 323.536 86.6861 323.18 87.2172 322.898C87.7596 322.604 88.3755 322.457 89.0648 322.457C89.8671 322.457 90.5903 322.655 91.2344 323.05C91.8898 323.446 92.4039 324.011 92.7768 324.745C93.161 325.469 93.3531 326.31 93.3531 327.271C93.3531 328.231 93.161 329.085 92.7768 329.83C92.4039 330.565 91.8898 331.136 91.2344 331.542C90.5903 331.949 89.8671 332.153 89.0648 332.153C88.3755 332.153 87.7653 332.011 87.2342 331.729C86.7144 331.446 86.2906 331.09 85.9629 330.661V336.475H83.5899V322.61H85.9629V323.966ZM90.9293 327.271C90.9293 326.706 90.8106 326.22 90.5733 325.813C90.3473 325.395 90.0422 325.079 89.658 324.864C89.2851 324.649 88.8783 324.542 88.4376 324.542C88.0082 324.542 87.6014 324.655 87.2172 324.881C86.8443 325.096 86.5392 325.412 86.3019 325.83C86.0759 326.248 85.9629 326.74 85.9629 327.305C85.9629 327.87 86.0759 328.361 86.3019 328.779C86.5392 329.198 86.8443 329.52 87.2172 329.746C87.6014 329.96 88.0082 330.068 88.4376 330.068C88.8783 330.068 89.2851 329.955 89.658 329.729C90.0422 329.503 90.3473 329.181 90.5733 328.763C90.8106 328.344 90.9293 327.847 90.9293 327.271ZM98.6709 332.153C97.9025 332.153 97.2132 332.017 96.603 331.746C95.9928 331.463 95.5069 331.085 95.1453 330.61C94.795 330.135 94.6029 329.61 94.569 329.034H96.959C97.0042 329.395 97.1793 329.695 97.4844 329.932C97.8008 330.169 98.1907 330.288 98.654 330.288C99.106 330.288 99.4563 330.198 99.7049 330.017C99.9648 329.836 100.095 329.604 100.095 329.322C100.095 329.017 99.9365 328.791 99.6201 328.644C99.315 328.486 98.8235 328.316 98.1455 328.135C97.4449 327.966 96.8686 327.791 96.4166 327.61C95.9759 327.429 95.5917 327.152 95.264 326.779C94.9476 326.406 94.7894 325.904 94.7894 325.271C94.7894 324.751 94.9363 324.276 95.2301 323.847C95.5352 323.418 95.9646 323.079 96.5183 322.83C97.0833 322.581 97.7443 322.457 98.5014 322.457C99.6201 322.457 100.513 322.74 101.18 323.305C101.846 323.858 102.213 324.61 102.281 325.559H100.01C99.9761 325.186 99.8179 324.892 99.5354 324.678C99.2642 324.452 98.8969 324.339 98.4336 324.339C98.0042 324.339 97.6709 324.418 97.4336 324.576C97.2076 324.734 97.0946 324.954 97.0946 325.237C97.0946 325.553 97.2528 325.796 97.5692 325.966C97.8856 326.124 98.3771 326.288 99.0438 326.457C99.7218 326.627 100.281 326.802 100.722 326.983C101.163 327.164 101.541 327.446 101.858 327.83C102.185 328.203 102.355 328.7 102.366 329.322C102.366 329.864 102.213 330.35 101.908 330.78C101.615 331.209 101.185 331.548 100.62 331.797C100.066 332.034 99.4167 332.153 98.6709 332.153ZM113.179 322.61V332H110.789V330.813C110.484 331.22 110.083 331.542 109.585 331.78C109.099 332.006 108.568 332.119 107.992 332.119C107.258 332.119 106.608 331.966 106.043 331.661C105.478 331.345 105.031 330.887 104.704 330.288C104.387 329.678 104.229 328.955 104.229 328.118V322.61H106.602V327.779C106.602 328.525 106.789 329.102 107.162 329.508C107.534 329.904 108.043 330.102 108.687 330.102C109.342 330.102 109.857 329.904 110.229 329.508C110.602 329.102 110.789 328.525 110.789 327.779V322.61H113.179ZM127.182 322.474C128.334 322.474 129.261 322.83 129.962 323.542C130.673 324.243 131.029 325.226 131.029 326.491V332H128.656V326.813C128.656 326.079 128.47 325.519 128.097 325.135C127.724 324.74 127.216 324.542 126.572 324.542C125.927 324.542 125.413 324.74 125.029 325.135C124.656 325.519 124.47 326.079 124.47 326.813V332H122.097V326.813C122.097 326.079 121.91 325.519 121.537 325.135C121.164 324.74 120.656 324.542 120.012 324.542C119.356 324.542 118.837 324.74 118.452 325.135C118.08 325.519 117.893 326.079 117.893 326.813V332H115.52V322.61H117.893V323.745C118.198 323.35 118.588 323.039 119.063 322.813C119.549 322.587 120.08 322.474 120.656 322.474C121.39 322.474 122.046 322.632 122.622 322.949C123.198 323.254 123.645 323.694 123.961 324.271C124.266 323.728 124.707 323.293 125.283 322.966C125.871 322.638 126.504 322.474 127.182 322.474Z" fill="white"/>
<rect width="257" height="42" transform="translate(20 349)" fill="white"/>
<path d="M42.7216 373.675H46.1056V375H41.08V364.992H42.7216V373.675ZM50.92 375.13C50.1712 375.13 49.4944 374.962 48.8896 374.626C48.2848 374.28 47.8096 373.8 47.464 373.186C47.1184 372.562 46.9456 371.842 46.9456 371.026C46.9456 370.219 47.1232 369.504 47.4784 368.88C47.8336 368.256 48.3184 367.776 48.9328 367.44C49.5472 367.104 50.2336 366.936 50.992 366.936C51.7504 366.936 52.4368 367.104 53.0512 367.44C53.6656 367.776 54.1504 368.256 54.5056 368.88C54.8608 369.504 55.0384 370.219 55.0384 371.026C55.0384 371.832 54.856 372.547 54.4912 373.171C54.1264 373.795 53.6272 374.28 52.9936 374.626C52.3696 374.962 51.6784 375.13 50.92 375.13ZM50.92 373.704C51.3424 373.704 51.736 373.603 52.1008 373.402C52.4752 373.2 52.7776 372.898 53.008 372.494C53.2384 372.091 53.3536 371.602 53.3536 371.026C53.3536 370.45 53.2432 369.965 53.0224 369.571C52.8016 369.168 52.5088 368.866 52.144 368.664C51.7792 368.462 51.3856 368.362 50.9632 368.362C50.5408 368.362 50.1472 368.462 49.7824 368.664C49.4272 368.866 49.144 369.168 48.9328 369.571C48.7216 369.965 48.616 370.45 48.616 371.026C48.616 371.88 48.832 372.542 49.264 373.013C49.7056 373.474 50.2576 373.704 50.92 373.704ZM58.3029 368.218C58.5429 367.814 58.8597 367.502 59.2533 367.282C59.6565 367.051 60.1317 366.936 60.6789 366.936V368.635H60.2613C59.6181 368.635 59.1285 368.798 58.7925 369.125C58.4661 369.451 58.3029 370.018 58.3029 370.824V375H56.6613V367.066H58.3029V368.218ZM69.4598 370.838C69.4598 371.136 69.4406 371.405 69.4022 371.645H63.3398C63.3878 372.278 63.623 372.787 64.0454 373.171C64.4678 373.555 64.9862 373.747 65.6006 373.747C66.4838 373.747 67.1078 373.378 67.4726 372.638H69.2438C69.0038 373.368 68.567 373.968 67.9334 374.438C67.3094 374.899 66.5318 375.13 65.6006 375.13C64.8422 375.13 64.1606 374.962 63.5558 374.626C62.9606 374.28 62.4902 373.8 62.1446 373.186C61.8086 372.562 61.6406 371.842 61.6406 371.026C61.6406 370.21 61.8038 369.494 62.1302 368.88C62.4662 368.256 62.9318 367.776 63.527 367.44C64.1318 367.104 64.823 366.936 65.6006 366.936C66.3494 366.936 67.0166 367.099 67.6022 367.426C68.1878 367.752 68.6438 368.213 68.9702 368.808C69.2966 369.394 69.4598 370.07 69.4598 370.838ZM67.7462 370.32C67.7366 369.715 67.5206 369.23 67.0982 368.866C66.6758 368.501 66.1526 368.318 65.5286 368.318C64.9622 368.318 64.4774 368.501 64.0742 368.866C63.671 369.221 63.431 369.706 63.3542 370.32H67.7462ZM80.6801 366.936C81.3041 366.936 81.8609 367.066 82.3505 367.325C82.8497 367.584 83.2385 367.968 83.5169 368.477C83.8049 368.986 83.9489 369.6 83.9489 370.32V375H82.3217V370.565C82.3217 369.854 82.1441 369.312 81.7889 368.938C81.4337 368.554 80.9489 368.362 80.3345 368.362C79.7201 368.362 79.2305 368.554 78.8657 368.938C78.5105 369.312 78.3329 369.854 78.3329 370.565V375H76.7057V370.565C76.7057 369.854 76.5281 369.312 76.1729 368.938C75.8177 368.554 75.3329 368.362 74.7185 368.362C74.1041 368.362 73.6145 368.554 73.2497 368.938C72.8945 369.312 72.7169 369.854 72.7169 370.565V375H71.0753V367.066H72.7169V367.973C72.9857 367.646 73.3265 367.392 73.7393 367.21C74.1521 367.027 74.5937 366.936 75.0641 366.936C75.6977 366.936 76.2641 367.07 76.7633 367.339C77.2625 367.608 77.6465 367.997 77.9153 368.506C78.1553 368.026 78.5297 367.646 79.0385 367.368C79.5473 367.08 80.0945 366.936 80.6801 366.936ZM90.6136 366.014C90.316 366.014 90.0664 365.914 89.8648 365.712C89.6632 365.51 89.5624 365.261 89.5624 364.963C89.5624 364.666 89.6632 364.416 89.8648 364.214C90.0664 364.013 90.316 363.912 90.6136 363.912C90.9016 363.912 91.1464 364.013 91.348 364.214C91.5496 364.416 91.6504 364.666 91.6504 364.963C91.6504 365.261 91.5496 365.51 91.348 365.712C91.1464 365.914 90.9016 366.014 90.6136 366.014ZM91.42 367.066V375H89.7784V367.066H91.42ZM95.2169 368.232C95.4953 367.867 95.8745 367.56 96.3545 367.31C96.8345 367.061 97.3769 366.936 97.9817 366.936C98.6729 366.936 99.3017 367.109 99.8681 367.454C100.444 367.79 100.895 368.266 101.222 368.88C101.548 369.494 101.711 370.2 101.711 370.997C101.711 371.794 101.548 372.509 101.222 373.142C100.895 373.766 100.444 374.256 99.8681 374.611C99.3017 374.957 98.6729 375.13 97.9817 375.13C97.3769 375.13 96.8393 375.01 96.3689 374.77C95.8985 374.52 95.5145 374.213 95.2169 373.848V378.773H93.5753V367.066H95.2169V368.232ZM100.041 370.997C100.041 370.45 99.9257 369.979 99.6953 369.586C99.4745 369.182 99.1769 368.88 98.8025 368.678C98.4377 368.467 98.0441 368.362 97.6217 368.362C97.2089 368.362 96.8153 368.467 96.4409 368.678C96.0761 368.89 95.7785 369.197 95.5481 369.6C95.3273 370.003 95.2169 370.478 95.2169 371.026C95.2169 371.573 95.3273 372.053 95.5481 372.466C95.7785 372.869 96.0761 373.176 96.4409 373.387C96.8153 373.598 97.2089 373.704 97.6217 373.704C98.0441 373.704 98.4377 373.598 98.8025 373.387C99.1769 373.166 99.4745 372.85 99.6953 372.437C99.9257 372.024 100.041 371.544 100.041 370.997ZM106.215 375.13C105.591 375.13 105.029 375.019 104.53 374.798C104.04 374.568 103.651 374.261 103.363 373.877C103.075 373.483 102.922 373.046 102.903 372.566H104.602C104.631 372.902 104.789 373.186 105.077 373.416C105.375 373.637 105.744 373.747 106.186 373.747C106.647 373.747 107.002 373.661 107.251 373.488C107.511 373.306 107.64 373.075 107.64 372.797C107.64 372.499 107.496 372.278 107.208 372.134C106.93 371.99 106.483 371.832 105.869 371.659C105.274 371.496 104.789 371.338 104.415 371.184C104.04 371.03 103.714 370.795 103.435 370.478C103.167 370.162 103.032 369.744 103.032 369.226C103.032 368.803 103.157 368.419 103.407 368.074C103.656 367.718 104.011 367.44 104.472 367.238C104.943 367.037 105.48 366.936 106.085 366.936C106.987 366.936 107.712 367.166 108.259 367.627C108.816 368.078 109.114 368.698 109.152 369.485H107.511C107.482 369.13 107.338 368.846 107.079 368.635C106.819 368.424 106.469 368.318 106.027 368.318C105.595 368.318 105.264 368.4 105.034 368.563C104.803 368.726 104.688 368.942 104.688 369.211C104.688 369.422 104.765 369.6 104.919 369.744C105.072 369.888 105.259 370.003 105.48 370.09C105.701 370.166 106.027 370.267 106.459 370.392C107.035 370.546 107.506 370.704 107.871 370.867C108.245 371.021 108.567 371.251 108.835 371.558C109.104 371.866 109.243 372.274 109.253 372.782C109.253 373.234 109.128 373.637 108.879 373.992C108.629 374.347 108.274 374.626 107.813 374.827C107.362 375.029 106.829 375.13 106.215 375.13ZM118.212 367.066V375H116.571V374.064C116.312 374.39 115.971 374.65 115.548 374.842C115.136 375.024 114.694 375.115 114.224 375.115C113.6 375.115 113.038 374.986 112.539 374.726C112.049 374.467 111.66 374.083 111.372 373.574C111.094 373.066 110.955 372.451 110.955 371.731V367.066H112.582V371.486C112.582 372.197 112.76 372.744 113.115 373.128C113.47 373.502 113.955 373.69 114.569 373.69C115.184 373.69 115.668 373.502 116.024 373.128C116.388 372.744 116.571 372.197 116.571 371.486V367.066H118.212ZM129.983 366.936C130.607 366.936 131.164 367.066 131.654 367.325C132.153 367.584 132.542 367.968 132.82 368.477C133.108 368.986 133.252 369.6 133.252 370.32V375H131.625V370.565C131.625 369.854 131.447 369.312 131.092 368.938C130.737 368.554 130.252 368.362 129.638 368.362C129.023 368.362 128.534 368.554 128.169 368.938C127.814 369.312 127.636 369.854 127.636 370.565V375H126.009V370.565C126.009 369.854 125.831 369.312 125.476 368.938C125.121 368.554 124.636 368.362 124.022 368.362C123.407 368.362 122.918 368.554 122.553 368.938C122.198 369.312 122.02 369.854 122.02 370.565V375H120.378V367.066H122.02V367.973C122.289 367.646 122.63 367.392 123.042 367.21C123.455 367.027 123.897 366.936 124.367 366.936C125.001 366.936 125.567 367.07 126.066 367.339C126.566 367.608 126.95 367.997 127.218 368.506C127.458 368.026 127.833 367.646 128.342 367.368C128.85 367.08 129.398 366.936 129.983 366.936Z" fill="#8990A9"/>
<path d="M241.059 363.696C241.035 363.672 241.007 363.653 240.975 363.64C240.944 363.627 240.91 363.62 240.876 363.62C240.842 363.62 240.808 363.627 240.777 363.64C240.745 363.653 240.717 363.672 240.693 363.696C239.673 364.718 239.1 366.104 239.1 367.548C239.1 368.992 239.673 370.378 240.693 371.4C240.741 371.449 240.807 371.476 240.876 371.476C240.945 371.476 241.011 371.449 241.059 371.4C241.108 371.352 241.135 371.286 241.135 371.217C241.135 371.148 241.108 371.082 241.059 371.034C240.136 370.108 239.618 368.855 239.618 367.548C239.618 366.241 240.136 364.988 241.059 364.063C241.083 364.039 241.103 364.01 241.116 363.979C241.129 363.947 241.135 363.913 241.135 363.879C241.135 363.845 241.129 363.812 241.116 363.78C241.103 363.749 241.083 363.72 241.059 363.696Z" fill="#172A59" stroke="#172A59"/>
<path d="M256.726 377.891L252.181 373.347C252.003 373.176 251.765 373.081 251.519 373.081C251.272 373.081 251.035 373.176 250.856 373.347L250.785 373.418L250.044 372.677C251.393 371.233 252.12 369.316 252.069 367.341C252.018 365.365 251.193 363.489 249.772 362.116C248.35 360.743 246.447 359.983 244.471 360C242.495 360.017 240.604 360.81 239.207 362.207C237.81 363.604 237.017 365.494 237 367.471C236.983 369.447 237.743 371.35 239.116 372.771C240.489 374.192 242.366 375.017 244.341 375.068C246.317 375.119 248.233 374.392 249.678 373.044L250.418 373.785L250.347 373.856C250.172 374.032 250.073 374.27 250.073 374.518C250.073 374.766 250.172 375.005 250.347 375.18L254.891 379.726C255.067 379.902 255.305 380 255.553 380C255.802 380 256.04 379.902 256.216 379.726L256.725 379.217C256.901 379.042 257 378.803 257 378.555C257 378.306 256.902 378.067 256.726 377.891ZM237.543 367.548C237.543 366.162 237.954 364.808 238.724 363.656C239.494 362.505 240.587 361.607 241.867 361.077C243.147 360.547 244.555 360.408 245.914 360.678C247.273 360.949 248.521 361.616 249.5 362.595C250.48 363.575 251.147 364.823 251.417 366.182C251.687 367.54 251.549 368.949 251.019 370.228C250.488 371.508 249.591 372.602 248.439 373.372C247.287 374.141 245.933 374.552 244.548 374.552C242.691 374.55 240.91 373.812 239.597 372.498C238.284 371.185 237.545 369.405 237.543 367.548ZM256.359 378.85L255.85 379.359C255.771 379.437 255.665 379.481 255.554 379.481C255.443 379.481 255.337 379.437 255.258 379.359L250.714 374.814C250.635 374.736 250.592 374.629 250.592 374.518C250.592 374.407 250.635 374.301 250.714 374.223L251.223 373.713C251.301 373.634 251.407 373.59 251.518 373.59C251.629 373.59 251.735 373.634 251.814 373.713L256.359 378.258C256.437 378.336 256.481 378.443 256.481 378.554C256.481 378.665 256.437 378.771 256.359 378.85Z" fill="#172A59" stroke="#172A59"/>
<rect width="60" height="42" transform="translate(277 349)" fill="#0A3DFA"/>
<g clip-path="url(#clip2)">
<path d="M311.949 369.444H307.52V365C307.52 364.853 307.462 364.711 307.358 364.607C307.254 364.503 307.113 364.444 306.966 364.444C306.819 364.444 306.678 364.503 306.575 364.607C306.471 364.711 306.412 364.853 306.412 365V369.444H301.983C301.836 369.444 301.695 369.503 301.592 369.607C301.488 369.711 301.429 369.853 301.429 370C301.429 370.147 301.488 370.289 301.592 370.393C301.695 370.497 301.836 370.556 301.983 370.556H306.412V375C306.412 375.147 306.471 375.289 306.575 375.393C306.678 375.497 306.819 375.556 306.966 375.556C307.113 375.556 307.254 375.497 307.358 375.393C307.462 375.289 307.52 375.147 307.52 375V370.556H311.949C312.096 370.556 312.237 370.497 312.341 370.393C312.445 370.289 312.503 370.147 312.503 370C312.503 369.853 312.445 369.711 312.341 369.607C312.237 369.503 312.096 369.444 311.949 369.444Z" fill="white"/>
<path d="M306.966 360C304.995 360 303.068 360.586 301.429 361.685C299.79 362.784 298.513 364.346 297.759 366.173C297.004 368 296.807 370.011 297.192 371.951C297.576 373.891 298.525 375.673 299.919 377.071C301.313 378.47 303.089 379.422 305.022 379.808C306.955 380.194 308.959 379.996 310.78 379.239C312.601 378.482 314.158 377.2 315.253 375.556C316.348 373.911 316.932 371.978 316.932 370C316.929 367.349 315.878 364.807 314.01 362.932C312.142 361.058 309.608 360.003 306.966 360ZM306.966 378.889C305.214 378.889 303.501 378.368 302.045 377.391C300.588 376.414 299.452 375.026 298.782 373.402C298.111 371.777 297.936 369.99 298.278 368.266C298.619 366.542 299.463 364.958 300.702 363.715C301.941 362.471 303.519 361.625 305.238 361.282C306.956 360.939 308.738 361.115 310.356 361.788C311.975 362.461 313.359 363.6 314.332 365.062C315.306 366.523 315.825 368.242 315.825 370C315.822 372.357 314.888 374.616 313.227 376.282C311.567 377.949 309.315 378.886 306.966 378.889Z" fill="white"/>
</g>
<rect width="317" height="32" transform="translate(20 391)" fill="#FCD228"/>
<path d="M42.7216 410.675H46.1056V412H41.08V401.992H42.7216V410.675ZM50.92 412.13C50.1712 412.13 49.4944 411.962 48.8896 411.626C48.2848 411.28 47.8096 410.8 47.464 410.186C47.1184 409.562 46.9456 408.842 46.9456 408.026C46.9456 407.219 47.1232 406.504 47.4784 405.88C47.8336 405.256 48.3184 404.776 48.9328 404.44C49.5472 404.104 50.2336 403.936 50.992 403.936C51.7504 403.936 52.4368 404.104 53.0512 404.44C53.6656 404.776 54.1504 405.256 54.5056 405.88C54.8608 406.504 55.0384 407.219 55.0384 408.026C55.0384 408.832 54.856 409.547 54.4912 410.171C54.1264 410.795 53.6272 411.28 52.9936 411.626C52.3696 411.962 51.6784 412.13 50.92 412.13ZM50.92 410.704C51.3424 410.704 51.736 410.603 52.1008 410.402C52.4752 410.2 52.7776 409.898 53.008 409.494C53.2384 409.091 53.3536 408.602 53.3536 408.026C53.3536 407.45 53.2432 406.965 53.0224 406.571C52.8016 406.168 52.5088 405.866 52.144 405.664C51.7792 405.462 51.3856 405.362 50.9632 405.362C50.5408 405.362 50.1472 405.462 49.7824 405.664C49.4272 405.866 49.144 406.168 48.9328 406.571C48.7216 406.965 48.616 407.45 48.616 408.026C48.616 408.88 48.832 409.542 49.264 410.013C49.7056 410.474 50.2576 410.704 50.92 410.704ZM58.3029 405.218C58.5429 404.814 58.8597 404.502 59.2533 404.282C59.6565 404.051 60.1317 403.936 60.6789 403.936V405.635H60.2613C59.6181 405.635 59.1285 405.798 58.7925 406.125C58.4661 406.451 58.3029 407.018 58.3029 407.824V412H56.6613V404.066H58.3029V405.218ZM69.4598 407.838C69.4598 408.136 69.4406 408.405 69.4022 408.645H63.3398C63.3878 409.278 63.623 409.787 64.0454 410.171C64.4678 410.555 64.9862 410.747 65.6006 410.747C66.4838 410.747 67.1078 410.378 67.4726 409.638H69.2438C69.0038 410.368 68.567 410.968 67.9334 411.438C67.3094 411.899 66.5318 412.13 65.6006 412.13C64.8422 412.13 64.1606 411.962 63.5558 411.626C62.9606 411.28 62.4902 410.8 62.1446 410.186C61.8086 409.562 61.6406 408.842 61.6406 408.026C61.6406 407.21 61.8038 406.494 62.1302 405.88C62.4662 405.256 62.9318 404.776 63.527 404.44C64.1318 404.104 64.823 403.936 65.6006 403.936C66.3494 403.936 67.0166 404.099 67.6022 404.426C68.1878 404.752 68.6438 405.213 68.9702 405.808C69.2966 406.394 69.4598 407.07 69.4598 407.838ZM67.7462 407.32C67.7366 406.715 67.5206 406.23 67.0982 405.866C66.6758 405.501 66.1526 405.318 65.5286 405.318C64.9622 405.318 64.4774 405.501 64.0742 405.866C63.671 406.221 63.431 406.706 63.3542 407.32H67.7462ZM80.6801 403.936C81.3041 403.936 81.8609 404.066 82.3505 404.325C82.8497 404.584 83.2385 404.968 83.5169 405.477C83.8049 405.986 83.9489 406.6 83.9489 407.32V412H82.3217V407.565C82.3217 406.854 82.1441 406.312 81.7889 405.938C81.4337 405.554 80.9489 405.362 80.3345 405.362C79.7201 405.362 79.2305 405.554 78.8657 405.938C78.5105 406.312 78.3329 406.854 78.3329 407.565V412H76.7057V407.565C76.7057 406.854 76.5281 406.312 76.1729 405.938C75.8177 405.554 75.3329 405.362 74.7185 405.362C74.1041 405.362 73.6145 405.554 73.2497 405.938C72.8945 406.312 72.7169 406.854 72.7169 407.565V412H71.0753V404.066H72.7169V404.973C72.9857 404.646 73.3265 404.392 73.7393 404.21C74.1521 404.027 74.5937 403.936 75.0641 403.936C75.6977 403.936 76.2641 404.07 76.7633 404.339C77.2625 404.608 77.6465 404.997 77.9153 405.506C78.1553 405.026 78.5297 404.646 79.0385 404.368C79.5473 404.08 80.0945 403.936 80.6801 403.936ZM90.6136 403.014C90.316 403.014 90.0664 402.914 89.8648 402.712C89.6632 402.51 89.5624 402.261 89.5624 401.963C89.5624 401.666 89.6632 401.416 89.8648 401.214C90.0664 401.013 90.316 400.912 90.6136 400.912C90.9016 400.912 91.1464 401.013 91.348 401.214C91.5496 401.416 91.6504 401.666 91.6504 401.963C91.6504 402.261 91.5496 402.51 91.348 402.712C91.1464 402.914 90.9016 403.014 90.6136 403.014ZM91.42 404.066V412H89.7784V404.066H91.42ZM95.2169 405.232C95.4953 404.867 95.8745 404.56 96.3545 404.31C96.8345 404.061 97.3769 403.936 97.9817 403.936C98.6729 403.936 99.3017 404.109 99.8681 404.454C100.444 404.79 100.895 405.266 101.222 405.88C101.548 406.494 101.711 407.2 101.711 407.997C101.711 408.794 101.548 409.509 101.222 410.142C100.895 410.766 100.444 411.256 99.8681 411.611C99.3017 411.957 98.6729 412.13 97.9817 412.13C97.3769 412.13 96.8393 412.01 96.3689 411.77C95.8985 411.52 95.5145 411.213 95.2169 410.848V415.773H93.5753V404.066H95.2169V405.232ZM100.041 407.997C100.041 407.45 99.9257 406.979 99.6953 406.586C99.4745 406.182 99.1769 405.88 98.8025 405.678C98.4377 405.467 98.0441 405.362 97.6217 405.362C97.2089 405.362 96.8153 405.467 96.4409 405.678C96.0761 405.89 95.7785 406.197 95.5481 406.6C95.3273 407.003 95.2169 407.478 95.2169 408.026C95.2169 408.573 95.3273 409.053 95.5481 409.466C95.7785 409.869 96.0761 410.176 96.4409 410.387C96.8153 410.598 97.2089 410.704 97.6217 410.704C98.0441 410.704 98.4377 410.598 98.8025 410.387C99.1769 410.166 99.4745 409.85 99.6953 409.437C99.9257 409.024 100.041 408.544 100.041 407.997ZM106.215 412.13C105.591 412.13 105.029 412.019 104.53 411.798C104.04 411.568 103.651 411.261 103.363 410.877C103.075 410.483 102.922 410.046 102.903 409.566H104.602C104.631 409.902 104.789 410.186 105.077 410.416C105.375 410.637 105.744 410.747 106.186 410.747C106.647 410.747 107.002 410.661 107.251 410.488C107.511 410.306 107.64 410.075 107.64 409.797C107.64 409.499 107.496 409.278 107.208 409.134C106.93 408.99 106.483 408.832 105.869 408.659C105.274 408.496 104.789 408.338 104.415 408.184C104.04 408.03 103.714 407.795 103.435 407.478C103.167 407.162 103.032 406.744 103.032 406.226C103.032 405.803 103.157 405.419 103.407 405.074C103.656 404.718 104.011 404.44 104.472 404.238C104.943 404.037 105.48 403.936 106.085 403.936C106.987 403.936 107.712 404.166 108.259 404.627C108.816 405.078 109.114 405.698 109.152 406.485H107.511C107.482 406.13 107.338 405.846 107.079 405.635C106.819 405.424 106.469 405.318 106.027 405.318C105.595 405.318 105.264 405.4 105.034 405.563C104.803 405.726 104.688 405.942 104.688 406.211C104.688 406.422 104.765 406.6 104.919 406.744C105.072 406.888 105.259 407.003 105.48 407.09C105.701 407.166 106.027 407.267 106.459 407.392C107.035 407.546 107.506 407.704 107.871 407.867C108.245 408.021 108.567 408.251 108.835 408.558C109.104 408.866 109.243 409.274 109.253 409.782C109.253 410.234 109.128 410.637 108.879 410.992C108.629 411.347 108.274 411.626 107.813 411.827C107.362 412.029 106.829 412.13 106.215 412.13ZM118.212 404.066V412H116.571V411.064C116.312 411.39 115.971 411.65 115.548 411.842C115.136 412.024 114.694 412.115 114.224 412.115C113.6 412.115 113.038 411.986 112.539 411.726C112.049 411.467 111.66 411.083 111.372 410.574C111.094 410.066 110.955 409.451 110.955 408.731V404.066H112.582V408.486C112.582 409.197 112.76 409.744 113.115 410.128C113.47 410.502 113.955 410.69 114.569 410.69C115.184 410.69 115.668 410.502 116.024 410.128C116.388 409.744 116.571 409.197 116.571 408.486V404.066H118.212ZM129.983 403.936C130.607 403.936 131.164 404.066 131.654 404.325C132.153 404.584 132.542 404.968 132.82 405.477C133.108 405.986 133.252 406.6 133.252 407.32V412H131.625V407.565C131.625 406.854 131.447 406.312 131.092 405.938C130.737 405.554 130.252 405.362 129.638 405.362C129.023 405.362 128.534 405.554 128.169 405.938C127.814 406.312 127.636 406.854 127.636 407.565V412H126.009V407.565C126.009 406.854 125.831 406.312 125.476 405.938C125.121 405.554 124.636 405.362 124.022 405.362C123.407 405.362 122.918 405.554 122.553 405.938C122.198 406.312 122.02 406.854 122.02 407.565V412H120.378V404.066H122.02V404.973C122.289 404.646 122.63 404.392 123.042 404.21C123.455 404.027 123.897 403.936 124.367 403.936C125.001 403.936 125.567 404.07 126.066 404.339C126.566 404.608 126.95 404.997 127.218 405.506C127.458 405.026 127.833 404.646 128.342 404.368C128.85 404.08 129.398 403.936 129.983 403.936Z" fill="#172A59"/>
<rect x="0.5" y="0.5" width="455" height="452" rx="4.5" stroke="#7B61FF" stroke-dasharray="10 5"/>
<defs>
<clipPath id="clip0">
<rect width="20" height="20" fill="white" transform="translate(297 66)"/>
</clipPath>
<clipPath id="clip1">
<rect width="20" height="20" fill="white" transform="translate(297 213)"/>
</clipPath>
<clipPath id="clip2">
<rect width="20" height="20" fill="white" transform="translate(297 360)"/>
</clipPath>
</defs>
</svg>
