<svg width="340" height="345" viewBox="0 0 340 345" fill="none" xmlns="http://www.w3.org/2000/svg">
<rect width="300" height="45" transform="translate(20 20)" fill="#172A59"/>
<path d="M62.8476 46.7457H66.9834V48H61.3052V36.1858H62.8476V46.7457ZM72.6725 48.1526C71.8024 48.1526 71.0114 47.9548 70.2995 47.5593C69.5989 47.1638 69.0452 46.6044 68.6384 45.8812C68.2429 45.1467 68.0452 44.2992 68.0452 43.3387C68.0452 42.3895 68.2486 41.5533 68.6554 40.8301C69.0735 40.0956 69.6385 39.5363 70.3504 39.1521C71.0623 38.7566 71.8589 38.5588 72.7403 38.5588C73.6217 38.5588 74.4184 38.7566 75.1303 39.1521C75.8422 39.5363 76.4015 40.09 76.8083 40.8132C77.2264 41.5364 77.4355 42.3782 77.4355 43.3387C77.4355 44.2992 77.2208 45.1467 76.7914 45.8812C76.3733 46.6044 75.8026 47.1638 75.0794 47.5593C74.3562 47.9548 73.5539 48.1526 72.6725 48.1526ZM72.6725 46.7965C73.2262 46.7965 73.746 46.6666 74.2319 46.4067C74.7178 46.1468 75.1077 45.7569 75.4015 45.2371C75.7066 44.7173 75.8591 44.0845 75.8591 43.3387C75.8591 42.5929 75.7122 41.9601 75.4184 41.4403C75.1246 40.9205 74.7404 40.5363 74.2658 40.2877C73.7912 40.0278 73.2771 39.8979 72.7234 39.8979C72.1584 39.8979 71.6386 40.0278 71.164 40.2877C70.7007 40.5363 70.3278 40.9205 70.0453 41.4403C69.7628 41.9601 69.6215 42.5929 69.6215 43.3387C69.6215 44.0958 69.7571 44.7343 70.0283 45.2541C70.3108 45.7739 70.6837 46.1637 71.147 46.4236C71.6103 46.6722 72.1188 46.7965 72.6725 46.7965ZM81.006 40.2199C81.2772 39.6888 81.6614 39.2764 82.1586 38.9826C82.6671 38.6888 83.2829 38.5419 84.0061 38.5419V40.1352H83.5993C81.8704 40.1352 81.006 41.0731 81.006 42.9489V48H79.4635V38.7114H81.006V40.2199ZM94.2616 42.9997C94.2616 43.2935 94.2447 43.6043 94.2108 43.932H86.7867C86.8432 44.8473 87.1539 45.5648 87.7189 46.0846C88.2952 46.5931 88.9902 46.8474 89.8038 46.8474C90.4705 46.8474 91.0242 46.6948 91.4649 46.3897C91.9169 46.0733 92.2333 45.6552 92.4141 45.1354H94.0752C93.8266 46.0281 93.3294 46.757 92.5836 47.322C91.8378 47.8757 90.9112 48.1526 89.8038 48.1526C88.9224 48.1526 88.1314 47.9548 87.4308 47.5593C86.7415 47.1638 86.1991 46.6044 85.8036 45.8812C85.4081 45.1467 85.2103 44.2992 85.2103 43.3387C85.2103 42.3782 85.4024 41.5364 85.7866 40.8132C86.1708 40.09 86.7076 39.5363 87.3969 39.1521C88.0975 38.7566 88.8998 38.5588 89.8038 38.5588C90.6852 38.5588 91.4649 38.7509 92.1429 39.1351C92.8209 39.5193 93.3407 40.0504 93.7023 40.7284C94.0752 41.3951 94.2616 42.1522 94.2616 42.9997ZM92.6683 42.6777C92.6683 42.0901 92.5384 41.5872 92.2785 41.1691C92.0186 40.7397 91.6626 40.4177 91.2106 40.203C90.7699 39.977 90.2784 39.864 89.736 39.864C88.9563 39.864 88.2896 40.1126 87.7359 40.6098C87.1935 41.107 86.8827 41.7963 86.8036 42.6777H92.6683ZM107.468 38.5419C108.191 38.5419 108.835 38.6944 109.4 38.9995C109.965 39.2933 110.411 39.7397 110.739 40.3386C111.067 40.9375 111.231 41.6663 111.231 42.5251V48H109.705V42.7455C109.705 41.8189 109.473 41.1126 109.01 40.6267C108.558 40.1295 107.942 39.8809 107.163 39.8809C106.36 39.8809 105.722 40.1408 105.247 40.6606C104.773 41.1691 104.535 41.9093 104.535 42.8811V48H103.01V42.7455C103.01 41.8189 102.778 41.1126 102.315 40.6267C101.863 40.1295 101.247 39.8809 100.467 39.8809C99.665 39.8809 99.0266 40.1408 98.552 40.6606C98.0774 41.1691 97.8401 41.9093 97.8401 42.8811V48H96.2976V38.7114H97.8401V40.0504C98.1452 39.5645 98.552 39.1916 99.0605 38.9317C99.5803 38.6718 100.151 38.5419 100.772 38.5419C101.552 38.5419 102.241 38.717 102.84 39.0673C103.439 39.4176 103.886 39.9318 104.179 40.6098C104.439 39.9544 104.869 39.4459 105.468 39.0843C106.066 38.7227 106.733 38.5419 107.468 38.5419Z" fill="white"/>
<rect width="300" height="45" transform="translate(20 215)" fill="white"/>
<path d="M62.8476 241.746H66.9834V243H61.3052V231.186H62.8476V241.746ZM72.6725 243.153C71.8024 243.153 71.0114 242.955 70.2995 242.559C69.5989 242.164 69.0452 241.604 68.6384 240.881C68.2429 240.147 68.0452 239.299 68.0452 238.339C68.0452 237.39 68.2486 236.553 68.6554 235.83C69.0735 235.096 69.6385 234.536 70.3504 234.152C71.0623 233.757 71.8589 233.559 72.7403 233.559C73.6217 233.559 74.4184 233.757 75.1303 234.152C75.8422 234.536 76.4015 235.09 76.8083 235.813C77.2264 236.536 77.4355 237.378 77.4355 238.339C77.4355 239.299 77.2208 240.147 76.7914 240.881C76.3733 241.604 75.8026 242.164 75.0794 242.559C74.3562 242.955 73.5539 243.153 72.6725 243.153ZM72.6725 241.797C73.2262 241.797 73.746 241.667 74.2319 241.407C74.7178 241.147 75.1077 240.757 75.4015 240.237C75.7066 239.717 75.8591 239.085 75.8591 238.339C75.8591 237.593 75.7122 236.96 75.4184 236.44C75.1246 235.921 74.7404 235.536 74.2658 235.288C73.7912 235.028 73.2771 234.898 72.7234 234.898C72.1584 234.898 71.6386 235.028 71.164 235.288C70.7007 235.536 70.3278 235.921 70.0453 236.44C69.7628 236.96 69.6215 237.593 69.6215 238.339C69.6215 239.096 69.7571 239.734 70.0283 240.254C70.3108 240.774 70.6837 241.164 71.147 241.424C71.6103 241.672 72.1188 241.797 72.6725 241.797ZM81.006 235.22C81.2772 234.689 81.6614 234.276 82.1586 233.983C82.6671 233.689 83.2829 233.542 84.0061 233.542V235.135H83.5993C81.8704 235.135 81.006 236.073 81.006 237.949V243H79.4635V233.711H81.006V235.22ZM94.2616 238C94.2616 238.294 94.2447 238.604 94.2108 238.932H86.7867C86.8432 239.847 87.1539 240.565 87.7189 241.085C88.2952 241.593 88.9902 241.847 89.8038 241.847C90.4705 241.847 91.0242 241.695 91.4649 241.39C91.9169 241.073 92.2333 240.655 92.4141 240.135H94.0752C93.8266 241.028 93.3294 241.757 92.5836 242.322C91.8378 242.876 90.9112 243.153 89.8038 243.153C88.9224 243.153 88.1314 242.955 87.4308 242.559C86.7415 242.164 86.1991 241.604 85.8036 240.881C85.4081 240.147 85.2103 239.299 85.2103 238.339C85.2103 237.378 85.4024 236.536 85.7866 235.813C86.1708 235.09 86.7076 234.536 87.3969 234.152C88.0975 233.757 88.8998 233.559 89.8038 233.559C90.6852 233.559 91.4649 233.751 92.1429 234.135C92.8209 234.519 93.3407 235.05 93.7023 235.728C94.0752 236.395 94.2616 237.152 94.2616 238ZM92.6683 237.678C92.6683 237.09 92.5384 236.587 92.2785 236.169C92.0186 235.74 91.6626 235.418 91.2106 235.203C90.7699 234.977 90.2784 234.864 89.736 234.864C88.9563 234.864 88.2896 235.113 87.7359 235.61C87.1935 236.107 86.8827 236.796 86.8036 237.678H92.6683ZM107.468 233.542C108.191 233.542 108.835 233.694 109.4 234C109.965 234.293 110.411 234.74 110.739 235.339C111.067 235.937 111.231 236.666 111.231 237.525V243H109.705V237.745C109.705 236.819 109.473 236.113 109.01 235.627C108.558 235.13 107.942 234.881 107.163 234.881C106.36 234.881 105.722 235.141 105.247 235.661C104.773 236.169 104.535 236.909 104.535 237.881V243H103.01V237.745C103.01 236.819 102.778 236.113 102.315 235.627C101.863 235.13 101.247 234.881 100.467 234.881C99.665 234.881 99.0266 235.141 98.552 235.661C98.0774 236.169 97.8401 236.909 97.8401 237.881V243H96.2976V233.711H97.8401V235.05C98.1452 234.565 98.552 234.192 99.0605 233.932C99.5803 233.672 100.151 233.542 100.772 233.542C101.552 233.542 102.241 233.717 102.84 234.067C103.439 234.418 103.886 234.932 104.179 235.61C104.439 234.954 104.869 234.446 105.468 234.084C106.066 233.723 106.733 233.542 107.468 233.542Z" fill="#172A59"/>
<rect width="300" height="45" transform="translate(20 280)" fill="white"/>
<path d="M63.5426 306.119H67.4411V308H61.1696V296.169H63.5426V306.119ZM73.119 308.153C72.215 308.153 71.4014 307.955 70.6782 307.559C69.955 307.152 69.3844 306.582 68.9663 305.847C68.5595 305.113 68.3561 304.265 68.3561 303.305C68.3561 302.344 68.5651 301.497 68.9832 300.762C69.4126 300.028 69.9946 299.463 70.7291 299.067C71.4636 298.661 72.2828 298.457 73.1868 298.457C74.0908 298.457 74.9101 298.661 75.6446 299.067C76.3791 299.463 76.9554 300.028 77.3735 300.762C77.8029 301.497 78.0176 302.344 78.0176 303.305C78.0176 304.265 77.7972 305.113 77.3565 305.847C76.9271 306.582 76.3395 307.152 75.5937 307.559C74.8592 307.955 74.0343 308.153 73.119 308.153ZM73.119 306.085C73.5484 306.085 73.9496 305.983 74.3225 305.78C74.7067 305.565 75.0118 305.248 75.2378 304.83C75.4638 304.412 75.5768 303.904 75.5768 303.305C75.5768 302.412 75.3395 301.728 74.8649 301.254C74.4016 300.768 73.8309 300.525 73.1529 300.525C72.4749 300.525 71.9043 300.768 71.441 301.254C70.989 301.728 70.763 302.412 70.763 303.305C70.763 304.198 70.9833 304.887 71.424 305.373C71.876 305.847 72.441 306.085 73.119 306.085ZM82.1313 300.067C82.4364 299.57 82.8319 299.18 83.3178 298.898C83.815 298.615 84.38 298.474 85.0128 298.474V300.966H84.3856C83.6398 300.966 83.0748 301.141 82.6906 301.491C82.3177 301.841 82.1313 302.452 82.1313 303.322V308H79.7583V298.61H82.1313V300.067ZM95.3404 303.101C95.3404 303.44 95.3178 303.746 95.2726 304.017H88.4078C88.4643 304.695 88.7016 305.226 89.1197 305.61C89.5378 305.994 90.052 306.186 90.6622 306.186C91.5436 306.186 92.1707 305.808 92.5436 305.051H95.1031C94.8319 305.955 94.3121 306.7 93.5437 307.288C92.7753 307.864 91.8317 308.153 90.713 308.153C89.809 308.153 88.9954 307.955 88.2722 307.559C87.5603 307.152 87.001 306.582 86.5942 305.847C86.1987 305.113 86.0009 304.265 86.0009 303.305C86.0009 302.333 86.1987 301.48 86.5942 300.745C86.9897 300.011 87.5434 299.446 88.2553 299.05C88.9672 298.655 89.7864 298.457 90.713 298.457C91.6057 298.457 92.4024 298.649 93.103 299.033C93.8149 299.418 94.3629 299.966 94.7471 300.678C95.1426 301.378 95.3404 302.186 95.3404 303.101ZM92.8826 302.423C92.8713 301.813 92.651 301.327 92.2216 300.966C91.7922 300.593 91.2667 300.406 90.6452 300.406C90.0576 300.406 89.5604 300.587 89.1536 300.949C88.7581 301.299 88.5152 301.791 88.4248 302.423H92.8826ZM108.734 298.474C109.887 298.474 110.813 298.83 111.514 299.542C112.226 300.243 112.582 301.226 112.582 302.491V308H110.209V302.813C110.209 302.079 110.022 301.519 109.649 301.135C109.276 300.74 108.768 300.542 108.124 300.542C107.48 300.542 106.966 300.74 106.581 301.135C106.208 301.519 106.022 302.079 106.022 302.813V308H103.649V302.813C103.649 302.079 103.463 301.519 103.09 301.135C102.717 300.74 102.208 300.542 101.564 300.542C100.909 300.542 100.389 300.74 100.005 301.135C99.6319 301.519 99.4454 302.079 99.4454 302.813V308H97.0724V298.61H99.4454V299.745C99.7505 299.35 100.14 299.039 100.615 298.813C101.101 298.587 101.632 298.474 102.208 298.474C102.943 298.474 103.598 298.632 104.174 298.949C104.751 299.254 105.197 299.694 105.514 300.271C105.819 299.728 106.259 299.293 106.836 298.966C107.423 298.638 108.056 298.474 108.734 298.474Z" fill="#172A59"/>
<rect width="300" height="45" transform="translate(20 150)" fill="#172A59"/>
<path d="M63.5426 176.119H67.4411V178H61.1696V166.169H63.5426V176.119ZM73.119 178.153C72.215 178.153 71.4014 177.955 70.6782 177.559C69.955 177.152 69.3844 176.582 68.9663 175.847C68.5595 175.113 68.3561 174.265 68.3561 173.305C68.3561 172.344 68.5651 171.497 68.9832 170.762C69.4126 170.028 69.9946 169.463 70.7291 169.067C71.4636 168.661 72.2828 168.457 73.1868 168.457C74.0908 168.457 74.9101 168.661 75.6446 169.067C76.3791 169.463 76.9554 170.028 77.3735 170.762C77.8029 171.497 78.0176 172.344 78.0176 173.305C78.0176 174.265 77.7972 175.113 77.3565 175.847C76.9271 176.582 76.3395 177.152 75.5937 177.559C74.8592 177.955 74.0343 178.153 73.119 178.153ZM73.119 176.085C73.5484 176.085 73.9496 175.983 74.3225 175.78C74.7067 175.565 75.0118 175.248 75.2378 174.83C75.4638 174.412 75.5768 173.904 75.5768 173.305C75.5768 172.412 75.3395 171.728 74.8649 171.254C74.4016 170.768 73.8309 170.525 73.1529 170.525C72.4749 170.525 71.9043 170.768 71.441 171.254C70.989 171.728 70.763 172.412 70.763 173.305C70.763 174.198 70.9833 174.887 71.424 175.373C71.876 175.847 72.441 176.085 73.119 176.085ZM82.1313 170.067C82.4364 169.57 82.8319 169.18 83.3178 168.898C83.815 168.615 84.38 168.474 85.0128 168.474V170.966H84.3856C83.6398 170.966 83.0748 171.141 82.6906 171.491C82.3177 171.841 82.1313 172.452 82.1313 173.322V178H79.7583V168.61H82.1313V170.067ZM95.3404 173.101C95.3404 173.44 95.3178 173.746 95.2726 174.017H88.4078C88.4643 174.695 88.7016 175.226 89.1197 175.61C89.5378 175.994 90.052 176.186 90.6622 176.186C91.5436 176.186 92.1707 175.808 92.5436 175.051H95.1031C94.8319 175.955 94.3121 176.7 93.5437 177.288C92.7753 177.864 91.8317 178.153 90.713 178.153C89.809 178.153 88.9954 177.955 88.2722 177.559C87.5603 177.152 87.001 176.582 86.5942 175.847C86.1987 175.113 86.0009 174.265 86.0009 173.305C86.0009 172.333 86.1987 171.48 86.5942 170.745C86.9897 170.011 87.5434 169.446 88.2553 169.05C88.9672 168.655 89.7864 168.457 90.713 168.457C91.6057 168.457 92.4024 168.649 93.103 169.033C93.8149 169.418 94.3629 169.966 94.7471 170.678C95.1426 171.378 95.3404 172.186 95.3404 173.101ZM92.8826 172.423C92.8713 171.813 92.651 171.327 92.2216 170.966C91.7922 170.593 91.2667 170.406 90.6452 170.406C90.0576 170.406 89.5604 170.587 89.1536 170.949C88.7581 171.299 88.5152 171.791 88.4248 172.423H92.8826ZM108.734 168.474C109.887 168.474 110.813 168.83 111.514 169.542C112.226 170.243 112.582 171.226 112.582 172.491V178H110.209V172.813C110.209 172.079 110.022 171.519 109.649 171.135C109.276 170.74 108.768 170.542 108.124 170.542C107.48 170.542 106.966 170.74 106.581 171.135C106.208 171.519 106.022 172.079 106.022 172.813V178H103.649V172.813C103.649 172.079 103.463 171.519 103.09 171.135C102.717 170.74 102.208 170.542 101.564 170.542C100.909 170.542 100.389 170.74 100.005 171.135C99.6319 171.519 99.4454 172.079 99.4454 172.813V178H97.0724V168.61H99.4454V169.745C99.7505 169.35 100.14 169.039 100.615 168.813C101.101 168.587 101.632 168.474 102.208 168.474C102.943 168.474 103.598 168.632 104.174 168.949C104.751 169.254 105.197 169.694 105.514 170.271C105.819 169.728 106.259 169.293 106.836 168.966C107.423 168.638 108.056 168.474 108.734 168.474Z" fill="white"/>
<rect width="300" height="45" transform="translate(20 85)" fill="#25438E"/>
<path d="M62.8476 111.746H66.9834V113H61.3052V101.186H62.8476V111.746ZM72.6725 113.153C71.8024 113.153 71.0114 112.955 70.2995 112.559C69.5989 112.164 69.0452 111.604 68.6384 110.881C68.2429 110.147 68.0452 109.299 68.0452 108.339C68.0452 107.39 68.2486 106.553 68.6554 105.83C69.0735 105.096 69.6385 104.536 70.3504 104.152C71.0623 103.757 71.8589 103.559 72.7403 103.559C73.6217 103.559 74.4184 103.757 75.1303 104.152C75.8422 104.536 76.4015 105.09 76.8083 105.813C77.2264 106.536 77.4355 107.378 77.4355 108.339C77.4355 109.299 77.2208 110.147 76.7914 110.881C76.3733 111.604 75.8026 112.164 75.0794 112.559C74.3562 112.955 73.5539 113.153 72.6725 113.153ZM72.6725 111.797C73.2262 111.797 73.746 111.667 74.2319 111.407C74.7178 111.147 75.1077 110.757 75.4015 110.237C75.7066 109.717 75.8591 109.085 75.8591 108.339C75.8591 107.593 75.7122 106.96 75.4184 106.44C75.1246 105.921 74.7404 105.536 74.2658 105.288C73.7912 105.028 73.2771 104.898 72.7234 104.898C72.1584 104.898 71.6386 105.028 71.164 105.288C70.7007 105.536 70.3278 105.921 70.0453 106.44C69.7628 106.96 69.6215 107.593 69.6215 108.339C69.6215 109.096 69.7571 109.734 70.0283 110.254C70.3108 110.774 70.6837 111.164 71.147 111.424C71.6103 111.672 72.1188 111.797 72.6725 111.797ZM81.006 105.22C81.2772 104.689 81.6614 104.276 82.1586 103.983C82.6671 103.689 83.2829 103.542 84.0061 103.542V105.135H83.5993C81.8704 105.135 81.006 106.073 81.006 107.949V113H79.4635V103.711H81.006V105.22ZM94.2616 108C94.2616 108.294 94.2447 108.604 94.2108 108.932H86.7867C86.8432 109.847 87.1539 110.565 87.7189 111.085C88.2952 111.593 88.9902 111.847 89.8038 111.847C90.4705 111.847 91.0242 111.695 91.4649 111.39C91.9169 111.073 92.2333 110.655 92.4141 110.135H94.0752C93.8266 111.028 93.3294 111.757 92.5836 112.322C91.8378 112.876 90.9112 113.153 89.8038 113.153C88.9224 113.153 88.1314 112.955 87.4308 112.559C86.7415 112.164 86.1991 111.604 85.8036 110.881C85.4081 110.147 85.2103 109.299 85.2103 108.339C85.2103 107.378 85.4024 106.536 85.7866 105.813C86.1708 105.09 86.7076 104.536 87.3969 104.152C88.0975 103.757 88.8998 103.559 89.8038 103.559C90.6852 103.559 91.4649 103.751 92.1429 104.135C92.8209 104.519 93.3407 105.05 93.7023 105.728C94.0752 106.395 94.2616 107.152 94.2616 108ZM92.6683 107.678C92.6683 107.09 92.5384 106.587 92.2785 106.169C92.0186 105.74 91.6626 105.418 91.2106 105.203C90.7699 104.977 90.2784 104.864 89.736 104.864C88.9563 104.864 88.2896 105.113 87.7359 105.61C87.1935 106.107 86.8827 106.796 86.8036 107.678H92.6683ZM107.468 103.542C108.191 103.542 108.835 103.694 109.4 104C109.965 104.293 110.411 104.74 110.739 105.339C111.067 105.937 111.231 106.666 111.231 107.525V113H109.705V107.745C109.705 106.819 109.473 106.113 109.01 105.627C108.558 105.13 107.942 104.881 107.163 104.881C106.36 104.881 105.722 105.141 105.247 105.661C104.773 106.169 104.535 106.909 104.535 107.881V113H103.01V107.745C103.01 106.819 102.778 106.113 102.315 105.627C101.863 105.13 101.247 104.881 100.467 104.881C99.665 104.881 99.0266 105.141 98.552 105.661C98.0774 106.169 97.8401 106.909 97.8401 107.881V113H96.2976V103.711H97.8401V105.05C98.1452 104.565 98.552 104.192 99.0605 103.932C99.5803 103.672 100.151 103.542 100.772 103.542C101.552 103.542 102.241 103.717 102.84 104.067C103.439 104.418 103.886 104.932 104.179 105.61C104.439 104.954 104.869 104.446 105.468 104.084C106.066 103.723 106.733 103.542 107.468 103.542Z" fill="white"/>
<rect x="0.5" y="0.5" width="339" height="344" rx="4.5" stroke="#7B61FF" stroke-dasharray="10 5"/>
</svg>
