<svg viewBox="0 0 50 50" xmlns="http://www.w3.org/2000/svg">
<g clip-path="url(#clip0)">
<path d="M25.0013 28.9323C23.3104 28.9323 21.6195 28.562 20.3024 27.8268L2.27691 17.7502C0.825937 16.9377 0 15.7437 0 14.4669C0 13.19 0.831517 11.9905 2.27691 11.1835L20.3024 1.10688C22.9365 -0.368961 27.0662 -0.368961 29.7058 1.10688L47.7258 11.1835C49.1767 11.9961 50.0027 13.19 50.0027 14.4669C50.0027 15.7437 49.1711 16.9432 47.7258 17.7502L29.7002 27.8268C28.3832 28.562 26.6923 28.9323 25.0013 28.9323ZM25.0013 2.21238C23.6899 2.21238 22.3728 2.48323 21.3962 3.03045L3.3763 13.1071C2.65081 13.5161 2.23226 14.0081 2.23226 14.4669C2.23226 14.9256 2.65081 15.4176 3.3763 15.8266L21.3962 25.9033C23.3495 26.9977 26.6532 26.9977 28.6064 25.9033L46.6264 15.8266C47.3519 15.4176 47.7704 14.9256 47.7704 14.4669C47.7704 14.0081 47.3519 13.5161 46.6264 13.1071L28.6064 3.03045C27.6298 2.48323 26.3128 2.21238 25.0013 2.21238Z"/>
<path d="M25.0014 39.5009C23.3104 39.5009 21.6195 39.1306 20.3024 38.3954L2.27693 28.3243C0.825965 27.5118 -0.00555274 26.3178 2.79113e-05 25.041C2.79113e-05 23.7641 0.831545 22.5647 2.27693 21.7576L7.63436 18.817C8.17569 18.5185 8.85095 18.712 9.1523 19.2481C9.45366 19.7843 9.25833 20.4531 8.71701 20.7516L3.36516 23.6867C2.64526 24.0902 2.22671 24.5877 2.22671 25.041C2.22671 25.4998 2.64526 25.9917 3.37074 26.4007L21.3907 36.4774C23.3439 37.5718 26.6477 37.5718 28.6009 36.4774L46.6208 26.4007C47.3463 25.9917 47.7648 25.4998 47.7648 25.041C47.7648 24.5822 47.3463 24.0902 46.6208 23.6812L41.2801 20.7461C40.7388 20.4476 40.5435 19.7788 40.8448 19.2426C41.1462 18.7065 41.8214 18.5185 42.3628 18.8115L47.7146 21.7466C49.1712 22.5591 50.0027 23.7586 50.0027 25.0354C50.0027 26.3123 49.1712 27.5118 47.7258 28.3188L29.7003 38.3954C28.3832 39.1361 26.6923 39.5009 25.0014 39.5009Z"/>
<path d="M25.0013 49.8705C23.3104 49.8705 21.6195 49.5002 20.3024 48.765L2.27691 38.6884C0.825937 37.8758 0 36.6819 0 35.405C0 34.1282 0.831517 32.9342 2.27691 32.1217L7.49482 29.2971C8.03614 29.0042 8.7114 29.2032 9.00717 29.7393C9.30295 30.2755 9.10205 30.9443 8.56072 31.2373L3.35397 34.0508C2.63965 34.4488 2.2211 34.9463 2.2211 35.3995C2.2211 35.8528 2.63965 36.3502 3.36513 36.7593L21.3851 46.8359C23.3383 47.9304 26.642 47.9304 28.5953 46.8359L46.6264 36.7648C47.3518 36.3558 47.7704 35.8638 47.7704 35.405C47.7704 34.9463 47.3518 34.4543 46.6264 34.0453L41.7042 31.0273C41.1796 30.7067 41.0178 30.0268 41.3415 29.5072C41.6652 28.9876 42.3516 28.8273 42.8762 29.1479L47.7592 32.1438C49.1711 32.9287 49.9971 34.1282 49.9971 35.405C49.9971 36.6819 49.1656 37.8814 47.7202 38.6884L29.7002 48.765C28.3832 49.5057 26.6923 49.8705 25.0013 49.8705Z"/>
</g>
<defs>
<clipPath id="clip0">
<rect width="50" height="50" fill="white"/>
</clipPath>
</defs>
</svg>
