<svg viewBox="0 0 25 26" xmlns="http://www.w3.org/2000/svg">
<g clip-path="url(#clip0_1914_1976)">
<path d="M21.4978 8.93427L22.3514 9.78783V8.58072V5.42191C22.3514 3.13515 20.4894 1.2732 18.2027 1.2732H15.9675C15.8913 1.2732 15.8398 1.21619 15.8398 1.15063C15.8398 1.07976 15.8967 1.02295 15.9675 1.02295H18.2027C20.6257 1.02295 22.6019 2.99828 22.6067 5.42236V8.58072V9.78783L23.4603 8.93427L24.287 8.10757C24.3367 8.05789 24.413 8.05789 24.4627 8.10757C24.5124 8.15726 24.5124 8.23361 24.4627 8.2833L22.5695 10.1765C22.5469 10.1991 22.5113 10.2138 22.4791 10.2138C22.4439 10.2138 22.4127 10.2006 22.3886 10.1765L20.4954 8.2833C20.4457 8.23361 20.4457 8.15726 20.4954 8.10757C20.5451 8.05789 20.6214 8.05789 20.6711 8.10757L21.4978 8.93427Z" fill="#172A59" stroke="#172A59"/>
<path d="M12.1862 12.1324V1.19653C12.1862 0.849517 11.9055 0.568848 11.5585 0.568848H0.627679C0.28067 0.568848 0 0.849517 0 1.19653V12.1324C0 12.4794 0.28067 12.7601 0.627679 12.7601H11.5636C11.9055 12.755 12.1862 12.4743 12.1862 12.1324ZM10.9359 11.5048H1.25026V1.82421H10.9359V11.5048Z" fill="#172A59"/>
<path d="M6.7922 25.477H9.02735C9.37436 25.477 9.65503 25.1963 9.65503 24.8493C9.65503 24.5023 9.37436 24.2267 9.02735 24.2267H6.7922C4.78159 24.2267 3.1435 22.5887 3.1435 20.578V17.4192L3.9702 18.2459C4.09267 18.3684 4.25087 18.4296 4.41417 18.4296C4.57746 18.4296 4.73566 18.3684 4.85813 18.2459C5.10308 18.001 5.10308 17.608 4.85813 17.3631L2.96489 15.4698C2.84752 15.3525 2.68932 15.2861 2.52092 15.2861C2.35762 15.2861 2.19433 15.3525 2.07695 15.4698L0.183711 17.3631C-0.061237 17.608 -0.061237 18.001 0.183711 18.2459C0.428659 18.4909 0.821596 18.4909 1.06654 18.2459L1.89324 17.4192V20.578C1.89324 23.2776 4.09267 25.477 6.7922 25.477Z" fill="#172A59"/>
<path d="M13.4314 25.4259H24.3673C24.7143 25.4259 24.995 25.1452 24.995 24.7982V13.8674C24.995 13.5204 24.7143 13.2397 24.3673 13.2397H13.4314C13.0844 13.2397 12.8037 13.5204 12.8037 13.8674V24.8033C12.8088 25.1503 13.0895 25.4259 13.4314 25.4259ZM14.0591 14.4951H23.7447V24.1757H14.0591V14.4951Z" fill="#172A59"/>
</g>
<defs>
<clipPath id="clip0_1914_1976">
<rect width="25" height="25" transform="translate(0 0.5)"/>
</clipPath>
</defs>
</svg>
