<svg viewBox="0 0 25 26" xmlns="http://www.w3.org/2000/svg">
<path d="M6.23633 25.2635C6.31122 25.3385 6.40016 25.3979 6.49806 25.4385C6.59595 25.4791 6.70089 25.5 6.80687 25.5C6.91284 25.5 7.01778 25.4791 7.11568 25.4385C7.21357 25.3979 7.30251 25.3385 7.3774 25.2635L19.0704 13.5704C19.1454 13.4956 19.2049 13.4066 19.2455 13.3087C19.2861 13.2108 19.307 13.1059 19.307 12.9999C19.307 12.8939 19.2861 12.789 19.2455 12.6911C19.2049 12.5932 19.1454 12.5043 19.0704 12.4294L7.3774 0.736326C7.30248 0.661401 7.21353 0.601968 7.11564 0.561419C7.01775 0.520871 6.91282 0.5 6.80687 0.5C6.70091 0.5 6.59599 0.520871 6.49809 0.561419C6.4002 0.601968 6.31125 0.661401 6.23633 0.736326C6.1614 0.81125 6.10197 0.900198 6.06142 0.998092C6.02087 1.09599 6 1.20091 6 1.30687C6 1.41282 6.02087 1.51775 6.06142 1.61564C6.10197 1.71353 6.1614 1.80248 6.23633 1.87741L17.3568 13.0019L6.23633 24.1264C6.08613 24.2775 6.00183 24.4819 6.00183 24.695C6.00183 24.908 6.08613 25.1124 6.23633 25.2635Z" fill="#0A3DFA"/>
</svg>
