<svg viewBox="0 0 25 26" xmlns="http://www.w3.org/2000/svg">
<g clip-path="url(#clip0_2003_4758)">
<path d="M12.5 0.5C5.59615 0.5 0 6.09615 0 13C0 19.9038 5.59615 25.5 12.5 25.5C19.4038 25.5 25 19.9038 25 13C25 6.09615 19.4038 0.5 12.5 0.5ZM12.5 2.42308C18.3317 2.42308 23.0769 7.16827 23.0769 13C23.0769 18.8317 18.3317 23.5769 12.5 23.5769C6.66827 23.5769 1.92308 18.8317 1.92308 13C1.92308 7.16827 6.66827 2.42308 12.5 2.42308Z"/>
<path d="M10.4606 17.7606L10.4615 17.7616L18.626 9.59812L17.2654 8.23755L10.4606 15.0433L7.73462 12.3174L6.375 13.677L10.4596 17.7616L10.4606 17.7606Z"/>
</g>
<defs>
<clipPath id="clip0_2003_4758">
<rect width="25" height="25" fill="white" transform="translate(0 0.5)"/>
</clipPath>
</defs>
</svg>
