<svg viewBox="0 0 25 26" xmlns="http://www.w3.org/2000/svg">
<path d="M12.5 0.5C5.59615 0.5 0 6.09615 0 13C0 19.9038 5.59615 25.5 12.5 25.5C19.4038 25.5 25 19.9038 25 13C25 6.09615 19.4038 0.5 12.5 0.5ZM12.5 2.42308C18.3317 2.42308 23.0769 7.16827 23.0769 13C23.0769 18.8317 18.3317 23.5769 12.5 23.5769C6.66827 23.5769 1.92308 18.8317 1.92308 13C1.92308 7.16827 6.66827 2.42308 12.5 2.42308Z"/>
<path d="M13.1848 13.25L16.837 9.37772C17.0326 9.1712 17.0326 8.8442 16.837 8.65489C16.6413 8.44837 16.3315 8.44837 16.1522 8.65489L12.5 12.5272L8.83152 8.65489C8.63587 8.44837 8.32609 8.44837 8.14674 8.65489C7.95109 8.86141 7.95109 9.18841 8.14674 9.37772L11.7989 13.25L8.14674 17.1223C7.95109 17.3288 7.95109 17.6558 8.14674 17.8451C8.24457 17.9484 8.375 18 8.48913 18C8.60326 18 8.7337 17.9484 8.83152 17.8451L12.5 13.9728L16.1685 17.8451C16.2663 17.9484 16.3967 18 16.5109 18C16.625 18 16.7554 17.9484 16.8533 17.8451C17.0489 17.6386 17.0489 17.3116 16.8533 17.1223L13.1848 13.25Z" stroke="#0A3DFA"/>
</svg>
