<svg viewBox="0 0 25 25" xmlns="http://www.w3.org/2000/svg">
<path d="M4.55801 21.0069H19.1644C21.8577 21.0069 24.3094 18.5552 24.3094 15.8619C24.3094 13.2721 22.9627 11.7528 20.5801 10.8895C21.0635 8.9558 20.7528 7.16022 19.3025 5.70994C18.3702 4.77762 17.0925 4.19061 15.6768 4.19061C13.5704 4.19061 12.0511 5.29558 11.0152 7.05663C9.28867 6.40055 7.49309 6.60773 6.14641 7.95442C4.86878 9.23204 4.69613 10.6478 5.00691 12.2707C2.55525 12.5124 0.690608 14.0663 0.690608 16.6561C0.690608 18.9351 2.10635 21.0069 4.55801 21.0069ZM14.3992 9.30111V14.0663H17.9213L12.5 19.5566L7.11326 14.0663H10.6354V9.30111H14.3992ZM13.7086 9.99171H11.326V14.7569H8.77072L12.5 18.5552L16.2638 14.7569H13.7086V9.99171ZM19.1644 21.6975H4.55801C1.72652 21.6975 0 19.3149 0 16.6561C0 14.1699 1.72652 12.0981 4.21271 11.6492C4.04006 10.0953 4.52348 8.6105 5.66298 7.47099C6.97514 6.12431 8.94337 5.67541 10.7389 6.2279C11.8094 4.53591 13.6395 3.5 15.6768 3.5C17.2652 3.5 18.75 4.15608 19.7859 5.22652C21.1671 6.60773 21.7887 8.57597 21.4088 10.4751C23.7224 11.4075 25 13.3757 25 15.8619C25 18.9351 22.203 21.6975 19.1644 21.6975Z"/>
</svg>
