<svg viewBox="0 0 50 50" xmlns="http://www.w3.org/2000/svg">
<path fill-rule="evenodd" clip-rule="evenodd" d="M18.2125 31.7875C17.9195 31.4946 17.5221 31.33 17.1078 31.33C16.6935 31.33 16.2961 31.4946 16.0031 31.7875L3.20312 44.5875V35.9375C3.20312 35.5231 3.0385 35.1257 2.74548 34.8326C2.45245 34.5396 2.05503 34.375 1.64062 34.375C1.22622 34.375 0.828796 34.5396 0.535771 34.8326C0.242745 35.1257 0.078125 35.5231 0.078125 35.9375V48.3594C0.078125 48.7738 0.242745 49.1712 0.535771 49.4642C0.828796 49.7573 1.22622 49.9219 1.64062 49.9219H14.0625C14.4769 49.9219 14.8743 49.7573 15.1674 49.4642C15.4604 49.1712 15.625 48.7738 15.625 48.3594C15.625 47.945 15.4604 47.5475 15.1674 47.2545C14.8743 46.9615 14.4769 46.7969 14.0625 46.7969H5.4125L18.2125 33.9969C18.5054 33.7039 18.67 33.3065 18.67 32.8922C18.67 32.4779 18.5054 32.0805 18.2125 31.7875V31.7875ZM31.7875 31.7875C32.0805 31.4946 32.4779 31.33 32.8922 31.33C33.3065 31.33 33.7039 31.4946 33.9969 31.7875L46.7969 44.5875V35.9375C46.7969 35.5231 46.9615 35.1257 47.2545 34.8326C47.5475 34.5396 47.945 34.375 48.3594 34.375C48.7738 34.375 49.1712 34.5396 49.4642 34.8326C49.7573 35.1257 49.9219 35.5231 49.9219 35.9375V48.3594C49.9219 48.7738 49.7573 49.1712 49.4642 49.4642C49.1712 49.7573 48.7738 49.9219 48.3594 49.9219H35.9375C35.5231 49.9219 35.1257 49.7573 34.8326 49.4642C34.5396 49.1712 34.375 48.7738 34.375 48.3594C34.375 47.945 34.5396 47.5475 34.8326 47.2545C35.1257 46.9615 35.5231 46.7969 35.9375 46.7969H44.5875L31.7875 33.9969C31.4946 33.7039 31.33 33.3065 31.33 32.8922C31.33 32.4779 31.4946 32.0805 31.7875 31.7875V31.7875ZM31.7875 18.2125C32.0805 18.5054 32.4779 18.67 32.8922 18.67C33.3065 18.67 33.7039 18.5054 33.9969 18.2125L46.7969 5.4125V14.0625C46.7969 14.4769 46.9615 14.8743 47.2545 15.1674C47.5475 15.4604 47.945 15.625 48.3594 15.625C48.7738 15.625 49.1712 15.4604 49.4642 15.1674C49.7573 14.8743 49.9219 14.4769 49.9219 14.0625V1.64062C49.9219 1.22622 49.7573 0.828796 49.4642 0.535771C49.1712 0.242745 48.7738 0.078125 48.3594 0.078125H35.9375C35.5231 0.078125 35.1257 0.242745 34.8326 0.535771C34.5396 0.828796 34.375 1.22622 34.375 1.64062C34.375 2.05503 34.5396 2.45245 34.8326 2.74548C35.1257 3.0385 35.5231 3.20312 35.9375 3.20312H44.5875L31.7875 16.0031C31.4946 16.2961 31.33 16.6935 31.33 17.1078C31.33 17.5221 31.4946 17.9195 31.7875 18.2125V18.2125ZM18.2125 18.2125C17.9195 18.5054 17.5221 18.67 17.1078 18.67C16.6935 18.67 16.2961 18.5054 16.0031 18.2125L3.20312 5.4125V14.0625C3.20312 14.4769 3.0385 14.8743 2.74548 15.1674C2.45245 15.4604 2.05503 15.625 1.64062 15.625C1.22622 15.625 0.828796 15.4604 0.535771 15.1674C0.242745 14.8743 0.078125 14.4769 0.078125 14.0625V1.64062C0.078125 1.22622 0.242745 0.828796 0.535771 0.535771C0.828796 0.242745 1.22622 0.078125 1.64062 0.078125H14.0625C14.4769 0.078125 14.8743 0.242745 15.1674 0.535771C15.4604 0.828796 15.625 1.22622 15.625 1.64062C15.625 2.05503 15.4604 2.45245 15.1674 2.74548C14.8743 3.0385 14.4769 3.20312 14.0625 3.20312H5.4125L18.2125 16.0031C18.5054 16.2961 18.67 16.6935 18.67 17.1078C18.67 17.5221 18.5054 17.9195 18.2125 18.2125V18.2125Z"/>
</svg>
