<svg viewBox="0 0 50 50" xmlns="http://www.w3.org/2000/svg">
<path d="M24.9894 15.9082C24.764 15.9082 24.56 15.8437 24.3883 15.7149L18.9675 11.7111C18.7098 11.5179 18.5596 11.2066 18.5596 10.8845V3.95023C18.5596 3.39205 19.0211 2.93048 19.5793 2.93048H30.4102C30.9683 2.93048 31.4299 3.39205 31.4299 3.95023V10.8845C31.4299 11.2173 31.2796 11.5179 31.0113 11.7111L25.5905 15.7149C25.4187 15.833 25.2041 15.9082 24.9894 15.9082ZM20.5991 10.38L25.0001 13.6218L29.4119 10.3693V4.96998H20.5991V10.38Z"/>
<path d="M30.4102 3.19882C30.8288 3.19882 31.1616 3.53158 31.1616 3.95022V10.8845C31.1616 11.1314 31.0542 11.3461 30.8503 11.4964L25.4403 15.5002C25.3114 15.5968 25.1504 15.6398 24.9894 15.6398C24.8713 15.6398 24.6996 15.6183 24.5493 15.5002L19.1285 11.4964C18.9353 11.3461 18.828 11.1207 18.828 10.8845V3.95022C18.828 3.53158 19.1607 3.19882 19.5794 3.19882H30.4102ZM25.0001 13.9545L25.3222 13.7184L29.4656 10.6591L29.6803 10.4981V10.2297V5.23832V4.70161H29.1436H20.8675H20.3308V5.23832V10.2405V10.5088L20.5454 10.6698L24.6781 13.7184L25.0001 13.9545ZM30.4102 2.66211H19.5794C18.8709 2.66211 18.2913 3.24176 18.2913 3.95022V10.8845C18.2913 11.2924 18.4845 11.6789 18.8065 11.9257L24.2273 15.9296C24.4527 16.1014 24.7211 16.1765 24.9894 16.1765C25.2578 16.1765 25.5261 16.0906 25.7515 15.9296L31.1723 11.9257C31.5051 11.6789 31.6983 11.3032 31.6983 10.8845V3.95022C31.6983 3.24176 31.1187 2.66211 30.4102 2.66211ZM25.0001 13.289L20.8675 10.2405V5.23832H29.1436V10.2297L25.0001 13.289Z" fill="white"/>
<path d="M5.38853 47.0696C2.56543 47.0696 0.268311 44.7724 0.268311 41.9493V13.5251C0.268311 10.702 2.56543 8.40491 5.38853 8.40491H14.9849C15.5431 8.40491 16.0047 8.86648 16.0047 9.42466C16.0047 9.98284 15.5431 10.4444 14.9849 10.4444H5.38853C3.69253 10.4444 2.30781 11.8291 2.30781 13.5251V41.9493C2.30781 43.6454 3.69253 45.0301 5.38853 45.0301H44.6114C46.3074 45.0301 47.6921 43.6454 47.6921 41.9493V13.5251C47.6921 11.8291 46.3074 10.4444 44.6114 10.4444H35.0042C34.4461 10.4444 33.9845 9.98284 33.9845 9.42466C33.9845 8.86648 34.4461 8.40491 35.0042 8.40491H44.6114C47.4345 8.40491 49.7316 10.702 49.7316 13.5251V41.9493C49.7316 44.7724 47.4345 47.0696 44.6114 47.0696H5.38853Z"/>
<path d="M44.6114 8.67325C47.2842 8.67325 49.4633 10.8523 49.4633 13.5251V41.9493C49.4633 44.6221 47.2842 46.8012 44.6114 46.8012H5.38858C2.71576 46.8012 0.536711 44.6221 0.536711 41.9493V13.5251C0.536711 10.8523 2.71576 8.67325 5.38858 8.67325H14.985C15.4036 8.67325 15.7364 9.00601 15.7364 9.42464C15.7364 9.84328 15.4036 10.176 14.985 10.176H5.38858C3.54229 10.176 2.0395 11.6788 2.0395 13.5251V41.9493C2.0395 43.7956 3.54229 45.2984 5.38858 45.2984H44.6114C46.4577 45.2984 47.9605 43.7956 47.9605 41.9493V13.5251C47.9605 11.6788 46.4577 10.176 44.6114 10.176H35.0043C34.5857 10.176 34.2529 9.84328 34.2529 9.42464C34.2529 9.00601 34.5857 8.67325 35.0043 8.67325H44.6114ZM44.6114 8.13654H35.0043C34.2958 8.13654 33.7162 8.71618 33.7162 9.42464C33.7162 10.1331 34.2958 10.7127 35.0043 10.7127H44.6114C46.1679 10.7127 47.4238 11.9794 47.4238 13.5251V41.9493C47.4238 43.5058 46.1572 44.7617 44.6114 44.7617H5.38858C3.83212 44.7617 2.57621 43.4951 2.57621 41.9493V13.5251C2.57621 11.9687 3.84285 10.7127 5.38858 10.7127H14.985C15.6934 10.7127 16.2731 10.1331 16.2731 9.42464C16.2731 8.71618 15.6934 8.13654 14.985 8.13654H5.38858C2.4152 8.13654 0 10.5517 0 13.5251V41.9493C0 44.9227 2.4152 47.3379 5.38858 47.3379H44.6114C47.5848 47.3379 50 44.9227 50 41.9493V13.5251C50 10.5517 47.5848 8.13654 44.6114 8.13654Z" fill="white"/>
<path d="M13.8257 25.8588C11.4964 25.8588 9.59644 23.9588 9.59644 21.6295C9.59644 19.3002 11.4964 17.4002 13.8257 17.4002C16.155 17.4002 18.055 19.3002 18.055 21.6295C18.055 23.9588 16.155 25.8588 13.8257 25.8588ZM13.8257 19.4397C12.6235 19.4397 11.6359 20.4273 11.6359 21.6295C11.6359 22.8317 12.6235 23.8193 13.8257 23.8193C15.0279 23.8193 16.0155 22.8317 16.0155 21.6295C16.0155 20.4273 15.0279 19.4397 13.8257 19.4397Z"/>
<path d="M13.8258 17.6685C16.0048 17.6685 17.7867 19.4504 17.7867 21.6295C17.7867 23.8085 16.0048 25.5904 13.8258 25.5904C11.6467 25.5904 9.86484 23.8085 9.86484 21.6295C9.86484 19.4504 11.6467 17.6685 13.8258 17.6685ZM13.8258 24.0876C15.1783 24.0876 16.2839 22.982 16.2839 21.6295C16.2839 20.277 15.1783 19.1713 13.8258 19.1713C12.4733 19.1713 11.3676 20.277 11.3676 21.6295C11.3676 22.982 12.4733 24.0876 13.8258 24.0876ZM13.8258 17.1318C11.3462 17.1318 9.32812 19.1499 9.32812 21.6295C9.32812 24.1091 11.3462 26.1271 13.8258 26.1271C16.3054 26.1271 18.3234 24.1091 18.3234 21.6295C18.3234 19.1499 16.3054 17.1318 13.8258 17.1318ZM13.8258 23.5509C12.7631 23.5509 11.9043 22.6922 11.9043 21.6295C11.9043 20.5668 12.7631 19.708 13.8258 19.708C14.8885 19.708 15.7472 20.5668 15.7472 21.6295C15.7472 22.6922 14.8885 23.5509 13.8258 23.5509Z" fill="white"/>
<path d="M7.32084 38.0636C7.28863 38.0636 7.25643 38.0636 7.22423 38.0636C6.95587 38.0421 6.70899 37.9133 6.5265 37.6986C6.35476 37.4947 6.26888 37.2263 6.29035 36.958C6.53724 34.3066 7.13835 32.1598 8.08297 30.6033C9.38181 28.4565 11.3676 27.3186 13.815 27.3186C16.2624 27.3186 18.2375 28.4457 19.5471 30.5926C20.5025 32.192 21.1036 34.3281 21.3397 36.9472C21.3612 37.2156 21.2861 37.4839 21.1036 37.6879C20.9318 37.8918 20.6849 38.0207 20.4059 38.0529H20.3844H20.3629C20.3522 38.0529 20.3522 38.0529 20.3092 38.0529C19.794 38.0529 19.3539 37.645 19.3002 37.1297C18.8279 31.9666 16.9709 29.3474 13.8043 29.3474C10.6377 29.3474 8.80216 31.9773 8.32985 37.1404C8.28692 37.6664 7.84681 38.0636 7.32084 38.0636Z"/>
<path d="M13.8257 27.587C16.1658 27.587 18.0765 28.6712 19.3216 30.7321C20.2555 32.2993 20.8459 34.3925 21.0821 36.9794C21.1035 37.1727 21.0391 37.3766 20.9103 37.5269C20.7815 37.6772 20.599 37.7738 20.3951 37.7952H20.3521H20.3307H20.3199C19.9442 37.7952 19.6115 37.4947 19.5793 37.1082C19.3431 34.5213 18.7527 32.5462 17.8296 31.2044C16.8528 29.7982 15.5003 29.0791 13.8257 29.0791C12.1512 29.0791 10.7987 29.7982 9.82186 31.2044C8.89872 32.5355 8.30834 34.5213 8.07218 37.1082C8.03998 37.4947 7.70722 37.7952 7.33152 37.7952C7.31005 37.7952 7.28859 37.7952 7.26712 37.7952C6.84848 37.7523 6.54792 37.3981 6.58013 36.9794C6.81628 34.3603 7.4174 32.2671 8.34054 30.7321C9.57497 28.6819 11.4749 27.587 13.8257 27.587ZM13.8257 27.0503C11.2817 27.0503 9.22075 28.2311 7.86823 30.4638C6.89142 32.0739 6.27957 34.2529 6.03268 36.9365C5.96828 37.645 6.49425 38.2675 7.20271 38.3319C7.24565 38.3319 7.27785 38.3319 7.32079 38.3319C7.97558 38.3319 8.53376 37.8274 8.59816 37.1619C9.05973 32.1598 10.8201 29.6265 13.8257 29.6265C16.8313 29.6265 18.5917 32.1598 19.0533 37.1619C19.1177 37.8274 19.6759 38.3319 20.3307 38.3319C20.3736 38.3319 20.4058 38.3319 20.4487 38.3212C21.1572 38.2568 21.6832 37.6342 21.6188 36.9258C21.3719 34.2422 20.7493 32.0739 19.7832 30.453C18.4307 28.2311 16.3697 27.0503 13.8257 27.0503Z" fill="white"/>
<path d="M26.5456 21.8442C25.9875 21.8442 25.5259 21.3826 25.5259 20.8244C25.5259 20.2662 25.9875 19.8047 26.5456 19.8047H40.9295C41.4877 19.8047 41.9492 20.2662 41.9492 20.8244C41.9492 21.3826 41.4877 21.8442 40.9295 21.8442H26.5456Z"/>
<path d="M40.9295 20.073C41.3482 20.073 41.6809 20.4058 41.6809 20.8244C41.6809 21.2431 41.3482 21.5758 40.9295 21.5758H26.5457C26.127 21.5758 25.7943 21.2431 25.7943 20.8244C25.7943 20.4058 26.127 20.073 26.5457 20.073H40.9295ZM40.9295 19.5363H26.5457C25.8372 19.5363 25.2576 20.116 25.2576 20.8244C25.2576 21.5329 25.8372 22.1125 26.5457 22.1125H40.9295C41.638 22.1125 42.2176 21.5329 42.2176 20.8244C42.2176 20.116 41.638 19.5363 40.9295 19.5363Z" fill="white"/>
<path d="M26.5456 31.0649C25.9875 31.0649 25.5259 30.6033 25.5259 30.0451C25.5259 29.4869 25.9875 29.0254 26.5456 29.0254H40.9295C41.4877 29.0254 41.9492 29.4869 41.9492 30.0451C41.9492 30.6033 41.4877 31.0649 40.9295 31.0649H26.5456Z"/>
<path d="M40.9295 29.2937C41.3482 29.2937 41.6809 29.6265 41.6809 30.0451C41.6809 30.4638 41.3482 30.7965 40.9295 30.7965H26.5457C26.127 30.7965 25.7943 30.4638 25.7943 30.0451C25.7943 29.6265 26.127 29.2937 26.5457 29.2937H40.9295ZM40.9295 28.757H26.5457C25.8372 28.757 25.2576 29.3367 25.2576 30.0451C25.2576 30.7536 25.8372 31.3332 26.5457 31.3332H40.9295C41.638 31.3332 42.2176 30.7643 42.2176 30.0451C42.2176 29.3367 41.638 28.757 40.9295 28.757Z" fill="white"/>
<path d="M26.5456 35.6591C25.9875 35.6591 25.5259 35.1975 25.5259 34.6393C25.5259 34.0812 25.9875 33.6196 26.5456 33.6196H33.7376C34.2957 33.6196 34.7573 34.0812 34.7573 34.6393C34.7573 35.1975 34.2957 35.6591 33.7376 35.6591H26.5456Z"/>
<path d="M33.7376 33.8879C34.1562 33.8879 34.489 34.2207 34.489 34.6393C34.489 35.058 34.1562 35.3907 33.7376 35.3907H26.5457C26.127 35.3907 25.7943 35.058 25.7943 34.6393C25.7943 34.2207 26.127 33.8879 26.5457 33.8879H33.7376ZM33.7376 33.3512H26.5457C25.8372 33.3512 25.2576 33.9309 25.2576 34.6393C25.2576 35.3478 25.8372 35.9274 26.5457 35.9274H33.7376C34.4461 35.9274 35.0257 35.3478 35.0257 34.6393C35.0257 33.9309 34.4461 33.3512 33.7376 33.3512Z" fill="white"/>
<path d="M26.5456 26.4384C25.9875 26.4384 25.5259 25.9769 25.5259 25.4187C25.5259 24.8605 25.9875 24.3989 26.5456 24.3989H40.9295C41.4877 24.3989 41.9492 24.8605 41.9492 25.4187C41.9492 25.9769 41.4877 26.4384 40.9295 26.4384H26.5456Z"/>
<path d="M40.9295 24.6673C41.3482 24.6673 41.6809 25 41.6809 25.4187C41.6809 25.8373 41.3482 26.1701 40.9295 26.1701H26.5457C26.127 26.1701 25.7943 25.8373 25.7943 25.4187C25.7943 25 26.127 24.6673 26.5457 24.6673H40.9295ZM40.9295 24.1306H26.5457C25.8372 24.1306 25.2576 24.7102 25.2576 25.4187C25.2576 26.1271 25.8372 26.7068 26.5457 26.7068H40.9295C41.638 26.7068 42.2176 26.1271 42.2176 25.4187C42.2176 24.7102 41.638 24.1306 40.9295 24.1306Z" fill="white"/>
</svg>
