<svg viewBox="0 0 20 20" xmlns="http://www.w3.org/2000/svg">
<path d="M10.0036 20C8.0255 20.0007 6.09161 19.4147 4.44656 18.3162C2.80152 17.2177 1.51923 15.6559 0.761903 13.8285C0.00457713 12.0011 -0.193762 9.99014 0.191975 8.04999C0.577712 6.10984 1.53019 4.32768 2.92894 2.92894C4.32768 1.53019 6.10984 0.577712 8.04999 0.191975C9.99014 -0.193762 12.0011 0.00457713 13.8285 0.761903C15.6559 1.51923 17.2177 2.80152 18.3162 4.44656C19.4147 6.09161 20.0007 8.0255 20 10.0036C19.9962 12.6537 18.9417 15.194 17.0679 17.0679C15.194 18.9417 12.6537 19.9962 10.0036 20V20ZM10.0036 1.45343C8.3124 1.45271 6.65895 1.95356 5.2524 2.89263C3.84585 3.83171 2.74939 5.16681 2.10169 6.72909C1.45399 8.29138 1.28415 10.0106 1.61365 11.6695C1.94315 13.3283 2.7572 14.8521 3.95282 16.0482C5.14844 17.2444 6.67193 18.0591 8.33061 18.3893C9.98928 18.7195 11.7086 18.5504 13.2712 17.9033C14.8337 17.2563 16.1693 16.1604 17.109 14.7542C18.0486 13.3481 18.5502 11.6948 18.5502 10.0036C18.5483 7.73719 17.6473 5.56408 16.0451 3.96112C14.4428 2.35817 12.2701 1.45631 10.0036 1.45343V1.45343Z" fill="white"/>
<path d="M10.0036 7.75645C10.6442 7.75645 11.1634 7.23717 11.1634 6.59661C11.1634 5.95605 10.6442 5.43677 10.0036 5.43677C9.36303 5.43677 8.84375 5.95605 8.84375 6.59661C8.84375 7.23717 9.36303 7.75645 10.0036 7.75645Z" fill="white"/>
<path d="M10.8988 8.64807H9.10107V14.5669H10.8988V8.64807Z"/>
</svg>
