<svg viewBox="0 0 20 20" xmlns="http://www.w3.org/2000/svg">
<path d="M18.2197 1.60355L19.0732 0.75H17.8661H11.875C11.806 0.75 11.75 0.694035 11.75 0.625C11.75 0.555965 11.806 0.5 11.875 0.5H19.375C19.444 0.5 19.5 0.555964 19.5 0.625V8.125C19.5 8.19404 19.444 8.25 19.375 8.25C19.306 8.25 19.25 8.19404 19.25 8.125V2.13388V0.926776L18.3964 1.78033L6.96339 13.2134C6.91457 13.2622 6.83543 13.2622 6.78661 13.2134C6.7378 13.1646 6.7378 13.0854 6.78661 13.0366L18.2197 1.60355ZM15 19.25H15.5V18.75V9.375C15.5 9.30596 15.556 9.25 15.625 9.25C15.694 9.25 15.75 9.30596 15.75 9.375V19.375C15.75 19.444 15.694 19.5 15.625 19.5H0.625C0.555964 19.5 0.5 19.444 0.5 19.375V4.375C0.5 4.30596 0.555964 4.25 0.625 4.25H10.625C10.694 4.25 10.75 4.30596 10.75 4.375C10.75 4.44404 10.694 4.5 10.625 4.5H1.25H0.75V5V18.75V19.25H1.25H15Z" fill="#001028" stroke="white"/>
</svg>
