<svg width="50" height="50" viewBox="0 0 50 50" fill="none" xmlns="http://www.w3.org/2000/svg">
<g clip-path="url(#clip0)">
<path d="M46.0955 45.2394H3.90796C1.75483 45.2394 0.00170898 43.4953 0.00170898 41.3497V8.67686C0.00170898 6.5329 1.75483 4.78723 3.90796 4.78723H46.0955C48.2501 4.78723 50.0017 6.5329 50.0017 8.67686V41.3497C50.0017 43.4953 48.2501 45.2394 46.0955 45.2394ZM3.90796 7.89893C3.47671 7.89893 3.12671 8.24744 3.12671 8.67686V41.3497C3.12671 41.7776 3.47671 42.1277 3.90796 42.1277H46.0955C46.5251 42.1277 46.8767 41.7776 46.8767 41.3497V8.67686C46.8767 8.24744 46.5251 7.89893 46.0955 7.89893H3.90796Z" />
<path d="M37.5012 23.4574C34.0543 23.4574 31.2512 20.6662 31.2512 17.234C31.2512 13.8018 34.0543 11.0106 37.5012 11.0106C40.9481 11.0106 43.7512 13.8018 43.7512 17.234C43.7512 20.6662 40.9481 23.4574 37.5012 23.4574ZM37.5012 14.1223C35.7778 14.1223 34.3762 15.5179 34.3762 17.234C34.3762 18.9501 35.7778 20.3457 37.5012 20.3457C39.2247 20.3457 40.6262 18.9501 40.6262 17.234C40.6262 15.5179 39.2247 14.1223 37.5012 14.1223Z" />
<path d="M1.56363 36.7537C1.12925 36.7537 0.696438 36.5748 0.387063 36.2216C-0.181687 35.576 -0.116062 34.5927 0.533938 34.0263L15.5714 20.9245C17.3167 19.4029 19.8761 19.3718 21.6589 20.8514L32.3933 29.7586C33.0558 30.3094 33.1449 31.2896 32.5933 31.9508C32.0402 32.6105 31.0574 32.6976 30.3918 32.15L19.6574 23.2412C19.0636 22.7495 18.2105 22.7589 17.6292 23.2661L2.59175 36.3679C2.29644 36.6277 1.92925 36.7537 1.56363 36.7537Z" />
<path d="M48.437 36.7538C48.0948 36.7538 47.7511 36.6433 47.462 36.413L38.7604 29.4801C38.187 29.0212 37.387 29.0212 36.8089 29.4801L28.1089 36.413C27.4339 36.9513 26.4495 36.8393 25.912 36.1703C25.3729 35.4982 25.4823 34.5195 26.1558 33.9828L34.8573 27.0499C36.5839 25.6761 38.9917 25.6792 40.7136 27.0515L49.4151 33.9828C50.0886 34.5211 50.1979 35.4997 49.6589 36.1703C49.3495 36.553 48.8964 36.7538 48.437 36.7538Z" />
</g>
<defs>
<clipPath id="clip0">
<rect width="50" height="50" fill="white"/>
</clipPath>
</defs>
</svg>
