<svg viewBox="0 0 50 50" xmlns="http://www.w3.org/2000/svg">
<path d="M13.2783 18.799H36.7217C37.4206 18.799 37.9924 18.2115 37.9924 17.4935V2.21932H12.0076V17.4935C12.0076 18.2115 12.5794 18.799 13.2783 18.799ZM4.76493 0C17.0267 0 29.352 0 41.6773 0L50 7.96345V45.1697C50 47.846 47.8399 50 45.2351 50C31.7662 50 18.2338 50 4.76493 50C2.1601 50 0 47.846 0 45.1697V4.89556C0 2.21932 2.1601 0 4.76493 0ZM40.8513 2.21932H40.1525V17.4935C40.1525 19.4517 38.6277 21.0183 36.7217 21.0183H13.2783C11.3723 21.0183 9.84752 19.3864 9.84752 17.4935V2.21932H4.76493C3.30368 2.21932 2.1601 3.45953 2.1601 4.89556V45.1697C2.1601 46.6057 3.30368 47.7807 4.76493 47.7807H7.49682V33.1593C7.49682 30.0261 10.0381 27.4151 13.0877 27.4151H36.9123C39.9619 27.4151 42.4396 30.0261 42.4396 33.1593V47.7807H45.2351C46.6963 47.7807 47.8399 46.6057 47.8399 45.1697V8.87728L40.8513 2.21932ZM36.9123 29.6345H13.0877C11.1817 29.6345 9.65693 31.201 9.65693 33.1593V47.7807H40.2795V33.1593C40.2795 31.201 38.7548 29.6345 36.9123 29.6345ZM28.5896 3.59008H35.5781V17.4282H28.5896V3.59008ZM33.418 5.8094H30.6862V15.2089H33.418V5.8094Z"/>
</svg>
